<svg width="568" height="860" viewBox="0 0 568 860" fill="none" xmlns="http://www.w3.org/2000/svg">
<rect width="568" height="860" rx="29" fill="white"/>
<path d="M63.3487 559.14C62.4287 559.14 61.602 558.98 60.8687 558.66C60.1487 558.327 59.582 557.873 59.1687 557.3C58.7553 556.713 58.542 556.04 58.5287 555.28H60.4687C60.5353 555.933 60.802 556.487 61.2687 556.94C61.7487 557.38 62.442 557.6 63.3487 557.6C64.2153 557.6 64.8953 557.387 65.3887 556.96C65.8953 556.52 66.1487 555.96 66.1487 555.28C66.1487 554.747 66.002 554.313 65.7087 553.98C65.4153 553.647 65.0487 553.393 64.6087 553.22C64.1687 553.047 63.5753 552.86 62.8287 552.66C61.9087 552.42 61.1687 552.18 60.6087 551.94C60.062 551.7 59.5887 551.327 59.1887 550.82C58.802 550.3 58.6087 549.607 58.6087 548.74C58.6087 547.98 58.802 547.307 59.1887 546.72C59.5753 546.133 60.1153 545.68 60.8087 545.36C61.5153 545.04 62.322 544.88 63.2287 544.88C64.5353 544.88 65.602 545.207 66.4287 545.86C67.2687 546.513 67.742 547.38 67.8487 548.46H65.8487C65.782 547.927 65.502 547.46 65.0087 547.06C64.5153 546.647 63.862 546.44 63.0487 546.44C62.2887 546.44 61.6687 546.64 61.1887 547.04C60.7087 547.427 60.4687 547.973 60.4687 548.68C60.4687 549.187 60.6087 549.6 60.8887 549.92C61.182 550.24 61.5353 550.487 61.9487 550.66C62.3753 550.82 62.9687 551.007 63.7287 551.22C64.6487 551.473 65.3887 551.727 65.9487 551.98C66.5087 552.22 66.9887 552.6 67.3887 553.12C67.7887 553.627 67.9887 554.32 67.9887 555.2C67.9887 555.88 67.8087 556.52 67.4487 557.12C67.0887 557.72 66.5553 558.207 65.8487 558.58C65.142 558.953 64.3087 559.14 63.3487 559.14ZM75.447 559.18C74.4203 559.18 73.487 558.947 72.647 558.48C71.8203 558.013 71.167 557.353 70.687 556.5C70.2203 555.633 69.987 554.633 69.987 553.5C69.987 552.38 70.227 551.393 70.707 550.54C71.2003 549.673 71.867 549.013 72.707 548.56C73.547 548.093 74.487 547.86 75.527 547.86C76.567 547.86 77.507 548.093 78.347 548.56C79.187 549.013 79.847 549.667 80.327 550.52C80.8203 551.373 81.067 552.367 81.067 553.5C81.067 554.633 80.8136 555.633 80.307 556.5C79.8136 557.353 79.1403 558.013 78.287 558.48C77.4336 558.947 76.487 559.18 75.447 559.18ZM75.447 557.58C76.1003 557.58 76.7136 557.427 77.287 557.12C77.8603 556.813 78.3203 556.353 78.667 555.74C79.027 555.127 79.207 554.38 79.207 553.5C79.207 552.62 79.0336 551.873 78.687 551.26C78.3403 550.647 77.887 550.193 77.327 549.9C76.767 549.593 76.1603 549.44 75.507 549.44C74.8403 549.44 74.227 549.593 73.667 549.9C73.1203 550.193 72.6803 550.647 72.347 551.26C72.0136 551.873 71.847 552.62 71.847 553.5C71.847 554.393 72.007 555.147 72.327 555.76C72.6603 556.373 73.1003 556.833 73.647 557.14C74.1936 557.433 74.7936 557.58 75.447 557.58ZM96.6399 547.84C97.4933 547.84 98.2533 548.02 98.9199 548.38C99.5866 548.727 100.113 549.253 100.5 549.96C100.887 550.667 101.08 551.527 101.08 552.54V559H99.2799V552.8C99.2799 551.707 99.0066 550.873 98.4599 550.3C97.9266 549.713 97.1999 549.42 96.2799 549.42C95.3333 549.42 94.5799 549.727 94.0199 550.34C93.4599 550.94 93.1799 551.813 93.1799 552.96V559H91.3799V552.8C91.3799 551.707 91.1066 550.873 90.5599 550.3C90.0266 549.713 89.2999 549.42 88.3799 549.42C87.4333 549.42 86.6799 549.727 86.1199 550.34C85.5599 550.94 85.2799 551.813 85.2799 552.96V559H83.4599V548.04H85.2799V549.62C85.6399 549.047 86.1199 548.607 86.7199 548.3C87.3333 547.993 88.0066 547.84 88.7399 547.84C89.6599 547.84 90.4733 548.047 91.1799 548.46C91.8866 548.873 92.4133 549.48 92.7599 550.28C93.0666 549.507 93.5733 548.907 94.2799 548.48C94.9866 548.053 95.7733 547.84 96.6399 547.84ZM114.065 553.1C114.065 553.447 114.045 553.813 114.005 554.2H105.245C105.312 555.28 105.679 556.127 106.345 556.74C107.025 557.34 107.845 557.64 108.805 557.64C109.592 557.64 110.245 557.46 110.765 557.1C111.299 556.727 111.672 556.233 111.885 555.62H113.845C113.552 556.673 112.965 557.533 112.085 558.2C111.205 558.853 110.112 559.18 108.805 559.18C107.765 559.18 106.832 558.947 106.005 558.48C105.192 558.013 104.552 557.353 104.085 556.5C103.619 555.633 103.385 554.633 103.385 553.5C103.385 552.367 103.612 551.373 104.065 550.52C104.519 549.667 105.152 549.013 105.965 548.56C106.792 548.093 107.739 547.86 108.805 547.86C109.845 547.86 110.765 548.087 111.565 548.54C112.365 548.993 112.979 549.62 113.405 550.42C113.845 551.207 114.065 552.1 114.065 553.1ZM112.185 552.72C112.185 552.027 112.032 551.433 111.725 550.94C111.419 550.433 110.999 550.053 110.465 549.8C109.945 549.533 109.365 549.4 108.725 549.4C107.805 549.4 107.019 549.693 106.365 550.28C105.725 550.867 105.359 551.68 105.265 552.72H112.185ZM121.248 559.18C120.221 559.18 119.288 558.947 118.448 558.48C117.621 558.013 116.968 557.353 116.488 556.5C116.021 555.633 115.788 554.633 115.788 553.5C115.788 552.38 116.028 551.393 116.508 550.54C117.001 549.673 117.668 549.013 118.508 548.56C119.348 548.093 120.288 547.86 121.328 547.86C122.368 547.86 123.308 548.093 124.148 548.56C124.988 549.013 125.648 549.667 126.128 550.52C126.621 551.373 126.868 552.367 126.868 553.5C126.868 554.633 126.614 555.633 126.108 556.5C125.614 557.353 124.941 558.013 124.088 558.48C123.234 558.947 122.288 559.18 121.248 559.18ZM121.248 557.58C121.901 557.58 122.514 557.427 123.088 557.12C123.661 556.813 124.121 556.353 124.468 555.74C124.828 555.127 125.008 554.38 125.008 553.5C125.008 552.62 124.834 551.873 124.488 551.26C124.141 550.647 123.688 550.193 123.128 549.9C122.568 549.593 121.961 549.44 121.308 549.44C120.641 549.44 120.028 549.593 119.468 549.9C118.921 550.193 118.481 550.647 118.148 551.26C117.814 551.873 117.648 552.62 117.648 553.5C117.648 554.393 117.808 555.147 118.128 555.76C118.461 556.373 118.901 556.833 119.448 557.14C119.994 557.433 120.594 557.58 121.248 557.58ZM134.601 547.84C135.934 547.84 137.014 548.247 137.841 549.06C138.667 549.86 139.081 551.02 139.081 552.54V559H137.281V552.8C137.281 551.707 137.007 550.873 136.461 550.3C135.914 549.713 135.167 549.42 134.221 549.42C133.261 549.42 132.494 549.72 131.921 550.32C131.361 550.92 131.081 551.793 131.081 552.94V559H129.261V548.04H131.081V549.6C131.441 549.04 131.927 548.607 132.541 548.3C133.167 547.993 133.854 547.84 134.601 547.84ZM152.054 553.1C152.054 553.447 152.034 553.813 151.994 554.2H143.234C143.3 555.28 143.667 556.127 144.334 556.74C145.014 557.34 145.834 557.64 146.794 557.64C147.58 557.64 148.234 557.46 148.754 557.1C149.287 556.727 149.66 556.233 149.874 555.62H151.834C151.54 556.673 150.954 557.533 150.074 558.2C149.194 558.853 148.1 559.18 146.794 559.18C145.754 559.18 144.82 558.947 143.994 558.48C143.18 558.013 142.54 557.353 142.074 556.5C141.607 555.633 141.374 554.633 141.374 553.5C141.374 552.367 141.6 551.373 142.054 550.52C142.507 549.667 143.14 549.013 143.954 548.56C144.78 548.093 145.727 547.86 146.794 547.86C147.834 547.86 148.754 548.087 149.554 548.54C150.354 548.993 150.967 549.62 151.394 550.42C151.834 551.207 152.054 552.1 152.054 553.1ZM150.174 552.72C150.174 552.027 150.02 551.433 149.714 550.94C149.407 550.433 148.987 550.053 148.454 549.8C147.934 549.533 147.354 549.4 146.714 549.4C145.794 549.4 145.007 549.693 144.354 550.28C143.714 550.867 143.347 551.68 143.254 552.72H150.174ZM164.248 549.54H161.948V559H160.128V549.54H158.708V548.04H160.128V547.26C160.128 546.033 160.441 545.14 161.068 544.58C161.708 544.007 162.728 543.72 164.128 543.72V545.24C163.328 545.24 162.761 545.4 162.428 545.72C162.108 546.027 161.948 546.54 161.948 547.26V548.04H164.248V549.54ZM168.19 549.82C168.51 549.193 168.963 548.707 169.55 548.36C170.15 548.013 170.877 547.84 171.73 547.84V549.72H171.25C169.21 549.72 168.19 550.827 168.19 553.04V559H166.37V548.04H168.19V549.82ZM178.611 559.18C177.584 559.18 176.651 558.947 175.811 558.48C174.984 558.013 174.331 557.353 173.851 556.5C173.384 555.633 173.151 554.633 173.151 553.5C173.151 552.38 173.391 551.393 173.871 550.54C174.364 549.673 175.031 549.013 175.871 548.56C176.711 548.093 177.651 547.86 178.691 547.86C179.731 547.86 180.671 548.093 181.511 548.56C182.351 549.013 183.011 549.667 183.491 550.52C183.984 551.373 184.231 552.367 184.231 553.5C184.231 554.633 183.978 555.633 183.471 556.5C182.978 557.353 182.304 558.013 181.451 558.48C180.598 558.947 179.651 559.18 178.611 559.18ZM178.611 557.58C179.264 557.58 179.878 557.427 180.451 557.12C181.024 556.813 181.484 556.353 181.831 555.74C182.191 555.127 182.371 554.38 182.371 553.5C182.371 552.62 182.198 551.873 181.851 551.26C181.504 550.647 181.051 550.193 180.491 549.9C179.931 549.593 179.324 549.44 178.671 549.44C178.004 549.44 177.391 549.593 176.831 549.9C176.284 550.193 175.844 550.647 175.511 551.26C175.178 551.873 175.011 552.62 175.011 553.5C175.011 554.393 175.171 555.147 175.491 555.76C175.824 556.373 176.264 556.833 176.811 557.14C177.358 557.433 177.958 557.58 178.611 557.58ZM199.804 547.84C200.657 547.84 201.417 548.02 202.084 548.38C202.751 548.727 203.277 549.253 203.664 549.96C204.051 550.667 204.244 551.527 204.244 552.54V559H202.444V552.8C202.444 551.707 202.171 550.873 201.624 550.3C201.091 549.713 200.364 549.42 199.444 549.42C198.497 549.42 197.744 549.727 197.184 550.34C196.624 550.94 196.344 551.813 196.344 552.96V559H194.544V552.8C194.544 551.707 194.271 550.873 193.724 550.3C193.191 549.713 192.464 549.42 191.544 549.42C190.597 549.42 189.844 549.727 189.284 550.34C188.724 550.94 188.444 551.813 188.444 552.96V559H186.624V548.04H188.444V549.62C188.804 549.047 189.284 548.607 189.884 548.3C190.497 547.993 191.171 547.84 191.904 547.84C192.824 547.84 193.637 548.047 194.344 548.46C195.051 548.873 195.577 549.48 195.924 550.28C196.231 549.507 196.737 548.907 197.444 548.48C198.151 548.053 198.937 547.84 199.804 547.84ZM214.781 549.54V556C214.781 556.533 214.895 556.913 215.121 557.14C215.348 557.353 215.741 557.46 216.301 557.46H217.641V559H216.001C214.988 559 214.228 558.767 213.721 558.3C213.215 557.833 212.961 557.067 212.961 556V549.54H211.541V548.04H212.961V545.28H214.781V548.04H217.641V549.54H214.781ZM225.287 547.84C226.113 547.84 226.86 548.02 227.527 548.38C228.193 548.727 228.713 549.253 229.087 549.96C229.473 550.667 229.667 551.527 229.667 552.54V559H227.867V552.8C227.867 551.707 227.593 550.873 227.047 550.3C226.5 549.713 225.753 549.42 224.807 549.42C223.847 549.42 223.08 549.72 222.507 550.32C221.947 550.92 221.667 551.793 221.667 552.94V559H219.847V544.2H221.667V549.6C222.027 549.04 222.52 548.607 223.147 548.3C223.787 547.993 224.5 547.84 225.287 547.84ZM242.64 553.1C242.64 553.447 242.62 553.813 242.58 554.2H233.82C233.886 555.28 234.253 556.127 234.92 556.74C235.6 557.34 236.42 557.64 237.38 557.64C238.166 557.64 238.82 557.46 239.34 557.1C239.873 556.727 240.246 556.233 240.46 555.62H242.42C242.126 556.673 241.54 557.533 240.66 558.2C239.78 558.853 238.686 559.18 237.38 559.18C236.34 559.18 235.406 558.947 234.58 558.48C233.766 558.013 233.126 557.353 232.66 556.5C232.193 555.633 231.96 554.633 231.96 553.5C231.96 552.367 232.186 551.373 232.64 550.52C233.093 549.667 233.726 549.013 234.54 548.56C235.366 548.093 236.313 547.86 237.38 547.86C238.42 547.86 239.34 548.087 240.14 548.54C240.94 548.993 241.553 549.62 241.98 550.42C242.42 551.207 242.64 552.1 242.64 553.1ZM240.76 552.72C240.76 552.027 240.606 551.433 240.3 550.94C239.993 550.433 239.573 550.053 239.04 549.8C238.52 549.533 237.94 549.4 237.3 549.4C236.38 549.4 235.593 549.693 234.94 550.28C234.3 550.867 233.933 551.68 233.84 552.72H240.76ZM252.594 549.54V556C252.594 556.533 252.707 556.913 252.934 557.14C253.161 557.353 253.554 557.46 254.114 557.46H255.454V559H253.814C252.801 559 252.041 558.767 251.534 558.3C251.027 557.833 250.774 557.067 250.774 556V549.54H249.354V548.04H250.774V545.28H252.594V548.04H255.454V549.54H252.594ZM267.659 553.1C267.659 553.447 267.639 553.813 267.599 554.2H258.839C258.906 555.28 259.272 556.127 259.939 556.74C260.619 557.34 261.439 557.64 262.399 557.64C263.186 557.64 263.839 557.46 264.359 557.1C264.892 556.727 265.266 556.233 265.479 555.62H267.439C267.146 556.673 266.559 557.533 265.679 558.2C264.799 558.853 263.706 559.18 262.399 559.18C261.359 559.18 260.426 558.947 259.599 558.48C258.786 558.013 258.146 557.353 257.679 556.5C257.212 555.633 256.979 554.633 256.979 553.5C256.979 552.367 257.206 551.373 257.659 550.52C258.112 549.667 258.746 549.013 259.559 548.56C260.386 548.093 261.332 547.86 262.399 547.86C263.439 547.86 264.359 548.087 265.159 548.54C265.959 548.993 266.572 549.62 266.999 550.42C267.439 551.207 267.659 552.1 267.659 553.1ZM265.779 552.72C265.779 552.027 265.626 551.433 265.319 550.94C265.012 550.433 264.592 550.053 264.059 549.8C263.539 549.533 262.959 549.4 262.319 549.4C261.399 549.4 260.612 549.693 259.959 550.28C259.319 550.867 258.952 551.68 258.859 552.72H265.779ZM269.381 553.48C269.381 552.36 269.608 551.38 270.061 550.54C270.515 549.687 271.135 549.027 271.921 548.56C272.721 548.093 273.608 547.86 274.581 547.86C275.541 547.86 276.375 548.067 277.081 548.48C277.788 548.893 278.315 549.413 278.661 550.04V548.04H280.501V559H278.661V556.96C278.301 557.6 277.761 558.133 277.041 558.56C276.335 558.973 275.508 559.18 274.561 559.18C273.588 559.18 272.708 558.94 271.921 558.46C271.135 557.98 270.515 557.307 270.061 556.44C269.608 555.573 269.381 554.587 269.381 553.48ZM278.661 553.5C278.661 552.673 278.495 551.953 278.161 551.34C277.828 550.727 277.375 550.26 276.801 549.94C276.241 549.607 275.621 549.44 274.941 549.44C274.261 549.44 273.641 549.6 273.081 549.92C272.521 550.24 272.075 550.707 271.741 551.32C271.408 551.933 271.241 552.653 271.241 553.48C271.241 554.32 271.408 555.053 271.741 555.68C272.075 556.293 272.521 556.767 273.081 557.1C273.641 557.42 274.261 557.58 274.941 557.58C275.621 557.58 276.241 557.42 276.801 557.1C277.375 556.767 277.828 556.293 278.161 555.68C278.495 555.053 278.661 554.327 278.661 553.5ZM296.757 547.84C297.61 547.84 298.37 548.02 299.037 548.38C299.704 548.727 300.23 549.253 300.617 549.96C301.004 550.667 301.197 551.527 301.197 552.54V559H299.397V552.8C299.397 551.707 299.124 550.873 298.577 550.3C298.044 549.713 297.317 549.42 296.397 549.42C295.45 549.42 294.697 549.727 294.137 550.34C293.577 550.94 293.297 551.813 293.297 552.96V559H291.497V552.8C291.497 551.707 291.224 550.873 290.677 550.3C290.144 549.713 289.417 549.42 288.497 549.42C287.55 549.42 286.797 549.727 286.237 550.34C285.677 550.94 285.397 551.813 285.397 552.96V559H283.577V548.04H285.397V549.62C285.757 549.047 286.237 548.607 286.837 548.3C287.45 547.993 288.124 547.84 288.857 547.84C289.777 547.84 290.59 548.047 291.297 548.46C292.004 548.873 292.53 549.48 292.877 550.28C293.184 549.507 293.69 548.907 294.397 548.48C295.104 548.053 295.89 547.84 296.757 547.84ZM324.115 548.04L320.695 559H318.815L316.175 550.3L313.535 559H311.655L308.215 548.04H310.075L312.595 557.24L315.315 548.04H317.175L319.835 557.26L322.315 548.04H324.115ZM326.861 546.26C326.514 546.26 326.221 546.14 325.981 545.9C325.741 545.66 325.621 545.367 325.621 545.02C325.621 544.673 325.741 544.38 325.981 544.14C326.221 543.9 326.514 543.78 326.861 543.78C327.194 543.78 327.474 543.9 327.701 544.14C327.941 544.38 328.061 544.673 328.061 545.02C328.061 545.367 327.941 545.66 327.701 545.9C327.474 546.14 327.194 546.26 326.861 546.26ZM327.741 548.04V559H325.921V548.04H327.741ZM332.663 544.2V559H330.843V544.2H332.663ZM337.585 544.2V559H335.765V544.2H337.585ZM350.539 547.86C351.485 547.86 352.312 548.067 353.019 548.48C353.739 548.893 354.272 549.413 354.619 550.04V548.04H356.459V559.24C356.459 560.24 356.245 561.127 355.819 561.9C355.392 562.687 354.779 563.3 353.979 563.74C353.192 564.18 352.272 564.4 351.219 564.4C349.779 564.4 348.579 564.06 347.619 563.38C346.659 562.7 346.092 561.773 345.919 560.6H347.719C347.919 561.267 348.332 561.8 348.959 562.2C349.585 562.613 350.339 562.82 351.219 562.82C352.219 562.82 353.032 562.507 353.659 561.88C354.299 561.253 354.619 560.373 354.619 559.24V556.94C354.259 557.58 353.725 558.113 353.019 558.54C352.312 558.967 351.485 559.18 350.539 559.18C349.565 559.18 348.679 558.94 347.879 558.46C347.092 557.98 346.472 557.307 346.019 556.44C345.565 555.573 345.339 554.587 345.339 553.48C345.339 552.36 345.565 551.38 346.019 550.54C346.472 549.687 347.092 549.027 347.879 548.56C348.679 548.093 349.565 547.86 350.539 547.86ZM354.619 553.5C354.619 552.673 354.452 551.953 354.119 551.34C353.785 550.727 353.332 550.26 352.759 549.94C352.199 549.607 351.579 549.44 350.899 549.44C350.219 549.44 349.599 549.6 349.039 549.92C348.479 550.24 348.032 550.707 347.699 551.32C347.365 551.933 347.199 552.653 347.199 553.48C347.199 554.32 347.365 555.053 347.699 555.68C348.032 556.293 348.479 556.767 349.039 557.1C349.599 557.42 350.219 557.58 350.899 557.58C351.579 557.58 352.199 557.42 352.759 557.1C353.332 556.767 353.785 556.293 354.119 555.68C354.452 555.053 354.619 554.327 354.619 553.5ZM369.534 553.1C369.534 553.447 369.514 553.813 369.474 554.2H360.714C360.781 555.28 361.147 556.127 361.814 556.74C362.494 557.34 363.314 557.64 364.274 557.64C365.061 557.64 365.714 557.46 366.234 557.1C366.767 556.727 367.141 556.233 367.354 555.62H369.314C369.021 556.673 368.434 557.533 367.554 558.2C366.674 558.853 365.581 559.18 364.274 559.18C363.234 559.18 362.301 558.947 361.474 558.48C360.661 558.013 360.021 557.353 359.554 556.5C359.087 555.633 358.854 554.633 358.854 553.5C358.854 552.367 359.081 551.373 359.534 550.52C359.987 549.667 360.621 549.013 361.434 548.56C362.261 548.093 363.207 547.86 364.274 547.86C365.314 547.86 366.234 548.087 367.034 548.54C367.834 548.993 368.447 549.62 368.874 550.42C369.314 551.207 369.534 552.1 369.534 553.1ZM367.654 552.72C367.654 552.027 367.501 551.433 367.194 550.94C366.887 550.433 366.467 550.053 365.934 549.8C365.414 549.533 364.834 549.4 364.194 549.4C363.274 549.4 362.487 549.693 361.834 550.28C361.194 550.867 360.827 551.68 360.734 552.72H367.654ZM374.156 549.54V556C374.156 556.533 374.27 556.913 374.496 557.14C374.723 557.353 375.116 557.46 375.676 557.46H377.016V559H375.376C374.363 559 373.603 558.767 373.096 558.3C372.59 557.833 372.336 557.067 372.336 556V549.54H370.916V548.04H372.336V545.28H374.156V548.04H377.016V549.54H374.156ZM385.494 546.26C385.147 546.26 384.854 546.14 384.614 545.9C384.374 545.66 384.254 545.367 384.254 545.02C384.254 544.673 384.374 544.38 384.614 544.14C384.854 543.9 385.147 543.78 385.494 543.78C385.827 543.78 386.107 543.9 386.334 544.14C386.574 544.38 386.694 544.673 386.694 545.02C386.694 545.367 386.574 545.66 386.334 545.9C386.107 546.14 385.827 546.26 385.494 546.26ZM386.374 548.04V559H384.554V548.04H386.374ZM394.816 547.84C396.149 547.84 397.229 548.247 398.056 549.06C398.882 549.86 399.296 551.02 399.296 552.54V559H397.496V552.8C397.496 551.707 397.222 550.873 396.676 550.3C396.129 549.713 395.382 549.42 394.436 549.42C393.476 549.42 392.709 549.72 392.136 550.32C391.576 550.92 391.296 551.793 391.296 552.94V559H389.476V548.04H391.296V549.6C391.656 549.04 392.142 548.607 392.756 548.3C393.382 547.993 394.069 547.84 394.816 547.84ZM409.821 549.54V556C409.821 556.533 409.934 556.913 410.161 557.14C410.387 557.353 410.781 557.46 411.341 557.46H412.681V559H411.041C410.027 559 409.267 558.767 408.761 558.3C408.254 557.833 408.001 557.067 408.001 556V549.54H406.581V548.04H408.001V545.28H409.821V548.04H412.681V549.54H409.821ZM419.666 559.18C418.639 559.18 417.706 558.947 416.866 558.48C416.039 558.013 415.386 557.353 414.906 556.5C414.439 555.633 414.206 554.633 414.206 553.5C414.206 552.38 414.446 551.393 414.926 550.54C415.419 549.673 416.086 549.013 416.926 548.56C417.766 548.093 418.706 547.86 419.746 547.86C420.786 547.86 421.726 548.093 422.566 548.56C423.406 549.013 424.066 549.667 424.546 550.52C425.039 551.373 425.286 552.367 425.286 553.5C425.286 554.633 425.032 555.633 424.526 556.5C424.032 557.353 423.359 558.013 422.506 558.48C421.652 558.947 420.706 559.18 419.666 559.18ZM419.666 557.58C420.319 557.58 420.932 557.427 421.506 557.12C422.079 556.813 422.539 556.353 422.886 555.74C423.246 555.127 423.426 554.38 423.426 553.5C423.426 552.62 423.252 551.873 422.906 551.26C422.559 550.647 422.106 550.193 421.546 549.9C420.986 549.593 420.379 549.44 419.726 549.44C419.059 549.44 418.446 549.593 417.886 549.9C417.339 550.193 416.899 550.647 416.566 551.26C416.232 551.873 416.066 552.62 416.066 553.5C416.066 554.393 416.226 555.147 416.546 555.76C416.879 556.373 417.319 556.833 417.866 557.14C418.412 557.433 419.012 557.58 419.666 557.58ZM437.399 548.04V559H435.579V557.38C435.232 557.94 434.745 558.38 434.119 558.7C433.505 559.007 432.825 559.16 432.079 559.16C431.225 559.16 430.459 558.987 429.779 558.64C429.099 558.28 428.559 557.747 428.159 557.04C427.772 556.333 427.579 555.473 427.579 554.46V548.04H429.379V554.22C429.379 555.3 429.652 556.133 430.199 556.72C430.745 557.293 431.492 557.58 432.439 557.58C433.412 557.58 434.179 557.28 434.739 556.68C435.299 556.08 435.579 555.207 435.579 554.06V548.04H437.399ZM439.792 553.5C439.792 552.367 440.018 551.38 440.472 550.54C440.925 549.687 441.552 549.027 442.352 548.56C443.165 548.093 444.092 547.86 445.132 547.86C446.478 547.86 447.585 548.187 448.452 548.84C449.332 549.493 449.912 550.4 450.192 551.56H448.232C448.045 550.893 447.678 550.367 447.132 549.98C446.598 549.593 445.932 549.4 445.132 549.4C444.092 549.4 443.252 549.76 442.612 550.48C441.972 551.187 441.652 552.193 441.652 553.5C441.652 554.82 441.972 555.84 442.612 556.56C443.252 557.28 444.092 557.64 445.132 557.64C445.932 557.64 446.598 557.453 447.132 557.08C447.665 556.707 448.032 556.173 448.232 555.48H450.192C449.898 556.6 449.312 557.5 448.432 558.18C447.552 558.847 446.452 559.18 445.132 559.18C444.092 559.18 443.165 558.947 442.352 558.48C441.552 558.013 440.925 557.353 440.472 556.5C440.018 555.647 439.792 554.647 439.792 553.5ZM458.06 547.84C458.887 547.84 459.633 548.02 460.3 548.38C460.967 548.727 461.487 549.253 461.86 549.96C462.247 550.667 462.44 551.527 462.44 552.54V559H460.64V552.8C460.64 551.707 460.367 550.873 459.82 550.3C459.273 549.713 458.527 549.42 457.58 549.42C456.62 549.42 455.853 549.72 455.28 550.32C454.72 550.92 454.44 551.793 454.44 552.94V559H452.62V544.2H454.44V549.6C454.8 549.04 455.293 548.607 455.92 548.3C456.56 547.993 457.273 547.84 458.06 547.84ZM485.345 548.04L481.925 559H480.045L477.405 550.3L474.765 559H472.885L469.445 548.04H471.305L473.825 557.24L476.545 548.04H478.405L481.065 557.26L483.545 548.04H485.345ZM488.091 546.26C487.745 546.26 487.451 546.14 487.211 545.9C486.971 545.66 486.851 545.367 486.851 545.02C486.851 544.673 486.971 544.38 487.211 544.14C487.451 543.9 487.745 543.78 488.091 543.78C488.425 543.78 488.705 543.9 488.931 544.14C489.171 544.38 489.291 544.673 489.291 545.02C489.291 545.367 489.171 545.66 488.931 545.9C488.705 546.14 488.425 546.26 488.091 546.26ZM488.971 548.04V559H487.151V548.04H488.971ZM494.293 549.54V556C494.293 556.533 494.407 556.913 494.633 557.14C494.86 557.353 495.253 557.46 495.813 557.46H497.153V559H495.513C494.5 559 493.74 558.767 493.233 558.3C492.727 557.833 492.473 557.067 492.473 556V549.54H491.053V548.04H492.473V545.28H494.293V548.04H497.153V549.54H494.293ZM504.798 547.84C505.625 547.84 506.372 548.02 507.038 548.38C507.705 548.727 508.225 549.253 508.598 549.96C508.985 550.667 509.178 551.527 509.178 552.54V559H507.378V552.8C507.378 551.707 507.105 550.873 506.558 550.3C506.012 549.713 505.265 549.42 504.318 549.42C503.358 549.42 502.592 549.72 502.018 550.32C501.458 550.92 501.178 551.793 501.178 552.94V559H499.358V544.2H501.178V549.6C501.538 549.04 502.032 548.607 502.658 548.3C503.298 547.993 504.012 547.84 504.798 547.84ZM192.509 578.04L185.909 594.16H184.029L186.189 588.88L181.769 578.04H183.789L187.229 586.92L190.629 578.04H192.509ZM199.119 589.18C198.092 589.18 197.159 588.947 196.319 588.48C195.492 588.013 194.839 587.353 194.359 586.5C193.892 585.633 193.659 584.633 193.659 583.5C193.659 582.38 193.899 581.393 194.379 580.54C194.872 579.673 195.539 579.013 196.379 578.56C197.219 578.093 198.159 577.86 199.199 577.86C200.239 577.86 201.179 578.093 202.019 578.56C202.859 579.013 203.519 579.667 203.999 580.52C204.492 581.373 204.739 582.367 204.739 583.5C204.739 584.633 204.485 585.633 203.979 586.5C203.485 587.353 202.812 588.013 201.959 588.48C201.105 588.947 200.159 589.18 199.119 589.18ZM199.119 587.58C199.772 587.58 200.385 587.427 200.959 587.12C201.532 586.813 201.992 586.353 202.339 585.74C202.699 585.127 202.879 584.38 202.879 583.5C202.879 582.62 202.705 581.873 202.359 581.26C202.012 580.647 201.559 580.193 200.999 579.9C200.439 579.593 199.832 579.44 199.179 579.44C198.512 579.44 197.899 579.593 197.339 579.9C196.792 580.193 196.352 580.647 196.019 581.26C195.685 581.873 195.519 582.62 195.519 583.5C195.519 584.393 195.679 585.147 195.999 585.76C196.332 586.373 196.772 586.833 197.319 587.14C197.865 587.433 198.465 587.58 199.119 587.58ZM216.852 578.04V589H215.032V587.38C214.685 587.94 214.198 588.38 213.572 588.7C212.958 589.007 212.278 589.16 211.532 589.16C210.678 589.16 209.912 588.987 209.232 588.64C208.552 588.28 208.012 587.747 207.612 587.04C207.225 586.333 207.032 585.473 207.032 584.46V578.04H208.832V584.22C208.832 585.3 209.105 586.133 209.652 586.72C210.198 587.293 210.945 587.58 211.892 587.58C212.865 587.58 213.632 587.28 214.192 586.68C214.752 586.08 215.032 585.207 215.032 584.06V578.04H216.852ZM227.477 579.54V586C227.477 586.533 227.59 586.913 227.817 587.14C228.043 587.353 228.437 587.46 228.997 587.46H230.337V589H228.697C227.683 589 226.923 588.767 226.417 588.3C225.91 587.833 225.657 587.067 225.657 586V579.54H224.237V578.04H225.657V575.28H227.477V578.04H230.337V579.54H227.477ZM237.322 589.18C236.295 589.18 235.362 588.947 234.522 588.48C233.695 588.013 233.042 587.353 232.562 586.5C232.095 585.633 231.862 584.633 231.862 583.5C231.862 582.38 232.102 581.393 232.582 580.54C233.075 579.673 233.742 579.013 234.582 578.56C235.422 578.093 236.362 577.86 237.402 577.86C238.442 577.86 239.382 578.093 240.222 578.56C241.062 579.013 241.722 579.667 242.202 580.52C242.695 581.373 242.942 582.367 242.942 583.5C242.942 584.633 242.689 585.633 242.182 586.5C241.689 587.353 241.015 588.013 240.162 588.48C239.309 588.947 238.362 589.18 237.322 589.18ZM237.322 587.58C237.975 587.58 238.589 587.427 239.162 587.12C239.735 586.813 240.195 586.353 240.542 585.74C240.902 585.127 241.082 584.38 241.082 583.5C241.082 582.62 240.909 581.873 240.562 581.26C240.215 580.647 239.762 580.193 239.202 579.9C238.642 579.593 238.035 579.44 237.382 579.44C236.715 579.44 236.102 579.593 235.542 579.9C234.995 580.193 234.555 580.647 234.222 581.26C233.889 581.873 233.722 582.62 233.722 583.5C233.722 584.393 233.882 585.147 234.202 585.76C234.535 586.373 234.975 586.833 235.522 587.14C236.069 587.433 236.669 587.58 237.322 587.58ZM252.887 579.54V586C252.887 586.533 253 586.913 253.227 587.14C253.454 587.353 253.847 587.46 254.407 587.46H255.747V589H254.107C253.094 589 252.334 588.767 251.827 588.3C251.32 587.833 251.067 587.067 251.067 586V579.54H249.647V578.04H251.067V575.28H252.887V578.04H255.747V579.54H252.887ZM257.272 583.48C257.272 582.36 257.499 581.38 257.952 580.54C258.405 579.687 259.025 579.027 259.812 578.56C260.612 578.093 261.499 577.86 262.472 577.86C263.432 577.86 264.265 578.067 264.972 578.48C265.679 578.893 266.205 579.413 266.552 580.04V578.04H268.392V589H266.552V586.96C266.192 587.6 265.652 588.133 264.932 588.56C264.225 588.973 263.399 589.18 262.452 589.18C261.479 589.18 260.599 588.94 259.812 588.46C259.025 587.98 258.405 587.307 257.952 586.44C257.499 585.573 257.272 584.587 257.272 583.48ZM266.552 583.5C266.552 582.673 266.385 581.953 266.052 581.34C265.719 580.727 265.265 580.26 264.692 579.94C264.132 579.607 263.512 579.44 262.832 579.44C262.152 579.44 261.532 579.6 260.972 579.92C260.412 580.24 259.965 580.707 259.632 581.32C259.299 581.933 259.132 582.653 259.132 583.48C259.132 584.32 259.299 585.053 259.632 585.68C259.965 586.293 260.412 586.767 260.972 587.1C261.532 587.42 262.152 587.58 262.832 587.58C263.512 587.58 264.132 587.42 264.692 587.1C265.265 586.767 265.719 586.293 266.052 585.68C266.385 585.053 266.552 584.327 266.552 583.5ZM277.588 589L273.288 584.16V589H271.468V574.2H273.288V582.9L277.508 578.04H280.048L274.888 583.5L280.068 589H277.588ZM291.761 583.1C291.761 583.447 291.741 583.813 291.701 584.2H282.941C283.007 585.28 283.374 586.127 284.041 586.74C284.721 587.34 285.541 587.64 286.501 587.64C287.287 587.64 287.941 587.46 288.461 587.1C288.994 586.727 289.367 586.233 289.581 585.62H291.541C291.247 586.673 290.661 587.533 289.781 588.2C288.901 588.853 287.807 589.18 286.501 589.18C285.461 589.18 284.527 588.947 283.701 588.48C282.887 588.013 282.247 587.353 281.781 586.5C281.314 585.633 281.081 584.633 281.081 583.5C281.081 582.367 281.307 581.373 281.761 580.52C282.214 579.667 282.847 579.013 283.661 578.56C284.487 578.093 285.434 577.86 286.501 577.86C287.541 577.86 288.461 578.087 289.261 578.54C290.061 578.993 290.674 579.62 291.101 580.42C291.541 581.207 291.761 582.1 291.761 583.1ZM289.881 582.72C289.881 582.027 289.727 581.433 289.421 580.94C289.114 580.433 288.694 580.053 288.161 579.8C287.641 579.533 287.061 579.4 286.421 579.4C285.501 579.4 284.714 579.693 284.061 580.28C283.421 580.867 283.054 581.68 282.961 582.72H289.881ZM300.435 576.26C300.088 576.26 299.795 576.14 299.555 575.9C299.315 575.66 299.195 575.367 299.195 575.02C299.195 574.673 299.315 574.38 299.555 574.14C299.795 573.9 300.088 573.78 300.435 573.78C300.768 573.78 301.048 573.9 301.275 574.14C301.515 574.38 301.635 574.673 301.635 575.02C301.635 575.367 301.515 575.66 301.275 575.9C301.048 576.14 300.768 576.26 300.435 576.26ZM301.315 578.04V589H299.495V578.04H301.315ZM306.637 579.54V586C306.637 586.533 306.75 586.913 306.977 587.14C307.204 587.353 307.597 587.46 308.157 587.46H309.497V589H307.857C306.844 589 306.084 588.767 305.577 588.3C305.07 587.833 304.817 587.067 304.817 586V579.54H303.397V578.04H304.817V575.28H306.637V578.04H309.497V579.54H306.637ZM321.494 579.54H319.194V589H317.374V579.54H315.954V578.04H317.374V577.26C317.374 576.033 317.687 575.14 318.314 574.58C318.954 574.007 319.974 573.72 321.374 573.72V575.24C320.574 575.24 320.007 575.4 319.674 575.72C319.354 576.027 319.194 576.54 319.194 577.26V578.04H321.494V579.54ZM333.336 578.04V589H331.516V587.38C331.17 587.94 330.683 588.38 330.056 588.7C329.443 589.007 328.763 589.16 328.016 589.16C327.163 589.16 326.396 588.987 325.716 588.64C325.036 588.28 324.496 587.747 324.096 587.04C323.71 586.333 323.516 585.473 323.516 584.46V578.04H325.316V584.22C325.316 585.3 325.59 586.133 326.136 586.72C326.683 587.293 327.43 587.58 328.376 587.58C329.35 587.58 330.116 587.28 330.676 586.68C331.236 586.08 331.516 585.207 331.516 584.06V578.04H333.336ZM338.229 579.82C338.549 579.193 339.002 578.707 339.589 578.36C340.189 578.013 340.916 577.84 341.769 577.84V579.72H341.289C339.249 579.72 338.229 580.827 338.229 583.04V589H336.409V578.04H338.229V579.82ZM346.09 579.54V586C346.09 586.533 346.203 586.913 346.43 587.14C346.657 587.353 347.05 587.46 347.61 587.46H348.95V589H347.31C346.297 589 345.537 588.767 345.03 588.3C344.523 587.833 344.27 587.067 344.27 586V579.54H342.85V578.04H344.27V575.28H346.09V578.04H348.95V579.54H346.09ZM356.595 577.84C357.422 577.84 358.169 578.02 358.835 578.38C359.502 578.727 360.022 579.253 360.395 579.96C360.782 580.667 360.975 581.527 360.975 582.54V589H359.175V582.8C359.175 581.707 358.902 580.873 358.355 580.3C357.809 579.713 357.062 579.42 356.115 579.42C355.155 579.42 354.389 579.72 353.815 580.32C353.255 580.92 352.975 581.793 352.975 582.94V589H351.155V574.2H352.975V579.6C353.335 579.04 353.829 578.607 354.455 578.3C355.095 577.993 355.809 577.84 356.595 577.84ZM373.948 583.1C373.948 583.447 373.928 583.813 373.888 584.2H365.128C365.195 585.28 365.562 586.127 366.228 586.74C366.908 587.34 367.728 587.64 368.688 587.64C369.475 587.64 370.128 587.46 370.648 587.1C371.182 586.727 371.555 586.233 371.768 585.62H373.728C373.435 586.673 372.848 587.533 371.968 588.2C371.088 588.853 369.995 589.18 368.688 589.18C367.648 589.18 366.715 588.947 365.888 588.48C365.075 588.013 364.435 587.353 363.968 586.5C363.502 585.633 363.268 584.633 363.268 583.5C363.268 582.367 363.495 581.373 363.948 580.52C364.402 579.667 365.035 579.013 365.848 578.56C366.675 578.093 367.622 577.86 368.688 577.86C369.728 577.86 370.648 578.087 371.448 578.54C372.248 578.993 372.862 579.62 373.288 580.42C373.728 581.207 373.948 582.1 373.948 583.1ZM372.068 582.72C372.068 582.027 371.915 581.433 371.608 580.94C371.302 580.433 370.882 580.053 370.348 579.8C369.828 579.533 369.248 579.4 368.608 579.4C367.688 579.4 366.902 579.693 366.248 580.28C365.608 580.867 365.242 581.68 365.148 582.72H372.068ZM378.171 579.82C378.491 579.193 378.944 578.707 379.531 578.36C380.131 578.013 380.857 577.84 381.711 577.84V579.72H381.231C379.191 579.72 378.171 580.827 378.171 583.04V589H376.351V578.04H378.171V579.82ZM384.391 589.12C384.045 589.12 383.751 589 383.511 588.76C383.271 588.52 383.151 588.227 383.151 587.88C383.151 587.533 383.271 587.24 383.511 587C383.751 586.76 384.045 586.64 384.391 586.64C384.725 586.64 385.005 586.76 385.231 587C385.471 587.24 385.591 587.533 385.591 587.88C385.591 588.227 385.471 588.52 385.231 588.76C385.005 589 384.725 589.12 384.391 589.12Z" fill="black"/>
<path d="M63.6815 504.32V506.552H59.2415V521H56.5055V506.552H52.0415V504.32H63.6815ZM73.2923 507.56C74.3003 507.56 75.1963 507.776 75.9803 508.208C76.7803 508.64 77.4043 509.28 77.8523 510.128C78.3163 510.976 78.5483 512 78.5483 513.2V521H75.8363V513.608C75.8363 512.424 75.5403 511.52 74.9483 510.896C74.3563 510.256 73.5483 509.936 72.5243 509.936C71.5003 509.936 70.6843 510.256 70.0763 510.896C69.4843 511.52 69.1883 512.424 69.1883 513.608V521H66.4523V503.24H69.1883V509.312C69.6523 508.752 70.2363 508.32 70.9403 508.016C71.6603 507.712 72.4443 507.56 73.2923 507.56ZM81.1263 514.328C81.1263 513 81.3983 511.824 81.9423 510.8C82.5023 509.776 83.2543 508.984 84.1983 508.424C85.1583 507.848 86.2143 507.56 87.3663 507.56C88.4063 507.56 89.3103 507.768 90.0783 508.184C90.8623 508.584 91.4863 509.088 91.9503 509.696V507.776H94.7103V521H91.9503V519.032C91.4863 519.656 90.8543 520.176 90.0543 520.592C89.2543 521.008 88.3423 521.216 87.3183 521.216C86.1823 521.216 85.1423 520.928 84.1983 520.352C83.2543 519.76 82.5023 518.944 81.9423 517.904C81.3983 516.848 81.1263 515.656 81.1263 514.328ZM91.9503 514.376C91.9503 513.464 91.7583 512.672 91.3743 512C91.0063 511.328 90.5183 510.816 89.9103 510.464C89.3023 510.112 88.6463 509.936 87.9423 509.936C87.2383 509.936 86.5823 510.112 85.9743 510.464C85.3663 510.8 84.8703 511.304 84.4863 511.976C84.1183 512.632 83.9343 513.416 83.9343 514.328C83.9343 515.24 84.1183 516.04 84.4863 516.728C84.8703 517.416 85.3663 517.944 85.9743 518.312C86.5983 518.664 87.2543 518.84 87.9423 518.84C88.6463 518.84 89.3023 518.664 89.9103 518.312C90.5183 517.96 91.0063 517.448 91.3743 516.776C91.7583 516.088 91.9503 515.288 91.9503 514.376ZM104.976 507.56C106.016 507.56 106.944 507.776 107.76 508.208C108.592 508.64 109.24 509.28 109.704 510.128C110.168 510.976 110.4 512 110.4 513.2V521H107.688V513.608C107.688 512.424 107.392 511.52 106.8 510.896C106.208 510.256 105.4 509.936 104.376 509.936C103.352 509.936 102.536 510.256 101.928 510.896C101.336 511.52 101.04 512.424 101.04 513.608V521H98.3039V507.776H101.04V509.288C101.488 508.744 102.056 508.32 102.744 508.016C103.448 507.712 104.192 507.56 104.976 507.56ZM119.122 514.4L125.218 521H121.522L116.626 515.312V521H113.89V503.24H116.626V513.56L121.426 507.776H125.218L119.122 514.4ZM145.317 507.776L137.205 527.216H134.373L137.061 520.784L131.853 507.776H134.901L138.621 517.856L142.485 507.776H145.317ZM153.118 521.216C151.87 521.216 150.742 520.936 149.734 520.376C148.726 519.8 147.934 519 147.358 517.976C146.782 516.936 146.494 515.736 146.494 514.376C146.494 513.032 146.79 511.84 147.382 510.8C147.974 509.76 148.782 508.96 149.806 508.4C150.83 507.84 151.974 507.56 153.238 507.56C154.502 507.56 155.646 507.84 156.67 508.4C157.694 508.96 158.502 509.76 159.094 510.8C159.686 511.84 159.982 513.032 159.982 514.376C159.982 515.72 159.678 516.912 159.07 517.952C158.462 518.992 157.63 519.8 156.574 520.376C155.534 520.936 154.382 521.216 153.118 521.216ZM153.118 518.84C153.822 518.84 154.478 518.672 155.086 518.336C155.71 518 156.214 517.496 156.598 516.824C156.982 516.152 157.174 515.336 157.174 514.376C157.174 513.416 156.99 512.608 156.622 511.952C156.254 511.28 155.766 510.776 155.158 510.44C154.55 510.104 153.894 509.936 153.19 509.936C152.486 509.936 151.83 510.104 151.222 510.44C150.63 510.776 150.158 511.28 149.806 511.952C149.454 512.608 149.278 513.416 149.278 514.376C149.278 515.8 149.638 516.904 150.358 517.688C151.094 518.456 152.014 518.84 153.118 518.84ZM174.663 507.776V521H171.927V519.44C171.495 519.984 170.927 520.416 170.223 520.736C169.535 521.04 168.799 521.192 168.015 521.192C166.975 521.192 166.039 520.976 165.207 520.544C164.391 520.112 163.743 519.472 163.263 518.624C162.799 517.776 162.567 516.752 162.567 515.552V507.776H165.279V515.144C165.279 516.328 165.575 517.24 166.167 517.88C166.759 518.504 167.567 518.816 168.591 518.816C169.615 518.816 170.423 518.504 171.015 517.88C171.623 517.24 171.927 516.328 171.927 515.144V507.776H174.663ZM183.595 514.328C183.595 513 183.867 511.824 184.411 510.8C184.971 509.776 185.723 508.984 186.667 508.424C187.627 507.848 188.683 507.56 189.835 507.56C190.875 507.56 191.779 507.768 192.547 508.184C193.331 508.584 193.955 509.088 194.419 509.696V507.776H197.179V521H194.419V519.032C193.955 519.656 193.323 520.176 192.523 520.592C191.723 521.008 190.811 521.216 189.787 521.216C188.651 521.216 187.611 520.928 186.667 520.352C185.723 519.76 184.971 518.944 184.411 517.904C183.867 516.848 183.595 515.656 183.595 514.328ZM194.419 514.376C194.419 513.464 194.227 512.672 193.843 512C193.475 511.328 192.987 510.816 192.379 510.464C191.771 510.112 191.115 509.936 190.411 509.936C189.707 509.936 189.051 510.112 188.443 510.464C187.835 510.8 187.339 511.304 186.955 511.976C186.587 512.632 186.403 513.416 186.403 514.328C186.403 515.24 186.587 516.04 186.955 516.728C187.339 517.416 187.835 517.944 188.443 518.312C189.067 518.664 189.723 518.84 190.411 518.84C191.115 518.84 191.771 518.664 192.379 518.312C192.987 517.96 193.475 517.448 193.843 516.776C194.227 516.088 194.419 515.288 194.419 514.376ZM203.509 509.72C203.973 509.112 204.605 508.6 205.405 508.184C206.205 507.768 207.109 507.56 208.117 507.56C209.269 507.56 210.317 507.848 211.261 508.424C212.221 508.984 212.973 509.776 213.517 510.8C214.061 511.824 214.333 513 214.333 514.328C214.333 515.656 214.061 516.848 213.517 517.904C212.973 518.944 212.221 519.76 211.261 520.352C210.317 520.928 209.269 521.216 208.117 521.216C207.109 521.216 206.213 521.016 205.429 520.616C204.645 520.2 204.005 519.688 203.509 519.08V527.288H200.773V507.776H203.509V509.72ZM211.549 514.328C211.549 513.416 211.357 512.632 210.973 511.976C210.605 511.304 210.109 510.8 209.485 510.464C208.877 510.112 208.221 509.936 207.517 509.936C206.829 509.936 206.173 510.112 205.549 510.464C204.941 510.816 204.445 511.328 204.061 512C203.693 512.672 203.509 513.464 203.509 514.376C203.509 515.288 203.693 516.088 204.061 516.776C204.445 517.448 204.941 517.96 205.549 518.312C206.173 518.664 206.829 518.84 207.517 518.84C208.221 518.84 208.877 518.664 209.485 518.312C210.109 517.944 210.605 517.416 210.973 516.728C211.357 516.04 211.549 515.24 211.549 514.328ZM219.774 509.72C220.238 509.112 220.87 508.6 221.67 508.184C222.47 507.768 223.374 507.56 224.382 507.56C225.534 507.56 226.582 507.848 227.526 508.424C228.486 508.984 229.238 509.776 229.782 510.8C230.326 511.824 230.598 513 230.598 514.328C230.598 515.656 230.326 516.848 229.782 517.904C229.238 518.944 228.486 519.76 227.526 520.352C226.582 520.928 225.534 521.216 224.382 521.216C223.374 521.216 222.478 521.016 221.694 520.616C220.91 520.2 220.27 519.688 219.774 519.08V527.288H217.038V507.776H219.774V509.72ZM227.814 514.328C227.814 513.416 227.622 512.632 227.238 511.976C226.87 511.304 226.374 510.8 225.75 510.464C225.142 510.112 224.486 509.936 223.782 509.936C223.094 509.936 222.438 510.112 221.814 510.464C221.206 510.816 220.71 511.328 220.326 512C219.958 512.672 219.774 513.464 219.774 514.376C219.774 515.288 219.958 516.088 220.326 516.776C220.71 517.448 221.206 517.96 221.814 518.312C222.438 518.664 223.094 518.84 223.782 518.84C224.486 518.84 225.142 518.664 225.75 518.312C226.374 517.944 226.87 517.416 227.238 516.728C227.622 516.04 227.814 515.24 227.814 514.328ZM236.04 503.24V521H233.304V503.24H236.04ZM251.536 507.776L243.424 527.216H240.592L243.28 520.784L238.072 507.776H241.12L244.84 517.856L248.704 507.776H251.536ZM254.993 506.024C254.497 506.024 254.081 505.856 253.745 505.52C253.409 505.184 253.241 504.768 253.241 504.272C253.241 503.776 253.409 503.36 253.745 503.024C254.081 502.688 254.497 502.52 254.993 502.52C255.473 502.52 255.881 502.688 256.217 503.024C256.553 503.36 256.721 503.776 256.721 504.272C256.721 504.768 256.553 505.184 256.217 505.52C255.881 505.856 255.473 506.024 254.993 506.024ZM256.337 507.776V521H253.601V507.776H256.337ZM266.601 507.56C267.641 507.56 268.569 507.776 269.385 508.208C270.217 508.64 270.865 509.28 271.329 510.128C271.793 510.976 272.025 512 272.025 513.2V521H269.313V513.608C269.313 512.424 269.017 511.52 268.425 510.896C267.833 510.256 267.025 509.936 266.001 509.936C264.977 509.936 264.161 510.256 263.553 510.896C262.961 511.52 262.665 512.424 262.665 513.608V521H259.929V507.776H262.665V509.288C263.113 508.744 263.681 508.32 264.369 508.016C265.073 507.712 265.817 507.56 266.601 507.56ZM280.843 507.56C281.867 507.56 282.771 507.768 283.555 508.184C284.355 508.584 284.979 509.088 285.427 509.696V507.776H288.187V521.216C288.187 522.432 287.931 523.512 287.419 524.456C286.907 525.416 286.163 526.168 285.187 526.712C284.227 527.256 283.075 527.528 281.731 527.528C279.939 527.528 278.451 527.104 277.267 526.256C276.083 525.424 275.411 524.288 275.251 522.848H277.963C278.171 523.536 278.611 524.088 279.283 524.504C279.971 524.936 280.787 525.152 281.731 525.152C282.835 525.152 283.723 524.816 284.395 524.144C285.083 523.472 285.427 522.496 285.427 521.216V519.008C284.963 519.632 284.331 520.16 283.531 520.592C282.747 521.008 281.851 521.216 280.843 521.216C279.691 521.216 278.635 520.928 277.675 520.352C276.731 519.76 275.979 518.944 275.419 517.904C274.875 516.848 274.603 515.656 274.603 514.328C274.603 513 274.875 511.824 275.419 510.8C275.979 509.776 276.731 508.984 277.675 508.424C278.635 507.848 279.691 507.56 280.843 507.56ZM285.427 514.376C285.427 513.464 285.235 512.672 284.851 512C284.483 511.328 283.995 510.816 283.387 510.464C282.779 510.112 282.123 509.936 281.419 509.936C280.715 509.936 280.059 510.112 279.451 510.464C278.843 510.8 278.347 511.304 277.963 511.976C277.595 512.632 277.411 513.416 277.411 514.328C277.411 515.24 277.595 516.04 277.963 516.728C278.347 517.416 278.843 517.944 279.451 518.312C280.075 518.664 280.731 518.84 281.419 518.84C282.123 518.84 282.779 518.664 283.387 518.312C283.995 517.96 284.483 517.448 284.851 516.776C285.235 516.088 285.427 515.288 285.427 514.376ZM301.207 510.008V517.328C301.207 517.824 301.319 518.184 301.543 518.408C301.783 518.616 302.183 518.72 302.743 518.72H304.423V521H302.263C301.031 521 300.087 520.712 299.431 520.136C298.775 519.56 298.447 518.624 298.447 517.328V510.008H296.887V507.776H298.447V504.488H301.207V507.776H304.423V510.008H301.207ZM312.681 521.216C311.433 521.216 310.305 520.936 309.297 520.376C308.289 519.8 307.497 519 306.921 517.976C306.345 516.936 306.057 515.736 306.057 514.376C306.057 513.032 306.353 511.84 306.945 510.8C307.537 509.76 308.345 508.96 309.369 508.4C310.393 507.84 311.537 507.56 312.801 507.56C314.065 507.56 315.209 507.84 316.233 508.4C317.257 508.96 318.065 509.76 318.657 510.8C319.249 511.84 319.545 513.032 319.545 514.376C319.545 515.72 319.241 516.912 318.633 517.952C318.025 518.992 317.193 519.8 316.137 520.376C315.097 520.936 313.945 521.216 312.681 521.216ZM312.681 518.84C313.385 518.84 314.041 518.672 314.649 518.336C315.273 518 315.777 517.496 316.161 516.824C316.545 516.152 316.737 515.336 316.737 514.376C316.737 513.416 316.553 512.608 316.185 511.952C315.817 511.28 315.329 510.776 314.721 510.44C314.113 510.104 313.457 509.936 312.753 509.936C312.049 509.936 311.393 510.104 310.785 510.44C310.193 510.776 309.721 511.28 309.369 511.952C309.017 512.608 308.841 513.416 308.841 514.376C308.841 515.8 309.201 516.904 309.921 517.688C310.657 518.456 311.577 518.84 312.681 518.84ZM331.22 509.744C331.684 509.104 332.316 508.584 333.116 508.184C333.932 507.768 334.836 507.56 335.828 507.56C336.996 507.56 338.052 507.84 338.996 508.4C339.94 508.96 340.684 509.76 341.228 510.8C341.772 511.824 342.044 513 342.044 514.328C342.044 515.656 341.772 516.848 341.228 517.904C340.684 518.944 339.932 519.76 338.972 520.352C338.028 520.928 336.98 521.216 335.828 521.216C334.804 521.216 333.892 521.016 333.092 520.616C332.308 520.216 331.684 519.704 331.22 519.08V521H328.484V503.24H331.22V509.744ZM339.26 514.328C339.26 513.416 339.068 512.632 338.684 511.976C338.316 511.304 337.82 510.8 337.196 510.464C336.588 510.112 335.932 509.936 335.228 509.936C334.54 509.936 333.884 510.112 333.26 510.464C332.652 510.816 332.156 511.328 331.772 512C331.404 512.672 331.22 513.464 331.22 514.376C331.22 515.288 331.404 516.088 331.772 516.776C332.156 517.448 332.652 517.96 333.26 518.312C333.884 518.664 334.54 518.84 335.228 518.84C335.932 518.84 336.588 518.664 337.196 518.312C337.82 517.944 338.316 517.416 338.684 516.728C339.068 516.04 339.26 515.24 339.26 514.328ZM356.869 514.064C356.869 514.56 356.837 515.008 356.773 515.408H346.669C346.749 516.464 347.141 517.312 347.845 517.952C348.549 518.592 349.413 518.912 350.437 518.912C351.909 518.912 352.949 518.296 353.557 517.064H356.509C356.109 518.28 355.381 519.28 354.325 520.064C353.285 520.832 351.989 521.216 350.437 521.216C349.173 521.216 348.037 520.936 347.029 520.376C346.037 519.8 345.253 519 344.677 517.976C344.117 516.936 343.837 515.736 343.837 514.376C343.837 513.016 344.109 511.824 344.653 510.8C345.213 509.76 345.989 508.96 346.981 508.4C347.989 507.84 349.141 507.56 350.437 507.56C351.685 507.56 352.797 507.832 353.773 508.376C354.749 508.92 355.509 509.688 356.053 510.68C356.597 511.656 356.869 512.784 356.869 514.064ZM354.013 513.2C353.997 512.192 353.637 511.384 352.933 510.776C352.229 510.168 351.357 509.864 350.317 509.864C349.373 509.864 348.565 510.168 347.893 510.776C347.221 511.368 346.821 512.176 346.693 513.2H354.013ZM358.65 514.328C358.65 513 358.922 511.824 359.466 510.8C360.026 509.776 360.778 508.984 361.722 508.424C362.682 507.848 363.738 507.56 364.89 507.56C365.93 507.56 366.834 507.768 367.602 508.184C368.386 508.584 369.01 509.088 369.474 509.696V507.776H372.234V521H369.474V519.032C369.01 519.656 368.378 520.176 367.578 520.592C366.778 521.008 365.866 521.216 364.842 521.216C363.706 521.216 362.666 520.928 361.722 520.352C360.778 519.76 360.026 518.944 359.466 517.904C358.922 516.848 358.65 515.656 358.65 514.328ZM369.474 514.376C369.474 513.464 369.282 512.672 368.898 512C368.53 511.328 368.042 510.816 367.434 510.464C366.826 510.112 366.17 509.936 365.466 509.936C364.762 509.936 364.106 510.112 363.498 510.464C362.89 510.8 362.394 511.304 362.01 511.976C361.642 512.632 361.458 513.416 361.458 514.328C361.458 515.24 361.642 516.04 362.01 516.728C362.394 517.416 362.89 517.944 363.498 518.312C364.122 518.664 364.778 518.84 365.466 518.84C366.17 518.84 366.826 518.664 367.434 518.312C368.042 517.96 368.53 517.448 368.898 516.776C369.282 516.088 369.474 515.288 369.474 514.376ZM379.019 510.008V517.328C379.019 517.824 379.131 518.184 379.355 518.408C379.595 518.616 379.995 518.72 380.555 518.72H382.235V521H380.075C378.843 521 377.899 520.712 377.243 520.136C376.587 519.56 376.259 518.624 376.259 517.328V510.008H374.699V507.776H376.259V504.488H379.019V507.776H382.235V510.008H379.019ZM383.845 514.376C383.845 513.016 384.117 511.824 384.661 510.8C385.221 509.76 385.989 508.96 386.965 508.4C387.941 507.84 389.061 507.56 390.325 507.56C391.925 507.56 393.245 507.944 394.285 508.712C395.341 509.464 396.053 510.544 396.421 511.952H393.469C393.229 511.296 392.845 510.784 392.317 510.416C391.789 510.048 391.125 509.864 390.325 509.864C389.205 509.864 388.309 510.264 387.637 511.064C386.981 511.848 386.653 512.952 386.653 514.376C386.653 515.8 386.981 516.912 387.637 517.712C388.309 518.512 389.205 518.912 390.325 518.912C391.909 518.912 392.957 518.216 393.469 516.824H396.421C396.037 518.168 395.317 519.24 394.261 520.04C393.205 520.824 391.893 521.216 390.325 521.216C389.061 521.216 387.941 520.936 386.965 520.376C385.989 519.8 385.221 519 384.661 517.976C384.117 516.936 383.845 515.736 383.845 514.376ZM398.236 514.328C398.236 513 398.508 511.824 399.052 510.8C399.612 509.776 400.364 508.984 401.308 508.424C402.268 507.848 403.324 507.56 404.476 507.56C405.516 507.56 406.42 507.768 407.188 508.184C407.972 508.584 408.596 509.088 409.06 509.696V507.776H411.82V521H409.06V519.032C408.596 519.656 407.964 520.176 407.164 520.592C406.364 521.008 405.452 521.216 404.428 521.216C403.292 521.216 402.252 520.928 401.308 520.352C400.364 519.76 399.612 518.944 399.052 517.904C398.508 516.848 398.236 515.656 398.236 514.328ZM409.06 514.376C409.06 513.464 408.868 512.672 408.484 512C408.116 511.328 407.628 510.816 407.02 510.464C406.412 510.112 405.756 509.936 405.052 509.936C404.348 509.936 403.692 510.112 403.084 510.464C402.476 510.8 401.98 511.304 401.596 511.976C401.228 512.632 401.044 513.416 401.044 514.328C401.044 515.24 401.228 516.04 401.596 516.728C401.98 517.416 402.476 517.944 403.084 518.312C403.708 518.664 404.364 518.84 405.052 518.84C405.756 518.84 406.412 518.664 407.02 518.312C407.628 517.96 408.116 517.448 408.484 516.776C408.868 516.088 409.06 515.288 409.06 514.376ZM420.213 521.216C419.173 521.216 418.237 521.032 417.405 520.664C416.589 520.28 415.941 519.768 415.461 519.128C414.981 518.472 414.725 517.744 414.693 516.944H417.525C417.573 517.504 417.837 517.976 418.317 518.36C418.813 518.728 419.429 518.912 420.165 518.912C420.933 518.912 421.525 518.768 421.941 518.48C422.373 518.176 422.589 517.792 422.589 517.328C422.589 516.832 422.349 516.464 421.869 516.224C421.405 515.984 420.661 515.72 419.637 515.432C418.645 515.16 417.837 514.896 417.213 514.64C416.589 514.384 416.045 513.992 415.581 513.464C415.133 512.936 414.909 512.24 414.909 511.376C414.909 510.672 415.117 510.032 415.533 509.456C415.949 508.864 416.541 508.4 417.309 508.064C418.093 507.728 418.989 507.56 419.997 507.56C421.501 507.56 422.709 507.944 423.621 508.712C424.549 509.464 425.045 510.496 425.109 511.808H422.373C422.325 511.216 422.085 510.744 421.653 510.392C421.221 510.04 420.637 509.864 419.901 509.864C419.181 509.864 418.629 510 418.245 510.272C417.861 510.544 417.669 510.904 417.669 511.352C417.669 511.704 417.797 512 418.053 512.24C418.309 512.48 418.621 512.672 418.989 512.816C419.357 512.944 419.901 513.112 420.621 513.32C421.581 513.576 422.365 513.84 422.973 514.112C423.597 514.368 424.133 514.752 424.581 515.264C425.029 515.776 425.261 516.456 425.277 517.304C425.277 518.056 425.069 518.728 424.653 519.32C424.237 519.912 423.645 520.376 422.877 520.712C422.125 521.048 421.237 521.216 420.213 521.216ZM435.074 507.56C436.082 507.56 436.978 507.776 437.762 508.208C438.562 508.64 439.186 509.28 439.634 510.128C440.098 510.976 440.33 512 440.33 513.2V521H437.618V513.608C437.618 512.424 437.322 511.52 436.73 510.896C436.138 510.256 435.33 509.936 434.306 509.936C433.282 509.936 432.466 510.256 431.858 510.896C431.266 511.52 430.97 512.424 430.97 513.608V521H428.234V503.24H430.97V509.312C431.434 508.752 432.018 508.32 432.722 508.016C433.442 507.712 434.226 507.56 435.074 507.56ZM449.556 521.216C448.308 521.216 447.18 520.936 446.172 520.376C445.164 519.8 444.372 519 443.796 517.976C443.22 516.936 442.932 515.736 442.932 514.376C442.932 513.032 443.228 511.84 443.82 510.8C444.412 509.76 445.22 508.96 446.244 508.4C447.268 507.84 448.412 507.56 449.676 507.56C450.94 507.56 452.084 507.84 453.108 508.4C454.132 508.96 454.94 509.76 455.532 510.8C456.124 511.84 456.42 513.032 456.42 514.376C456.42 515.72 456.116 516.912 455.508 517.952C454.9 518.992 454.068 519.8 453.012 520.376C451.972 520.936 450.82 521.216 449.556 521.216ZM449.556 518.84C450.26 518.84 450.916 518.672 451.524 518.336C452.148 518 452.652 517.496 453.036 516.824C453.42 516.152 453.612 515.336 453.612 514.376C453.612 513.416 453.428 512.608 453.06 511.952C452.692 511.28 452.204 510.776 451.596 510.44C450.988 510.104 450.332 509.936 449.628 509.936C448.924 509.936 448.268 510.104 447.66 510.44C447.068 510.776 446.596 511.28 446.244 511.952C445.892 512.608 445.716 513.416 445.716 514.376C445.716 515.8 446.076 516.904 446.796 517.688C447.532 518.456 448.452 518.84 449.556 518.84ZM464.668 510.008H462.22V521H459.46V510.008H457.9V507.776H459.46V506.84C459.46 505.32 459.86 504.216 460.66 503.528C461.476 502.824 462.748 502.472 464.476 502.472V504.752C463.644 504.752 463.06 504.912 462.724 505.232C462.388 505.536 462.22 506.072 462.22 506.84V507.776H464.668V510.008ZM472.637 510.008H470.189V521H467.429V510.008H465.869V507.776H467.429V506.84C467.429 505.32 467.829 504.216 468.629 503.528C469.445 502.824 470.717 502.472 472.445 502.472V504.752C471.613 504.752 471.029 504.912 470.693 505.232C470.357 505.536 470.189 506.072 470.189 506.84V507.776H472.637V510.008ZM487.182 514.064C487.182 514.56 487.15 515.008 487.086 515.408H476.982C477.062 516.464 477.454 517.312 478.158 517.952C478.862 518.592 479.726 518.912 480.75 518.912C482.222 518.912 483.262 518.296 483.87 517.064H486.822C486.422 518.28 485.694 519.28 484.638 520.064C483.598 520.832 482.302 521.216 480.75 521.216C479.486 521.216 478.35 520.936 477.342 520.376C476.35 519.8 475.566 519 474.99 517.976C474.43 516.936 474.15 515.736 474.15 514.376C474.15 513.016 474.422 511.824 474.966 510.8C475.526 509.76 476.302 508.96 477.294 508.4C478.302 507.84 479.454 507.56 480.75 507.56C481.998 507.56 483.11 507.832 484.086 508.376C485.062 508.92 485.822 509.688 486.366 510.68C486.91 511.656 487.182 512.784 487.182 514.064ZM484.326 513.2C484.31 512.192 483.95 511.384 483.246 510.776C482.542 510.168 481.67 509.864 480.63 509.864C479.686 509.864 478.878 510.168 478.206 510.776C477.534 511.368 477.134 512.176 477.006 513.2H484.326ZM492.61 509.696C493.01 509.024 493.538 508.504 494.194 508.136C494.866 507.752 495.658 507.56 496.57 507.56V510.392H495.874C494.802 510.392 493.986 510.664 493.426 511.208C492.882 511.752 492.61 512.696 492.61 514.04V521H489.874V507.776H492.61V509.696ZM503.885 521.216C502.845 521.216 501.909 521.032 501.077 520.664C500.261 520.28 499.613 519.768 499.133 519.128C498.653 518.472 498.397 517.744 498.365 516.944H501.197C501.245 517.504 501.509 517.976 501.989 518.36C502.485 518.728 503.101 518.912 503.837 518.912C504.605 518.912 505.197 518.768 505.613 518.48C506.045 518.176 506.261 517.792 506.261 517.328C506.261 516.832 506.021 516.464 505.541 516.224C505.077 515.984 504.333 515.72 503.309 515.432C502.317 515.16 501.509 514.896 500.885 514.64C500.261 514.384 499.717 513.992 499.253 513.464C498.805 512.936 498.581 512.24 498.581 511.376C498.581 510.672 498.789 510.032 499.205 509.456C499.621 508.864 500.213 508.4 500.981 508.064C501.765 507.728 502.661 507.56 503.669 507.56C505.173 507.56 506.381 507.944 507.293 508.712C508.221 509.464 508.717 510.496 508.781 511.808H506.045C505.997 511.216 505.757 510.744 505.325 510.392C504.893 510.04 504.309 509.864 503.573 509.864C502.853 509.864 502.301 510 501.917 510.272C501.533 510.544 501.341 510.904 501.341 511.352C501.341 511.704 501.469 512 501.725 512.24C501.981 512.48 502.293 512.672 502.661 512.816C503.029 512.944 503.573 513.112 504.293 513.32C505.253 513.576 506.037 513.84 506.645 514.112C507.269 514.368 507.805 514.752 508.253 515.264C508.701 515.776 508.933 516.456 508.949 517.304C508.949 518.056 508.741 518.728 508.325 519.32C507.909 519.912 507.317 520.376 506.549 520.712C505.797 521.048 504.909 521.216 503.885 521.216ZM513.009 521.168C512.513 521.168 512.097 521 511.761 520.664C511.425 520.328 511.257 519.912 511.257 519.416C511.257 518.92 511.425 518.504 511.761 518.168C512.097 517.832 512.513 517.664 513.009 517.664C513.489 517.664 513.897 517.832 514.233 518.168C514.569 518.504 514.737 518.92 514.737 519.416C514.737 519.912 514.569 520.328 514.233 520.664C513.897 521 513.489 521.168 513.009 521.168Z" fill="#091638"/>
<path d="M349.232 326.499C351.986 331.761 354.087 337.025 355.672 342.489C368.285 385.921 348.612 431.163 308.197 451.487C297.361 456.935 285.827 459.998 273.7 460.779C251.623 462.203 231.407 456.761 213.505 443.757C192.281 428.342 179.418 407.554 175.881 381.477C170.375 340.892 191.028 302.938 227.889 285.278C238.025 280.422 248.741 277.625 259.967 276.84C284.605 275.112 306.557 281.962 325.772 297.496C327.351 298.773 328.81 300.199 330.365 301.512C331.012 302.059 331.07 302.41 330.417 303.042C327.711 305.659 325.036 308.307 322.415 311.01C321.676 311.77 321.261 311.749 320.501 311.04C312.035 303.174 302.281 297.496 291.296 293.905C248.231 279.824 201.332 306.023 190.812 350.05C180.612 392.737 206.298 434.788 249.009 445.321C279.93 452.943 313.733 439.998 331.751 413.695C341.389 399.626 346.138 384.097 345.842 367.06C345.68 357.724 343.86 348.688 340.372 340.015C339.948 338.962 340.079 338.287 340.754 337.435C343.567 333.889 346.306 330.289 349.232 326.499Z" fill="#3362CC"/>
<path d="M393.992 261C385.121 271.579 376.158 282.044 367.353 292.641C344.18 320.538 321.979 349.174 301.796 379.333C297.416 385.878 293.245 392.572 288.655 398.967C284.74 404.421 279.854 408.867 272.998 410.403C264.944 412.208 257.768 410.409 251.645 404.836C249.874 403.224 248.71 401.077 247.302 399.153C236.95 384.998 226.621 370.822 216.281 356.659C214.849 354.698 214.901 352.414 216.44 350.472C221.427 344.187 228.927 342.437 236.901 345.744C240.935 347.418 244.239 349.998 246.771 353.611C253.105 362.641 259.502 371.623 265.879 380.622C267.174 382.451 267.476 382.473 268.896 380.732C276.033 371.986 282.758 362.916 289.956 354.216C309.476 330.615 331.379 309.449 355.104 290.125C367.054 280.392 379.386 271.169 392.019 262.347C392.673 261.895 393.336 261.449 393.992 261Z" fill="#3362CC"/>
</svg>
