<svg width="28" height="28" viewBox="0 0 28 28" fill="none" xmlns="http://www.w3.org/2000/svg">
<g clip-path="url(#clip0)">
<path d="M27.79 11.5951C27.3215 8.91593 26.1761 6.56299 24.3349 4.57021C21.8044 1.8304 18.6698 0.305321 14.9376 0.0389909C12.7275 -0.118353 10.5817 0.197057 8.56586 1.10359C3.83111 3.23278 1.00541 6.86829 0.14363 12.0058C0.0902201 12.3234 0.109708 12.651 0 12.9592V15.0372C0.0534103 15.3418 0.0259834 15.6521 0.0678455 15.9553C0.316131 17.7647 0.902201 19.4594 1.81812 21.0394C2.75352 22.6525 3.96896 24.0195 5.4428 25.1563C7.25803 26.5579 9.30061 27.4508 11.5576 27.8578C12.0051 27.9387 12.4605 27.93 12.908 28H14.9859C14.9852 27.9834 14.9888 27.9675 14.9968 27.9531C15.8383 27.9329 16.6655 27.8037 17.4811 27.6088C19.1628 27.2082 20.7138 26.5478 21.9184 25.2508C23.3194 23.7416 23.4825 21.7301 22.0375 20.1682C21.8888 20.0072 21.8896 19.9199 22.0281 19.7517C22.6914 18.9462 22.6965 18.0282 21.9986 17.2537C21.2674 16.441 20.4908 15.668 19.6759 14.939C19.1216 14.4425 18.3147 14.3869 17.668 14.755C17.1187 15.0675 16.7412 15.5713 16.2988 16.0015C16.1617 16.1343 16.065 16.1523 15.9047 16.0556C14.231 15.0379 12.8827 13.7012 11.8917 12.0065C11.8138 11.873 11.8773 11.8167 11.9567 11.7366C12.3212 11.3663 12.7124 11.0228 13.0451 10.6222C13.6341 9.91485 13.6557 8.95851 13.0494 8.27573C12.3176 7.45076 11.5374 6.66909 10.7167 5.93289C10.0029 5.29269 9.03356 5.28908 8.30097 5.91557C7.83833 6.31109 7.42692 6.76725 6.98737 7.1902C6.21364 7.93434 5.94731 8.84881 6.0498 9.8968C6.14146 10.8409 6.43017 11.7279 6.8127 12.5868C7.83833 14.8871 9.34392 16.838 11.2263 18.4901C12.9802 20.0296 14.934 21.2429 17.2255 21.8261C18.5363 22.1602 19.7784 22.1242 20.7896 21.0545C20.8683 20.9708 20.9152 20.9903 20.9845 21.0646C21.5698 21.6969 21.8427 22.4136 21.5503 23.266C21.2551 24.1299 20.6142 24.7045 19.873 25.1765C18.6756 25.9387 17.3425 26.3046 15.948 26.485C12.7391 26.9008 9.738 26.327 7.04078 24.5052C3.73078 22.2685 1.83833 19.1332 1.44569 15.1577C1.13389 11.9993 1.91339 9.0776 3.84121 6.55144C6.90364 2.53917 11.0025 0.860355 15.9993 1.55541C18.8813 1.95671 21.3071 3.33166 23.2826 5.47024C25.0083 7.33888 26.065 9.54386 26.4634 12.0534C26.7449 13.8217 26.6287 15.5756 26.1747 17.3078C26.0635 17.7322 26.2772 18.1177 26.6532 18.2122C27.0509 18.3118 27.3995 18.0744 27.5171 17.6305C28.0447 15.6384 28.1451 13.6276 27.79 11.5951ZM20.8401 19.0119C20.4908 19.3714 20.135 19.7243 19.7929 20.091C19.2422 20.6806 18.5579 20.6785 17.8441 20.5392C16.511 20.2801 15.3201 19.6767 14.1855 18.9643C11.6514 17.3735 9.72068 15.2191 8.34067 12.5731C7.89029 11.7091 7.53519 10.8026 7.4363 9.81813C7.4262 9.71853 7.42403 9.6182 7.41826 9.51788C7.36485 8.94408 7.59653 8.49587 8.00794 8.11189C8.36088 7.78277 8.69145 7.42982 9.03789 7.09348C9.4031 6.73838 9.60881 6.73693 9.96391 7.08843C10.5911 7.71131 11.2162 8.33636 11.8376 8.96501C12.2028 9.33527 12.2014 9.53376 11.8311 9.90691C11.4659 10.2757 11.092 10.6366 10.7218 11.0004C10.3219 11.393 10.2627 11.7438 10.4872 12.2606C10.9368 13.2956 11.6377 14.1559 12.3977 14.9686C13.336 15.9704 14.3869 16.8351 15.6189 17.4652C16.1776 17.751 16.524 17.712 16.9708 17.271C17.3533 16.8936 17.7279 16.5074 18.1133 16.1328C18.4489 15.8059 18.6337 15.8095 18.9679 16.1415C19.5951 16.7644 20.2209 17.3887 20.8437 18.0159C21.2219 18.397 21.2183 18.6215 20.8401 19.0119Z" fill="#091638"/>
</g>
<defs>
<clipPath id="clip0">
<rect width="27.9993" height="28" fill="white"/>
</clipPath>
</defs>
</svg>
