<svg id="Layer_1" data-name="Layer 1" xmlns="http://www.w3.org/2000/svg" viewBox="0 0 844.68 752.88"><defs><style>.cls-1{fill:#cae6fe;}.cls-2{fill:#2a365c;}.cls-3{fill:#61b3ff;}.cls-4{fill:#009ef3;}.cls-5{fill:#007ce6;}.cls-14,.cls-19,.cls-20,.cls-6{fill:#fefdff;}.cls-7{fill:#a4c2ff;}.cls-8{fill:#abd3f2;}.cls-9{fill:#90c3ef;}.cls-10{fill:#16162f;}.cls-11,.cls-14{font-size:26.73px;font-family:Montserrat-Black, Montserrat;font-weight:800;}.cls-11{fill:#091638;}.cls-12{letter-spacing:-0.03em;}.cls-13{letter-spacing:-0.01em;}.cls-15{fill:#445279;}.cls-16{fill:#cadaff;}.cls-17{fill:#5d92e8;}.cls-18{opacity:0.2;}.cls-19{opacity:0.3;}.cls-20{opacity:0.5;}.cls-21{fill:#fba691;}.cls-22{fill:#fd857d;}.cls-23{fill:#f05b56;}</style></defs><ellipse class="cls-1" cx="427.74" cy="726.5" rx="416.93" ry="26.38"/><path class="cls-1" d="M889.11,413.33a8.26,8.26,0,0,1-8.21,8.22H705.19a8.24,8.24,0,0,1-8.21-8.22,8.26,8.26,0,0,1,8.21-8.22h8.3a21.42,21.42,0,0,1,34.86-6.64,29.75,29.75,0,0,1,34.28-13.39,34,34,0,0,1,62.82,6.86,21.42,21.42,0,0,1,30.16,13.17h5.29A8.24,8.24,0,0,1,889.11,413.33Z" transform="translate(-117.2 -164.01)"/><path class="cls-1" d="M282.81,270.15a7.12,7.12,0,0,1-7.07,7.09H124.28a7.11,7.11,0,0,1-7.08-7.09,7.12,7.12,0,0,1,7.08-7.09h7.15a18.47,18.47,0,0,1,30-5.72A25.61,25.61,0,0,1,191,245.8a29.32,29.32,0,0,1,54.15,5.91,18.48,18.48,0,0,1,26,11.35h4.56A7.1,7.1,0,0,1,282.81,270.15Z" transform="translate(-117.2 -164.01)"/><path class="cls-1" d="M564.64,232.18a7.2,7.2,0,0,1-7.17,7.18H404A7.18,7.18,0,0,1,404,225h7.25a18.71,18.71,0,0,1,30.45-5.79,26,26,0,0,1,29.94-11.71,29.71,29.71,0,0,1,54.87,6A18.71,18.71,0,0,1,552.85,225h4.62A7.2,7.2,0,0,1,564.64,232.18Z" transform="translate(-117.2 -164.01)"/><path class="cls-2" d="M896,363.61A10.36,10.36,0,1,1,885.61,374,10.38,10.38,0,0,1,896,363.61Zm0,3.25a7.11,7.11,0,1,0,7.12,7.11A7.12,7.12,0,0,0,896,366.86Z" transform="translate(-117.2 -164.01)"/><path class="cls-3" d="M885.43,310.94a10.37,10.37,0,1,1-10.36,10.36A10.38,10.38,0,0,1,885.43,310.94Zm0,3.25a7.11,7.11,0,1,0,7.11,7.11A7.12,7.12,0,0,0,885.43,314.19Z" transform="translate(-117.2 -164.01)"/><path class="cls-4" d="M853.91,296.35a1.63,1.63,0,0,0,1.63,1.62h7.16a1.63,1.63,0,1,0,0-3.25h-7.16A1.63,1.63,0,0,0,853.91,296.35Z" transform="translate(-117.2 -164.01)"/><path class="cls-4" d="M841.37,296.35A1.62,1.62,0,0,0,843,298h7.17a1.63,1.63,0,1,0,0-3.25H843A1.62,1.62,0,0,0,841.37,296.35Z" transform="translate(-117.2 -164.01)"/><path class="cls-4" d="M851.22,286.28v6.44a1.63,1.63,0,1,0,3.25,0v-6.44a1.63,1.63,0,0,0-3.25,0Z" transform="translate(-117.2 -164.01)"/><path class="cls-4" d="M851.22,300v6.44a1.63,1.63,0,0,0,3.25,0V300a1.63,1.63,0,1,0-3.25,0Z" transform="translate(-117.2 -164.01)"/><path class="cls-5" d="M865.6,351.7a1.63,1.63,0,0,0,1.63,1.62h7.16a1.63,1.63,0,1,0,0-3.25h-7.16A1.63,1.63,0,0,0,865.6,351.7Z" transform="translate(-117.2 -164.01)"/><path class="cls-5" d="M853.06,351.7a1.62,1.62,0,0,0,1.62,1.62h7.17a1.63,1.63,0,0,0,0-3.25h-7.17A1.62,1.62,0,0,0,853.06,351.7Z" transform="translate(-117.2 -164.01)"/><path class="cls-5" d="M862.91,341.63v6.44a1.63,1.63,0,1,0,3.25,0v-6.44a1.63,1.63,0,0,0-3.25,0Z" transform="translate(-117.2 -164.01)"/><path class="cls-5" d="M862.91,355.32v6.44a1.63,1.63,0,0,0,3.25,0v-6.44a1.63,1.63,0,1,0-3.25,0Z" transform="translate(-117.2 -164.01)"/><path class="cls-4" d="M200,413.8a10.37,10.37,0,1,1-10.37-10.36A10.38,10.38,0,0,1,200,413.8Zm-3.25,0a7.12,7.12,0,1,0-7.12,7.11A7.12,7.12,0,0,0,196.76,413.8Z" transform="translate(-117.2 -164.01)"/><path class="cls-2" d="M242.31,399.82A10.37,10.37,0,1,1,232,389.46,10.37,10.37,0,0,1,242.31,399.82Zm-3.25,0a7.12,7.12,0,1,0-7.11,7.11A7.12,7.12,0,0,0,239.06,399.82Z" transform="translate(-117.2 -164.01)"/><path class="cls-5" d="M243.63,355.33A1.63,1.63,0,0,0,242,357v7.17a1.63,1.63,0,0,0,3.25,0V357A1.63,1.63,0,0,0,243.63,355.33Z" transform="translate(-117.2 -164.01)"/><path class="cls-5" d="M243.63,342.79a1.62,1.62,0,0,0-1.62,1.62v7.17a1.63,1.63,0,1,0,3.25,0v-7.17A1.62,1.62,0,0,0,243.63,342.79Z" transform="translate(-117.2 -164.01)"/><path class="cls-5" d="M253.69,352.64h-6.43a1.63,1.63,0,1,0,0,3.25h6.43a1.63,1.63,0,1,0,0-3.25Z" transform="translate(-117.2 -164.01)"/><path class="cls-5" d="M240,352.64h-6.44a1.63,1.63,0,0,0,0,3.25H240a1.63,1.63,0,1,0,0-3.25Z" transform="translate(-117.2 -164.01)"/><path class="cls-3" d="M199.71,366.81a1.63,1.63,0,0,0-1.63,1.63v7.17a1.63,1.63,0,0,0,3.25,0v-7.17A1.63,1.63,0,0,0,199.71,366.81Z" transform="translate(-117.2 -164.01)"/><path class="cls-3" d="M199.71,354.27a1.63,1.63,0,0,0-1.63,1.62v7.17a1.63,1.63,0,1,0,3.25,0v-7.17A1.63,1.63,0,0,0,199.71,354.27Z" transform="translate(-117.2 -164.01)"/><path class="cls-3" d="M209.77,364.13h-6.44a1.63,1.63,0,1,0,0,3.25h6.44a1.63,1.63,0,0,0,0-3.25Z" transform="translate(-117.2 -164.01)"/><path class="cls-3" d="M196.08,364.13h-6.44a1.63,1.63,0,0,0,0,3.25h6.44a1.63,1.63,0,1,0,0-3.25Z" transform="translate(-117.2 -164.01)"/><path class="cls-2" d="M233.1,468.31v34.61a4,4,0,0,1-4,4H194.49a4,4,0,0,1-3.52-2.08,3.56,3.56,0,0,1-.17-.41q-.11-.3-.21-.63s0,0,0-.07,0-.07,0-.09a4.25,4.25,0,0,1-.06-.71V468.31a4,4,0,0,1,3.57-4h35a3.83,3.83,0,0,1,1.18.17h0A4,4,0,0,1,233.1,468.31Z" transform="translate(-117.2 -164.01)"/><path class="cls-6" d="M214.33,497.35l0,3.45-4.38,0,0-3.3a18.21,18.21,0,0,1-8-2.24l2.41-5.33a14.91,14.91,0,0,0,7.16,2.05c2.08,0,2.83-.41,2.84-1.16,0-2.73-12-.62-12-8.74,0-3.51,2.6-6.44,7.71-7.12l0-3.39,4.39,0,0,3.33a16.16,16.16,0,0,1,6.3,1.85l-2.25,5.3a13.47,13.47,0,0,0-6.05-1.67c-2.15,0-2.84.6-2.84,1.35,0,2.61,12,.53,12,8.55C221.6,493.65,219.15,496.55,214.33,497.35Z" transform="translate(-117.2 -164.01)"/><path class="cls-7" d="M917.32,708.71v34.64a4,4,0,0,1-4,4H878.66a4,4,0,0,1-3.52-2.08,3.56,3.56,0,0,1-.17-.41l-.21-.63s0,0,0-.07,0-.07,0-.09a4.28,4.28,0,0,1-.06-.72V708.71a4,4,0,0,1,3.57-4h35.09a3.5,3.5,0,0,1,1.17.18h0A4,4,0,0,1,917.32,708.71Z" transform="translate(-117.2 -164.01)"/><path class="cls-6" d="M896.42,713.37a13.36,13.36,0,1,0,13.36,13.36A13.38,13.38,0,0,0,896.42,713.37Zm.54,18.3V727h6a18.11,18.11,0,0,1-.71,4.68Zm3.79,5.33a15,15,0,0,0,2.32-4.26h4.07a12.26,12.26,0,0,1-8,6A14.67,14.67,0,0,0,900.75,737Zm1.17-4.26a13.56,13.56,0,0,1-2,3.56,11.08,11.08,0,0,1-3,2.71v-6.27Zm-5-12.58v-5.7l.48,0a16.76,16.76,0,0,1,4.19,5.67Zm5.84,0a17.53,17.53,0,0,0-1.8-3.29,18,18,0,0,0-1.69-2.08,12.35,12.35,0,0,1,7.48,5.37ZM897,725.91v-4.68h5.11a15.32,15.32,0,0,1,.92,4.68Zm7.11,0a16.66,16.66,0,0,0-.86-4.68h4.2a12.31,12.31,0,0,1,1.27,4.68Zm4.64,1.08a12.35,12.35,0,0,1-1,4.68h-4.27a19.15,19.15,0,0,0,.67-4.68Zm-19.14,4.68h-4.4a12.35,12.35,0,0,1-1-4.68h4.76A18.68,18.68,0,0,0,889.57,731.67Zm1.77-11.51a16.87,16.87,0,0,1,1.5-2.65,15.47,15.47,0,0,1,2.71-3l.34,0v5.7Zm4.55,1.07v4.68H890a15.09,15.09,0,0,1,.93-4.68Zm-9.83-1.07a12.35,12.35,0,0,1,7.64-5.41,17.67,17.67,0,0,0-3.53,5.41Zm9.83,6.83v4.68h-5.2A17.56,17.56,0,0,1,890,727Zm-11.72-1.08a12.31,12.31,0,0,1,1.27-4.68h4.33a16,16,0,0,0-.86,4.68Zm5.74,6.83a15,15,0,0,0,2.32,4.26,13.75,13.75,0,0,0,1.65,1.75,12.4,12.4,0,0,1-8.17-6Zm6,0v6.19a12.66,12.66,0,0,1-4.84-6.19Z" transform="translate(-117.2 -164.01)"/><path class="cls-2" d="M640,357.76l4.78,1.58,2.53.83,7.18,2.37s107-86.51,79.54-138c-8.43-15.87-33.94-14.88-48.24,38.16C672.56,311.82,640,357.76,640,357.76Z" transform="translate(-117.2 -164.01)"/><path class="cls-6" d="M644.81,359.34l2.53.83c21.49-22.61,38.07-49.35,48.52-68.55A375.26,375.26,0,0,0,715,251.22a1.21,1.21,0,0,0-2.25-.87,371.63,371.63,0,0,1-19.07,40.15C683.21,309.8,666.49,336.74,644.81,359.34Z" transform="translate(-117.2 -164.01)"/><path class="cls-8" d="M361.2,813.89l-4.71.31-2.5.16-7.08.45s-76.72-103.73-39.7-144.06c11.4-12.42,34.32-5.52,34.82,46C342.49,764.52,361.2,813.89,361.2,813.89Z" transform="translate(-117.2 -164.01)"/><path class="cls-9" d="M356.49,814.2l-2.5.16c-14.18-25.6-22.93-53.78-27.9-73.68a351.7,351.7,0,0,1-7.9-41.2,1.13,1.13,0,0,1,2.25-.25,350.54,350.54,0,0,0,7.85,40.94C333.29,760.17,342.13,788.57,356.49,814.2Z" transform="translate(-117.2 -164.01)"/><path class="cls-1" d="M384.89,829.52l-5.5,4.05-2.92,2.15-8.27,6.08S193.66,775.26,207.29,697.18c4.2-24,37.53-33.53,78.37,28.9C323.52,784,384.89,829.52,384.89,829.52Z" transform="translate(-117.2 -164.01)"/><path class="cls-8" d="M379.39,833.57l-2.92,2.15c-37.28-20.13-70-47.64-91.55-68-25.64-24.2-41.65-43.86-41.8-44.06a1.62,1.62,0,0,1,.24-2.3,1.63,1.63,0,0,1,2.3.23,504.14,504.14,0,0,0,41.55,43.78C308.91,785.83,341.88,813.55,379.39,833.57Z" transform="translate(-117.2 -164.01)"/><path class="cls-2" d="M615.22,374.4l5.27,5,2.79,2.67,7.91,7.56s193.64-46.46,189.92-130.88c-1.14-26-35.09-40.58-86.82,19.83C686.34,334.62,615.22,374.4,615.22,374.4Z" transform="translate(-117.2 -164.01)"/><path class="cls-6" d="M620.49,379.44l2.79,2.67c42.16-16.18,80.48-40.79,106.1-59.39,30.43-22.07,50-40.67,50.23-40.86a1.72,1.72,0,0,0,.06-2.46,1.74,1.74,0,0,0-2.46-.07c-.2.19-19.67,18.66-49.93,40.6C701.53,338.61,662.89,363.41,620.49,379.44Z" transform="translate(-117.2 -164.01)"/><path class="cls-2" d="M268.69,317.91c7.19,21,28.37,19.46,28.63,36.72s11.62,29.91,26.39,26.14,25.42-7.37,32.92,9.51,29.51,24.56,37.53,10.67c2-3.46,4.16-7.21,6.27-10.88.57-1,1.15-2,1.71-3l.4-.68a33.46,33.46,0,0,0-9.11-43.76c-5.59-4-12.17-6.18-19.44-3.71-22.74,7.71-15.39-15.78-29.51-25-16.25-10.64-29.28,2.69-40.5-6.48C288.38,294.67,261.5,296.93,268.69,317.91Z" transform="translate(-117.2 -164.01)"/><path class="cls-6" d="M296.53,326l103.9,64.1c.57-1,1.15-2,1.71-3l-103.8-64a1.72,1.72,0,0,0-1.81,2.93Z" transform="translate(-117.2 -164.01)"/><path class="cls-2" d="M284.65,200.7C281.49,228,306,237.56,297.05,257s-3,39.6,15.53,43.27,32.33,5.32,31.7,28.17,19.86,43.18,36.23,31.94l12.81-8.81,3.51-2.43c.27-.18.54-.36.8-.55,17.37-12,23.27-35.2,13.17-53.73-4.1-7.5-10.31-13.39-19.74-14.51-29.51-3.52-8.77-25.84-19.62-43.68C359,216.09,337.3,224,329.66,207.8,319,185.23,287.81,173.42,284.65,200.7Z" transform="translate(-117.2 -164.01)"/><path class="cls-6" d="M311.45,224.55l81.87,127,3.51-2.43L315,222.24a2.13,2.13,0,1,0-3.59,2.31Z" transform="translate(-117.2 -164.01)"/><path class="cls-8" d="M730.61,664c-21.08,6.9-19.83,28.11-37.1,28.13s-30.06,11.22-26.49,26,7,25.52-9.95,32.79-25,29.17-11.17,37.38c3.43,2,7.14,4.26,10.79,6.42l3,1.75.67.4a33.47,33.47,0,0,0,43.88-8.51c4.12-5.54,6.34-12.09,4-19.39-7.4-22.84,16-15.18,25.41-29.17,10.86-16.11-2.29-29.32,7-40.41C753.59,684,751.69,657.08,730.61,664Z" transform="translate(-117.2 -164.01)"/><path class="cls-9" d="M722.18,691.71l-65.49,103,3,1.75,65.43-102.93a1.72,1.72,0,1,0-2.91-1.85Z" transform="translate(-117.2 -164.01)"/><path class="cls-1" d="M810.77,708c-27.23-3.53-37.15,20.82-56.45,11.63s-39.56-3.5-43.47,14.95-5.76,32.26-28.6,31.32-43.44,19.28-32.42,35.8c2.74,4.11,5.71,8.56,8.63,12.92l2.38,3.54.54.81c11.75,17.53,34.89,23.75,53.55,13.89,7.55-4,13.53-10.12,14.78-19.53,3.91-29.47,25.95-8.43,43.94-19,20.72-12.21,13.07-34,29.4-41.39C825.76,742.54,838,711.48,810.77,708Z" transform="translate(-117.2 -164.01)"/><path class="cls-8" d="M786.56,734.42l-128.1,80.15,2.38,3.54,128-80.07a2.13,2.13,0,1,0-2.26-3.62Z" transform="translate(-117.2 -164.01)"/><path class="cls-8" d="M379.1,602.92c-26.64-30.69-74-91.18-88.65-115.48-19.07-31.75-27.43-57.58-24.84-76.76a2.33,2.33,0,0,1,4.61.62c-4.54,33.54,22.75,82.55,111.2,187.43Z" transform="translate(-117.2 -164.01)"/><path class="cls-1" d="M275.81,457.72s-15.51,11.69-35-16.38C240.8,441.34,269.61,430.17,275.81,457.72Z" transform="translate(-117.2 -164.01)"/><path class="cls-1" d="M285.11,472.71s-12.54-14.83,14.4-35.87C299.51,436.84,312.27,465,285.11,472.71Z" transform="translate(-117.2 -164.01)"/><path class="cls-1" d="M268.05,425.55s-16.77-9.81,1.62-38.62C269.67,386.93,291.08,409.22,268.05,425.55Z" transform="translate(-117.2 -164.01)"/><path class="cls-1" d="M302.9,503.45s-10.64,16.25-38.48-3.57C264.42,499.88,287.75,479.62,302.9,503.45Z" transform="translate(-117.2 -164.01)"/><path class="cls-1" d="M314.69,517.28s-14.92-12.44,8-37.81C322.67,479.47,340.1,505,314.69,517.28Z" transform="translate(-117.2 -164.01)"/><path class="cls-1" d="M329,537.83s-10.33,16.46-38.54-2.83C290.41,535,313.36,514.3,329,537.83Z" transform="translate(-117.2 -164.01)"/><path class="cls-6" d="M560.65,325.86c13.82-38.21,27.94-70,42-94.58,18.43-32.13,36.9-52,54.92-59.1a2.33,2.33,0,1,1,1.7,4.33c-31.49,12.38-65.28,67.94-97.8,160.77Z" transform="translate(-117.2 -164.01)"/><path class="cls-2" d="M621.5,204s-17.77-7.85-2.76-38.55C618.74,165.46,642.54,185.18,621.5,204Z" transform="translate(-117.2 -164.01)"/><path class="cls-2" d="M613,219.44s6.84-18.18,38.33-4.91C651.28,214.53,632.92,239.39,613,219.44Z" transform="translate(-117.2 -164.01)"/><path class="cls-2" d="M645.82,181.56s.39-19.42,34.5-17.4C680.32,164.16,671.3,193.71,645.82,181.56Z" transform="translate(-117.2 -164.01)"/><path class="cls-2" d="M594.77,250s-19.37-1.37-15.63-35.35C579.14,214.6,608.2,225.11,594.77,250Z" transform="translate(-117.2 -164.01)"/><path class="cls-2" d="M588.43,267s3.6-19.09,36.91-11.46C625.34,255.53,611.55,283.19,588.43,267Z" transform="translate(-117.2 -164.01)"/><path class="cls-2" d="M577.44,289.45s-19.4-1-16.31-35C561.13,254.41,590.39,264.37,577.44,289.45Z" transform="translate(-117.2 -164.01)"/><path class="cls-2" d="M688.8,312.53V861.66a31.16,31.16,0,0,1-31.16,31.17H384.18A31.15,31.15,0,0,1,353,861.66V312.53a31.16,31.16,0,0,1,31.17-31.17H657.64a31.17,31.17,0,0,1,31.16,31.17Z" transform="translate(-117.2 -164.01)"/><path class="cls-10" d="M688.8,312.53V861.66a31.16,31.16,0,0,1-31.16,31.17H384.18a31.1,31.1,0,0,1-22.12-9.2L671.77,284.75A31.14,31.14,0,0,1,688.8,312.53Z" transform="translate(-117.2 -164.01)"/><path class="cls-10" d="M228.07,216.14h7.74a0,0,0,0,1,0,0v72.55a0,0,0,0,1,0,0h-7.74a3.66,3.66,0,0,1-3.66-3.66V219.8A3.66,3.66,0,0,1,228.07,216.14Z"/><path class="cls-10" d="M691.8,374.64h6.33a0,0,0,0,1,0,0v59.07a0,0,0,0,1,0,0H691.8a3,3,0,0,1-3-3V377.63A3,3,0,0,1,691.8,374.64Z" transform="translate(1269.73 644.34) rotate(180)"/><path class="cls-10" d="M228.07,298.53h7.74a0,0,0,0,1,0,0v72.55a0,0,0,0,1,0,0h-7.74a3.66,3.66,0,0,1-3.66-3.66V302.19A3.66,3.66,0,0,1,228.07,298.53Z"/><path class="cls-6" d="M673.26,311.17V863A14.26,14.26,0,0,1,659,877.28H382.82A14.24,14.24,0,0,1,368.56,863V311.17a14.25,14.25,0,0,1,14.26-14.26H659a14,14,0,0,1,5.83,1.25A14.25,14.25,0,0,1,673.26,311.17Z" transform="translate(-117.2 -164.01)"/><path class="cls-1" d="M645.09,718.87H477a5.53,5.53,0,0,1-5.53-5.53h0a5.54,5.54,0,0,1,5.53-5.53H645.09a5.54,5.54,0,0,1,5.53,5.53h0A5.53,5.53,0,0,1,645.09,718.87Z" transform="translate(-117.2 -164.01)"/><path class="cls-1" d="M645.09,742.84H477a5.54,5.54,0,0,1-5.53-5.53h0a5.54,5.54,0,0,1,5.53-5.54H645.09a5.54,5.54,0,0,1,5.53,5.54h0A5.54,5.54,0,0,1,645.09,742.84Z" transform="translate(-117.2 -164.01)"/><path class="cls-1" d="M645.09,766.8H477a5.54,5.54,0,0,1-5.53-5.53h0a5.53,5.53,0,0,1,5.53-5.53H645.09a5.53,5.53,0,0,1,5.53,5.53h0A5.54,5.54,0,0,1,645.09,766.8Z" transform="translate(-117.2 -164.01)"/><rect class="cls-1" x="280.3" y="543.82" width="58.94" height="58.94"/><path class="cls-1" d="M494.55,368.68H403a5.54,5.54,0,0,0-5.53,5.53h0a5.53,5.53,0,0,0,5.53,5.53h91.52a5.53,5.53,0,0,0,5.53-5.53h0A5.54,5.54,0,0,0,494.55,368.68Z" transform="translate(-117.2 -164.01)"/><path class="cls-1" d="M494.55,392.64H403a5.54,5.54,0,0,0-5.53,5.53h0a5.54,5.54,0,0,0,5.53,5.54h91.52a5.54,5.54,0,0,0,5.53-5.54h0A5.54,5.54,0,0,0,494.55,392.64Z" transform="translate(-117.2 -164.01)"/><path class="cls-1" d="M494.55,416.61H403a5.53,5.53,0,0,0-5.53,5.53h0a5.54,5.54,0,0,0,5.53,5.53h91.52a5.54,5.54,0,0,0,5.53-5.53h0A5.53,5.53,0,0,0,494.55,416.61Z" transform="translate(-117.2 -164.01)"/><path class="cls-1" d="M644.92,368.68H553.41a5.53,5.53,0,0,0-5.53,5.53h0a5.52,5.52,0,0,0,5.53,5.53h91.51a5.53,5.53,0,0,0,5.53-5.53h0A5.54,5.54,0,0,0,644.92,368.68Z" transform="translate(-117.2 -164.01)"/><rect class="cls-1" x="430.68" y="228.63" width="102.57" height="11.06" rx="5.53"/><path class="cls-1" d="M644.92,416.61H553.41a5.52,5.52,0,0,0-5.53,5.53h0a5.53,5.53,0,0,0,5.53,5.53h91.51a5.54,5.54,0,0,0,5.53-5.53h0A5.53,5.53,0,0,0,644.92,416.61Z" transform="translate(-117.2 -164.01)"/><rect class="cls-2" x="318.09" y="630.04" width="172.85" height="53.39" rx="8.57"/><text class="cls-11" transform="translate(327.95 665.95)">Ma<tspan class="cls-12" x="42.57" y="0">k</tspan><tspan x="60.96" y="0">e of</tspan><tspan class="cls-13" x="115.94" y="0">f</tspan><tspan x="127.19" y="0">er</tspan></text><text class="cls-14" transform="translate(326.95 664.95)">Ma<tspan class="cls-12" x="42.57" y="0">k</tspan><tspan x="60.96" y="0">e of</tspan><tspan class="cls-13" x="115.94" y="0">f</tspan><tspan x="127.19" y="0">er</tspan></text><path class="cls-2" d="M413.77,301.24l15.11,23a22.77,22.77,0,0,0,19,10.28h146a22.77,22.77,0,0,0,19-10.28l15.1-23a4.34,4.34,0,0,0-4.33-4.33H418.11A4.35,4.35,0,0,0,413.77,301.24Z" transform="translate(-117.2 -164.01)"/><path class="cls-15" d="M570.5,317.86H445.43a4.64,4.64,0,0,1-4.63-4.62h0a4.64,4.64,0,0,1,4.63-4.62H570.5a4.64,4.64,0,0,1,4.63,4.62h0A4.64,4.64,0,0,1,570.5,317.86Z" transform="translate(-117.2 -164.01)"/><path class="cls-15" d="M599.64,312.93a5.55,5.55,0,1,1-5.54-5.55A5.54,5.54,0,0,1,599.64,312.93Z" transform="translate(-117.2 -164.01)"/><rect class="cls-7" x="272.91" y="376.88" width="263.08" height="119.53"/><rect class="cls-16" x="272.91" y="376.88" width="263.08" height="9.49"/><polygon class="cls-15" points="536 369.77 272.91 369.77 293.39 321.28 515.51 321.28 536 369.77"/><rect class="cls-2" x="261.22" y="369.44" width="283.12" height="7.44"/><polygon class="cls-17" points="459.85 496.41 349.06 496.41 349.06 403.69 405.94 372.78 459.85 400.65 459.85 496.41"/><rect class="cls-5" x="342.73" y="412.14" width="9.32" height="84.27"/><rect class="cls-5" x="456.99" y="412.14" width="9.32" height="84.27"/><rect class="cls-2" x="385.5" y="434.01" width="37.9" height="62.56"/><rect class="cls-15" x="389.32" y="437.82" width="30.27" height="58.74"/><path class="cls-2" d="M534.85,633a3.18,3.18,0,1,1-3.18-3.18A3.18,3.18,0,0,1,534.85,633Z" transform="translate(-117.2 -164.01)"/><path class="cls-2" d="M378.23,429.34h52.45a0,0,0,0,1,0,0v3.17a1.5,1.5,0,0,1-1.5,1.5H379.73a1.5,1.5,0,0,1-1.5-1.5v-3.17A0,0,0,0,1,378.23,429.34Z"/><rect class="cls-1" x="393.44" y="442.13" width="9.34" height="19.02"/><polygon class="cls-6" points="402.78 442.88 402.78 448.51 393.44 457.85 393.44 452.22 402.78 442.88"/><rect class="cls-18" x="393.44" y="442.13" width="9.34" height="2.69"/><rect class="cls-1" x="406.62" y="442.13" width="9.34" height="19.02"/><polygon class="cls-6" points="415.97 442.88 415.97 448.51 406.62 457.85 406.62 452.22 415.97 442.88"/><rect class="cls-18" x="406.62" y="442.13" width="9.34" height="2.69"/><path class="cls-2" d="M264.48,359.35H541.09a3.25,3.25,0,0,1,3.25,3.25v6.88a0,0,0,0,1,0,0H261.22a0,0,0,0,1,0,0v-6.88A3.25,3.25,0,0,1,264.48,359.35Z"/><polygon class="cls-15" points="487.81 412.23 472.64 412.19 456.87 412.14 404.46 376.81 352.04 412.14 336.27 412.19 321.1 412.23 404.46 356.04 487.81 412.23"/><polygon class="cls-2" points="472.64 412.19 456.87 412.14 404.46 376.81 352.04 412.14 336.27 412.19 404.46 366.22 472.64 412.19"/><rect class="cls-1" x="299.16" y="428.38" width="22.34" height="41.7"/><polygon class="cls-6" points="321.51 428.38 313.63 428.38 299.22 442.79 299.22 454.57 321.51 432.28 321.51 428.38"/><polygon class="cls-6" points="321.51 446.02 299.22 468.3 299.22 470.08 303.33 470.08 321.51 451.9 321.51 446.02"/><path class="cls-15" d="M413.31,589.34v47.8h25.4v-47.8Zm3.05,3H435.6v19.28H416.36Zm0,41.7V614.81H435.6v19.28Z" transform="translate(-117.2 -164.01)"/><rect class="cls-18" x="296.11" y="425.59" width="25.39" height="4.92"/><path class="cls-2" d="M291.19,421.47h35.24a0,0,0,0,1,0,0v2.62a1.24,1.24,0,0,1-1.24,1.24H292.43a1.24,1.24,0,0,1-1.24-1.24v-2.62A0,0,0,0,1,291.19,421.47Z"/><rect class="cls-5" x="296.11" y="473.13" width="25.4" height="4.89"/><rect class="cls-1" x="495.79" y="428.38" width="22.34" height="41.7"/><polygon class="cls-6" points="518.13 428.38 510.26 428.38 495.85 442.79 495.85 454.57 518.13 432.28 518.13 428.38"/><polygon class="cls-6" points="518.13 446.02 495.85 468.3 495.85 470.08 499.95 470.08 518.13 451.9 518.13 446.02"/><path class="cls-15" d="M609.93,589.34v47.8h25.4v-47.8Zm3.06,3h19.23v19.28H613Zm0,41.7V614.81h19.23v19.28Z" transform="translate(-117.2 -164.01)"/><rect class="cls-18" x="492.73" y="425.59" width="25.39" height="4.92"/><path class="cls-2" d="M487.81,421.47h35.24a0,0,0,0,1,0,0v2.62a1.24,1.24,0,0,1-1.24,1.24H489.05a1.24,1.24,0,0,1-1.24-1.24v-2.62A0,0,0,0,1,487.81,421.47Z"/><rect class="cls-5" x="492.73" y="473.13" width="25.4" height="4.89"/><rect class="cls-2" x="299.16" y="326.51" width="212.02" height="4.41" rx="0.71"/><rect class="cls-2" x="294.74" y="338.1" width="219.25" height="4.41" rx="0.71"/><rect class="cls-2" x="288.13" y="349.68" width="234.92" height="4.41" rx="0.71"/><rect class="cls-17" x="308.81" y="305.97" width="29.38" height="33.14"/><rect class="cls-7" x="308.81" y="305.97" width="29.38" height="8.51"/><path class="cls-15" d="M461.52,458.76v3.94a7.7,7.7,0,0,1-.19,1.67,7.29,7.29,0,0,1-7.08,5.61h-27.1a7.28,7.28,0,0,1-7.08-5.61,7.13,7.13,0,0,1-.2-1.67v-3.94Z" transform="translate(-117.2 -164.01)"/><path class="cls-2" d="M461.33,464.37a7.29,7.29,0,0,1-7.08,5.61h-27.1a7.28,7.28,0,0,1-7.08-5.61Z" transform="translate(-117.2 -164.01)"/><rect class="cls-15" x="265.47" y="496.41" width="277.65" height="7.41" rx="1.19"/><rect class="cls-2" x="258.53" y="503.7" width="291.53" height="7.41" rx="1.19"/><polygon class="cls-16" points="352.04 412.23 352.04 423.49 405.17 389.29 456.99 423.49 456.87 412.23 404.46 376.9 352.04 412.23"/><path class="cls-19" d="M672.11,310.77V862.63a14.27,14.27,0,0,1-14.26,14.26H381.67a14.24,14.24,0,0,1-13.09-8.62L663.69,297.76A14.27,14.27,0,0,1,672.11,310.77Z" transform="translate(-117.2 -164.01)"/><path class="cls-3" d="M194.08,792l22.9,7.67a5.54,5.54,0,0,0,7-3.49l19.41-58,8-24L218,703l-4.76,14.21L190.6,785A5.52,5.52,0,0,0,194.08,792Z" transform="translate(-117.2 -164.01)"/><path class="cls-4" d="M213.28,717.21c6.65,7.38,16.69,16.08,30.11,20.95l8-24L218,703Z" transform="translate(-117.2 -164.01)"/><path class="cls-2" d="M215.9,799.29,213.66,806,184.91,891.9A10.93,10.93,0,1,1,164.18,885l26-77.82,4.95-14.79Z" transform="translate(-117.2 -164.01)"/><polygon class="cls-10" points="98.7 635.28 96.46 641.96 73.03 643.14 77.97 628.35 98.7 635.28"/><path class="cls-15" d="M169.31,592.11a99,99,0,1,0,125.62-61.83A99,99,0,0,0,169.31,592.11ZM183.68,597A83.82,83.82,0,1,1,236,703.35,83.92,83.92,0,0,1,183.68,597Z" transform="translate(-117.2 -164.01)"/><path class="cls-20" d="M179.42,629.89a83.92,83.92,0,0,0,89.5,77.73,85,85,0,0,0,11.6-1.63,83.41,83.41,0,0,0,27-11A83.79,83.79,0,1,0,186.5,589.86a83.07,83.07,0,0,0-7.09,28.31A84.9,84.9,0,0,0,179.42,629.89Z" transform="translate(-117.2 -164.01)"/><path class="cls-20" d="M203.29,565.27,329.55,674.93a83.51,83.51,0,0,0,17-43.79L244.27,542.3A83.47,83.47,0,0,0,203.29,565.27Z" transform="translate(-117.2 -164.01)"/><path class="cls-20" d="M179.41,618.17,280.52,706a83.41,83.41,0,0,0,27-11L186.5,589.86A83.07,83.07,0,0,0,179.41,618.17Z" transform="translate(-117.2 -164.01)"/><polygon class="cls-21" points="621.88 686.72 620.83 705.74 636.26 706.08 638.14 686.1 621.88 686.72"/><path class="cls-7" d="M744.15,867.08s7.94-1.8,10.11-1.68,16.12,17,21,18.11c8.83,2.08,8.31,16,2.87,16.45-15.72,1.4-42.25-6.23-42.25-6.23s-1.79-17.91-.51-23.46S739.71,868.55,744.15,867.08Z" transform="translate(-117.2 -164.01)"/><path class="cls-6" d="M756.53,882.78a1.09,1.09,0,0,1-1.07-1.71c.12-.16,2.93-4,6.27-5.22a7.48,7.48,0,0,1,7.59,1.21,1.09,1.09,0,1,1-1.48,1.59,5.3,5.3,0,0,0-5.35-.76c-2.73,1-5.25,4.43-5.27,4.46A1.11,1.11,0,0,1,756.53,882.78Z" transform="translate(-117.2 -164.01)"/><path class="cls-6" d="M753.66,879.38a1.09,1.09,0,0,1-.83-.19,1.08,1.08,0,0,1-.24-1.51c.12-.17,2.93-4,6.27-5.23a7.48,7.48,0,0,1,7.59,1.22,1.08,1.08,0,1,1-1.48,1.58,5.36,5.36,0,0,0-5.36-.76c-2.73,1-5.24,4.43-5.27,4.46A1.07,1.07,0,0,1,753.66,879.38Z" transform="translate(-117.2 -164.01)"/><path class="cls-6" d="M760.61,885.73a1.09,1.09,0,0,1-1.07-1.71c.12-.16,2.93-4,6.27-5.22A7.5,7.5,0,0,1,773.4,880a1.09,1.09,0,1,1-1.48,1.59,5.32,5.32,0,0,0-5.35-.76c-2.74,1-5.25,4.43-5.27,4.46A1.07,1.07,0,0,1,760.61,885.73Z" transform="translate(-117.2 -164.01)"/><path class="cls-2" d="M795.82,619s-.32,4.47-.91,11.87c-.15,2-.32,4.13-.51,6.49-2,24.85-5.86,69.79-10.08,101.68-5.91,44.7-24.55,118.15-24.55,118.15l-19.24-.66-1.9-.07-4.56-.15s3.2-46.47,7.29-86.82c2.69-26.61,4.29-89.56,5.07-129.33.39-20.5.58-34.84.58-34.84Z" transform="translate(-117.2 -164.01)"/><path class="cls-10" d="M795.82,619s-.32,4.47-.91,11.87c-.15,2-.32,4.13-.51,6.49-8.87,1.66-33.27,2.8-48,2.8.39-20.5.58-34.84.58-34.84Z" transform="translate(-117.2 -164.01)"/><path class="cls-10" d="M757.38,630.56c0,1.53-1.79,146.38-16.85,226l-1.9-.08c15.07-79.35,16.84-224.41,16.86-225.92Z" transform="translate(-117.2 -164.01)"/><polygon class="cls-21" points="742.55 690.38 741.91 707.53 726.23 706.7 725.88 688.48 742.55 690.38"/><path class="cls-7" d="M855.11,870.75s3.42-4.45,6.08-4.22,22.94,16.86,30,18.31,5.57,6.61,4.24,9.24-56.09-1.83-56.09-1.83-1.26-16.34.6-21.3S849.6,871.85,855.11,870.75Z" transform="translate(-117.2 -164.01)"/><path class="cls-6" d="M866.29,882.31a1,1,0,0,1-.77-.1,1,1,0,0,1-.34-1.35c.09-.16,2.29-3.86,5.2-5.27a6.78,6.78,0,0,1,7,.43,1,1,0,0,1-1.2,1.56,4.84,4.84,0,0,0-4.91-.22c-2.37,1.15-4.35,4.47-4.37,4.5A1,1,0,0,1,866.29,882.31Z" transform="translate(-117.2 -164.01)"/><path class="cls-6" d="M863.4,879.49a1,1,0,0,1-.77-.1,1,1,0,0,1-.35-1.35c.09-.16,2.3-3.85,5.21-5.27a6.77,6.77,0,0,1,7,.43,1,1,0,1,1-1.19,1.56,4.88,4.88,0,0,0-4.91-.22C866,875.7,864,879,864,879A1,1,0,0,1,863.4,879.49Z" transform="translate(-117.2 -164.01)"/><path class="cls-6" d="M870.24,884.62a1,1,0,0,1-1.12-1.45c.09-.16,2.3-3.86,5.21-5.27a6.78,6.78,0,0,1,7,.43,1,1,0,0,1-1.2,1.56,4.84,4.84,0,0,0-4.91-.22c-2.38,1.16-4.35,4.47-4.37,4.5A1,1,0,0,1,870.24,884.62Z" transform="translate(-117.2 -164.01)"/><path class="cls-2" d="M862.6,858.86l-15.94-1.19-1.9-.13-3.87-.29s-9.79-93.19-12.84-118c-2.65-21.57-15-70-23-100.17-2.28-8.56-4.21-15.64-5.48-20.22-1-3.6-1.54-5.65-1.54-5.65L851.29,608s.15,1.17.4,3.27c.52,4.32,1.51,12.58,2.72,23,3.32,28.26,8.38,72.24,10.35,94.63C869.78,786.55,862.6,858.86,862.6,858.86Z" transform="translate(-117.2 -164.01)"/><path class="cls-10" d="M854.41,634.27,805,639.06c-2.28-8.56-4.21-15.64-5.48-20.22l52.15-7.53C852.21,615.63,853.2,623.89,854.41,634.27Z" transform="translate(-117.2 -164.01)"/><path class="cls-10" d="M846.66,857.67l-1.9-.13c-.92-28.82-3.75-100.79-9.53-131.31-7.25-38.46-23.94-94.46-24.11-95l1.81-.54c.17.57,16.89,56.67,24.15,95.23C842.9,756.59,845.75,828.91,846.66,857.67Z" transform="translate(-117.2 -164.01)"/><path class="cls-21" d="M848.27,474.92c1,7,2.12,13.64,3.07,19.24,1.51,9,2.66,15.23,2.66,15.23l8.17,23.43a13.79,13.79,0,0,0,19.58,7.58,2.28,2.28,0,0,0,.38-.2c2.73-2.1,4.9-6.18,6.91-15.77h0c.07-.83,7.31-36.59,7.38-49.46l-16.57-1.58c-.71-1.54-4.26,16.85-5.05,15.15l-1.55-3.37-2.72-5.86-4-8.72c-10.13-21.79-20.92-44.85-20.92-44.85C842.07,427.7,845,452.74,848.27,474.92Z" transform="translate(-117.2 -164.01)"/><path class="cls-22" d="M848.27,474.92c1,7,2.12,13.65,3.06,19.24a42.25,42.25,0,0,0,19.2-14.85l-4-8.72Z" transform="translate(-117.2 -164.01)"/><path class="cls-22" d="M870.27,516.84h.16a1,1,0,0,0,1-1c1.12-12.51,2.46-21.78,3.39-27.35-.5-1.09-1-2.22-1.55-3.37-.89,4.92-2.58,15.37-3.94,30.53A1.05,1.05,0,0,0,870.27,516.84Z" transform="translate(-117.2 -164.01)"/><path class="cls-16" d="M877.1,469.26a38.89,38.89,0,0,1-5.65,5.77c-4.39,3.73-12.6,8.48-21,9.06-8-25.16-10.54-56.9-8.12-65.3C846.52,423.31,867.58,448.48,877.1,469.26Z" transform="translate(-117.2 -164.01)"/><path class="cls-2" d="M871.45,469.69l.26.16,2.23,1.28.53-.94,19.37-.54a3.21,3.21,0,0,0,3.13-2.93l3.56-40.5a2.91,2.91,0,0,0,0-.59l.74-1.14-2.33-1.34-.1,0-.06,0a3.23,3.23,0,0,0-1.55-.34l-20.55.56a3.2,3.2,0,0,0-3.11,2.94L870,466.71A3.24,3.24,0,0,0,871.45,469.69Z" transform="translate(-117.2 -164.01)"/><path class="cls-15" d="M875.65,471.56,896.2,471a3.22,3.22,0,0,0,3.12-2.94l3.56-40.5a3.22,3.22,0,0,0-3.3-3.5l-20.54.56a3.21,3.21,0,0,0-3.12,2.94l-3.57,40.5A3.23,3.23,0,0,0,875.65,471.56Z" transform="translate(-117.2 -164.01)"/><path class="cls-21" d="M901.32,445.3c1.91.21.33,3,1.58,6.93,1.57,4.88-6.54,24.93-6.54,24.93-7.86,3.58-17.31-2.7-17.31-2.7s-2-15.28-.13-22.18c0,0,1.11-6.17,1.44-9.79s1.93-7.72,3.07-7,1.42,3.67,1.44,5.9.48,6.5.48,6.5.61-5.27.7-8.18-.13-7.52,1.64-8.42c2.23-1.14,2.86,5,3.15,7.29s-.6,9.21-.6,9.21,1.52-7.82,1.14-10.14a54.35,54.35,0,0,1-.75-8.75c.12-1.92,2.58-1.6,3.32.76a71.7,71.7,0,0,1,1.79,8.68,79.17,79.17,0,0,1-.24,8.78s1-7.69.91-9.72c0-1.65-.56-4.9,0-6.8s2.87-2.27,3.6,2.72.84,5.59.7,7.08c-.24,2.63-.69,5.55-.39,6.63a.83.83,0,0,0,.77.55Z" transform="translate(-117.2 -164.01)"/><path class="cls-16" d="M859.92,612.15a243.92,243.92,0,0,1-121.06,7.32c-.79-11.17-2.86-47.83-4.43-86.45-.06-1.29-.11-2.57-.16-3.85,0-1-.07-2.06-.12-3.09,0-.74-.06-1.49-.08-2.23,0-.34,0-.68,0-1,0-1-.07-2-.11-3,0-.85-.08-1.69-.11-2.53,0-.11,0-.23,0-.35s0-.2,0-.31c0-.88-.06-1.78-.1-2.65,0-.17,0-.34,0-.51,0-1.06-.07-2.13-.1-3.18,0-.74-.06-1.45-.09-2.17,0-.29,0-.58,0-.88,0-.81-.06-1.63-.08-2.43,0-.25,0-.49,0-.73l-.06-2.24,0-.95c0-1.06-.08-2.12-.09-3.16s-.07-2-.09-3c0-.68-.05-1.35-.07-2,0-1.46-.08-2.9-.11-4.33-.85-33.1-.75-60.25,1.63-64,5.51-8.62,32.17-22.48,40.21-28.89l.08,1.33s5.68,6.64,11.57,5.76c5.35-.78,9.1-7.26,9.72-8.43,4.36,2.7,14.3,6.87,24,11.39s19,9.32,22.3,13.27c2.79,3.41,5.9,29.88,8.74,62.38v.11c.06.6.11,1.21.16,1.81v.1c0,.46.07.93.12,1.42,0,.29.05.58.08.88,0,.67.11,1.34.16,2,.08,1,.18,2,.26,3s.16,2.09.26,3.15c0,.31,0,.63.07.94.06.75.12,1.49.19,2.23,0,.24,0,.49.05.73.07.8.13,1.62.19,2.43l.07.87c0,.72.11,1.44.17,2.17l.24,3.17c0,.17,0,.34.05.51.06.87.13,1.76.19,2.64l0,.31c0,.12,0,.24,0,.35.07.84.13,1.68.2,2.52.08,1,.16,2,.22,3,0,.34,0,.68.08,1,.06.75.11,1.49.16,2.23.08,1,.16,2.06.23,3.09l.27,3.83C857.34,564.2,859.39,600.87,859.92,612.15Z" transform="translate(-117.2 -164.01)"/><path class="cls-7" d="M852.24,494.62l-119,7.19,0-.95c0-1.06-.08-2.12-.09-3.16s-.07-2-.09-3c0-.68-.05-1.35-.07-2l118.48-7.16c0,.67.11,1.34.16,2,.08,1,.18,2,.26,3s.16,2.09.26,3.15C852.19,494,852.21,494.31,852.24,494.62Z" transform="translate(-117.2 -164.01)"/><path class="cls-7" d="M853.44,510l-119.63,7.23c0-.11,0-.23,0-.35s0-.2,0-.31c0-.88-.06-1.78-.1-2.65,0-.17,0-.34,0-.51,0-1.06-.07-2.13-.1-3.18,0-.74-.06-1.45-.09-2.17l119.26-7.21c0,.72.11,1.44.17,2.17l.24,3.17c0,.17,0,.34.05.51.06.87.13,1.76.19,2.64l0,.31C853.42,509.8,853.44,509.92,853.44,510Z" transform="translate(-117.2 -164.01)"/><path class="cls-7" d="M854.6,525.75,734.43,533c-.06-1.29-.11-2.57-.16-3.85,0-1-.07-2.06-.12-3.09,0-.74-.06-1.49-.08-2.23l119.87-7.25c.06.75.11,1.49.16,2.23.08,1,.16,2.06.23,3.09Z" transform="translate(-117.2 -164.01)"/><path class="cls-7" d="M837.93,465c3.76,4.48,9.46,14.8,12,19.57l.87,1.62c.29.55.45.87.47.89a.81.81,0,0,0,.35.38l-.24-2.9c0-.47-.09-.95-.13-1.42v-.08l-1.84-3.36c-2.91-5.24-7-12.29-10.07-15.9a.94.94,0,0,0-1.32-.12A1,1,0,0,0,837.93,465Z" transform="translate(-117.2 -164.01)"/><path class="cls-7" d="M758.38,433.32h0a65,65,0,0,0,35.23-14.88,63.75,63.75,0,0,0,12-12.75.94.94,0,0,0-1.57-1c-.16.24-16.11,24-45.84,26.8a.93.93,0,0,0,.15,1.86Z" transform="translate(-117.2 -164.01)"/><path class="cls-7" d="M827.63,591.93a.94.94,0,0,0,0-1.88c-26.44-.13-43-12.53-52.16-22.91a72.48,72.48,0,0,1-13.82-22.8.94.94,0,1,0-1.79.57A73.24,73.24,0,0,0,774,568.33c9.46,10.69,26.44,23.46,53.61,23.6Z" transform="translate(-117.2 -164.01)"/><path class="cls-7" d="M805.3,576.24a.94.94,0,0,0,.13-1.85c-23.26-4.81-28.83-23.65-28.88-23.84a.94.94,0,0,0-1.16-.65.93.93,0,0,0-.65,1.15,33.53,33.53,0,0,0,5.92,10.72c4.09,5.14,11.65,11.82,24.39,14.45A.72.72,0,0,0,805.3,576.24Z" transform="translate(-117.2 -164.01)"/><path class="cls-7" d="M744.46,467.61c-3.19,4.89-7.61,15.82-9.59,20.87l-.66,1.72-.36.94a.94.94,0,0,1-.82.61h0c0-.48,0-1,0-1.43l-.82,0,.75-1.95c.48-1.23,1.14-2.91,1.92-4.83,2.26-5.55,5.51-13,8.07-17a.94.94,0,1,1,1.58,1Z" transform="translate(-117.2 -164.01)"/><path class="cls-2" d="M753.4,337.73s-2.66-11.76,0-16,7.41-3.28,12.15-8.24,20.31-1.43,26.94-3c3.65-.89,7.6-.63,11.16-1.58,5.09-1.36,8.16,3.6,7.23,8.72-.6,3.26-1.92,8.17-6.49,9.72C804.37,327.33,759.36,321.9,753.4,337.73Z" transform="translate(-117.2 -164.01)"/><path class="cls-2" d="M753,347.27c1,17.2,12.34,28.41,29.53,27.37s28.41-14.51,27.38-31.7-12-29.61-29.21-28.57C760,315.61,751.92,330.07,753,347.27Z" transform="translate(-117.2 -164.01)"/><path class="cls-22" d="M757.27,354.44s-5.17-6.08-8.4-.6,2.73,20.74,11.2,16.42Z" transform="translate(-117.2 -164.01)"/><path class="cls-23" d="M757.88,365.56a.73.73,0,0,1-.74-.49c-1.64-4.72-6.74-6.37-6.79-6.39a.74.74,0,0,1-.48-.92.73.73,0,0,1,.92-.48c.24.07,5.85,1.87,7.74,7.31a.73.73,0,0,1-.46.93A.43.43,0,0,1,757.88,365.56Z" transform="translate(-117.2 -164.01)"/><path class="cls-23" d="M752.71,363.45a.86.86,0,0,1-.41-.1.74.74,0,0,1-.28-1,6.69,6.69,0,0,1,2.63-2.39.73.73,0,0,1,1,.31.74.74,0,0,1-.31,1,5.2,5.2,0,0,0-2,1.8A.76.76,0,0,1,752.71,363.45Z" transform="translate(-117.2 -164.01)"/><path class="cls-22" d="M806.5,351.47s4.4-6.66,8.27-1.61-.22,20.91-9.14,17.64Z" transform="translate(-117.2 -164.01)"/><path class="cls-23" d="M807.24,362.58a.73.73,0,0,0,.67-.58c1.06-4.88,5.92-7.13,6-7.15a.74.74,0,0,0-.61-1.35c-.22.1-5.58,2.56-6.8,8.19a.73.73,0,0,0,.57.87A.65.65,0,0,0,807.24,362.58Z" transform="translate(-117.2 -164.01)"/><path class="cls-23" d="M812.11,359.86a.77.77,0,0,0,.39-.14.74.74,0,0,0,.16-1,6.63,6.63,0,0,0-2.89-2.06.74.74,0,1,0-.52,1.38,5.24,5.24,0,0,1,2.22,1.55A.76.76,0,0,0,812.11,359.86Z" transform="translate(-117.2 -164.01)"/><path class="cls-21" d="M795.4,381.36l.94,15.48S792.2,405,786,405.91s-12.18-6.07-12.18-6.07l-1-16Z" transform="translate(-117.2 -164.01)"/><path class="cls-22" d="M795.4,381.36l.42,6.87c-3.91,4.9-11.27,6.51-22.37,5.55l-.61-10Z" transform="translate(-117.2 -164.01)"/><path class="cls-21" d="M754.71,354.3c.12.89.25,1.8.39,2.71.37,2.29.83,4.64,1.39,7l.06.23c2.77,11.29,8.12,22.22,18.4,25.21,23.29,6.76,30.25-13.28,32.82-24.88.29-1.28.53-2.71.72-4.23a1.48,1.48,0,0,1,0-.19c.21-1.71.38-3.52.5-5.39.09-1.38.15-2.78.2-4.19.12-3.43.13-6.86.09-9.9a16.11,16.11,0,0,0-11.26-15.17c-9.57-3-23.94-5-36.93,3.43a16.14,16.14,0,0,0-7.37,14.24C753.88,346.29,754.16,350.16,754.71,354.3Z" transform="translate(-117.2 -164.01)"/><path class="cls-2" d="M772.91,354.72c.1,1.66-.67,3-1.72,3.11s-2-1.22-2.08-2.88.67-3,1.72-3.1S772.81,353.07,772.91,354.72Z" transform="translate(-117.2 -164.01)"/><path class="cls-2" d="M796.22,353.32c.1,1.65-.67,3-1.72,3.1s-2-1.22-2.08-2.87.67-3.05,1.72-3.11S796.12,351.66,796.22,353.32Z" transform="translate(-117.2 -164.01)"/><path class="cls-2" d="M798.9,342.94s-6.15-2-10.64.27l.61,2.54s6.75-1,10.25.2A4.54,4.54,0,0,0,798.9,342.94Z" transform="translate(-117.2 -164.01)"/><path class="cls-2" d="M763.32,345.09s5.86-2.73,10.6-1l-.31,2.59s-6.81-.16-10.15,1.43A4.5,4.5,0,0,1,763.32,345.09Z" transform="translate(-117.2 -164.01)"/><path class="cls-22" d="M783.47,366.78a7.5,7.5,0,0,1-2.72-.07.73.73,0,0,1-.57-.87.73.73,0,0,1,.87-.57c.7.15,2.35.27,3-.26a.78.78,0,0,0,.23-.74c-.2-2.58-2.45-10.93-2.48-11a.74.74,0,0,1,1.43-.38c.09.35,2.31,8.56,2.52,11.28a2.24,2.24,0,0,1-.73,2A3.1,3.1,0,0,1,783.47,366.78Z" transform="translate(-117.2 -164.01)"/><path class="cls-6" d="M773.69,371.8c.78,3,3.11,8.43,9.84,8s8.32-5.6,8.76-9.14Z" transform="translate(-117.2 -164.01)"/><path class="cls-2" d="M809.19,351.43l-3.33.21c.16-3.37-1.3-7.34-2.46-10-2.65-6,2-9-2.07-11.78s-13.77-.92-20.57-.73-17.8.95-20.42,1.73-.9,5.11.28,8.48-2.83,7.42-3.33,11a15.52,15.52,0,0,0,.26,4.17l-2.78.17c-.59-4.3-.88-8.32-1-11.58a16.15,16.15,0,0,1,7.36-14.24c13-8.44,27.37-6.46,36.94-3.43a16.13,16.13,0,0,1,11.27,15.17C809.36,344,809.34,347.71,809.19,351.43Z" transform="translate(-117.2 -164.01)"/><path class="cls-6" d="M785.65,355.12a8.78,8.78,0,1,1,9.29,8.23A8.78,8.78,0,0,1,785.65,355.12ZM787,355a7.4,7.4,0,1,0,7-7.84A7.42,7.42,0,0,0,787,355Z" transform="translate(-117.2 -164.01)"/><path class="cls-6" d="M761.72,356.57A8.77,8.77,0,1,1,771,364.8,8.79,8.79,0,0,1,761.72,356.57Zm1.36-.08a7.41,7.41,0,1,0,6.95-7.84A7.42,7.42,0,0,0,763.08,356.49Z" transform="translate(-117.2 -164.01)"/><path class="cls-6" d="M801.52,351.33a.69.69,0,0,0,.47-.22h0s3.78-4.14,9.07-3.24a.69.69,0,0,0,.79-.56.68.68,0,0,0-.56-.79c-6-1-10.15,3.48-10.32,3.68a.68.68,0,0,0,0,1A.67.67,0,0,0,801.52,351.33Z" transform="translate(-117.2 -164.01)"/><path class="cls-6" d="M762.87,353.67a.68.68,0,0,0,.29-1.28c-.27-.15-6.7-3.78-11.93-2.59a.69.69,0,0,0,.31,1.34c4.7-1.07,10.88,2.41,11,2.44A.65.65,0,0,0,762.87,353.67Z" transform="translate(-117.2 -164.01)"/><path class="cls-6" d="M778.63,353.57s1.51-2.31,3.64-2.44,3.71,2,3.72,2l1.1-.82c-.08-.11-2.05-2.72-4.9-2.54s-4.64,3-4.71,3.07Z" transform="translate(-117.2 -164.01)"/><path class="cls-21" d="M741.36,603.18l-7.74,10.57A124.48,124.48,0,0,1,723,606.06l0,0c-9.28-7.41-22.26-19.6-28.89-33.94-8.29-17.92-5.86-32.43-5.86-32.43,1.09-10.63,8.21-32.23,13.89-48.26,2.07-5.83,4-10.89,5.27-14.46l17.32,4,7.41,4.56L729.3,493l-19.11,50.69c1.68,14.87,9.22,29.49,16.47,40.5A149.76,149.76,0,0,0,741.36,603.18Z" transform="translate(-117.2 -164.01)"/><path class="cls-22" d="M741.36,603.18l-7.74,10.57A124.48,124.48,0,0,1,723,606.06l0,0c-1.34-8-.53-19.28,3.65-21.84A149.76,149.76,0,0,0,741.36,603.18Z" transform="translate(-117.2 -164.01)"/><path class="cls-21" d="M737.22,591c1.56.1,9.87.52,9-2.33-1-3.13-9.14-6.81-9.14-6.81a.61.61,0,0,1,0-.37l-.09-.67-.36-6.74a14.2,14.2,0,0,0-3.81.56c-3.57,1.11-3.08,9.29-3.08,9.29s-4.51,1.61-4.34,4.91,3.79,3.79,3.79,3.79-5,2.48-3.8,5.29,4.92,3.63,4.92,3.63-4.25,2.8-2.77,4.78,5,3,5,3-3,4,0,6.2,7.45,1.72,10.31.73,2.35-4.62-3.26-7.26c0,0,4.95.49,7.43-3.64,2.06-3.44-3.2-4.92-7.7-5.51,3.53.23,9.63.13,10.67-3.23C751.36,592.16,739.13,591.12,737.22,591Z" transform="translate(-117.2 -164.01)"/><path class="cls-22" d="M732.15,485.48,729.3,493a111.42,111.42,0,0,1-27.15-1.6c2.07-5.83,4-10.89,5.27-14.46l17.32,4Z" transform="translate(-117.2 -164.01)"/><path class="cls-16" d="M734.53,424.35s-21.08,21.14-36.47,58a187.46,187.46,0,0,0,34.08,8c1.4-2.46,6.93-18.23,11.1-29.61Z" transform="translate(-117.2 -164.01)"/><ellipse class="cls-1" cx="427.74" cy="726.5" rx="416.93" ry="26.38"/><path class="cls-1" d="M889.11,413.33a8.26,8.26,0,0,1-8.21,8.22H705.19a8.24,8.24,0,0,1-8.21-8.22,8.26,8.26,0,0,1,8.21-8.22h8.3a21.42,21.42,0,0,1,34.86-6.64,29.75,29.75,0,0,1,34.28-13.39,34,34,0,0,1,62.82,6.86,21.42,21.42,0,0,1,30.16,13.17h5.29A8.24,8.24,0,0,1,889.11,413.33Z" transform="translate(-117.2 -164.01)"/><path class="cls-1" d="M282.81,270.15a7.12,7.12,0,0,1-7.07,7.09H124.28a7.11,7.11,0,0,1-7.08-7.09,7.12,7.12,0,0,1,7.08-7.09h7.15a18.47,18.47,0,0,1,30-5.72A25.61,25.61,0,0,1,191,245.8a29.32,29.32,0,0,1,54.15,5.91,18.48,18.48,0,0,1,26,11.35h4.56A7.1,7.1,0,0,1,282.81,270.15Z" transform="translate(-117.2 -164.01)"/><path class="cls-1" d="M564.64,232.18a7.2,7.2,0,0,1-7.17,7.18H404A7.18,7.18,0,0,1,404,225h7.25a18.71,18.71,0,0,1,30.45-5.79,26,26,0,0,1,29.94-11.71,29.71,29.71,0,0,1,54.87,6A18.71,18.71,0,0,1,552.85,225h4.62A7.2,7.2,0,0,1,564.64,232.18Z" transform="translate(-117.2 -164.01)"/><path class="cls-2" d="M896,363.61A10.36,10.36,0,1,1,885.61,374,10.38,10.38,0,0,1,896,363.61Zm0,3.25a7.11,7.11,0,1,0,7.12,7.11A7.12,7.12,0,0,0,896,366.86Z" transform="translate(-117.2 -164.01)"/><path class="cls-3" d="M885.43,310.94a10.37,10.37,0,1,1-10.36,10.36A10.38,10.38,0,0,1,885.43,310.94Zm0,3.25a7.11,7.11,0,1,0,7.11,7.11A7.12,7.12,0,0,0,885.43,314.19Z" transform="translate(-117.2 -164.01)"/><path class="cls-4" d="M853.91,296.35a1.63,1.63,0,0,0,1.63,1.62h7.16a1.63,1.63,0,1,0,0-3.25h-7.16A1.63,1.63,0,0,0,853.91,296.35Z" transform="translate(-117.2 -164.01)"/><path class="cls-4" d="M841.37,296.35A1.62,1.62,0,0,0,843,298h7.17a1.63,1.63,0,1,0,0-3.25H843A1.62,1.62,0,0,0,841.37,296.35Z" transform="translate(-117.2 -164.01)"/><path class="cls-4" d="M851.22,286.28v6.44a1.63,1.63,0,1,0,3.25,0v-6.44a1.63,1.63,0,0,0-3.25,0Z" transform="translate(-117.2 -164.01)"/><path class="cls-4" d="M851.22,300v6.44a1.63,1.63,0,0,0,3.25,0V300a1.63,1.63,0,1,0-3.25,0Z" transform="translate(-117.2 -164.01)"/><path class="cls-5" d="M865.6,351.7a1.63,1.63,0,0,0,1.63,1.62h7.16a1.63,1.63,0,1,0,0-3.25h-7.16A1.63,1.63,0,0,0,865.6,351.7Z" transform="translate(-117.2 -164.01)"/><path class="cls-5" d="M853.06,351.7a1.62,1.62,0,0,0,1.62,1.62h7.17a1.63,1.63,0,0,0,0-3.25h-7.17A1.62,1.62,0,0,0,853.06,351.7Z" transform="translate(-117.2 -164.01)"/><path class="cls-5" d="M862.91,341.63v6.44a1.63,1.63,0,1,0,3.25,0v-6.44a1.63,1.63,0,0,0-3.25,0Z" transform="translate(-117.2 -164.01)"/><path class="cls-5" d="M862.91,355.32v6.44a1.63,1.63,0,0,0,3.25,0v-6.44a1.63,1.63,0,1,0-3.25,0Z" transform="translate(-117.2 -164.01)"/><path class="cls-4" d="M200,413.8a10.37,10.37,0,1,1-10.37-10.36A10.38,10.38,0,0,1,200,413.8Zm-3.25,0a7.12,7.12,0,1,0-7.12,7.11A7.12,7.12,0,0,0,196.76,413.8Z" transform="translate(-117.2 -164.01)"/><path class="cls-2" d="M242.31,399.82A10.37,10.37,0,1,1,232,389.46,10.37,10.37,0,0,1,242.31,399.82Zm-3.25,0a7.12,7.12,0,1,0-7.11,7.11A7.12,7.12,0,0,0,239.06,399.82Z" transform="translate(-117.2 -164.01)"/><path class="cls-5" d="M243.63,355.33A1.63,1.63,0,0,0,242,357v7.17a1.63,1.63,0,0,0,3.25,0V357A1.63,1.63,0,0,0,243.63,355.33Z" transform="translate(-117.2 -164.01)"/><path class="cls-5" d="M243.63,342.79a1.62,1.62,0,0,0-1.62,1.62v7.17a1.63,1.63,0,1,0,3.25,0v-7.17A1.62,1.62,0,0,0,243.63,342.79Z" transform="translate(-117.2 -164.01)"/><path class="cls-5" d="M253.69,352.64h-6.43a1.63,1.63,0,1,0,0,3.25h6.43a1.63,1.63,0,1,0,0-3.25Z" transform="translate(-117.2 -164.01)"/><path class="cls-5" d="M240,352.64h-6.44a1.63,1.63,0,0,0,0,3.25H240a1.63,1.63,0,1,0,0-3.25Z" transform="translate(-117.2 -164.01)"/><path class="cls-3" d="M199.71,366.81a1.63,1.63,0,0,0-1.63,1.63v7.17a1.63,1.63,0,0,0,3.25,0v-7.17A1.63,1.63,0,0,0,199.71,366.81Z" transform="translate(-117.2 -164.01)"/><path class="cls-3" d="M199.71,354.27a1.63,1.63,0,0,0-1.63,1.62v7.17a1.63,1.63,0,1,0,3.25,0v-7.17A1.63,1.63,0,0,0,199.71,354.27Z" transform="translate(-117.2 -164.01)"/><path class="cls-3" d="M209.77,364.13h-6.44a1.63,1.63,0,1,0,0,3.25h6.44a1.63,1.63,0,0,0,0-3.25Z" transform="translate(-117.2 -164.01)"/><path class="cls-3" d="M196.08,364.13h-6.44a1.63,1.63,0,0,0,0,3.25h6.44a1.63,1.63,0,1,0,0-3.25Z" transform="translate(-117.2 -164.01)"/><path class="cls-2" d="M233.1,468.31v34.61a4,4,0,0,1-4,4H194.49a4,4,0,0,1-3.52-2.08,3.56,3.56,0,0,1-.17-.41q-.11-.3-.21-.63s0,0,0-.07,0-.07,0-.09a4.25,4.25,0,0,1-.06-.71V468.31a4,4,0,0,1,3.57-4h35a3.83,3.83,0,0,1,1.18.17h0A4,4,0,0,1,233.1,468.31Z" transform="translate(-117.2 -164.01)"/><path class="cls-6" d="M214.33,497.35l0,3.45-4.38,0,0-3.3a18.21,18.21,0,0,1-8-2.24l2.41-5.33a14.91,14.91,0,0,0,7.16,2.05c2.08,0,2.83-.41,2.84-1.16,0-2.73-12-.62-12-8.74,0-3.51,2.6-6.44,7.71-7.12l0-3.39,4.39,0,0,3.33a16.16,16.16,0,0,1,6.3,1.85l-2.25,5.3a13.47,13.47,0,0,0-6.05-1.67c-2.15,0-2.84.6-2.84,1.35,0,2.61,12,.53,12,8.55C221.6,493.65,219.15,496.55,214.33,497.35Z" transform="translate(-117.2 -164.01)"/><path class="cls-7" d="M917.32,708.71v34.64a4,4,0,0,1-4,4H878.66a4,4,0,0,1-3.52-2.08,3.56,3.56,0,0,1-.17-.41l-.21-.63s0,0,0-.07,0-.07,0-.09a4.28,4.28,0,0,1-.06-.72V708.71a4,4,0,0,1,3.57-4h35.09a3.5,3.5,0,0,1,1.17.18h0A4,4,0,0,1,917.32,708.71Z" transform="translate(-117.2 -164.01)"/><path class="cls-6" d="M896.42,713.37a13.36,13.36,0,1,0,13.36,13.36A13.38,13.38,0,0,0,896.42,713.37Zm.54,18.3V727h6a18.11,18.11,0,0,1-.71,4.68Zm3.79,5.33a15,15,0,0,0,2.32-4.26h4.07a12.26,12.26,0,0,1-8,6A14.67,14.67,0,0,0,900.75,737Zm1.17-4.26a13.56,13.56,0,0,1-2,3.56,11.08,11.08,0,0,1-3,2.71v-6.27Zm-5-12.58v-5.7l.48,0a16.76,16.76,0,0,1,4.19,5.67Zm5.84,0a17.53,17.53,0,0,0-1.8-3.29,18,18,0,0,0-1.69-2.08,12.35,12.35,0,0,1,7.48,5.37ZM897,725.91v-4.68h5.11a15.32,15.32,0,0,1,.92,4.68Zm7.11,0a16.66,16.66,0,0,0-.86-4.68h4.2a12.31,12.31,0,0,1,1.27,4.68Zm4.64,1.08a12.35,12.35,0,0,1-1,4.68h-4.27a19.15,19.15,0,0,0,.67-4.68Zm-19.14,4.68h-4.4a12.35,12.35,0,0,1-1-4.68h4.76A18.68,18.68,0,0,0,889.57,731.67Zm1.77-11.51a16.87,16.87,0,0,1,1.5-2.65,15.47,15.47,0,0,1,2.71-3l.34,0v5.7Zm4.55,1.07v4.68H890a15.09,15.09,0,0,1,.93-4.68Zm-9.83-1.07a12.35,12.35,0,0,1,7.64-5.41,17.67,17.67,0,0,0-3.53,5.41Zm9.83,6.83v4.68h-5.2A17.56,17.56,0,0,1,890,727Zm-11.72-1.08a12.31,12.31,0,0,1,1.27-4.68h4.33a16,16,0,0,0-.86,4.68Zm5.74,6.83a15,15,0,0,0,2.32,4.26,13.75,13.75,0,0,0,1.65,1.75,12.4,12.4,0,0,1-8.17-6Zm6,0v6.19a12.66,12.66,0,0,1-4.84-6.19Z" transform="translate(-117.2 -164.01)"/><path class="cls-2" d="M640,357.76l4.78,1.58,2.53.83,7.18,2.37s107-86.51,79.54-138c-8.43-15.87-33.94-14.88-48.24,38.16C672.56,311.82,640,357.76,640,357.76Z" transform="translate(-117.2 -164.01)"/><path class="cls-6" d="M644.81,359.34l2.53.83c21.49-22.61,38.07-49.35,48.52-68.55A375.26,375.26,0,0,0,715,251.22a1.21,1.21,0,0,0-2.25-.87,371.63,371.63,0,0,1-19.07,40.15C683.21,309.8,666.49,336.74,644.81,359.34Z" transform="translate(-117.2 -164.01)"/><path class="cls-8" d="M361.2,813.89l-4.71.31-2.5.16-7.08.45s-76.72-103.73-39.7-144.06c11.4-12.42,34.32-5.52,34.82,46C342.49,764.52,361.2,813.89,361.2,813.89Z" transform="translate(-117.2 -164.01)"/><path class="cls-9" d="M356.49,814.2l-2.5.16c-14.18-25.6-22.93-53.78-27.9-73.68a351.7,351.7,0,0,1-7.9-41.2,1.13,1.13,0,0,1,2.25-.25,350.54,350.54,0,0,0,7.85,40.94C333.29,760.17,342.13,788.57,356.49,814.2Z" transform="translate(-117.2 -164.01)"/><path class="cls-1" d="M384.89,829.52l-5.5,4.05-2.92,2.15-8.27,6.08S193.66,775.26,207.29,697.18c4.2-24,37.53-33.53,78.37,28.9C323.52,784,384.89,829.52,384.89,829.52Z" transform="translate(-117.2 -164.01)"/><path class="cls-8" d="M379.39,833.57l-2.92,2.15c-37.28-20.13-70-47.64-91.55-68-25.64-24.2-41.65-43.86-41.8-44.06a1.62,1.62,0,0,1,.24-2.3,1.63,1.63,0,0,1,2.3.23,504.14,504.14,0,0,0,41.55,43.78C308.91,785.83,341.88,813.55,379.39,833.57Z" transform="translate(-117.2 -164.01)"/><path class="cls-2" d="M615.22,374.4l5.27,5,2.79,2.67,7.91,7.56s193.64-46.46,189.92-130.88c-1.14-26-35.09-40.58-86.82,19.83C686.34,334.62,615.22,374.4,615.22,374.4Z" transform="translate(-117.2 -164.01)"/><path class="cls-6" d="M620.49,379.44l2.79,2.67c42.16-16.18,80.48-40.79,106.1-59.39,30.43-22.07,50-40.67,50.23-40.86a1.72,1.72,0,0,0,.06-2.46,1.74,1.74,0,0,0-2.46-.07c-.2.19-19.67,18.66-49.93,40.6C701.53,338.61,662.89,363.41,620.49,379.44Z" transform="translate(-117.2 -164.01)"/><path class="cls-2" d="M268.69,317.91c7.19,21,28.37,19.46,28.63,36.72s11.62,29.91,26.39,26.14,25.42-7.37,32.92,9.51,29.51,24.56,37.53,10.67c2-3.46,4.16-7.21,6.27-10.88.57-1,1.15-2,1.71-3l.4-.68a33.46,33.46,0,0,0-9.11-43.76c-5.59-4-12.17-6.18-19.44-3.71-22.74,7.71-15.39-15.78-29.51-25-16.25-10.64-29.28,2.69-40.5-6.48C288.38,294.67,261.5,296.93,268.69,317.91Z" transform="translate(-117.2 -164.01)"/><path class="cls-6" d="M296.53,326l103.9,64.1c.57-1,1.15-2,1.71-3l-103.8-64a1.72,1.72,0,0,0-1.81,2.93Z" transform="translate(-117.2 -164.01)"/><path class="cls-2" d="M284.65,200.7C281.49,228,306,237.56,297.05,257s-3,39.6,15.53,43.27,32.33,5.32,31.7,28.17,19.86,43.18,36.23,31.94l12.81-8.81,3.51-2.43c.27-.18.54-.36.8-.55,17.37-12,23.27-35.2,13.17-53.73-4.1-7.5-10.31-13.39-19.74-14.51-29.51-3.52-8.77-25.84-19.62-43.68C359,216.09,337.3,224,329.66,207.8,319,185.23,287.81,173.42,284.65,200.7Z" transform="translate(-117.2 -164.01)"/><path class="cls-6" d="M311.45,224.55l81.87,127,3.51-2.43L315,222.24a2.13,2.13,0,1,0-3.59,2.31Z" transform="translate(-117.2 -164.01)"/><path class="cls-8" d="M730.61,664c-21.08,6.9-19.83,28.11-37.1,28.13s-30.06,11.22-26.49,26,7,25.52-9.95,32.79-25,29.17-11.17,37.38c3.43,2,7.14,4.26,10.79,6.42l3,1.75.67.4a33.47,33.47,0,0,0,43.88-8.51c4.12-5.54,6.34-12.09,4-19.39-7.4-22.84,16-15.18,25.41-29.17,10.86-16.11-2.29-29.32,7-40.41C753.59,684,751.69,657.08,730.61,664Z" transform="translate(-117.2 -164.01)"/><path class="cls-9" d="M722.18,691.71l-65.49,103,3,1.75,65.43-102.93a1.72,1.72,0,1,0-2.91-1.85Z" transform="translate(-117.2 -164.01)"/><path class="cls-1" d="M810.77,708c-27.23-3.53-37.15,20.82-56.45,11.63s-39.56-3.5-43.47,14.95-5.76,32.26-28.6,31.32-43.44,19.28-32.42,35.8c2.74,4.11,5.71,8.56,8.63,12.92l2.38,3.54.54.81c11.75,17.53,34.89,23.75,53.55,13.89,7.55-4,13.53-10.12,14.78-19.53,3.91-29.47,25.95-8.43,43.94-19,20.72-12.21,13.07-34,29.4-41.39C825.76,742.54,838,711.48,810.77,708Z" transform="translate(-117.2 -164.01)"/><path class="cls-8" d="M786.56,734.42l-128.1,80.15,2.38,3.54,128-80.07a2.13,2.13,0,1,0-2.26-3.62Z" transform="translate(-117.2 -164.01)"/><path class="cls-8" d="M379.1,602.92c-26.64-30.69-74-91.18-88.65-115.48-19.07-31.75-27.43-57.58-24.84-76.76a2.33,2.33,0,0,1,4.61.62c-4.54,33.54,22.75,82.55,111.2,187.43Z" transform="translate(-117.2 -164.01)"/><path class="cls-1" d="M275.81,457.72s-15.51,11.69-35-16.38C240.8,441.34,269.61,430.17,275.81,457.72Z" transform="translate(-117.2 -164.01)"/><path class="cls-1" d="M285.11,472.71s-12.54-14.83,14.4-35.87C299.51,436.84,312.27,465,285.11,472.71Z" transform="translate(-117.2 -164.01)"/><path class="cls-1" d="M268.05,425.55s-16.77-9.81,1.62-38.62C269.67,386.93,291.08,409.22,268.05,425.55Z" transform="translate(-117.2 -164.01)"/><path class="cls-1" d="M302.9,503.45s-10.64,16.25-38.48-3.57C264.42,499.88,287.75,479.62,302.9,503.45Z" transform="translate(-117.2 -164.01)"/><path class="cls-1" d="M314.69,517.28s-14.92-12.44,8-37.81C322.67,479.47,340.1,505,314.69,517.28Z" transform="translate(-117.2 -164.01)"/><path class="cls-1" d="M329,537.83s-10.33,16.46-38.54-2.83C290.41,535,313.36,514.3,329,537.83Z" transform="translate(-117.2 -164.01)"/><path class="cls-6" d="M560.65,325.86c13.82-38.21,27.94-70,42-94.58,18.43-32.13,36.9-52,54.92-59.1a2.33,2.33,0,1,1,1.7,4.33c-31.49,12.38-65.28,67.94-97.8,160.77Z" transform="translate(-117.2 -164.01)"/><path class="cls-2" d="M621.5,204s-17.77-7.85-2.76-38.55C618.74,165.46,642.54,185.18,621.5,204Z" transform="translate(-117.2 -164.01)"/><path class="cls-2" d="M613,219.44s6.84-18.18,38.33-4.91C651.28,214.53,632.92,239.39,613,219.44Z" transform="translate(-117.2 -164.01)"/><path class="cls-2" d="M645.82,181.56s.39-19.42,34.5-17.4C680.32,164.16,671.3,193.71,645.82,181.56Z" transform="translate(-117.2 -164.01)"/><path class="cls-2" d="M594.77,250s-19.37-1.37-15.63-35.35C579.14,214.6,608.2,225.11,594.77,250Z" transform="translate(-117.2 -164.01)"/><path class="cls-2" d="M588.43,267s3.6-19.09,36.91-11.46C625.34,255.53,611.55,283.19,588.43,267Z" transform="translate(-117.2 -164.01)"/><path class="cls-2" d="M577.44,289.45s-19.4-1-16.31-35C561.13,254.41,590.39,264.37,577.44,289.45Z" transform="translate(-117.2 -164.01)"/><path class="cls-2" d="M688.8,312.53V861.66a31.16,31.16,0,0,1-31.16,31.17H384.18A31.15,31.15,0,0,1,353,861.66V312.53a31.16,31.16,0,0,1,31.17-31.17H657.64a31.17,31.17,0,0,1,31.16,31.17Z" transform="translate(-117.2 -164.01)"/><path class="cls-10" d="M688.8,312.53V861.66a31.16,31.16,0,0,1-31.16,31.17H384.18a31.1,31.1,0,0,1-22.12-9.2L671.77,284.75A31.14,31.14,0,0,1,688.8,312.53Z" transform="translate(-117.2 -164.01)"/><path class="cls-10" d="M228.07,216.14h7.74a0,0,0,0,1,0,0v72.55a0,0,0,0,1,0,0h-7.74a3.66,3.66,0,0,1-3.66-3.66V219.8A3.66,3.66,0,0,1,228.07,216.14Z"/><path class="cls-10" d="M691.8,374.64h6.33a0,0,0,0,1,0,0v59.07a0,0,0,0,1,0,0H691.8a3,3,0,0,1-3-3V377.63A3,3,0,0,1,691.8,374.64Z" transform="translate(1269.73 644.34) rotate(180)"/><path class="cls-10" d="M228.07,298.53h7.74a0,0,0,0,1,0,0v72.55a0,0,0,0,1,0,0h-7.74a3.66,3.66,0,0,1-3.66-3.66V302.19A3.66,3.66,0,0,1,228.07,298.53Z"/><path class="cls-6" d="M673.26,311.17V863A14.26,14.26,0,0,1,659,877.28H382.82A14.24,14.24,0,0,1,368.56,863V311.17a14.25,14.25,0,0,1,14.26-14.26H659a14,14,0,0,1,5.83,1.25A14.25,14.25,0,0,1,673.26,311.17Z" transform="translate(-117.2 -164.01)"/><path class="cls-1" d="M645.09,718.87H477a5.53,5.53,0,0,1-5.53-5.53h0a5.54,5.54,0,0,1,5.53-5.53H645.09a5.54,5.54,0,0,1,5.53,5.53h0A5.53,5.53,0,0,1,645.09,718.87Z" transform="translate(-117.2 -164.01)"/><path class="cls-1" d="M645.09,742.84H477a5.54,5.54,0,0,1-5.53-5.53h0a5.54,5.54,0,0,1,5.53-5.54H645.09a5.54,5.54,0,0,1,5.53,5.54h0A5.54,5.54,0,0,1,645.09,742.84Z" transform="translate(-117.2 -164.01)"/><path class="cls-1" d="M645.09,766.8H477a5.54,5.54,0,0,1-5.53-5.53h0a5.53,5.53,0,0,1,5.53-5.53H645.09a5.53,5.53,0,0,1,5.53,5.53h0A5.54,5.54,0,0,1,645.09,766.8Z" transform="translate(-117.2 -164.01)"/><rect class="cls-1" x="280.3" y="543.82" width="58.94" height="58.94"/><path class="cls-1" d="M494.55,368.68H403a5.54,5.54,0,0,0-5.53,5.53h0a5.53,5.53,0,0,0,5.53,5.53h91.52a5.53,5.53,0,0,0,5.53-5.53h0A5.54,5.54,0,0,0,494.55,368.68Z" transform="translate(-117.2 -164.01)"/><path class="cls-1" d="M494.55,392.64H403a5.54,5.54,0,0,0-5.53,5.53h0a5.54,5.54,0,0,0,5.53,5.54h91.52a5.54,5.54,0,0,0,5.53-5.54h0A5.54,5.54,0,0,0,494.55,392.64Z" transform="translate(-117.2 -164.01)"/><path class="cls-1" d="M494.55,416.61H403a5.53,5.53,0,0,0-5.53,5.53h0a5.54,5.54,0,0,0,5.53,5.53h91.52a5.54,5.54,0,0,0,5.53-5.53h0A5.53,5.53,0,0,0,494.55,416.61Z" transform="translate(-117.2 -164.01)"/><path class="cls-1" d="M644.92,368.68H553.41a5.53,5.53,0,0,0-5.53,5.53h0a5.52,5.52,0,0,0,5.53,5.53h91.51a5.53,5.53,0,0,0,5.53-5.53h0A5.54,5.54,0,0,0,644.92,368.68Z" transform="translate(-117.2 -164.01)"/><rect class="cls-1" x="430.68" y="228.63" width="102.57" height="11.06" rx="5.53"/><path class="cls-1" d="M644.92,416.61H553.41a5.52,5.52,0,0,0-5.53,5.53h0a5.53,5.53,0,0,0,5.53,5.53h91.51a5.54,5.54,0,0,0,5.53-5.53h0A5.53,5.53,0,0,0,644.92,416.61Z" transform="translate(-117.2 -164.01)"/><rect class="cls-2" x="318.09" y="630.04" width="172.85" height="53.39" rx="8.57"/><path class="cls-6" d="M462.38,829l-.05-8.53-4.06,6.85h-2.78l-4.07-6.55V829h-5.74V810.25h5.18l6.1,10,5.93-10h5.19l.05,18.71Z" transform="translate(-117.2 -164.01)"/><path class="cls-6" d="M485.45,821.1V829h-5.62V827c-.69,1.47-2.08,2.19-4.14,2.19-3.58,0-5.43-2-5.43-4.55,0-2.83,2.14-4.41,6.69-4.41h2.43c-.19-1.12-1-1.71-2.75-1.71a6.65,6.65,0,0,0-3.75,1.15l-1.92-4a13.24,13.24,0,0,1,6.57-1.66C482.56,814.07,485.45,816.24,485.45,821.1Zm-6,3.1v-1h-1.5c-1.28,0-1.85.42-1.85,1.23s.54,1.17,1.45,1.17A1.92,1.92,0,0,0,479.41,824.2Z" transform="translate(-117.2 -164.01)"/><path class="cls-6" d="M495.07,824.47l-1,1V829h-6V809.12h6v9.47l4.2-4.25h7.14l-6,6.33,6.52,8.29h-7.3Z" transform="translate(-117.2 -164.01)"/><path class="cls-6" d="M521.93,823.05H511.77a2.83,2.83,0,0,0,2.94,1.71,4.42,4.42,0,0,0,3-1.07l3.15,3.19c-1.41,1.54-3.47,2.35-6.39,2.35-5.37,0-8.85-3.24-8.85-7.6s3.56-7.56,8.29-7.56c4.33,0,8,2.62,8,7.56C522,822.06,522,822.62,521.93,823.05Zm-10.27-2.91h4.71a2.4,2.4,0,0,0-4.71,0Z" transform="translate(-117.2 -164.01)"/><path class="cls-6" d="M531.14,821.63c0-4.43,3.56-7.56,8.51-7.56s8.5,3.13,8.5,7.56-3.53,7.6-8.5,7.6S531.14,826.07,531.14,821.63Zm10.89,0c0-1.89-1-2.86-2.38-2.86s-2.38,1-2.38,2.86,1,2.89,2.38,2.89S542,823.53,542,821.63Z" transform="translate(-117.2 -164.01)"/><path class="cls-6" d="M556.56,815.14h3.18v4.41h-3V829h-6v-9.41h-2v-4.41h2v-.08c0-3.77,2.35-6.2,6.52-6.2a8.16,8.16,0,0,1,3.58.72l-1.44,4.2a3.26,3.26,0,0,0-1.36-.35c-.86,0-1.45.51-1.45,1.68Z" transform="translate(-117.2 -164.01)"/><path class="cls-6" d="M568,815.14h3.18v4.41h-3V829h-6v-9.41h-2v-4.41h2v-.08c0-3.77,2.36-6.2,6.53-6.2a8.16,8.16,0,0,1,3.58.72l-1.45,4.2a3.26,3.26,0,0,0-1.36-.35c-.85,0-1.44.51-1.44,1.68Z" transform="translate(-117.2 -164.01)"/><path class="cls-6" d="M588.16,823.05H578a2.82,2.82,0,0,0,2.94,1.71,4.42,4.42,0,0,0,3-1.07l3.16,3.19c-1.42,1.54-3.48,2.35-6.39,2.35-5.37,0-8.85-3.24-8.85-7.6s3.56-7.56,8.29-7.56c4.33,0,8,2.62,8,7.56C588.24,822.06,588.18,822.62,588.16,823.05Zm-10.27-2.91h4.7a2.39,2.39,0,0,0-4.7,0Z" transform="translate(-117.2 -164.01)"/><path class="cls-6" d="M600.61,814.07v5.35a8.5,8.5,0,0,0-1.34-.11c-1.82,0-3.1.83-3.1,3.15V829h-6V814.34h5.75v1.57A6,6,0,0,1,600.61,814.07Z" transform="translate(-117.2 -164.01)"/><path class="cls-2" d="M413.77,301.24l15.11,23a22.77,22.77,0,0,0,19,10.28h146a22.77,22.77,0,0,0,19-10.28l15.1-23a4.34,4.34,0,0,0-4.33-4.33H418.11A4.35,4.35,0,0,0,413.77,301.24Z" transform="translate(-117.2 -164.01)"/><path class="cls-15" d="M570.5,317.86H445.43a4.64,4.64,0,0,1-4.63-4.62h0a4.64,4.64,0,0,1,4.63-4.62H570.5a4.64,4.64,0,0,1,4.63,4.62h0A4.64,4.64,0,0,1,570.5,317.86Z" transform="translate(-117.2 -164.01)"/><path class="cls-15" d="M599.64,312.93a5.55,5.55,0,1,1-5.54-5.55A5.54,5.54,0,0,1,599.64,312.93Z" transform="translate(-117.2 -164.01)"/><rect class="cls-7" x="272.91" y="376.88" width="263.08" height="119.53"/><rect class="cls-16" x="272.91" y="376.88" width="263.08" height="9.49"/><polygon class="cls-15" points="536 369.77 272.91 369.77 293.39 321.28 515.51 321.28 536 369.77"/><rect class="cls-2" x="261.22" y="369.44" width="283.12" height="7.44"/><polygon class="cls-17" points="459.85 496.41 349.06 496.41 349.06 403.69 405.94 372.78 459.85 400.65 459.85 496.41"/><rect class="cls-5" x="342.73" y="412.14" width="9.32" height="84.27"/><rect class="cls-5" x="456.99" y="412.14" width="9.32" height="84.27"/><rect class="cls-2" x="385.5" y="434.01" width="37.9" height="62.56"/><rect class="cls-15" x="389.32" y="437.82" width="30.27" height="58.74"/><path class="cls-2" d="M534.85,633a3.18,3.18,0,1,1-3.18-3.18A3.18,3.18,0,0,1,534.85,633Z" transform="translate(-117.2 -164.01)"/><path class="cls-2" d="M378.23,429.34h52.45a0,0,0,0,1,0,0v3.17a1.5,1.5,0,0,1-1.5,1.5H379.73a1.5,1.5,0,0,1-1.5-1.5v-3.17A0,0,0,0,1,378.23,429.34Z"/><rect class="cls-1" x="393.44" y="442.13" width="9.34" height="19.02"/><polygon class="cls-6" points="402.78 442.88 402.78 448.51 393.44 457.85 393.44 452.22 402.78 442.88"/><rect class="cls-18" x="393.44" y="442.13" width="9.34" height="2.69"/><rect class="cls-1" x="406.62" y="442.13" width="9.34" height="19.02"/><polygon class="cls-6" points="415.97 442.88 415.97 448.51 406.62 457.85 406.62 452.22 415.97 442.88"/><rect class="cls-18" x="406.62" y="442.13" width="9.34" height="2.69"/><path class="cls-2" d="M264.48,359.35H541.09a3.25,3.25,0,0,1,3.25,3.25v6.88a0,0,0,0,1,0,0H261.22a0,0,0,0,1,0,0v-6.88A3.25,3.25,0,0,1,264.48,359.35Z"/><polygon class="cls-15" points="487.81 412.23 472.64 412.19 456.87 412.14 404.46 376.81 352.04 412.14 336.27 412.19 321.1 412.23 404.46 356.04 487.81 412.23"/><polygon class="cls-2" points="472.64 412.19 456.87 412.14 404.46 376.81 352.04 412.14 336.27 412.19 404.46 366.22 472.64 412.19"/><rect class="cls-1" x="299.16" y="428.38" width="22.34" height="41.7"/><polygon class="cls-6" points="321.51 428.38 313.63 428.38 299.22 442.79 299.22 454.57 321.51 432.28 321.51 428.38"/><polygon class="cls-6" points="321.51 446.02 299.22 468.3 299.22 470.08 303.33 470.08 321.51 451.9 321.51 446.02"/><path class="cls-15" d="M413.31,589.34v47.8h25.4v-47.8Zm3.05,3H435.6v19.28H416.36Zm0,41.7V614.81H435.6v19.28Z" transform="translate(-117.2 -164.01)"/><rect class="cls-18" x="296.11" y="425.59" width="25.39" height="4.92"/><path class="cls-2" d="M291.19,421.47h35.24a0,0,0,0,1,0,0v2.62a1.24,1.24,0,0,1-1.24,1.24H292.43a1.24,1.24,0,0,1-1.24-1.24v-2.62A0,0,0,0,1,291.19,421.47Z"/><rect class="cls-5" x="296.11" y="473.13" width="25.4" height="4.89"/><rect class="cls-1" x="495.79" y="428.38" width="22.34" height="41.7"/><polygon class="cls-6" points="518.13 428.38 510.26 428.38 495.85 442.79 495.85 454.57 518.13 432.28 518.13 428.38"/><polygon class="cls-6" points="518.13 446.02 495.85 468.3 495.85 470.08 499.95 470.08 518.13 451.9 518.13 446.02"/><path class="cls-15" d="M609.93,589.34v47.8h25.4v-47.8Zm3.06,3h19.23v19.28H613Zm0,41.7V614.81h19.23v19.28Z" transform="translate(-117.2 -164.01)"/><rect class="cls-18" x="492.73" y="425.59" width="25.39" height="4.92"/><path class="cls-2" d="M487.81,421.47h35.24a0,0,0,0,1,0,0v2.62a1.24,1.24,0,0,1-1.24,1.24H489.05a1.24,1.24,0,0,1-1.24-1.24v-2.62A0,0,0,0,1,487.81,421.47Z"/><rect class="cls-5" x="492.73" y="473.13" width="25.4" height="4.89"/><rect class="cls-2" x="299.16" y="326.51" width="212.02" height="4.41" rx="0.71"/><rect class="cls-2" x="294.74" y="338.1" width="219.25" height="4.41" rx="0.71"/><rect class="cls-2" x="288.13" y="349.68" width="234.92" height="4.41" rx="0.71"/><rect class="cls-17" x="308.81" y="305.97" width="29.38" height="33.14"/><rect class="cls-7" x="308.81" y="305.97" width="29.38" height="8.51"/><path class="cls-15" d="M461.52,458.76v3.94a7.7,7.7,0,0,1-.19,1.67,7.29,7.29,0,0,1-7.08,5.61h-27.1a7.28,7.28,0,0,1-7.08-5.61,7.13,7.13,0,0,1-.2-1.67v-3.94Z" transform="translate(-117.2 -164.01)"/><path class="cls-2" d="M461.33,464.37a7.29,7.29,0,0,1-7.08,5.61h-27.1a7.28,7.28,0,0,1-7.08-5.61Z" transform="translate(-117.2 -164.01)"/><rect class="cls-15" x="265.47" y="496.41" width="277.65" height="7.41" rx="1.19"/><rect class="cls-2" x="258.53" y="503.7" width="291.53" height="7.41" rx="1.19"/><polygon class="cls-16" points="352.04 412.23 352.04 423.49 405.17 389.29 456.99 423.49 456.87 412.23 404.46 376.9 352.04 412.23"/><path class="cls-3" d="M194.08,792l22.9,7.67a5.54,5.54,0,0,0,7-3.49l19.41-58,8-24L218,703l-4.76,14.21L190.6,785A5.52,5.52,0,0,0,194.08,792Z" transform="translate(-117.2 -164.01)"/><path class="cls-4" d="M213.28,717.21c6.65,7.38,16.69,16.08,30.11,20.95l8-24L218,703Z" transform="translate(-117.2 -164.01)"/><path class="cls-2" d="M215.9,799.29,213.66,806,184.91,891.9A10.93,10.93,0,1,1,164.18,885l26-77.82,4.95-14.79Z" transform="translate(-117.2 -164.01)"/><polygon class="cls-10" points="98.7 635.28 96.46 641.96 73.03 643.14 77.97 628.35 98.7 635.28"/><path class="cls-15" d="M169.31,592.11a99,99,0,1,0,125.62-61.83A99,99,0,0,0,169.31,592.11ZM183.68,597A83.82,83.82,0,1,1,236,703.35,83.92,83.92,0,0,1,183.68,597Z" transform="translate(-117.2 -164.01)"/><path class="cls-20" d="M179.42,629.89a83.92,83.92,0,0,0,89.5,77.73,85,85,0,0,0,11.6-1.63,83.41,83.41,0,0,0,27-11A83.79,83.79,0,1,0,186.5,589.86a83.07,83.07,0,0,0-7.09,28.31A84.9,84.9,0,0,0,179.42,629.89Z" transform="translate(-117.2 -164.01)"/><path class="cls-20" d="M203.29,565.27,329.55,674.93a83.51,83.51,0,0,0,17-43.79L244.27,542.3A83.47,83.47,0,0,0,203.29,565.27Z" transform="translate(-117.2 -164.01)"/><path class="cls-20" d="M179.41,618.17,280.52,706a83.41,83.41,0,0,0,27-11L186.5,589.86A83.07,83.07,0,0,0,179.41,618.17Z" transform="translate(-117.2 -164.01)"/><polygon class="cls-21" points="621.88 686.72 620.83 705.74 636.26 706.08 638.14 686.1 621.88 686.72"/><path class="cls-7" d="M744.15,867.08s7.94-1.8,10.11-1.68,16.12,17,21,18.11c8.83,2.08,8.31,16,2.87,16.45-15.72,1.4-42.25-6.23-42.25-6.23s-1.79-17.91-.51-23.46S739.71,868.55,744.15,867.08Z" transform="translate(-117.2 -164.01)"/><path class="cls-6" d="M756.53,882.78a1.09,1.09,0,0,1-1.07-1.71c.12-.16,2.93-4,6.27-5.22a7.48,7.48,0,0,1,7.59,1.21,1.09,1.09,0,1,1-1.48,1.59,5.3,5.3,0,0,0-5.35-.76c-2.73,1-5.25,4.43-5.27,4.46A1.11,1.11,0,0,1,756.53,882.78Z" transform="translate(-117.2 -164.01)"/><path class="cls-6" d="M753.66,879.38a1.09,1.09,0,0,1-.83-.19,1.08,1.08,0,0,1-.24-1.51c.12-.17,2.93-4,6.27-5.23a7.48,7.48,0,0,1,7.59,1.22,1.08,1.08,0,1,1-1.48,1.58,5.36,5.36,0,0,0-5.36-.76c-2.73,1-5.24,4.43-5.27,4.46A1.07,1.07,0,0,1,753.66,879.38Z" transform="translate(-117.2 -164.01)"/><path class="cls-6" d="M760.61,885.73a1.09,1.09,0,0,1-1.07-1.71c.12-.16,2.93-4,6.27-5.22A7.5,7.5,0,0,1,773.4,880a1.09,1.09,0,1,1-1.48,1.59,5.32,5.32,0,0,0-5.35-.76c-2.74,1-5.25,4.43-5.27,4.46A1.07,1.07,0,0,1,760.61,885.73Z" transform="translate(-117.2 -164.01)"/><path class="cls-2" d="M795.82,619s-.32,4.47-.91,11.87c-.15,2-.32,4.13-.51,6.49-2,24.85-5.86,69.79-10.08,101.68-5.91,44.7-24.55,118.15-24.55,118.15l-19.24-.66-1.9-.07-4.56-.15s3.2-46.47,7.29-86.82c2.69-26.61,4.29-89.56,5.07-129.33.39-20.5.58-34.84.58-34.84Z" transform="translate(-117.2 -164.01)"/><path class="cls-10" d="M795.82,619s-.32,4.47-.91,11.87c-.15,2-.32,4.13-.51,6.49-8.87,1.66-33.27,2.8-48,2.8.39-20.5.58-34.84.58-34.84Z" transform="translate(-117.2 -164.01)"/><path class="cls-10" d="M757.38,630.56c0,1.53-1.79,146.38-16.85,226l-1.9-.08c15.07-79.35,16.84-224.41,16.86-225.92Z" transform="translate(-117.2 -164.01)"/><polygon class="cls-21" points="742.55 690.38 741.91 707.53 726.23 706.7 725.88 688.48 742.55 690.38"/><path class="cls-7" d="M855.11,870.75s3.42-4.45,6.08-4.22,22.94,16.86,30,18.31,5.57,6.61,4.24,9.24-56.09-1.83-56.09-1.83-1.26-16.34.6-21.3S849.6,871.85,855.11,870.75Z" transform="translate(-117.2 -164.01)"/><path class="cls-6" d="M866.29,882.31a1,1,0,0,1-.77-.1,1,1,0,0,1-.34-1.35c.09-.16,2.29-3.86,5.2-5.27a6.78,6.78,0,0,1,7,.43,1,1,0,0,1-1.2,1.56,4.84,4.84,0,0,0-4.91-.22c-2.37,1.15-4.35,4.47-4.37,4.5A1,1,0,0,1,866.29,882.31Z" transform="translate(-117.2 -164.01)"/><path class="cls-6" d="M863.4,879.49a1,1,0,0,1-.77-.1,1,1,0,0,1-.35-1.35c.09-.16,2.3-3.85,5.21-5.27a6.77,6.77,0,0,1,7,.43,1,1,0,1,1-1.19,1.56,4.88,4.88,0,0,0-4.91-.22C866,875.7,864,879,864,879A1,1,0,0,1,863.4,879.49Z" transform="translate(-117.2 -164.01)"/><path class="cls-6" d="M870.24,884.62a1,1,0,0,1-1.12-1.45c.09-.16,2.3-3.86,5.21-5.27a6.78,6.78,0,0,1,7,.43,1,1,0,0,1-1.2,1.56,4.84,4.84,0,0,0-4.91-.22c-2.38,1.16-4.35,4.47-4.37,4.5A1,1,0,0,1,870.24,884.62Z" transform="translate(-117.2 -164.01)"/><path class="cls-2" d="M862.6,858.86l-15.94-1.19-1.9-.13-3.87-.29s-9.79-93.19-12.84-118c-2.65-21.57-15-70-23-100.17-2.28-8.56-4.21-15.64-5.48-20.22-1-3.6-1.54-5.65-1.54-5.65L851.29,608s.15,1.17.4,3.27c.52,4.32,1.51,12.58,2.72,23,3.32,28.26,8.38,72.24,10.35,94.63C869.78,786.55,862.6,858.86,862.6,858.86Z" transform="translate(-117.2 -164.01)"/><path class="cls-10" d="M854.41,634.27,805,639.06c-2.28-8.56-4.21-15.64-5.48-20.22l52.15-7.53C852.21,615.63,853.2,623.89,854.41,634.27Z" transform="translate(-117.2 -164.01)"/><path class="cls-10" d="M846.66,857.67l-1.9-.13c-.92-28.82-3.75-100.79-9.53-131.31-7.25-38.46-23.94-94.46-24.11-95l1.81-.54c.17.57,16.89,56.67,24.15,95.23C842.9,756.59,845.75,828.91,846.66,857.67Z" transform="translate(-117.2 -164.01)"/><path class="cls-21" d="M848.27,474.92c1,7,2.12,13.64,3.07,19.24,1.51,9,2.66,15.23,2.66,15.23l8.17,23.43a13.79,13.79,0,0,0,19.58,7.58,2.28,2.28,0,0,0,.38-.2c2.73-2.1,4.9-6.18,6.91-15.77h0c.07-.83,7.31-36.59,7.38-49.46l-16.57-1.58c-.71-1.54-4.26,16.85-5.05,15.15l-1.55-3.37-2.72-5.86-4-8.72c-10.13-21.79-20.92-44.85-20.92-44.85C842.07,427.7,845,452.74,848.27,474.92Z" transform="translate(-117.2 -164.01)"/><path class="cls-22" d="M848.27,474.92c1,7,2.12,13.65,3.06,19.24a42.25,42.25,0,0,0,19.2-14.85l-4-8.72Z" transform="translate(-117.2 -164.01)"/><path class="cls-22" d="M870.27,516.84h.16a1,1,0,0,0,1-1c1.12-12.51,2.46-21.78,3.39-27.35-.5-1.09-1-2.22-1.55-3.37-.89,4.92-2.58,15.37-3.94,30.53A1.05,1.05,0,0,0,870.27,516.84Z" transform="translate(-117.2 -164.01)"/><path class="cls-16" d="M877.1,469.26a38.89,38.89,0,0,1-5.65,5.77c-4.39,3.73-12.6,8.48-21,9.06-8-25.16-10.54-56.9-8.12-65.3C846.52,423.31,867.58,448.48,877.1,469.26Z" transform="translate(-117.2 -164.01)"/><path class="cls-2" d="M871.45,469.69l.26.16,2.23,1.28.53-.94,19.37-.54a3.21,3.21,0,0,0,3.13-2.93l3.56-40.5a2.91,2.91,0,0,0,0-.59l.74-1.14-2.33-1.34-.1,0-.06,0a3.23,3.23,0,0,0-1.55-.34l-20.55.56a3.2,3.2,0,0,0-3.11,2.94L870,466.71A3.24,3.24,0,0,0,871.45,469.69Z" transform="translate(-117.2 -164.01)"/><path class="cls-15" d="M875.65,471.56,896.2,471a3.22,3.22,0,0,0,3.12-2.94l3.56-40.5a3.22,3.22,0,0,0-3.3-3.5l-20.54.56a3.21,3.21,0,0,0-3.12,2.94l-3.57,40.5A3.23,3.23,0,0,0,875.65,471.56Z" transform="translate(-117.2 -164.01)"/><path class="cls-21" d="M901.32,445.3c1.91.21.33,3,1.58,6.93,1.57,4.88-6.54,24.93-6.54,24.93-7.86,3.58-17.31-2.7-17.31-2.7s-2-15.28-.13-22.18c0,0,1.11-6.17,1.44-9.79s1.93-7.72,3.07-7,1.42,3.67,1.44,5.9.48,6.5.48,6.5.61-5.27.7-8.18-.13-7.52,1.64-8.42c2.23-1.14,2.86,5,3.15,7.29s-.6,9.21-.6,9.21,1.52-7.82,1.14-10.14a54.35,54.35,0,0,1-.75-8.75c.12-1.92,2.58-1.6,3.32.76a71.7,71.7,0,0,1,1.79,8.68,79.17,79.17,0,0,1-.24,8.78s1-7.69.91-9.72c0-1.65-.56-4.9,0-6.8s2.87-2.27,3.6,2.72.84,5.59.7,7.08c-.24,2.63-.69,5.55-.39,6.63a.83.83,0,0,0,.77.55Z" transform="translate(-117.2 -164.01)"/><path class="cls-16" d="M859.92,612.15a243.92,243.92,0,0,1-121.06,7.32c-.79-11.17-2.86-47.83-4.43-86.45-.06-1.29-.11-2.57-.16-3.85,0-1-.07-2.06-.12-3.09,0-.74-.06-1.49-.08-2.23,0-.34,0-.68,0-1,0-1-.07-2-.11-3,0-.85-.08-1.69-.11-2.53,0-.11,0-.23,0-.35s0-.2,0-.31c0-.88-.06-1.78-.1-2.65,0-.17,0-.34,0-.51,0-1.06-.07-2.13-.1-3.18,0-.74-.06-1.45-.09-2.17,0-.29,0-.58,0-.88,0-.81-.06-1.63-.08-2.43,0-.25,0-.49,0-.73l-.06-2.24,0-.95c0-1.06-.08-2.12-.09-3.16s-.07-2-.09-3c0-.68-.05-1.35-.07-2,0-1.46-.08-2.9-.11-4.33-.85-33.1-.75-60.25,1.63-64,5.51-8.62,32.17-22.48,40.21-28.89l.08,1.33s5.68,6.64,11.57,5.76c5.35-.78,9.1-7.26,9.72-8.43,4.36,2.7,14.3,6.87,24,11.39s19,9.32,22.3,13.27c2.79,3.41,5.9,29.88,8.74,62.38v.11c.06.6.11,1.21.16,1.81v.1c0,.46.07.93.12,1.42,0,.29.05.58.08.88,0,.67.11,1.34.16,2,.08,1,.18,2,.26,3s.16,2.09.26,3.15c0,.31,0,.63.07.94.06.75.12,1.49.19,2.23,0,.24,0,.49.05.73.07.8.13,1.62.19,2.43l.07.87c0,.72.11,1.44.17,2.17l.24,3.17c0,.17,0,.34.05.51.06.87.13,1.76.19,2.64l0,.31c0,.12,0,.24,0,.35.07.84.13,1.68.2,2.52.08,1,.16,2,.22,3,0,.34,0,.68.08,1,.06.75.11,1.49.16,2.23.08,1,.16,2.06.23,3.09l.27,3.83C857.34,564.2,859.39,600.87,859.92,612.15Z" transform="translate(-117.2 -164.01)"/><path class="cls-7" d="M852.24,494.62l-119,7.19,0-.95c0-1.06-.08-2.12-.09-3.16s-.07-2-.09-3c0-.68-.05-1.35-.07-2l118.48-7.16c0,.67.11,1.34.16,2,.08,1,.18,2,.26,3s.16,2.09.26,3.15C852.19,494,852.21,494.31,852.24,494.62Z" transform="translate(-117.2 -164.01)"/><path class="cls-7" d="M853.44,510l-119.63,7.23c0-.11,0-.23,0-.35s0-.2,0-.31c0-.88-.06-1.78-.1-2.65,0-.17,0-.34,0-.51,0-1.06-.07-2.13-.1-3.18,0-.74-.06-1.45-.09-2.17l119.26-7.21c0,.72.11,1.44.17,2.17l.24,3.17c0,.17,0,.34.05.51.06.87.13,1.76.19,2.64l0,.31C853.42,509.8,853.44,509.92,853.44,510Z" transform="translate(-117.2 -164.01)"/><path class="cls-7" d="M854.6,525.75,734.43,533c-.06-1.29-.11-2.57-.16-3.85,0-1-.07-2.06-.12-3.09,0-.74-.06-1.49-.08-2.23l119.87-7.25c.06.75.11,1.49.16,2.23.08,1,.16,2.06.23,3.09Z" transform="translate(-117.2 -164.01)"/><path class="cls-7" d="M837.93,465c3.76,4.48,9.46,14.8,12,19.57l.87,1.62c.29.55.45.87.47.89a.81.81,0,0,0,.35.38l-.24-2.9c0-.47-.09-.95-.13-1.42v-.08l-1.84-3.36c-2.91-5.24-7-12.29-10.07-15.9a.94.94,0,0,0-1.32-.12A1,1,0,0,0,837.93,465Z" transform="translate(-117.2 -164.01)"/><path class="cls-7" d="M758.38,433.32h0a65,65,0,0,0,35.23-14.88,63.75,63.75,0,0,0,12-12.75.94.94,0,0,0-1.57-1c-.16.24-16.11,24-45.84,26.8a.93.93,0,0,0,.15,1.86Z" transform="translate(-117.2 -164.01)"/><path class="cls-7" d="M827.63,591.93a.94.94,0,0,0,0-1.88c-26.44-.13-43-12.53-52.16-22.91a72.48,72.48,0,0,1-13.82-22.8.94.94,0,1,0-1.79.57A73.24,73.24,0,0,0,774,568.33c9.46,10.69,26.44,23.46,53.61,23.6Z" transform="translate(-117.2 -164.01)"/><path class="cls-7" d="M805.3,576.24a.94.94,0,0,0,.13-1.85c-23.26-4.81-28.83-23.65-28.88-23.84a.94.94,0,0,0-1.16-.65.93.93,0,0,0-.65,1.15,33.53,33.53,0,0,0,5.92,10.72c4.09,5.14,11.65,11.82,24.39,14.45A.72.72,0,0,0,805.3,576.24Z" transform="translate(-117.2 -164.01)"/><path class="cls-7" d="M744.46,467.61c-3.19,4.89-7.61,15.82-9.59,20.87l-.66,1.72-.36.94a.94.94,0,0,1-.82.61h0c0-.48,0-1,0-1.43l-.82,0,.75-1.95c.48-1.23,1.14-2.91,1.92-4.83,2.26-5.55,5.51-13,8.07-17a.94.94,0,1,1,1.58,1Z" transform="translate(-117.2 -164.01)"/><path class="cls-2" d="M753.4,337.73s-2.66-11.76,0-16,7.41-3.28,12.15-8.24,20.31-1.43,26.94-3c3.65-.89,7.6-.63,11.16-1.58,5.09-1.36,8.16,3.6,7.23,8.72-.6,3.26-1.92,8.17-6.49,9.72C804.37,327.33,759.36,321.9,753.4,337.73Z" transform="translate(-117.2 -164.01)"/><path class="cls-2" d="M753,347.27c1,17.2,12.34,28.41,29.53,27.37s28.41-14.51,27.38-31.7-12-29.61-29.21-28.57C760,315.61,751.92,330.07,753,347.27Z" transform="translate(-117.2 -164.01)"/><path class="cls-22" d="M757.27,354.44s-5.17-6.08-8.4-.6,2.73,20.74,11.2,16.42Z" transform="translate(-117.2 -164.01)"/><path class="cls-23" d="M757.88,365.56a.73.73,0,0,1-.74-.49c-1.64-4.72-6.74-6.37-6.79-6.39a.74.74,0,0,1-.48-.92.73.73,0,0,1,.92-.48c.24.07,5.85,1.87,7.74,7.31a.73.73,0,0,1-.46.93A.43.43,0,0,1,757.88,365.56Z" transform="translate(-117.2 -164.01)"/><path class="cls-23" d="M752.71,363.45a.86.86,0,0,1-.41-.1.74.74,0,0,1-.28-1,6.69,6.69,0,0,1,2.63-2.39.73.73,0,0,1,1,.31.74.74,0,0,1-.31,1,5.2,5.2,0,0,0-2,1.8A.76.76,0,0,1,752.71,363.45Z" transform="translate(-117.2 -164.01)"/><path class="cls-22" d="M806.5,351.47s4.4-6.66,8.27-1.61-.22,20.91-9.14,17.64Z" transform="translate(-117.2 -164.01)"/><path class="cls-23" d="M807.24,362.58a.73.73,0,0,0,.67-.58c1.06-4.88,5.92-7.13,6-7.15a.74.74,0,0,0-.61-1.35c-.22.1-5.58,2.56-6.8,8.19a.73.73,0,0,0,.57.87A.65.65,0,0,0,807.24,362.58Z" transform="translate(-117.2 -164.01)"/><path class="cls-23" d="M812.11,359.86a.77.77,0,0,0,.39-.14.74.74,0,0,0,.16-1,6.63,6.63,0,0,0-2.89-2.06.74.74,0,1,0-.52,1.38,5.24,5.24,0,0,1,2.22,1.55A.76.76,0,0,0,812.11,359.86Z" transform="translate(-117.2 -164.01)"/><path class="cls-21" d="M795.4,381.36l.94,15.48S792.2,405,786,405.91s-12.18-6.07-12.18-6.07l-1-16Z" transform="translate(-117.2 -164.01)"/><path class="cls-22" d="M795.4,381.36l.42,6.87c-3.91,4.9-11.27,6.51-22.37,5.55l-.61-10Z" transform="translate(-117.2 -164.01)"/><path class="cls-21" d="M754.71,354.3c.12.89.25,1.8.39,2.71.37,2.29.83,4.64,1.39,7l.06.23c2.77,11.29,8.12,22.22,18.4,25.21,23.29,6.76,30.25-13.28,32.82-24.88.29-1.28.53-2.71.72-4.23a1.48,1.48,0,0,1,0-.19c.21-1.71.38-3.52.5-5.39.09-1.38.15-2.78.2-4.19.12-3.43.13-6.86.09-9.9a16.11,16.11,0,0,0-11.26-15.17c-9.57-3-23.94-5-36.93,3.43a16.14,16.14,0,0,0-7.37,14.24C753.88,346.29,754.16,350.16,754.71,354.3Z" transform="translate(-117.2 -164.01)"/><path class="cls-2" d="M772.91,354.72c.1,1.66-.67,3-1.72,3.11s-2-1.22-2.08-2.88.67-3,1.72-3.1S772.81,353.07,772.91,354.72Z" transform="translate(-117.2 -164.01)"/><path class="cls-2" d="M796.22,353.32c.1,1.65-.67,3-1.72,3.1s-2-1.22-2.08-2.87.67-3.05,1.72-3.11S796.12,351.66,796.22,353.32Z" transform="translate(-117.2 -164.01)"/><path class="cls-2" d="M798.9,342.94s-6.15-2-10.64.27l.61,2.54s6.75-1,10.25.2A4.54,4.54,0,0,0,798.9,342.94Z" transform="translate(-117.2 -164.01)"/><path class="cls-2" d="M763.32,345.09s5.86-2.73,10.6-1l-.31,2.59s-6.81-.16-10.15,1.43A4.5,4.5,0,0,1,763.32,345.09Z" transform="translate(-117.2 -164.01)"/><path class="cls-22" d="M783.47,366.78a7.5,7.5,0,0,1-2.72-.07.73.73,0,0,1-.57-.87.73.73,0,0,1,.87-.57c.7.15,2.35.27,3-.26a.78.78,0,0,0,.23-.74c-.2-2.58-2.45-10.93-2.48-11a.74.74,0,0,1,1.43-.38c.09.35,2.31,8.56,2.52,11.28a2.24,2.24,0,0,1-.73,2A3.1,3.1,0,0,1,783.47,366.78Z" transform="translate(-117.2 -164.01)"/><path class="cls-6" d="M773.69,371.8c.78,3,3.11,8.43,9.84,8s8.32-5.6,8.76-9.14Z" transform="translate(-117.2 -164.01)"/><path class="cls-2" d="M809.19,351.43l-3.33.21c.16-3.37-1.3-7.34-2.46-10-2.65-6,2-9-2.07-11.78s-13.77-.92-20.57-.73-17.8.95-20.42,1.73-.9,5.11.28,8.48-2.83,7.42-3.33,11a15.52,15.52,0,0,0,.26,4.17l-2.78.17c-.59-4.3-.88-8.32-1-11.58a16.15,16.15,0,0,1,7.36-14.24c13-8.44,27.37-6.46,36.94-3.43a16.13,16.13,0,0,1,11.27,15.17C809.36,344,809.34,347.71,809.19,351.43Z" transform="translate(-117.2 -164.01)"/><path class="cls-6" d="M785.65,355.12a8.78,8.78,0,1,1,9.29,8.23A8.78,8.78,0,0,1,785.65,355.12ZM787,355a7.4,7.4,0,1,0,7-7.84A7.42,7.42,0,0,0,787,355Z" transform="translate(-117.2 -164.01)"/><path class="cls-6" d="M761.72,356.57A8.77,8.77,0,1,1,771,364.8,8.79,8.79,0,0,1,761.72,356.57Zm1.36-.08a7.41,7.41,0,1,0,6.95-7.84A7.42,7.42,0,0,0,763.08,356.49Z" transform="translate(-117.2 -164.01)"/><path class="cls-6" d="M801.52,351.33a.69.69,0,0,0,.47-.22h0s3.78-4.14,9.07-3.24a.69.69,0,0,0,.79-.56.68.68,0,0,0-.56-.79c-6-1-10.15,3.48-10.32,3.68a.68.68,0,0,0,0,1A.67.67,0,0,0,801.52,351.33Z" transform="translate(-117.2 -164.01)"/><path class="cls-6" d="M762.87,353.67a.68.68,0,0,0,.29-1.28c-.27-.15-6.7-3.78-11.93-2.59a.69.69,0,0,0,.31,1.34c4.7-1.07,10.88,2.41,11,2.44A.65.65,0,0,0,762.87,353.67Z" transform="translate(-117.2 -164.01)"/><path class="cls-6" d="M778.63,353.57s1.51-2.31,3.64-2.44,3.71,2,3.72,2l1.1-.82c-.08-.11-2.05-2.72-4.9-2.54s-4.64,3-4.71,3.07Z" transform="translate(-117.2 -164.01)"/><path class="cls-21" d="M741.36,603.18l-7.74,10.57A124.48,124.48,0,0,1,723,606.06l0,0c-9.28-7.41-22.26-19.6-28.89-33.94-8.29-17.92-5.86-32.43-5.86-32.43,1.09-10.63,8.21-32.23,13.89-48.26,2.07-5.83,4-10.89,5.27-14.46l17.32,4,7.41,4.56L729.3,493l-19.11,50.69c1.68,14.87,9.22,29.49,16.47,40.5A149.76,149.76,0,0,0,741.36,603.18Z" transform="translate(-117.2 -164.01)"/><path class="cls-22" d="M741.36,603.18l-7.74,10.57A124.48,124.48,0,0,1,723,606.06l0,0c-1.34-8-.53-19.28,3.65-21.84A149.76,149.76,0,0,0,741.36,603.18Z" transform="translate(-117.2 -164.01)"/><path class="cls-21" d="M737.22,591c1.56.1,9.87.52,9-2.33-1-3.13-9.14-6.81-9.14-6.81a.61.61,0,0,1,0-.37l-.09-.67-.36-6.74a14.2,14.2,0,0,0-3.81.56c-3.57,1.11-3.08,9.29-3.08,9.29s-4.51,1.61-4.34,4.91,3.79,3.79,3.79,3.79-5,2.48-3.8,5.29,4.92,3.63,4.92,3.63-4.25,2.8-2.77,4.78,5,3,5,3-3,4,0,6.2,7.45,1.72,10.31.73,2.35-4.62-3.26-7.26c0,0,4.95.49,7.43-3.64,2.06-3.44-3.2-4.92-7.7-5.51,3.53.23,9.63.13,10.67-3.23C751.36,592.16,739.13,591.12,737.22,591Z" transform="translate(-117.2 -164.01)"/><path class="cls-22" d="M732.15,485.48,729.3,493a111.42,111.42,0,0,1-27.15-1.6c2.07-5.83,4-10.89,5.27-14.46l17.32,4Z" transform="translate(-117.2 -164.01)"/><path class="cls-16" d="M734.53,424.35s-21.08,21.14-36.47,58a187.46,187.46,0,0,0,34.08,8c1.4-2.46,6.93-18.23,11.1-29.61Z" transform="translate(-117.2 -164.01)"/></svg>