<svg width="147" height="180" viewBox="0 0 147 180" fill="none" xmlns="http://www.w3.org/2000/svg">
<g clip-path="url(#clip0)">
<path d="M120.864 29.8282C121.148 30.6836 121.36 31.5617 121.496 32.453C122.063 35.392 122.293 38.3861 122.181 41.3772C121.864 49.6663 119.294 57.1811 114.323 63.8323C108.845 71.1817 101.661 76.0953 92.8335 78.5652C87.5248 80.057 81.9594 80.4015 76.5073 79.5757C66.6197 78.1032 58.3963 73.5545 51.8632 66.0135C47.1139 60.6023 43.9879 53.9609 42.8444 46.8525C40.9624 35.3035 43.519 24.7755 50.6847 15.5021C56.7742 7.62773 64.806 2.64063 74.5965 0.803278C86.324 -1.40417 97.0279 1.17863 106.619 8.32854C107.018 8.62777 107.097 8.801 106.695 9.18685C105.469 10.3601 104.28 11.5728 103.094 12.7828C102.831 13.0453 102.666 13.0768 102.356 12.8484C98.2516 9.77466 93.4895 7.69552 88.4449 6.77467C84.5569 6.05264 80.5723 6.01889 76.6727 6.67493C69.6577 7.79418 63.1896 11.1424 58.2257 16.2239C53.0837 21.4052 49.8605 27.626 48.8289 34.8599C47.3144 45.4876 50.1203 54.8949 57.3306 62.8795C62.3781 68.465 68.6776 71.9901 76.0926 73.2736C86.8805 75.1372 96.5161 72.4862 104.761 65.2339C110.551 60.1445 114.084 53.698 115.522 46.1228C116.171 42.5601 116.249 38.9169 115.753 35.3297C115.725 35.2249 115.724 35.1145 115.752 35.0094C115.779 34.9044 115.834 34.8085 115.911 34.7313C117.524 33.1354 119.132 31.5352 120.735 29.9305C120.774 29.8919 120.817 29.8575 120.864 29.8282V29.8282Z" fill="#3A81E8"/>
<path d="M121.284 3.00781C122.447 4.7428 123.494 6.29929 124.539 7.86104C125.696 9.5934 126.833 11.3389 128.016 13.0529C128.297 13.4623 128.245 13.6802 127.911 14.0109C119.558 22.3472 111.208 30.6914 102.863 39.0435L82.7939 59.1179C82.2349 59.6743 82.2349 59.6743 81.6758 59.1179C73.8749 51.3205 66.0723 43.5249 58.2679 35.731C57.9398 35.4029 57.9215 35.2061 58.1787 34.8229C60.3048 31.6731 62.4133 28.5155 64.5044 25.35C64.7669 24.951 64.9165 24.9353 65.2604 25.2818C70.7549 30.7956 76.2521 36.3076 81.7519 41.8179C82.1666 42.2326 82.353 42.1749 82.7283 41.7969C95.434 29.072 108.146 16.3522 120.864 3.63776C121.022 3.44034 121.162 3.22957 121.284 3.00781Z" fill="#3A81E8"/>
<path d="M30.6208 179.401C47.5321 179.401 61.2415 178.25 61.2415 176.829C61.2415 175.408 47.5321 174.257 30.6208 174.257C13.7094 174.257 0 175.408 0 176.829C0 178.25 13.7094 179.401 30.6208 179.401Z" fill="#BFD9FF"/>
<path d="M18.2949 168.556C18.2949 168.556 18.9432 167.165 21.358 167.538C23.7728 167.91 24.0484 168.372 24.3266 169.577C24.6048 170.782 25.4395 172.084 25.996 172.362C26.5524 172.64 28.5945 174.034 30.2665 174.312C31.9385 174.59 32.1222 175.611 31.7521 176.073C31.3821 176.535 25.0694 176.911 23.6783 176.724C23.6783 176.724 18.9537 176.632 17.8303 176.26C16.7069 175.887 18.2004 169.021 18.2949 168.556Z" fill="#2D2737"/>
<path d="M15.6147 135.935C15.6147 135.935 14.9086 132.092 18.9666 130.801C23.0245 129.51 23.7935 131.386 25.0219 134.893C26.2503 138.4 23.972 168.343 23.972 168.343C23.972 168.343 19.2973 169.131 18.1004 168.435C18.1004 168.435 14.5385 148.941 14.7879 143.592C15.0373 138.242 15.6147 135.935 15.6147 135.935Z" fill="#5787F2"/>
<path d="M17.6045 167.257C17.6045 167.257 22.8934 166.795 24.5628 166.517L24.4709 168.929C24.4709 168.929 20.2949 169.672 17.6964 169.299L17.6045 167.257Z" fill="#A4C2FF"/>
<path d="M16.2923 60.9028C16.2923 60.9028 12.9588 61.0971 10.9167 68.7089C8.87463 76.3208 7.57536 85.5995 8.31817 88.0143C9.06098 90.4291 17.0403 96.9228 20.0116 96.9228C22.9828 96.9228 23.1613 94.6943 22.6101 92.8386C22.0589 90.9829 16.3106 85.9722 16.3106 85.9722C16.3106 85.9722 20.9486 71.1238 20.7728 67.2259C20.5969 63.3281 18.3396 60.9028 16.2923 60.9028Z" fill="#5787F2"/>
<path d="M58.1339 58.6325L57.5801 58.6902L58.8216 56.2308C58.8216 56.2308 61.9714 56.0313 62.4963 57.3647L61.0369 60.5722L58.1339 58.6325Z" fill="#FF8D68"/>
<path d="M59.9081 51.6477C59.9081 51.6477 59.7848 49.1332 60.6772 48.7762C61.5696 48.4192 62.5723 49.1148 62.5723 49.1148C62.5723 49.1148 64.0212 48.9678 64.4831 49.5847C64.7746 50.0484 64.9217 50.5884 64.9057 51.1359C65.1444 51.196 65.364 51.3157 65.5439 51.4837C65.7239 51.6517 65.8583 51.8625 65.9346 52.0966C66.1473 52.884 65.7667 54.3723 65.7667 54.3723C65.7667 54.3723 64.8217 55.5324 63.7298 55.2437C62.6379 54.955 59.9081 51.6477 59.9081 51.6477Z" fill="#FF7759"/>
<path d="M58.2544 53.6769C58.2544 53.6769 57.9184 50.388 58.2727 49.9523C58.6271 49.5166 62.2493 44.5059 62.2493 44.5059C62.2493 44.5059 63.0026 45.3589 62.5695 46.3432C62.1364 47.3275 60.4303 50.2804 60.4303 50.2804V52.8054C60.4303 52.8054 59.3069 53.5692 58.2544 53.6769Z" fill="#FF7759"/>
<path d="M58.5222 56.3068C58.5222 56.3068 57.6561 51.0257 58.2598 50.3012C58.8635 49.5768 61.7455 49.9994 62.2993 50.2068C62.8531 50.4141 64.3834 52.388 64.5934 53.1649C64.8034 53.9418 63.365 56.7451 62.4935 57.3645C61.6221 57.984 59.0236 57.3199 58.5222 56.3068Z" fill="#FF8D68"/>
<path d="M56.4829 59.7849L57.5984 57.7428C57.5984 57.7428 60.197 57.2782 61.4962 59.3177C61.8663 60.0605 61.68 60.0605 61.68 60.0605L60.8453 61.7298L56.4829 59.7849Z" fill="#DEE0E8"/>
<path d="M30.0462 37.4454C30.0462 37.4454 32.7917 38.1488 34.3456 42.3642C35.8995 46.5796 34.8706 55.5406 33.8206 56.5932C32.7707 57.6457 29.6341 57.2468 25.2665 55.8057C20.6495 54.2834 19.0903 49.4853 18.2662 46.3198C16.6939 40.2565 21.9645 34.02 30.0462 37.4454Z" fill="#FF8D68"/>
<path d="M20.1978 60.7191L22.4236 52.7372C22.4236 52.7372 26.8857 51.4379 29.6627 54.4065L30.5919 55.7058V60.9029C27.1433 61.4528 23.6248 61.3906 20.1978 60.7191V60.7191Z" fill="#FF8D68"/>
<path d="M13.9797 103.687C12.9853 110.612 12.9853 117.643 13.9797 124.567C15.6491 135.704 18.9905 136.817 22.0536 136.817C25.1167 136.817 25.9514 127.909 26.5157 124.011C27.08 120.113 29.3006 106.75 25.1246 103.687C20.9485 100.624 16.2055 100.346 13.9797 103.687Z" fill="#5787F2"/>
<path d="M25.6729 116.771C25.6729 116.771 22.3315 107.863 28.1769 103.965C34.0223 100.067 38.4792 100.624 39.8704 107.028C41.2615 113.433 41.5424 135.426 39.5921 139.88C37.6419 144.334 30.6836 137.373 25.6729 116.771Z" fill="#5787F2"/>
<path d="M35.4029 37.8286C35.4029 37.8286 36.7152 39.5399 35.9278 41.5033C35.1404 43.4666 32.2374 44.2698 32.2374 44.2698C32.2374 44.2698 33.1613 45.5822 32.2374 47.4327L31.5785 48.4826C31.5785 48.4826 32.5025 50.5824 32.2374 51.1074C31.9723 51.6323 31.0509 51.5037 31.0509 51.5037C31.0509 51.5037 30.001 48.6164 29.6021 48.8789C29.2031 49.1414 28.1532 50.4538 28.1532 51.6454C28.1532 52.8371 28.5495 53.7453 28.2844 54.5327C28.0193 55.3201 23.9378 55.3201 22.2238 55.0577C20.5098 54.7952 17.8798 49.5482 17.2209 47.1859C17.2209 47.1859 16.2996 43.8918 17.6147 41.1253C17.6147 41.1253 17.3522 38.763 19.5911 36.3797C21.8301 33.9964 28.9459 34.8048 30.1323 35.7209C30.1323 35.7209 30.001 34.4085 31.3187 34.6709C32.6363 34.9334 34.6128 36.1146 35.4029 37.8286Z" fill="#C53A45"/>
<path d="M31.45 49.8103C31.45 49.8103 31.0537 48.099 29.6127 48.889C28.1716 49.6791 29.8751 53.7632 31.0615 53.5008C32.2479 53.2383 31.7125 50.4744 31.45 49.8103Z" fill="#FF7759"/>
<path d="M19.019 60.6748C19.019 60.6748 19.6385 58.4909 20.1976 58.3125C20.7566 58.134 27.6205 57.3859 31.3319 59.6117C33.0039 60.911 32.8175 61.8402 32.8175 61.8402C32.8175 61.8402 21.7383 59.7062 19.019 60.6748Z" fill="#DEE0E8"/>
<path d="M17.6044 60.1601C17.6044 60.1601 29.1115 59.4199 37.2772 62.945C40.9913 64.8008 49.4825 73.2001 49.4825 73.2001L56.1625 59.2887C56.1625 59.2887 59.9212 57.9422 61.4121 61.4673C61.4121 61.4673 57.1888 77.8958 53.6637 83.0929C51.4353 84.9486 40.8023 78.9169 40.8023 78.9169C40.8023 78.9169 42.4716 100.44 41.9152 110.097C41.1724 111.955 26.6914 112.882 24.0981 112.695C21.5048 112.509 12.4047 109.545 12.2183 108.984C12.032 108.422 13.5176 86.1481 13.1449 83.5549C12.7722 80.9616 11.6619 68.15 12.032 66.2943C12.4021 64.4385 14.0715 60.9029 17.6044 60.1601Z" fill="#A4C2FF"/>
<path d="M29.8492 169.115C29.8492 169.115 30.4975 167.721 32.9123 168.094C35.3271 168.467 35.6027 168.929 35.8809 170.136C36.1592 171.344 36.9938 172.651 37.5529 172.913C38.112 173.176 40.1515 174.585 41.8235 174.863C43.4954 175.142 43.6792 176.163 43.3091 176.627C42.939 177.092 36.6264 177.462 35.2326 177.276C35.2326 177.276 30.508 177.184 29.3872 176.811C28.2664 176.438 29.7547 169.577 29.8492 169.115Z" fill="#3E3343"/>
<path d="M30.962 136.539C30.962 136.539 30.6838 132.641 34.8598 131.814C39.0358 130.987 39.5844 132.927 40.427 136.539C41.2695 140.15 35.7023 169.671 35.7023 169.671C35.7023 169.671 30.9777 169.95 29.8569 169.115C29.8569 169.115 28.4632 149.348 29.3005 144.056C30.1378 138.765 30.962 136.539 30.962 136.539Z" fill="#5787F2"/>
<path d="M29.4766 169.577C29.4766 169.577 33.0962 170.598 36.1593 170.041L36.4376 167.907L29.3848 167.443L29.4766 169.577Z" fill="#A4C2FF"/>
<path d="M24.5576 114.685C24.5576 114.685 28.4554 127.213 31.3821 133.337" stroke="#2A2E59" stroke-width="1.03" stroke-miterlimit="10"/>
<path d="M32.4922 135.843C32.4922 135.843 34.8545 134.452 37.2168 135.843" stroke="#2A2E59" stroke-width="1.03" stroke-miterlimit="10"/>
<path d="M32.0747 137.374C32.0747 137.374 34.0249 136.261 37.3663 138.628" stroke="#2A2E59" stroke-width="1.03" stroke-miterlimit="10"/>
<path d="M17.46 134.174C17.46 134.174 18.9902 132.78 22.4707 134.313" stroke="#2A2E59" stroke-width="1.03" stroke-miterlimit="10"/>
<path d="M18.5728 135.565C19.2743 135.255 20.0473 135.143 20.808 135.241C21.5687 135.339 22.288 135.644 22.8879 136.122" stroke="#2A2E59" stroke-width="1.03" stroke-miterlimit="10"/>
<path d="M23.7229 137.791L22.8882 166.189" stroke="#2A2E59" stroke-width="1.03" stroke-miterlimit="10"/>
<path d="M35.23 113.986C35.23 113.986 38.3797 115.845 39.6921 112.874" stroke="#2A2E59" stroke-width="1.03" stroke-miterlimit="10"/>
<path d="M38.3877 114.359C38.3877 114.359 39.8707 125.866 39.5006 133.476" stroke="#2A2E59" stroke-width="1.03" stroke-miterlimit="10"/>
<path d="M12.0293 71.1108L13.5149 87.0748" stroke="#524B81" stroke-width="1.03" stroke-miterlimit="10"/>
<path d="M37.5054 76.6807C37.5054 76.6807 48.5032 84.6154 53.6531 83.0852" stroke="#524B81" stroke-width="1.03" stroke-miterlimit="10"/>
<path d="M50.5903 74.7305C51.2823 75.1753 51.8421 75.7977 52.2115 76.5328C52.5808 77.2678 52.7461 78.0884 52.6902 78.9091" stroke="#524B81" stroke-width="1.03" stroke-miterlimit="10"/>
<path d="M50.0337 73.6173C50.7569 73.4387 51.5191 73.5061 52.1997 73.8089C52.8804 74.1116 53.4408 74.6325 53.7924 75.2893" stroke="#524B81" stroke-width="1.03" stroke-miterlimit="10"/>
<path d="M37.088 64.0132C37.088 64.0132 31.2532 67.0763 35.1378 74.1737" stroke="#524B81" stroke-width="1.03" stroke-miterlimit="10"/>
<path d="M28.8042 54.7554C28.8042 54.7554 29.778 57.2594 33.0511 56.8552" stroke="#E66657" stroke-width="1.03" stroke-miterlimit="10"/>
<path d="M60.3125 49.6058L61.4018 48.6294C61.4018 48.6294 62.1682 48.6294 62.5724 49.115" stroke="#E66657" stroke-width="1.03" stroke-miterlimit="10"/>
<path d="M61.6118 49.7662C61.6118 49.698 63.1657 48.8633 63.1657 48.8633C63.1657 48.8633 64.5805 49.2097 64.7904 49.9526C64.922 50.3178 64.9376 50.7147 64.8351 51.0891" stroke="#E66657" stroke-width="1.03" stroke-miterlimit="10"/>
<path d="M63.4438 51.1228C63.5147 51.0992 65.4151 51.2147 65.4151 51.2147C65.6286 51.3728 65.8012 51.5796 65.9185 51.8179C66.0358 52.0563 66.0945 52.3192 66.0896 52.5848C66.0602 53.1956 65.9517 53.8 65.7668 54.3828C65.5516 54.6682 65.2744 54.9011 64.9561 55.0639C64.6379 55.2267 64.2868 55.3151 63.9294 55.3225" stroke="#E66657" stroke-width="1.03" stroke-miterlimit="10"/>
<path d="M64.533 53.063C64.533 53.063 64.7666 53.4331 64.4648 54.1129C64.1629 54.7927 63.8007 56.5408 62.4883 57.365" stroke="#E66657" stroke-width="1.03" stroke-miterlimit="10"/>
<path d="M25.0456 40.973C22.3315 39.6606 18.8511 41.2512 18.8511 41.2512C19.0148 40.6826 19.3159 40.1629 19.7279 39.7382C20.1398 39.3134 20.65 38.9965 21.2134 38.8154" stroke="#A03A45" stroke-width="1.37" stroke-miterlimit="10"/>
<path d="M18.9902 42.3668C18.9902 42.3668 19.6858 42.296 20.5913 43.6792" stroke="#A03A45" stroke-width="1.37" stroke-miterlimit="10"/>
<path d="M30.9619 36.125C30.9619 36.125 34.403 36.6867 34.4896 40.1147" stroke="#A03A45" stroke-width="1.37" stroke-miterlimit="10"/>
<path d="M116.7 180C133.061 180 146.324 178.886 146.324 177.512C146.324 176.137 133.061 175.023 116.7 175.023C100.34 175.023 87.0771 176.137 87.0771 177.512C87.0771 178.886 100.34 180 116.7 180Z" fill="#BFD9FF"/>
<path d="M117.832 45.0859C117.832 45.0859 117.079 46.5926 116.625 49.9077C116.17 53.2228 117.378 72.3706 117.378 72.3706L130.344 71.0162L124.465 45.9889L117.832 45.0859Z" fill="#024470"/>
<path d="M110.141 125.953L105.619 148.34L114.438 148.568C114.438 148.568 116.701 128.667 115.795 128.667C114.889 128.667 110.141 125.953 110.141 125.953Z" fill="#45242C"/>
<path d="M130.646 174.27C130.646 174.27 127.329 177.738 125.972 178.494C126.274 179.095 131.098 179.095 132.906 178.192C134.715 177.289 136.072 175.176 136.072 175.176L135.922 177.438H136.828C136.828 177.438 137.731 174.27 137.731 173.517C137.731 172.764 136.828 171.708 136.828 171.708L130.646 174.27Z" fill="#713336"/>
<path d="M129.289 129.646L132.604 170.351L136.526 170.049C136.526 170.049 141.048 140.2 139.24 129.948C137.431 119.695 129.289 129.646 129.289 129.646Z" fill="#FF8D68"/>
<path d="M132.604 170.351C132.604 170.351 131.4 173.517 129.741 175.026C128.082 176.535 132.305 176.533 134.114 175.026C135.922 173.519 136.072 172.614 136.675 172.312C137.279 172.01 136.526 170.049 136.526 170.049L132.604 170.351Z" fill="#FF8D68"/>
<path d="M103.435 173.587C103.435 173.587 99.5789 176.446 98.1143 176.96C98.3111 177.606 103.067 178.42 105.002 177.832C106.936 177.244 108.632 175.393 108.632 175.393L108.107 177.598L108.997 177.75C108.997 177.75 110.422 174.782 110.55 174.039C110.679 173.296 109.963 172.104 109.963 172.104L103.435 173.587Z" fill="#713336"/>
<path d="M109.608 129.373L106.015 170.057L109.931 170.42C109.931 170.42 119.42 141.76 119.365 131.35C119.31 120.94 109.608 129.373 109.608 129.373Z" fill="#FF8D68"/>
<path d="M106.015 170.055C106.015 170.055 104.293 172.971 102.403 174.178C100.513 175.386 104.676 176.097 106.713 174.916C108.75 173.735 109.052 172.868 109.698 172.672C110.343 172.475 109.931 170.417 109.931 170.417L106.015 170.055Z" fill="#FF8D68"/>
<path d="M95.7178 64.6986L87.9249 63.1631C87.9249 63.1631 87.8067 64.2261 88.5154 64.4624L89.2215 64.6986C89.2215 64.6986 90.9932 68.9507 91.82 69.4232C92.6469 69.8957 97.5946 71.943 97.5946 71.943L98.907 66.9428L95.7178 64.6986Z" fill="#FF7759"/>
<path d="M101.335 71.0032C101.335 71.0032 101.261 70.4782 100.217 68.36C99.0619 66.0161 98.802 65.0528 98.802 65.0528C98.802 65.0528 95.1273 63.6354 94.5499 62.9267C93.9724 62.218 93.6049 62.1025 93.6049 62.1025C93.6049 62.1025 92.8963 63.3992 93.9593 64.3441C95.0223 65.289 95.9673 65.9977 95.9673 65.9977C95.9673 65.9977 95.8491 68.7144 96.2035 70.0137C96.4313 70.8049 96.9339 71.489 97.6208 71.9429L101.335 71.0032Z" fill="#FF8D68"/>
<path d="M113.459 75.3733C113.459 75.3733 108.183 83.8172 108.031 83.0613C107.879 82.3053 101.248 70.7012 101.248 70.7012L97.6079 71.9427C97.6079 71.9427 103.057 88.9408 106.532 91.6548C106.532 91.6548 106.834 92.1089 107.889 91.9567C108.944 91.8044 117.076 83.3631 117.076 83.3631L113.459 75.3733Z" fill="#FF8D68"/>
<path d="M118.396 65.3491C118.396 65.3491 115.569 66.4778 114.212 68.4385C112.855 70.3992 108.937 79.2946 108.937 79.2946C110.541 81.796 113.009 83.6198 115.871 84.4182L122.504 72.2077L118.396 65.3491Z" fill="#C95950"/>
<path d="M114.892 94.293C114.892 94.293 115.118 97.9126 115.118 99.2801C115.118 99.2801 109.69 125.512 109.464 131.617C109.239 137.723 113.761 150.162 113.761 150.162C113.761 150.162 133.208 149.708 139.542 148.351L140.219 135.227C140.219 135.227 141.124 112.391 140.219 105.829C139.313 99.267 135.471 95.881 135.471 95.881L134.339 92.7129L114.892 94.293Z" fill="#713336"/>
<path d="M131.52 63.7666C131.52 63.7666 136.61 66.1289 138.193 68.6277C139.775 71.1265 144.523 84.5707 144.523 84.5707C144.523 84.5707 139.208 86.492 134.573 86.492C134.573 86.492 135.024 90.7888 135.478 92.1458C135.933 93.5028 134.347 94.0671 134.347 94.0671C134.347 94.0671 123.265 97.1198 115.013 95.3113C115.013 95.3113 113.995 95.0856 113.995 94.6341C113.995 94.1826 114.107 93.0592 114.107 93.0592C114.107 93.0592 113.32 85.3686 113.089 84.0116C112.858 82.6546 110.378 78.9615 110.603 77.4916C110.829 76.0217 114.674 69.1999 114.674 69.1999C114.674 69.1999 117.273 66.1473 118.404 65.3572C119.536 64.5672 122.362 64.5698 122.362 64.5698L131.52 63.7666Z" fill="#C95950"/>
<path d="M121.869 59.6953C121.869 59.8738 122.52 63.7112 120.393 66.4279C118.267 69.2023 126.651 69.0842 128.601 66.2494C130.373 63.7112 130.194 63.2991 130.194 63.2991C130.194 63.2991 128.777 58.6926 129.192 55.6873C129.074 52.9601 121.75 54.619 121.869 59.6953Z" fill="#FF8D68"/>
<path d="M121.808 43.6792C121.808 43.6792 119.365 44.3039 117.979 48.0573C116.593 51.8108 117.517 59.7849 118.441 60.7245C119.365 61.6642 122.168 61.3046 126.053 60.0211C130.163 58.6641 131.565 54.3935 132.284 51.5745C133.701 46.1806 129.011 40.6239 121.808 43.6792Z" fill="#FF8D68"/>
<path d="M117.084 47.9367C117.084 47.9367 119.344 53.3621 127.938 53.664L129.935 63.2576C129.935 63.2576 133.594 65.0136 135.022 65.801C135.022 65.801 136.681 48.3882 132.762 44.1675C128.843 39.9468 121.906 41.002 119.194 43.4142C116.483 45.8264 117.084 47.9367 117.084 47.9367Z" fill="#024470"/>
<path d="M131.52 63.7667L129.599 61.9556C129.599 61.9556 127.903 66.8193 121.908 67.1579C121.408 66.2214 121.287 65.1286 121.57 64.1053L120.554 64.8927C120.554 64.8927 118.404 67.9453 118.63 68.8509C118.856 69.7565 121.722 68.1737 121.722 68.1737C121.722 68.1737 125.113 70.2079 126.47 70.3208C127.827 70.4337 131.287 64.1053 131.52 63.7667Z" fill="white"/>
<path d="M128.066 53.5244C128.066 53.5244 128.972 52.0283 129.88 52.5795C130.788 53.1307 129.302 56.5167 128.066 56.5928C126.83 56.6689 127.489 54.3906 128.066 53.5244Z" fill="#FF7759"/>
<path d="M130.192 73.5649L133.659 85.9251" stroke="#BB524F" stroke-width="1.15" stroke-miterlimit="10"/>
<path d="M128.045 74.2812C128.714 75.934 129.905 77.3229 131.436 78.2368" stroke="#BB524F" stroke-width="1.15" stroke-miterlimit="10"/>
<path d="M132.003 71.3338C132.003 71.3338 132.455 68.1683 136.072 67.9399" stroke="#BB524F" stroke-width="1.15" stroke-miterlimit="10"/>
<path d="M114.252 69.9849C114.252 69.9849 110.556 76.0534 110.596 77.4839C110.635 78.9144 113.008 82.9959 113.008 82.9959L115.947 90.6839" stroke="#BB524F" stroke-width="1.15" stroke-miterlimit="10"/>
<path d="M127.026 95.1983L130.985 90.6758" stroke="#BB524F" stroke-width="1.15" stroke-miterlimit="10"/>
<path d="M93.8597 66.0264L89.2217 64.6982C89.2217 64.6982 89.639 65.7245 89.9409 66.0264C90.2427 66.3282 93.4843 67.4595 93.4843 67.4595" stroke="#E66657" stroke-width="1.03" stroke-miterlimit="10"/>
<path d="M89.9409 66.0264C89.9409 66.0264 90.3924 67.3834 90.6181 67.6012C90.8438 67.8191 93.7101 68.6512 93.7101 68.6512" stroke="#E66657" stroke-width="1.03" stroke-miterlimit="10"/>
<path d="M94.5396 64.895L95.9543 65.9974L97.0252 65.7245" stroke="#E66657" stroke-width="1.03" stroke-miterlimit="10"/>
<path d="M122.354 60.9764C122.354 60.9764 125.218 60.3727 126.725 57.6587" stroke="#E66657" stroke-width="1.03" stroke-miterlimit="10"/>
<path d="M119.866 54.3408L119.338 57.2071L120.317 57.4328" stroke="#E66657" stroke-width="1.03" stroke-miterlimit="10"/>
<path d="M119.708 58.7139C120.719 58.8674 121.753 58.6829 122.648 58.189" stroke="#E66657" stroke-width="1.03" stroke-miterlimit="10"/>
<path d="M125.069 55.8132C125.069 56.0895 124.988 56.3597 124.835 56.5897C124.681 56.8197 124.464 56.9991 124.208 57.1052C123.953 57.2113 123.673 57.2393 123.401 57.1857C123.13 57.1321 122.881 56.9993 122.686 56.8042C122.49 56.609 122.357 56.3602 122.303 56.0892C122.249 55.8183 122.276 55.5374 122.382 55.2821C122.488 55.0267 122.667 54.8085 122.896 54.655C123.126 54.5014 123.396 54.4194 123.672 54.4194C124.042 54.4194 124.397 54.5662 124.659 54.8275C124.921 55.0888 125.068 55.4433 125.069 55.8132Z" fill="#FA6157"/>
<path d="M122.354 53.9289C122.355 53.9966 122.335 54.063 122.298 54.1195C122.261 54.176 122.207 54.2201 122.145 54.2463C122.082 54.2724 122.014 54.2794 121.947 54.2663C121.881 54.2533 121.82 54.2207 121.772 54.1728C121.724 54.125 121.691 54.0639 121.678 53.9975C121.665 53.931 121.672 53.8622 121.698 53.7998C121.725 53.7373 121.769 53.6841 121.825 53.6468C121.882 53.6095 121.948 53.5898 122.016 53.5903C122.106 53.5903 122.192 53.626 122.255 53.6895C122.319 53.753 122.354 53.8391 122.354 53.9289V53.9289Z" fill="#024470"/>
<path d="M118.698 53.9289C118.699 53.9966 118.679 54.063 118.642 54.1195C118.604 54.176 118.551 54.2201 118.489 54.2463C118.426 54.2724 118.357 54.2794 118.291 54.2663C118.224 54.2533 118.163 54.2207 118.116 54.1728C118.068 54.125 118.035 54.0639 118.022 53.9975C118.009 53.931 118.016 53.8622 118.042 53.7998C118.068 53.7373 118.112 53.6841 118.169 53.6468C118.225 53.6095 118.292 53.5898 118.359 53.5903C118.449 53.5903 118.535 53.626 118.599 53.6895C118.662 53.753 118.698 53.8391 118.698 53.9289V53.9289Z" fill="#024470"/>
<path d="M116.296 98.4769C116.296 98.4769 122.514 100.401 128.394 97.9126" stroke="#562525" stroke-width="1.15" stroke-miterlimit="10"/>
<path d="M118.134 100.7C118.134 100.7 121.299 101.75 126.425 99.7969" stroke="#562525" stroke-width="1.15" stroke-miterlimit="10"/>
<path d="M116.774 99.0819L104.829 105.979L113.988 121.843L125.933 114.946L116.774 99.0819Z" fill="#E3EEFF"/>
<path d="M128.082 105.225C128.082 105.225 126.197 107.296 125.633 107.75C125.068 108.204 121.223 108.538 121.223 108.538C121.223 108.538 119.528 111.365 119.076 111.252C118.625 111.139 118.735 110.8 118.735 110.8C118.735 110.8 118.622 105.711 118.961 105.147C119.299 104.582 124.84 102.997 124.84 102.997L125.52 102.209L128.082 105.225Z" fill="#FF8D68"/>
<path d="M142.857 85.0981C143.009 85.5496 144.214 89.0931 144.817 90.9016C145.421 92.71 131.851 102.209 129.741 103.868L128.082 105.225L125.52 102.209L137.429 90.2979L135.696 86.379L142.857 85.0981Z" fill="#FF8D68"/>
<path d="M119.074 111.254L119.79 108.089" stroke="#E66657" stroke-width="1.03" stroke-miterlimit="10"/>
<path d="M118.659 108.388L119.488 106.58" stroke="#E66657" stroke-width="1.03" stroke-miterlimit="10"/>
<path d="M118.961 105.149L118.659 111.254H119.64L121.223 108.54" stroke="#E66657" stroke-width="1.03" stroke-miterlimit="10"/>
</g>
<defs>
<clipPath id="clip0">
<rect width="146.324" height="180" fill="white"/>
</clipPath>
</defs>
</svg>
