<svg id="Layer_1" data-name="Layer 1" xmlns="http://www.w3.org/2000/svg" viewBox="0 0 1062.38 703.88"><defs><style>.cls-1{fill:#eff5fb;opacity:0.5;isolation:isolate;}.cls-2{fill:#599dad;}.cls-3{fill:#21720e;}.cls-4{fill:#6bb7bf;}.cls-5{fill:#86d1cd;}.cls-6{fill:#161c48;}.cls-7{fill:#ddebfd;}.cls-8{fill:#a8c3f7;}.cls-9{fill:#f99746;}.cls-10{fill:#ed7d2b;}.cls-11{fill:#d39e7a;}.cls-12{fill:#e0b594;}.cls-13{fill:#163560;}.cls-14{fill:#233862;}.cls-15{fill:#f2c7aa;}.cls-16{fill:#af7d5b;}.cls-17{fill:#e2b291;}.cls-18{fill:#ed975d;}.cls-19{fill:#82b378;}.cls-20{fill:#2b478b;}.cls-21{fill:#ffb27d;}.cls-22{fill:#d7e1fe;}.cls-23{fill:#bacdfe;}.cls-24{fill:#1c468a;}.cls-25{fill:#912f2f;}.cls-26{fill:#c65447;}.cls-27{fill:#4a75cb;}.cls-28{fill:#699dee;}.cls-29{fill:#ed985f;}.cls-30{fill:#2c3a64;}.cls-31{fill:#283250;}</style></defs><path class="cls-1" d="M114.51,895.06S-5.09,758,44.84,597C89.67,452.44,292.34,358.89,400,430.48c52.1,34.63,94.16-104.57,267.06-155.53C794.93,237.27,984,321.78,936,580.58c-36.53,196.77,144.58,98.67,105,316Z" transform="translate(-8.49 -195.12)"/><path class="cls-2" d="M748.18,402.57s-26-28.11-3.32-47.44c0,0,16.68-11,30.63-10.66,0,0-18.48,33.81-12,36.86s17.86-39.15,17.86-39.15,38.7-5.23,51.42.31c0,0-32.18,28.41-25.17,29.77s41.91-26.66,41.91-26.66,36.37,4.79,35.27,26.92-13.3,29.39-18.79,29-38-11.36-38.5-6.89,19.29,18.45,32.82,18.63c0,0-24.43,29.06-41.67,21.58s-19.17-20.29-29.91-24.7-19.75-4.06-15.2.68,23.82,8.81,30.26,19.27,12.13,17.45-5.49,15.47-46.59-13.73-48.39-28.36Z" transform="translate(-8.49 -195.12)"/><path class="cls-2" d="M867.12,373.78s-98.31-.1-118.93,28.79c0,0-4.26,14.54-18.52,28.17l-2.07,6.35s16.34-18.57,22.39-19.88C750,417.21,739.15,382.78,867.12,373.78Z" transform="translate(-8.49 -195.12)"/><path class="cls-2" d="M729.66,430.74S709.17,447.12,708.75,475l3.84.19s5.68-29,17.39-40.76S729.66,430.74,729.66,430.74Z" transform="translate(-8.49 -195.12)"/><path class="cls-3" d="M689.43,369.07S631,355.9,643.09,310.89c0,0,11.76-28.93,30-40.88,0,0,6.17,59.93,17.25,58.09s-11.69-66.28-11.69-66.28,45.23-41,66.56-45.18c0,0-16.24,65.14-6,60.62s30.36-71.5,30.36-71.5,51.14-26.07,69.32,3.4,8.93,49.67,1.51,54-59,19-55.71,25.26,41.21,6.66,58.79-5.1c0,0-5.68,59.1-34.55,64.76s-42.67-9.13-60.43-5.31-29.06,12.26-19,14.36,38.52-9.74,56.08-2,31.1,11.72,6.64,24.8-72.2,23.61-87.49,6.36Z" transform="translate(-8.49 -195.12)"/><path class="cls-4" d="M817.15,226.51S690.39,313.56,689.43,369.07c0,0,7.41,22.51,1.12,52.71l3,10s4.59-38.42,11.21-45.46C704.78,386.33,660.26,351.57,817.15,226.51Z" transform="translate(-8.49 -195.12)"/><path class="cls-4" d="M690.55,421.78s-11.87,39.27,12.33,75.58l5.14-3.14s-18.47-42.43-13.73-67.93S690.55,421.78,690.55,421.78Z" transform="translate(-8.49 -195.12)"/><path class="cls-5" d="M365,704.24s58.45-13.18,46.34-58.18c0,0-11.76-28.93-30-40.88,0,0-6.17,59.93-17.25,58.09S375.7,597,375.7,597s-45.23-41-66.56-45.18c0,0,16.23,65.14,6,60.63s-30.36-71.5-30.36-71.5-51.14-26.08-69.31,3.4-8.93,49.66-1.52,54,59.1,19,55.77,25.26-41.21,6.65-58.8-5.1c0,0,5.69,59.1,34.55,64.75s42.67-9.12,60.43-5.31,29.06,12.27,19,14.36-38.53-9.74-56.08-2-31.1,11.74-6.64,24.81,72.19,23.62,87.49,6.36Z" transform="translate(-8.49 -195.12)"/><path class="cls-4" d="M237.22,561.68S364,648.73,365,704.24c0,0-7.41,22.5-1.12,52.72l-3,10s-4.58-38.42-11.21-45.45C349.65,721.51,394.13,686.74,237.22,561.68Z" transform="translate(-8.49 -195.12)"/><path class="cls-4" d="M363.85,757s11.86,39.23-12.34,75.58l-5.12-3.15s18.47-42.43,13.73-67.94S363.85,757,363.85,757Z" transform="translate(-8.49 -195.12)"/><rect class="cls-6" x="318.64" y="104.53" width="425.11" height="596.98"/><rect class="cls-7" x="333.57" y="121.06" width="395.24" height="569.4"/><rect class="cls-8" x="374.28" y="190.93" width="322.66" height="18.45"/><rect class="cls-8" x="374.28" y="303.56" width="322.66" height="8.47"/><rect class="cls-8" x="374.28" y="323.47" width="322.66" height="8.47"/><rect class="cls-8" x="374.28" y="343.39" width="322.66" height="8.47"/><rect class="cls-8" x="374.28" y="363.31" width="322.66" height="8.47"/><rect class="cls-8" x="374.28" y="383.23" width="322.66" height="8.47"/><rect class="cls-8" x="374.28" y="403.15" width="322.66" height="8.47"/><path class="cls-8" d="M477.25,713.93A24.9,24.9,0,1,1,452.33,689a24.9,24.9,0,0,1,24.92,24.89Z" transform="translate(-8.49 -195.12)"/><path class="cls-8" d="M581.49,737.87h-.21a1.23,1.23,0,0,1-1-1.43h0c.23-1.37,5.9-33.58,23.76-44.54a1.87,1.87,0,0,1,2.43-.06c1.58,1.34.38,4.76-5,17.65-2.14,5.15-4.68,11.24-5.73,15,1.91-2.49,4.75-6.77,7-10.17,7.06-10.6,8.44-12.33,9.82-12.33a1.47,1.47,0,0,1,1.26.65c.75,1.08.18,2.88-1.77,8.16a59.77,59.77,0,0,0-2.24,6.78,37.77,37.77,0,0,0,3.41-4.06c2.44-3.19,3.69-4.71,5.15-4.48a1.77,1.77,0,0,1,1.41,1.25,7.84,7.84,0,0,1,.29,1.36c.19,1.28.41,2.72,1.94,3.59,3.1,1.75,12,1.63,37-8.76a1.25,1.25,0,0,1,1,2.3c-21.11,8.78-33.9,11.61-39.19,8.63A6.6,6.6,0,0,1,617.6,712c-.71.75-1.69,2-2.43,3-2.7,3.52-4.48,5.68-6.29,5.49a1.74,1.74,0,0,1-1.32-.81c-.87-1.37,0-4.06,2.12-9.84.34-.93.73-2,1.08-3-1.73,2.36-4.06,5.88-6,8.74-7.92,11.89-9.34,13.61-10.94,13.17a1.53,1.53,0,0,1-1.08-1.48c-.17-2.78,2.43-9.23,6.4-18.76,2-4.87,4.66-11.18,5.32-14-16.24,10.91-21.71,42-21.76,42.28A1.25,1.25,0,0,1,581.49,737.87Z" transform="translate(-8.49 -195.12)"/><path class="cls-9" d="M632.79,290H582.67a27,27,0,1,0-50.46,0H482.09a7.3,7.3,0,0,0-7.31,7.3v20.25a7.3,7.3,0,0,0,7.31,7.3h150.7a7.3,7.3,0,0,0,7.31-7.3V297.27A7.3,7.3,0,0,0,632.79,290Zm-75.35.41a10,10,0,1,1,10-10,10,10,0,0,1-10,10Z" transform="translate(-8.49 -195.12)"/><path class="cls-10" d="M482.09,324.82h150.7a7.3,7.3,0,0,0,7.31-7.3V297.27Z" transform="translate(-8.49 -195.12)"/><path class="cls-11" d="M79.47,894.28c10-10.26,27.74-17.33,48.17-18.16V845.86H92.38c-.81,0-1.48-.68-1.92-1.73a6.86,6.86,0,0,1-.5-2.65V840c0-2.44,1.1-4.39,2.44-4.39h35.24V751.05a4,4,0,0,1,4-4h0a4,4,0,0,1,4.06,4v84.51H171c1.33,0,2.44,2,2.44,4.39v1.53a6.87,6.87,0,0,1-.53,2.72c-.44,1-1.13,1.66-1.89,1.66H135.75v30.26c20.45.81,38.15,7.9,48.19,18.16q1.11,1.11,2.07,2.28H77.41C78.05,895.78,78.74,895,79.47,894.28Z" transform="translate(-8.49 -195.12)"/><path class="cls-12" d="M127.64,876.26c14.27,1.33,26.52,8.21,33.62,18,.54.74,1.05,1.5,1.52,2.28h10.06c-.48-.81-1-1.54-1.53-2.28C163.39,883.33,149.05,876,132.67,876,131,876,129.31,876.11,127.64,876.26Z" transform="translate(-8.49 -195.12)"/><path class="cls-13" d="M238.84,876.42s1.24,19.81,5.07,20.1h19.48l24.18-.14s-.16-5.83-7.23-7.06-18.89-6.2-23.18-15.54C252.64,864,238.84,876.42,238.84,876.42Z" transform="translate(-8.49 -195.12)"/><path class="cls-14" d="M143.06,730.79a147.46,147.46,0,0,0,11.56,16.53c12.79,16.06,26.59,29.29,29,41.8a57,57,0,0,0,2.24,8c1,2.86,2.25,5.88,3.69,9C195,817.85,203,831,211.09,842.92c13.9,20.64,25.32,34.49,25.32,34.49s3.65,2.85,14.1,2.85c2.9,0,12.68-1.63,12.68-1.63-.95-2.43-12.5-29.8-26.52-64.63-5.69-14.14-11.74-29.17-17.59-43.68-.77-1.93-1.55-3.86-2.32-5.77q-2.67-6.66-5.26-13.06l-23.64-58.72s-52.59-19.92-58.06-7C125.3,696.41,129,706.83,143.06,730.79Z" transform="translate(-8.49 -195.12)"/><rect class="cls-11" x="224.1" y="481.01" width="79.66" height="220.44"/><rect class="cls-15" x="300.44" y="481.01" width="56.98" height="220.44"/><rect class="cls-16" x="218.7" y="476.56" width="82.29" height="4.44"/><rect class="cls-17" x="301" y="476.56" width="62.32" height="4.44"/><path class="cls-18" d="M225.94,642s11.42,6.49,14.61,6.49,15.74-2.44,19.24-.64,9.82,9,11,11.36c2.13,4.22-8.59,2.36-13.66-1.24a3.2,3.2,0,0,0-2.53-.52c-2.63.57-8.12,1.57-10.73.59-3.54-1.31-22.21-2.77-22.21-2.77Z" transform="translate(-8.49 -195.12)"/><path class="cls-19" d="M139.1,553.62s11.83,84.09,31.43,91.58c9.66,3.72,52.39,12.18,65,13,0,0,3.11-2.51,2.35-12.73,0,0-44.77-16.43-51.14-25.37-9.46-13.3,5.88-54.34-6-66.83S148.9,535.43,139.1,553.62Z" transform="translate(-8.49 -195.12)"/><path class="cls-13" d="M183.22,819.79s-16.7,10.74-15.08,14.22c.22.47,9.45,17,9.45,17l11.91,21s5-3,2.64-9.74-3.8-19.52,2.27-27.82C200.79,825.77,183.22,819.79,183.22,819.79Z" transform="translate(-8.49 -195.12)"/><path class="cls-20" d="M192.72,840.38S181,829.47,179.12,822.7c0,0,43-51.56,52.35-63.11.43-.52.33-1.11-.24-1.75-7-7.92-85.33-24.09-95.56-40a49.14,49.14,0,0,1-6.61-15.24c-2.32-9.74-.48-16.42-.48-16.42l78.17-2.26s65.1,40.53,72.47,68.18S192.72,840.38,192.72,840.38Z" transform="translate(-8.49 -195.12)"/><path class="cls-14" d="M231.23,757.84c-7-7.92-85.33-24.09-95.56-40a49.14,49.14,0,0,1-6.61-15.24V692.7l33.23-5.23s9.42,29,37.34,39.87C225.76,737.52,230.72,755.6,231.23,757.84Z" transform="translate(-8.49 -195.12)"/><path class="cls-21" d="M185.36,548.32c-15.82,4-42-10.56-42-10.56s10.17-6.84,13.95-21.86c.19-.76.36-1.54.52-2.33l8.12-1.72L178,522.63a102.51,102.51,0,0,1-1.79,12.22c-.26,1.35-.56,2.79-.91,4.33A37.48,37.48,0,0,1,185.36,548.32Z" transform="translate(-8.49 -195.12)"/><path class="cls-22" d="M126.58,613.87c2.26,30.47-.71,76.81,1.86,84.84,2.21,6.92,27.48,2.8,37.57.49,3.74-.81,8.26-2.08,12.93-3.52,13-4.06,27.22-9.79,28.74-14.07a4.58,4.58,0,0,0,.15-.49,4.2,4.2,0,0,0,0-1.8c-.51-2.17-2.44-4.54-2.7-9.93-.25-6-.21-13.12-.44-20.75a19.74,19.74,0,0,0-.12-2.66v-.79c-.22-8.52-.66-17.46-1.18-26.33-.32-5.58-.7-11.09-1.14-16.39-1.14-13.64-2.67-25.78-4.69-33.45-3.36-12.51-10.67-20.67-17.32-26.65l-4.8-4.12A27.8,27.8,0,0,1,158,535.92c-6.21-2.95-8.35-5.06-9.43-4.26C134.22,542.72,123.9,576.62,126.58,613.87Z" transform="translate(-8.49 -195.12)"/><path class="cls-23" d="M178.94,695.68c13-4.06,27.22-9.79,28.74-14.07a4.58,4.58,0,0,0,.15-.49v-1.8c-.51-2.17-2.44-4.54-2.7-9.93-.25-6-.21-13.12-.44-20.75a19.74,19.74,0,0,0-.12-2.66v-.79l-52.66-67.11S116.45,651.8,178.94,695.68Z" transform="translate(-8.49 -195.12)"/><path class="cls-18" d="M178,522.63a102.51,102.51,0,0,1-1.79,12.22c-11.8-3.82-17.14-14.47-18.93-19,.19-.75.36-1.53.52-2.33l8.12-1.72Z" transform="translate(-8.49 -195.12)"/><path class="cls-21" d="M179.59,529.46s-25.73-4.29-22.81-20.29,1.57-27.29,18.11-25.23,18.63,8.75,18.94,14.32S186.36,530.17,179.59,529.46Z" transform="translate(-8.49 -195.12)"/><polygon class="cls-24" points="227.45 472.64 291.69 472.63 309.15 416.18 311.43 416.89 292.98 476.56 227.42 476.56 227.45 472.64"/><path class="cls-21" d="M218.9,669.39s21,5.55,28.95,5,14.47-4.33,15.43-6.3,3.07-5.43-2.3-4.79S248.27,665,248,664s4.38-.93,4.38-.93,1.39-2-.36-2.1-6.87-1.46-8.78-.52-3.65,4.47-5,4.32-17.62-7.3-17.62-7.3Z" transform="translate(-8.49 -195.12)"/><path class="cls-22" d="M144.32,557.79s2.51,84.9,21.26,94.54c9.27,4.76,51.1,17.86,63.66,20.08,0,0,3.38-2.16,3.76-12.4,0,0-43-21.27-48.36-30.85-8-14.27,11.92-53.37,1.41-67.1S156.13,540.8,144.32,557.79Z" transform="translate(-8.49 -195.12)"/><path class="cls-14" d="M157.28,515.88s-.29-5.49,3.08-8.63c0,0-1.17-5.49,1-6.4s2.63,3.71,3.63,3a21.93,21.93,0,0,0,7.31-9.24c1.87-5.09,19.31,1.08,21.34,2s8.55-2.43,9.83-5.15a38.22,38.22,0,0,1-5.26-5.07c-1.63-2.18-13.05-16.85-29-12.69S151.09,485.45,152,492,150.75,513.7,157.28,515.88Z" transform="translate(-8.49 -195.12)"/><path class="cls-25" d="M186.89,719.83h0a179.09,179.09,0,0,1-70.35-14.4l-14.43-6.16a19.86,19.86,0,0,0-27.66,18.27v27.55A4.87,4.87,0,0,0,79.32,750H186.89a4.87,4.87,0,0,0,4.87-4.87V724.7A4.87,4.87,0,0,0,186.89,719.83Z" transform="translate(-8.49 -195.12)"/><path class="cls-26" d="M607.37,741c-22.67,3.89-44.65,4.73-61.38,3.41-16.9-1.32-26.78-6.49-27.79-12.49-.93-5.39,5.33-11.57,18.09-17.86h0c-12.23,6-18.16,12.85-17.32,17.75.93,5.44,10.8,9.29,27.06,10.55,16.66,1.32,38.28-.1,60.87-4s43.47-9.75,58.75-16.55c14.9-6.62,22.91-13.55,22-19-1-5.77-11.62-11.32-27.76-14.49-18.34-3.6-40-2.38-61.32,1.28-40,6.87-55.71,14.37-69,22.68h0c13.35-8.35,28.48-17.81,68.66-24.7,21.41-3.68,43.36-3.71,61.79-.09,16.48,3.25,27.36,9,28.41,15.19,1,6-6.95,13-22.44,19.9C650.64,729.48,630,737.15,607.37,741Z" transform="translate(-8.49 -195.12)"/><path class="cls-21" d="M871.25,666.79s-1.31,12.77-2.75,15.19-7.58,10.13-10.19,11.64,1.62-10.17,1.06-12.44-2.15,4.15-3.3,4.29-.86-5.62-.9-7.72,5.6-7.31,7.6-11.78S871.25,666.79,871.25,666.79Z" transform="translate(-8.49 -195.12)"/><path class="cls-21" d="M714.39,549l-2.93-5.54s1.46-9.86-10.9-16.1c0,0-4.52-1.84-7.07,1.84-2.35,3.39,4.47,2.78,4.11,8.59s2.39,9.21,6.23,11.1L707,552.6Z" transform="translate(-8.49 -195.12)"/><path class="cls-27" d="M831.22,535.81s-10.62,52.09-69,69.12c-18.24,5.31-59.66-54.72-59.66-54.72s1.45-5.54,10.55-4.26c0,0,40.34,26.7,45.46,29.6,4.5,2.57,34.14-33.09,47.65-38.84A34.48,34.48,0,0,1,831.22,535.81Z" transform="translate(-8.49 -195.12)"/><rect class="cls-26" x="696.59" y="507.66" width="10.91" height="54.88" transform="translate(58.11 952.68) rotate(-81.27)"/><polygon class="cls-21" points="653.85 333.9 665.63 341.23 667.28 330.44 653.85 333.9"/><path class="cls-21" d="M735.78,538.44l-.52,3.41a3.86,3.86,0,0,1-4.37,3.25h0l-2.51-.39L730,533.92l2.72.42A3.63,3.63,0,0,1,735.78,538.44Z" transform="translate(-8.49 -195.12)"/><path class="cls-14" d="M901,863.33s7.25,6.62,5.83,11.32-7.95,7.83-8.83,13.57-4.42,8.88-7.61,8.88H875.19s-2.35-4.06,3.31-5.26,7.79-8,7.44-14.24a109.67,109.67,0,0,1,.52-14.61l12-2.78Z" transform="translate(-8.49 -195.12)"/><path class="cls-14" d="M812.05,880.44s1.3,15-1.88,16.62L769.45,897s0-4.7,6.55-5.74,18-4.87,20-13.4S812.05,880.44,812.05,880.44Z" transform="translate(-8.49 -195.12)"/><path class="cls-20" d="M777.68,667.83s2.15,26.38,4.66,58.09c3.44,43.08,7.56,96,8,106,.7,17.4,3.53,45.25,3.53,45.25s6.71,6.61,20.15,3.83c0,0,12-39.78,15.42-81.81.06-.69.11-1.39.17-2.08,3.18-42.81,8.11-133,8.11-133Z" transform="translate(-8.49 -195.12)"/><path class="cls-14" d="M777.68,667.83s2.15,26.38,4.66,58.09l47.08,73.3c.06-.69.11-1.39.17-2.08,3.18-42.81,8.11-133,8.11-133Z" transform="translate(-8.49 -195.12)"/><path class="cls-20" d="M787.48,671s38.71,95.55,64.13,140.43S885,868.82,885,868.82s14.61-5.74,15.91-9.66c0,0-9.74-86.68-26.79-107.81-9.63-11.94-20.95-47.78-21.48-60.32s-3.44-37.33-3.44-37.33Z" transform="translate(-8.49 -195.12)"/><path class="cls-21" d="M838.41,523.71s-26.19,12.64-41.28,7.95a35.34,35.34,0,0,1,10.22-8.17c-.52-3-.94-5.69-1.17-7.89a75.21,75.21,0,0,1-.64-8.07l10.11-7.95,9.58-7.61C824.47,513.36,838.41,523.71,838.41,523.71Z" transform="translate(-8.49 -195.12)"/><path class="cls-28" d="M852.22,658.62c0,1.63-3.37,3.44-4.87,4.12-11.21,4.92-21.67,8.35-33.51,9.5-14,1.42-30.55-1.73-36.24-1.63A2.41,2.41,0,0,1,776,670c-.41-.29-.7-17.15-.41-38.37,0-.81,0-1.71.06-2.58v-.28c.12-8.3.41-17,.81-25.67.81-19.1,2.32-37.51,4.87-47.69,3.08-12,10-20,16.37-25.74l5.26-4.58a25.14,25.14,0,0,0,16.24-1.94c6-2.92,12.54-6.07,13.59-5.26,7.9,5.77,13.24,18.75,16.09,35.33a183.1,183.1,0,0,1,2.37,31.46c0,4.11-.11,8.34-.34,12.51-1.39,22.65,0,42.32.81,53.7C852,654.22,852.16,656.8,852.22,658.62Z" transform="translate(-8.49 -195.12)"/><path class="cls-27" d="M851.76,657.58c-91.73-.18-16.92-99.51-16.92-99.51l14.85-4.83a287.86,287.86,0,0,1,1.72,33.6c0,4.4-.08,8.93-.25,13.38C850.16,624.41,851.16,645.42,851.76,657.58Z" transform="translate(-8.49 -195.12)"/><path class="cls-29" d="M825.41,500.15s-6.63,12.07-19.23,15.42a75,75,0,0,1-.64-8.07l10.11-7.94Z" transform="translate(-8.49 -195.12)"/><path class="cls-21" d="M800.93,507.21s25,4.06,27.33-11.27,7.16-25.16-8.7-28.41-19.85,2.15-21.91,7.09S794.5,505.72,800.93,507.21Z" transform="translate(-8.49 -195.12)"/><path class="cls-30" d="M837.35,465.63c.22-.26.75-.47,1.91-.53a4.6,4.6,0,0,0-2.17-.61c-.25-1.62-1.11-4.49-3.89-5.19a3.5,3.5,0,0,1,1.69,2.53c-3.25-3.32-10.14-5.73-29.29-4.22-25.24,2-16.92,18.15-13.65,20.08s11.49-3.36,17.58-2.88,7.24,9.28,9.3,10.49,1.26-.93,4.06-2.19,3.06,3.37,2.26,6.37,3,7,3,7l3.88-4.17c3.88-4.18,7.54-21.88,5.78-25.65Z" transform="translate(-8.49 -195.12)"/><path class="cls-28" d="M832.81,517.76s15.8,7.49,23.39,19c11.76,17.86,25.39,82.91,25.64,88.93s-10,48.56-10,48.56-10.35-.68-13-5.9c0,0,2.07-43.71.75-46.52s-43.12-58.62-38.42-70.53S832.81,517.76,832.81,517.76Z" transform="translate(-8.49 -195.12)"/><path class="cls-21" d="M711.41,543.24s.86-3.4-1.5-4.92-4.52-5.69-5.51-5.12c-2.06,1.17,1.12,4.79.55,9.3C704.78,544.09,708.42,548.24,711.41,543.24Z" transform="translate(-8.49 -195.12)"/><path class="cls-31" d="M9.44,899H1069.92a1.11,1.11,0,0,0,.95-1.22h0a1.13,1.13,0,0,0-.95-1.22H9.44a1.11,1.11,0,0,0-.94,1.22h0A1.1,1.1,0,0,0,9.44,899Z" transform="translate(-8.49 -195.12)"/></svg>