<svg width="518" height="573" viewBox="0 0 518 573" fill="none" xmlns="http://www.w3.org/2000/svg">
<g filter="url(#filter0_d)">
<rect x="20" y="20" width="478" height="533" rx="26" fill="white"/>
</g>
<path d="M316.808 185.949C319.288 190.685 321.179 195.423 322.605 200.34C333.956 239.429 316.25 280.147 279.877 298.438C270.125 303.341 259.744 306.098 248.83 306.802C228.961 308.082 210.766 303.185 194.654 291.482C175.552 277.607 163.976 258.899 160.793 235.43C155.838 198.902 174.426 164.745 207.6 148.85C216.722 144.48 226.367 141.963 236.47 141.256C258.645 139.701 278.401 145.865 295.694 159.847C297.115 160.996 298.429 162.279 299.828 163.461C300.411 163.953 300.463 164.269 299.875 164.838C297.44 167.193 295.032 169.576 292.674 172.009C292.009 172.693 291.635 172.674 290.951 172.036C283.332 164.956 274.553 159.847 264.667 156.615C225.908 143.941 183.699 167.521 174.23 207.145C165.05 245.563 188.168 283.409 226.608 292.889C254.437 299.749 284.86 288.098 301.076 264.426C309.75 251.764 314.024 237.788 313.758 222.454C313.612 214.052 311.974 205.919 308.835 198.114C308.453 197.165 308.571 196.558 309.179 195.791C311.71 192.6 314.175 189.36 316.808 185.949Z" fill="#3362CC"/>
<path d="M357.093 127C349.109 136.521 341.042 145.94 333.118 155.477C312.262 180.584 292.281 206.356 274.116 233.5C270.175 239.39 266.42 245.415 262.289 251.17C258.766 256.079 254.368 260.081 248.198 261.463C240.95 263.087 234.491 261.468 228.98 256.453C227.386 255.001 226.339 253.069 225.072 251.338C215.755 238.599 206.459 225.84 197.153 213.093C195.864 211.328 195.911 209.272 197.296 207.524C201.784 201.868 208.534 200.293 215.711 203.27C219.341 204.776 222.315 207.098 224.594 210.35C230.294 218.477 236.052 226.56 241.791 234.66C242.956 236.306 243.229 236.326 244.507 234.759C250.93 226.887 256.982 218.724 263.46 210.894C281.029 189.654 300.741 170.604 322.094 153.212C332.849 144.453 343.947 136.152 355.318 128.212C355.906 127.805 356.502 127.404 357.093 127Z" fill="#3362CC"/>
<path d="M74.8117 394.06L70.2717 402.74V408H68.4517V402.74L63.8917 394.06H65.9117L69.3517 401.12L72.7917 394.06H74.8117ZM81.5114 408.18C80.4847 408.18 79.5514 407.947 78.7114 407.48C77.8847 407.013 77.2314 406.353 76.7514 405.5C76.2847 404.633 76.0514 403.633 76.0514 402.5C76.0514 401.38 76.2914 400.393 76.7714 399.54C77.2647 398.673 77.9314 398.013 78.7714 397.56C79.6114 397.093 80.5514 396.86 81.5914 396.86C82.6314 396.86 83.5714 397.093 84.4114 397.56C85.2514 398.013 85.9114 398.667 86.3914 399.52C86.8847 400.373 87.1314 401.367 87.1314 402.5C87.1314 403.633 86.8781 404.633 86.3714 405.5C85.8781 406.353 85.2047 407.013 84.3514 407.48C83.4981 407.947 82.5514 408.18 81.5114 408.18ZM81.5114 406.58C82.1647 406.58 82.7781 406.427 83.3514 406.12C83.9247 405.813 84.3847 405.353 84.7314 404.74C85.0914 404.127 85.2714 403.38 85.2714 402.5C85.2714 401.62 85.0981 400.873 84.7514 400.26C84.4047 399.647 83.9514 399.193 83.3914 398.9C82.8314 398.593 82.2247 398.44 81.5714 398.44C80.9047 398.44 80.2914 398.593 79.7314 398.9C79.1847 399.193 78.7447 399.647 78.4114 400.26C78.0781 400.873 77.9114 401.62 77.9114 402.5C77.9114 403.393 78.0714 404.147 78.3914 404.76C78.7247 405.373 79.1647 405.833 79.7114 406.14C80.2581 406.433 80.8581 406.58 81.5114 406.58ZM99.2444 397.04V408H97.4244V406.38C97.0777 406.94 96.591 407.38 95.9644 407.7C95.351 408.007 94.671 408.16 93.9244 408.16C93.071 408.16 92.3044 407.987 91.6244 407.64C90.9444 407.28 90.4044 406.747 90.0044 406.04C89.6177 405.333 89.4244 404.473 89.4244 403.46V397.04H91.2244V403.22C91.2244 404.3 91.4977 405.133 92.0444 405.72C92.591 406.293 93.3377 406.58 94.2844 406.58C95.2577 406.58 96.0244 406.28 96.5844 405.68C97.1444 405.08 97.4244 404.207 97.4244 403.06V397.04H99.2444ZM122.249 397.04L118.829 408H116.949L114.309 399.3L111.669 408H109.789L106.349 397.04H108.209L110.729 406.24L113.449 397.04H115.309L117.969 406.26L120.449 397.04H122.249ZM124.996 395.26C124.649 395.26 124.356 395.14 124.116 394.9C123.876 394.66 123.756 394.367 123.756 394.02C123.756 393.673 123.876 393.38 124.116 393.14C124.356 392.9 124.649 392.78 124.996 392.78C125.329 392.78 125.609 392.9 125.836 393.14C126.076 393.38 126.196 393.673 126.196 394.02C126.196 394.367 126.076 394.66 125.836 394.9C125.609 395.14 125.329 395.26 124.996 395.26ZM125.876 397.04V408H124.056V397.04H125.876ZM130.798 393.2V408H128.978V393.2H130.798ZM135.719 393.2V408H133.899V393.2H135.719ZM145.973 399.08C146.347 398.427 146.893 397.893 147.613 397.48C148.333 397.067 149.153 396.86 150.073 396.86C151.06 396.86 151.947 397.093 152.733 397.56C153.52 398.027 154.14 398.687 154.593 399.54C155.047 400.38 155.273 401.36 155.273 402.48C155.273 403.587 155.047 404.573 154.593 405.44C154.14 406.307 153.513 406.98 152.713 407.46C151.927 407.94 151.047 408.18 150.073 408.18C149.127 408.18 148.293 407.973 147.573 407.56C146.867 407.147 146.333 406.62 145.973 405.98V408H144.153V393.2H145.973V399.08ZM153.413 402.48C153.413 401.653 153.247 400.933 152.913 400.32C152.58 399.707 152.127 399.24 151.553 398.92C150.993 398.6 150.373 398.44 149.693 398.44C149.027 398.44 148.407 398.607 147.833 398.94C147.273 399.26 146.82 399.733 146.473 400.36C146.14 400.973 145.973 401.687 145.973 402.5C145.973 403.327 146.14 404.053 146.473 404.68C146.82 405.293 147.273 405.767 147.833 406.1C148.407 406.42 149.027 406.58 149.693 406.58C150.373 406.58 150.993 406.42 151.553 406.1C152.127 405.767 152.58 405.293 152.913 404.68C153.247 404.053 153.413 403.32 153.413 402.48ZM167.669 402.1C167.669 402.447 167.649 402.813 167.609 403.2H158.849C158.916 404.28 159.282 405.127 159.949 405.74C160.629 406.34 161.449 406.64 162.409 406.64C163.196 406.64 163.849 406.46 164.369 406.1C164.902 405.727 165.276 405.233 165.489 404.62H167.449C167.156 405.673 166.569 406.533 165.689 407.2C164.809 407.853 163.716 408.18 162.409 408.18C161.369 408.18 160.436 407.947 159.609 407.48C158.796 407.013 158.156 406.353 157.689 405.5C157.222 404.633 156.989 403.633 156.989 402.5C156.989 401.367 157.216 400.373 157.669 399.52C158.122 398.667 158.756 398.013 159.569 397.56C160.396 397.093 161.342 396.86 162.409 396.86C163.449 396.86 164.369 397.087 165.169 397.54C165.969 397.993 166.582 398.62 167.009 399.42C167.449 400.207 167.669 401.1 167.669 402.1ZM165.789 401.72C165.789 401.027 165.636 400.433 165.329 399.94C165.022 399.433 164.602 399.053 164.069 398.8C163.549 398.533 162.969 398.4 162.329 398.4C161.409 398.4 160.622 398.693 159.969 399.28C159.329 399.867 158.962 400.68 158.869 401.72H165.789ZM174.723 402.5C174.723 401.367 174.95 400.38 175.403 399.54C175.857 398.687 176.483 398.027 177.283 397.56C178.097 397.093 179.023 396.86 180.063 396.86C181.41 396.86 182.517 397.187 183.383 397.84C184.263 398.493 184.843 399.4 185.123 400.56H183.163C182.977 399.893 182.61 399.367 182.063 398.98C181.53 398.593 180.863 398.4 180.063 398.4C179.023 398.4 178.183 398.76 177.543 399.48C176.903 400.187 176.583 401.193 176.583 402.5C176.583 403.82 176.903 404.84 177.543 405.56C178.183 406.28 179.023 406.64 180.063 406.64C180.863 406.64 181.53 406.453 182.063 406.08C182.597 405.707 182.963 405.173 183.163 404.48H185.123C184.83 405.6 184.243 406.5 183.363 407.18C182.483 407.847 181.383 408.18 180.063 408.18C179.023 408.18 178.097 407.947 177.283 407.48C176.483 407.013 175.857 406.353 175.403 405.5C174.95 404.647 174.723 403.647 174.723 402.5ZM192.332 408.18C191.305 408.18 190.372 407.947 189.532 407.48C188.705 407.013 188.052 406.353 187.572 405.5C187.105 404.633 186.872 403.633 186.872 402.5C186.872 401.38 187.112 400.393 187.592 399.54C188.085 398.673 188.752 398.013 189.592 397.56C190.432 397.093 191.372 396.86 192.412 396.86C193.452 396.86 194.392 397.093 195.232 397.56C196.072 398.013 196.732 398.667 197.212 399.52C197.705 400.373 197.952 401.367 197.952 402.5C197.952 403.633 197.698 404.633 197.192 405.5C196.698 406.353 196.025 407.013 195.172 407.48C194.318 407.947 193.372 408.18 192.332 408.18ZM192.332 406.58C192.985 406.58 193.598 406.427 194.172 406.12C194.745 405.813 195.205 405.353 195.552 404.74C195.912 404.127 196.092 403.38 196.092 402.5C196.092 401.62 195.918 400.873 195.572 400.26C195.225 399.647 194.772 399.193 194.212 398.9C193.652 398.593 193.045 398.44 192.392 398.44C191.725 398.44 191.112 398.593 190.552 398.9C190.005 399.193 189.565 399.647 189.232 400.26C188.898 400.873 188.732 401.62 188.732 402.5C188.732 403.393 188.892 404.147 189.212 404.76C189.545 405.373 189.985 405.833 190.532 406.14C191.078 406.433 191.678 406.58 192.332 406.58ZM205.685 396.84C207.018 396.84 208.098 397.247 208.925 398.06C209.751 398.86 210.165 400.02 210.165 401.54V408H208.365V401.8C208.365 400.707 208.091 399.873 207.545 399.3C206.998 398.713 206.251 398.42 205.305 398.42C204.345 398.42 203.578 398.72 203.005 399.32C202.445 399.92 202.165 400.793 202.165 401.94V408H200.345V397.04H202.165V398.6C202.525 398.04 203.011 397.607 203.625 397.3C204.251 396.993 204.938 396.84 205.685 396.84ZM215.358 398.54V405C215.358 405.533 215.471 405.913 215.698 406.14C215.924 406.353 216.318 406.46 216.878 406.46H218.218V408H216.578C215.564 408 214.804 407.767 214.298 407.3C213.791 406.833 213.538 406.067 213.538 405V398.54H212.118V397.04H213.538V394.28H215.358V397.04H218.218V398.54H215.358ZM219.743 402.48C219.743 401.36 219.969 400.38 220.423 399.54C220.876 398.687 221.496 398.027 222.283 397.56C223.083 397.093 223.969 396.86 224.943 396.86C225.903 396.86 226.736 397.067 227.443 397.48C228.149 397.893 228.676 398.413 229.023 399.04V397.04H230.863V408H229.023V405.96C228.663 406.6 228.123 407.133 227.403 407.56C226.696 407.973 225.869 408.18 224.923 408.18C223.949 408.18 223.069 407.94 222.283 407.46C221.496 406.98 220.876 406.307 220.423 405.44C219.969 404.573 219.743 403.587 219.743 402.48ZM229.023 402.5C229.023 401.673 228.856 400.953 228.523 400.34C228.189 399.727 227.736 399.26 227.163 398.94C226.603 398.607 225.983 398.44 225.303 398.44C224.623 398.44 224.003 398.6 223.443 398.92C222.883 399.24 222.436 399.707 222.103 400.32C221.769 400.933 221.603 401.653 221.603 402.48C221.603 403.32 221.769 404.053 222.103 404.68C222.436 405.293 222.883 405.767 223.443 406.1C224.003 406.42 224.623 406.58 225.303 406.58C225.983 406.58 226.603 406.42 227.163 406.1C227.736 405.767 228.189 405.293 228.523 404.68C228.856 404.053 229.023 403.327 229.023 402.5ZM233.258 402.5C233.258 401.367 233.485 400.38 233.938 399.54C234.392 398.687 235.018 398.027 235.818 397.56C236.632 397.093 237.558 396.86 238.598 396.86C239.945 396.86 241.052 397.187 241.918 397.84C242.798 398.493 243.378 399.4 243.658 400.56H241.698C241.512 399.893 241.145 399.367 240.598 398.98C240.065 398.593 239.398 398.4 238.598 398.4C237.558 398.4 236.718 398.76 236.078 399.48C235.438 400.187 235.118 401.193 235.118 402.5C235.118 403.82 235.438 404.84 236.078 405.56C236.718 406.28 237.558 406.64 238.598 406.64C239.398 406.64 240.065 406.453 240.598 406.08C241.132 405.707 241.498 405.173 241.698 404.48H243.658C243.365 405.6 242.778 406.5 241.898 407.18C241.018 407.847 239.918 408.18 238.598 408.18C237.558 408.18 236.632 407.947 235.818 407.48C235.018 407.013 234.392 406.353 233.938 405.5C233.485 404.647 233.258 403.647 233.258 402.5ZM248.307 398.54V405C248.307 405.533 248.42 405.913 248.647 406.14C248.874 406.353 249.267 406.46 249.827 406.46H251.167V408H249.527C248.514 408 247.754 407.767 247.247 407.3C246.74 406.833 246.487 406.067 246.487 405V398.54H245.067V397.04H246.487V394.28H248.307V397.04H251.167V398.54H248.307ZM263.372 402.1C263.372 402.447 263.352 402.813 263.312 403.2H254.552C254.619 404.28 254.985 405.127 255.652 405.74C256.332 406.34 257.152 406.64 258.112 406.64C258.899 406.64 259.552 406.46 260.072 406.1C260.605 405.727 260.979 405.233 261.192 404.62H263.152C262.859 405.673 262.272 406.533 261.392 407.2C260.512 407.853 259.419 408.18 258.112 408.18C257.072 408.18 256.139 407.947 255.312 407.48C254.499 407.013 253.859 406.353 253.392 405.5C252.925 404.633 252.692 403.633 252.692 402.5C252.692 401.367 252.919 400.373 253.372 399.52C253.825 398.667 254.459 398.013 255.272 397.56C256.099 397.093 257.045 396.86 258.112 396.86C259.152 396.86 260.072 397.087 260.872 397.54C261.672 397.993 262.285 398.62 262.712 399.42C263.152 400.207 263.372 401.1 263.372 402.1ZM261.492 401.72C261.492 401.027 261.339 400.433 261.032 399.94C260.725 399.433 260.305 399.053 259.772 398.8C259.252 398.533 258.672 398.4 258.032 398.4C257.112 398.4 256.325 398.693 255.672 399.28C255.032 399.867 254.665 400.68 254.572 401.72H261.492ZM265.094 402.48C265.094 401.36 265.321 400.38 265.774 399.54C266.228 398.687 266.848 398.027 267.634 397.56C268.434 397.093 269.328 396.86 270.314 396.86C271.168 396.86 271.961 397.06 272.694 397.46C273.428 397.847 273.988 398.36 274.374 399V393.2H276.214V408H274.374V405.94C274.014 406.593 273.481 407.133 272.774 407.56C272.068 407.973 271.241 408.18 270.294 408.18C269.321 408.18 268.434 407.94 267.634 407.46C266.848 406.98 266.228 406.307 265.774 405.44C265.321 404.573 265.094 403.587 265.094 402.48ZM274.374 402.5C274.374 401.673 274.208 400.953 273.874 400.34C273.541 399.727 273.088 399.26 272.514 398.94C271.954 398.607 271.334 398.44 270.654 398.44C269.974 398.44 269.354 398.6 268.794 398.92C268.234 399.24 267.788 399.707 267.454 400.32C267.121 400.933 266.954 401.653 266.954 402.48C266.954 403.32 267.121 404.053 267.454 404.68C267.788 405.293 268.234 405.767 268.794 406.1C269.354 406.42 269.974 406.58 270.654 406.58C271.334 406.58 271.954 406.42 272.514 406.1C273.088 405.767 273.541 405.293 273.874 404.68C274.208 404.053 274.374 403.327 274.374 402.5ZM288.502 408.18C287.662 408.18 286.909 408.04 286.242 407.76C285.575 407.467 285.049 407.067 284.662 406.56C284.275 406.04 284.062 405.447 284.022 404.78H285.902C285.955 405.327 286.209 405.773 286.662 406.12C287.129 406.467 287.735 406.64 288.482 406.64C289.175 406.64 289.722 406.487 290.122 406.18C290.522 405.873 290.722 405.487 290.722 405.02C290.722 404.54 290.509 404.187 290.082 403.96C289.655 403.72 288.995 403.487 288.102 403.26C287.289 403.047 286.622 402.833 286.102 402.62C285.595 402.393 285.155 402.067 284.782 401.64C284.422 401.2 284.242 400.627 284.242 399.92C284.242 399.36 284.409 398.847 284.742 398.38C285.075 397.913 285.549 397.547 286.162 397.28C286.775 397 287.475 396.86 288.262 396.86C289.475 396.86 290.455 397.167 291.202 397.78C291.949 398.393 292.349 399.233 292.402 400.3H290.582C290.542 399.727 290.309 399.267 289.882 398.92C289.469 398.573 288.909 398.4 288.202 398.4C287.549 398.4 287.029 398.54 286.642 398.82C286.255 399.1 286.062 399.467 286.062 399.92C286.062 400.28 286.175 400.58 286.402 400.82C286.642 401.047 286.935 401.233 287.282 401.38C287.642 401.513 288.135 401.667 288.762 401.84C289.549 402.053 290.189 402.267 290.682 402.48C291.175 402.68 291.595 402.987 291.942 403.4C292.302 403.813 292.489 404.353 292.502 405.02C292.502 405.62 292.335 406.16 292.002 406.64C291.669 407.12 291.195 407.5 290.582 407.78C289.982 408.047 289.289 408.18 288.502 408.18ZM300.511 396.84C301.338 396.84 302.085 397.02 302.751 397.38C303.418 397.727 303.938 398.253 304.311 398.96C304.698 399.667 304.891 400.527 304.891 401.54V408H303.091V401.8C303.091 400.707 302.818 399.873 302.271 399.3C301.725 398.713 300.978 398.42 300.031 398.42C299.071 398.42 298.305 398.72 297.731 399.32C297.171 399.92 296.891 400.793 296.891 401.94V408H295.071V393.2H296.891V398.6C297.251 398.04 297.745 397.607 298.371 397.3C299.011 396.993 299.725 396.84 300.511 396.84ZM312.644 408.18C311.618 408.18 310.684 407.947 309.844 407.48C309.018 407.013 308.364 406.353 307.884 405.5C307.418 404.633 307.184 403.633 307.184 402.5C307.184 401.38 307.424 400.393 307.904 399.54C308.398 398.673 309.064 398.013 309.904 397.56C310.744 397.093 311.684 396.86 312.724 396.86C313.764 396.86 314.704 397.093 315.544 397.56C316.384 398.013 317.044 398.667 317.524 399.52C318.018 400.373 318.264 401.367 318.264 402.5C318.264 403.633 318.011 404.633 317.504 405.5C317.011 406.353 316.338 407.013 315.484 407.48C314.631 407.947 313.684 408.18 312.644 408.18ZM312.644 406.58C313.298 406.58 313.911 406.427 314.484 406.12C315.058 405.813 315.518 405.353 315.864 404.74C316.224 404.127 316.404 403.38 316.404 402.5C316.404 401.62 316.231 400.873 315.884 400.26C315.538 399.647 315.084 399.193 314.524 398.9C313.964 398.593 313.358 398.44 312.704 398.44C312.038 398.44 311.424 398.593 310.864 398.9C310.318 399.193 309.878 399.647 309.544 400.26C309.211 400.873 309.044 401.62 309.044 402.5C309.044 403.393 309.204 404.147 309.524 404.76C309.858 405.373 310.298 405.833 310.844 406.14C311.391 406.433 311.991 406.58 312.644 406.58ZM322.477 398.82C322.797 398.193 323.251 397.707 323.837 397.36C324.437 397.013 325.164 396.84 326.017 396.84V398.72H325.537C323.497 398.72 322.477 399.827 322.477 402.04V408H320.657V397.04H322.477V398.82ZM330.338 398.54V405C330.338 405.533 330.451 405.913 330.678 406.14C330.905 406.353 331.298 406.46 331.858 406.46H333.198V408H331.558C330.545 408 329.785 407.767 329.278 407.3C328.771 406.833 328.518 406.067 328.518 405V398.54H327.098V397.04H328.518V394.28H330.338V397.04H333.198V398.54H330.338ZM337.223 393.2V408H335.403V393.2H337.223ZM349.765 397.04L343.165 413.16H341.285L343.445 407.88L339.025 397.04H341.045L344.485 405.92L347.885 397.04H349.765ZM358.747 398.82C359.067 398.193 359.52 397.707 360.107 397.36C360.707 397.013 361.433 396.84 362.287 396.84V398.72H361.807C359.767 398.72 358.747 399.827 358.747 402.04V408H356.927V397.04H358.747V398.82ZM374.388 402.1C374.388 402.447 374.368 402.813 374.328 403.2H365.568C365.634 404.28 366.001 405.127 366.668 405.74C367.348 406.34 368.168 406.64 369.128 406.64C369.914 406.64 370.568 406.46 371.088 406.1C371.621 405.727 371.994 405.233 372.208 404.62H374.168C373.874 405.673 373.288 406.533 372.408 407.2C371.528 407.853 370.434 408.18 369.128 408.18C368.088 408.18 367.154 407.947 366.328 407.48C365.514 407.013 364.874 406.353 364.408 405.5C363.941 404.633 363.708 403.633 363.708 402.5C363.708 401.367 363.934 400.373 364.388 399.52C364.841 398.667 365.474 398.013 366.288 397.56C367.114 397.093 368.061 396.86 369.128 396.86C370.168 396.86 371.088 397.087 371.888 397.54C372.688 397.993 373.301 398.62 373.728 399.42C374.168 400.207 374.388 401.1 374.388 402.1ZM372.508 401.72C372.508 401.027 372.354 400.433 372.048 399.94C371.741 399.433 371.321 399.053 370.788 398.8C370.268 398.533 369.688 398.4 369.048 398.4C368.128 398.4 367.341 398.693 366.688 399.28C366.048 399.867 365.681 400.68 365.588 401.72H372.508ZM381.31 396.86C382.257 396.86 383.083 397.067 383.79 397.48C384.51 397.893 385.043 398.413 385.39 399.04V397.04H387.23V408.24C387.23 409.24 387.017 410.127 386.59 410.9C386.163 411.687 385.55 412.3 384.75 412.74C383.963 413.18 383.043 413.4 381.99 413.4C380.55 413.4 379.35 413.06 378.39 412.38C377.43 411.7 376.863 410.773 376.69 409.6H378.49C378.69 410.267 379.103 410.8 379.73 411.2C380.357 411.613 381.11 411.82 381.99 411.82C382.99 411.82 383.803 411.507 384.43 410.88C385.07 410.253 385.39 409.373 385.39 408.24V405.94C385.03 406.58 384.497 407.113 383.79 407.54C383.083 407.967 382.257 408.18 381.31 408.18C380.337 408.18 379.45 407.94 378.65 407.46C377.863 406.98 377.243 406.307 376.79 405.44C376.337 404.573 376.11 403.587 376.11 402.48C376.11 401.36 376.337 400.38 376.79 399.54C377.243 398.687 377.863 398.027 378.65 397.56C379.45 397.093 380.337 396.86 381.31 396.86ZM385.39 402.5C385.39 401.673 385.223 400.953 384.89 400.34C384.557 399.727 384.103 399.26 383.53 398.94C382.97 398.607 382.35 398.44 381.67 398.44C380.99 398.44 380.37 398.6 379.81 398.92C379.25 399.24 378.803 399.707 378.47 400.32C378.137 400.933 377.97 401.653 377.97 402.48C377.97 403.32 378.137 404.053 378.47 404.68C378.803 405.293 379.25 405.767 379.81 406.1C380.37 406.42 380.99 406.58 381.67 406.58C382.35 406.58 382.97 406.42 383.53 406.1C384.103 405.767 384.557 405.293 384.89 404.68C385.223 404.053 385.39 403.327 385.39 402.5ZM389.626 402.48C389.626 401.36 389.852 400.38 390.306 399.54C390.759 398.687 391.379 398.027 392.166 397.56C392.966 397.093 393.852 396.86 394.826 396.86C395.786 396.86 396.619 397.067 397.326 397.48C398.032 397.893 398.559 398.413 398.906 399.04V397.04H400.746V408H398.906V405.96C398.546 406.6 398.006 407.133 397.286 407.56C396.579 407.973 395.752 408.18 394.806 408.18C393.832 408.18 392.952 407.94 392.166 407.46C391.379 406.98 390.759 406.307 390.306 405.44C389.852 404.573 389.626 403.587 389.626 402.48ZM398.906 402.5C398.906 401.673 398.739 400.953 398.406 400.34C398.072 399.727 397.619 399.26 397.046 398.94C396.486 398.607 395.866 398.44 395.186 398.44C394.506 398.44 393.886 398.6 393.326 398.92C392.766 399.24 392.319 399.707 391.986 400.32C391.652 400.933 391.486 401.653 391.486 402.48C391.486 403.32 391.652 404.053 391.986 404.68C392.319 405.293 392.766 405.767 393.326 406.1C393.886 406.42 394.506 406.58 395.186 406.58C395.866 406.58 396.486 406.42 397.046 406.1C397.619 405.767 398.072 405.293 398.406 404.68C398.739 404.053 398.906 403.327 398.906 402.5ZM405.641 398.82C405.961 398.193 406.415 397.707 407.001 397.36C407.601 397.013 408.328 396.84 409.181 396.84V398.72H408.701C406.661 398.72 405.641 399.827 405.641 402.04V408H403.821V397.04H405.641V398.82ZM410.602 402.48C410.602 401.36 410.829 400.38 411.282 399.54C411.736 398.687 412.356 398.027 413.142 397.56C413.942 397.093 414.836 396.86 415.822 396.86C416.676 396.86 417.469 397.06 418.202 397.46C418.936 397.847 419.496 398.36 419.882 399V393.2H421.722V408H419.882V405.94C419.522 406.593 418.989 407.133 418.282 407.56C417.576 407.973 416.749 408.18 415.802 408.18C414.829 408.18 413.942 407.94 413.142 407.46C412.356 406.98 411.736 406.307 411.282 405.44C410.829 404.573 410.602 403.587 410.602 402.48ZM419.882 402.5C419.882 401.673 419.716 400.953 419.382 400.34C419.049 399.727 418.596 399.26 418.022 398.94C417.462 398.607 416.842 398.44 416.162 398.44C415.482 398.44 414.862 398.6 414.302 398.92C413.742 399.24 413.296 399.707 412.962 400.32C412.629 400.933 412.462 401.653 412.462 402.48C412.462 403.32 412.629 404.053 412.962 404.68C413.296 405.293 413.742 405.767 414.302 406.1C414.862 406.42 415.482 406.58 416.162 406.58C416.842 406.58 417.462 406.42 418.022 406.1C418.596 405.767 419.049 405.293 419.382 404.68C419.716 404.053 419.882 403.327 419.882 402.5ZM425.738 395.26C425.391 395.26 425.098 395.14 424.858 394.9C424.618 394.66 424.498 394.367 424.498 394.02C424.498 393.673 424.618 393.38 424.858 393.14C425.098 392.9 425.391 392.78 425.738 392.78C426.071 392.78 426.351 392.9 426.578 393.14C426.818 393.38 426.938 393.673 426.938 394.02C426.938 394.367 426.818 394.66 426.578 394.9C426.351 395.14 426.071 395.26 425.738 395.26ZM426.618 397.04V408H424.798V397.04H426.618ZM435.06 396.84C436.393 396.84 437.473 397.247 438.3 398.06C439.126 398.86 439.54 400.02 439.54 401.54V408H437.74V401.8C437.74 400.707 437.466 399.873 436.92 399.3C436.373 398.713 435.626 398.42 434.68 398.42C433.72 398.42 432.953 398.72 432.38 399.32C431.82 399.92 431.54 400.793 431.54 401.94V408H429.72V397.04H431.54V398.6C431.9 398.04 432.386 397.607 433 397.3C433.626 396.993 434.313 396.84 435.06 396.84ZM447.033 396.86C447.979 396.86 448.806 397.067 449.513 397.48C450.233 397.893 450.766 398.413 451.113 399.04V397.04H452.953V408.24C452.953 409.24 452.739 410.127 452.313 410.9C451.886 411.687 451.273 412.3 450.473 412.74C449.686 413.18 448.766 413.4 447.713 413.4C446.273 413.4 445.073 413.06 444.113 412.38C443.153 411.7 442.586 410.773 442.413 409.6H444.213C444.413 410.267 444.826 410.8 445.453 411.2C446.079 411.613 446.833 411.82 447.713 411.82C448.713 411.82 449.526 411.507 450.153 410.88C450.793 410.253 451.113 409.373 451.113 408.24V405.94C450.753 406.58 450.219 407.113 449.513 407.54C448.806 407.967 447.979 408.18 447.033 408.18C446.059 408.18 445.173 407.94 444.373 407.46C443.586 406.98 442.966 406.307 442.513 405.44C442.059 404.573 441.833 403.587 441.833 402.48C441.833 401.36 442.059 400.38 442.513 399.54C442.966 398.687 443.586 398.027 444.373 397.56C445.173 397.093 446.059 396.86 447.033 396.86ZM451.113 402.5C451.113 401.673 450.946 400.953 450.613 400.34C450.279 399.727 449.826 399.26 449.253 398.94C448.693 398.607 448.073 398.44 447.393 398.44C446.713 398.44 446.093 398.6 445.533 398.92C444.973 399.24 444.526 399.707 444.193 400.32C443.859 400.933 443.693 401.653 443.693 402.48C443.693 403.32 443.859 404.053 444.193 404.68C444.526 405.293 444.973 405.767 445.533 406.1C446.093 406.42 446.713 406.58 447.393 406.58C448.073 406.58 448.693 406.42 449.253 406.1C449.826 405.767 450.279 405.293 450.613 404.68C450.946 404.053 451.113 403.327 451.113 402.5ZM214.335 427.04L207.735 443.16H205.855L208.015 437.88L203.595 427.04H205.615L209.055 435.92L212.455 427.04H214.335ZM220.945 438.18C219.918 438.18 218.985 437.947 218.145 437.48C217.318 437.013 216.665 436.353 216.185 435.5C215.718 434.633 215.485 433.633 215.485 432.5C215.485 431.38 215.725 430.393 216.205 429.54C216.698 428.673 217.365 428.013 218.205 427.56C219.045 427.093 219.985 426.86 221.025 426.86C222.065 426.86 223.005 427.093 223.845 427.56C224.685 428.013 225.345 428.667 225.825 429.52C226.318 430.373 226.565 431.367 226.565 432.5C226.565 433.633 226.312 434.633 225.805 435.5C225.312 436.353 224.638 437.013 223.785 437.48C222.932 437.947 221.985 438.18 220.945 438.18ZM220.945 436.58C221.598 436.58 222.212 436.427 222.785 436.12C223.358 435.813 223.818 435.353 224.165 434.74C224.525 434.127 224.705 433.38 224.705 432.5C224.705 431.62 224.532 430.873 224.185 430.26C223.838 429.647 223.385 429.193 222.825 428.9C222.265 428.593 221.658 428.44 221.005 428.44C220.338 428.44 219.725 428.593 219.165 428.9C218.618 429.193 218.178 429.647 217.845 430.26C217.512 430.873 217.345 431.62 217.345 432.5C217.345 433.393 217.505 434.147 217.825 434.76C218.158 435.373 218.598 435.833 219.145 436.14C219.692 436.433 220.292 436.58 220.945 436.58ZM238.678 427.04V438H236.858V436.38C236.511 436.94 236.025 437.38 235.398 437.7C234.785 438.007 234.105 438.16 233.358 438.16C232.505 438.16 231.738 437.987 231.058 437.64C230.378 437.28 229.838 436.747 229.438 436.04C229.051 435.333 228.858 434.473 228.858 433.46V427.04H230.658V433.22C230.658 434.3 230.931 435.133 231.478 435.72C232.025 436.293 232.771 436.58 233.718 436.58C234.691 436.58 235.458 436.28 236.018 435.68C236.578 435.08 236.858 434.207 236.858 433.06V427.04H238.678ZM243.571 428.82C243.891 428.193 244.344 427.707 244.931 427.36C245.531 427.013 246.258 426.84 247.111 426.84V428.72H246.631C244.591 428.72 243.571 429.827 243.571 432.04V438H241.751V427.04H243.571V428.82ZM253.864 432.48C253.864 431.36 254.091 430.38 254.544 429.54C254.997 428.687 255.617 428.027 256.404 427.56C257.204 427.093 258.097 426.86 259.084 426.86C260.031 426.86 260.857 427.073 261.564 427.5C262.284 427.913 262.811 428.427 263.144 429.04V427.04H264.984V443.2H263.144V435.98C262.797 436.593 262.264 437.113 261.544 437.54C260.824 437.967 259.984 438.18 259.024 438.18C258.064 438.18 257.191 437.94 256.404 437.46C255.617 436.98 254.997 436.307 254.544 435.44C254.091 434.573 253.864 433.587 253.864 432.48ZM263.144 432.5C263.144 431.673 262.977 430.953 262.644 430.34C262.311 429.727 261.857 429.26 261.284 428.94C260.724 428.607 260.104 428.44 259.424 428.44C258.744 428.44 258.124 428.6 257.564 428.92C257.004 429.24 256.557 429.707 256.224 430.32C255.891 430.933 255.724 431.653 255.724 432.48C255.724 433.32 255.891 434.053 256.224 434.68C256.557 435.293 257.004 435.767 257.564 436.1C258.124 436.42 258.744 436.58 259.424 436.58C260.104 436.58 260.724 436.42 261.284 436.1C261.857 435.767 262.311 435.293 262.644 434.68C262.977 434.053 263.144 433.327 263.144 432.5ZM277.78 427.04V438H275.96V436.38C275.613 436.94 275.126 437.38 274.5 437.7C273.886 438.007 273.206 438.16 272.46 438.16C271.606 438.16 270.84 437.987 270.16 437.64C269.48 437.28 268.94 436.747 268.54 436.04C268.153 435.333 267.96 434.473 267.96 433.46V427.04H269.76V433.22C269.76 434.3 270.033 435.133 270.58 435.72C271.126 436.293 271.873 436.58 272.82 436.58C273.793 436.58 274.56 436.28 275.12 435.68C275.68 435.08 275.96 434.207 275.96 433.06V427.04H277.78ZM290.853 432.1C290.853 432.447 290.833 432.813 290.793 433.2H282.033C282.099 434.28 282.466 435.127 283.133 435.74C283.813 436.34 284.633 436.64 285.593 436.64C286.379 436.64 287.033 436.46 287.553 436.1C288.086 435.727 288.459 435.233 288.673 434.62H290.633C290.339 435.673 289.753 436.533 288.873 437.2C287.993 437.853 286.899 438.18 285.593 438.18C284.553 438.18 283.619 437.947 282.793 437.48C281.979 437.013 281.339 436.353 280.873 435.5C280.406 434.633 280.173 433.633 280.173 432.5C280.173 431.367 280.399 430.373 280.853 429.52C281.306 428.667 281.939 428.013 282.753 427.56C283.579 427.093 284.526 426.86 285.593 426.86C286.633 426.86 287.553 427.087 288.353 427.54C289.153 427.993 289.766 428.62 290.193 429.42C290.633 430.207 290.853 431.1 290.853 432.1ZM288.973 431.72C288.973 431.027 288.819 430.433 288.513 429.94C288.206 429.433 287.786 429.053 287.253 428.8C286.733 428.533 286.153 428.4 285.513 428.4C284.593 428.4 283.806 428.693 283.153 429.28C282.513 429.867 282.146 430.68 282.053 431.72H288.973ZM295.075 428.82C295.395 428.193 295.848 427.707 296.435 427.36C297.035 427.013 297.762 426.84 298.615 426.84V428.72H298.135C296.095 428.72 295.075 429.827 295.075 432.04V438H293.255V427.04H295.075V428.82ZM310.156 427.04L303.556 443.16H301.676L303.836 437.88L299.416 427.04H301.436L304.876 435.92L308.276 427.04H310.156ZM312.565 438.12C312.219 438.12 311.925 438 311.685 437.76C311.445 437.52 311.325 437.227 311.325 436.88C311.325 436.533 311.445 436.24 311.685 436C311.925 435.76 312.219 435.64 312.565 435.64C312.899 435.64 313.179 435.76 313.405 436C313.645 436.24 313.765 436.533 313.765 436.88C313.765 437.227 313.645 437.52 313.405 437.76C313.179 438 312.899 438.12 312.565 438.12Z" fill="black"/>
<path d="M97.6502 348.32V350.552H93.2102V365H90.4742V350.552H86.0102V348.32H97.6502ZM107.261 351.56C108.269 351.56 109.165 351.776 109.949 352.208C110.749 352.64 111.373 353.28 111.821 354.128C112.285 354.976 112.517 356 112.517 357.2V365H109.805V357.608C109.805 356.424 109.509 355.52 108.917 354.896C108.325 354.256 107.517 353.936 106.493 353.936C105.469 353.936 104.653 354.256 104.045 354.896C103.453 355.52 103.157 356.424 103.157 357.608V365H100.421V347.24H103.157V353.312C103.621 352.752 104.205 352.32 104.909 352.016C105.629 351.712 106.413 351.56 107.261 351.56ZM115.095 358.328C115.095 357 115.367 355.824 115.911 354.8C116.471 353.776 117.223 352.984 118.167 352.424C119.127 351.848 120.183 351.56 121.335 351.56C122.375 351.56 123.279 351.768 124.047 352.184C124.831 352.584 125.455 353.088 125.919 353.696V351.776H128.679V365H125.919V363.032C125.455 363.656 124.823 364.176 124.023 364.592C123.223 365.008 122.311 365.216 121.287 365.216C120.151 365.216 119.111 364.928 118.167 364.352C117.223 363.76 116.471 362.944 115.911 361.904C115.367 360.848 115.095 359.656 115.095 358.328ZM125.919 358.376C125.919 357.464 125.727 356.672 125.343 356C124.975 355.328 124.487 354.816 123.879 354.464C123.271 354.112 122.615 353.936 121.911 353.936C121.207 353.936 120.551 354.112 119.943 354.464C119.335 354.8 118.839 355.304 118.455 355.976C118.087 356.632 117.903 357.416 117.903 358.328C117.903 359.24 118.087 360.04 118.455 360.728C118.839 361.416 119.335 361.944 119.943 362.312C120.567 362.664 121.223 362.84 121.911 362.84C122.615 362.84 123.271 362.664 123.879 362.312C124.487 361.96 124.975 361.448 125.343 360.776C125.727 360.088 125.919 359.288 125.919 358.376ZM138.945 351.56C139.985 351.56 140.913 351.776 141.729 352.208C142.561 352.64 143.209 353.28 143.673 354.128C144.137 354.976 144.369 356 144.369 357.2V365H141.657V357.608C141.657 356.424 141.361 355.52 140.769 354.896C140.177 354.256 139.369 353.936 138.345 353.936C137.321 353.936 136.505 354.256 135.897 354.896C135.305 355.52 135.009 356.424 135.009 357.608V365H132.273V351.776H135.009V353.288C135.457 352.744 136.025 352.32 136.713 352.016C137.417 351.712 138.161 351.56 138.945 351.56ZM153.091 358.4L159.187 365H155.491L150.595 359.312V365H147.859V347.24H150.595V357.56L155.395 351.776H159.187L153.091 358.4ZM179.286 351.776L171.174 371.216H168.342L171.03 364.784L165.822 351.776H168.87L172.59 361.856L176.454 351.776H179.286ZM187.087 365.216C185.839 365.216 184.711 364.936 183.703 364.376C182.695 363.8 181.903 363 181.327 361.976C180.751 360.936 180.463 359.736 180.463 358.376C180.463 357.032 180.759 355.84 181.351 354.8C181.943 353.76 182.751 352.96 183.775 352.4C184.799 351.84 185.943 351.56 187.207 351.56C188.471 351.56 189.615 351.84 190.639 352.4C191.663 352.96 192.471 353.76 193.063 354.8C193.655 355.84 193.951 357.032 193.951 358.376C193.951 359.72 193.647 360.912 193.039 361.952C192.431 362.992 191.599 363.8 190.543 364.376C189.503 364.936 188.351 365.216 187.087 365.216ZM187.087 362.84C187.791 362.84 188.447 362.672 189.055 362.336C189.679 362 190.183 361.496 190.567 360.824C190.951 360.152 191.143 359.336 191.143 358.376C191.143 357.416 190.959 356.608 190.591 355.952C190.223 355.28 189.735 354.776 189.127 354.44C188.519 354.104 187.863 353.936 187.159 353.936C186.455 353.936 185.799 354.104 185.191 354.44C184.599 354.776 184.127 355.28 183.775 355.952C183.423 356.608 183.247 357.416 183.247 358.376C183.247 359.8 183.607 360.904 184.327 361.688C185.063 362.456 185.983 362.84 187.087 362.84ZM208.631 351.776V365H205.895V363.44C205.463 363.984 204.895 364.416 204.191 364.736C203.503 365.04 202.767 365.192 201.983 365.192C200.943 365.192 200.007 364.976 199.175 364.544C198.359 364.112 197.711 363.472 197.231 362.624C196.767 361.776 196.535 360.752 196.535 359.552V351.776H199.247V359.144C199.247 360.328 199.543 361.24 200.135 361.88C200.727 362.504 201.535 362.816 202.559 362.816C203.583 362.816 204.391 362.504 204.983 361.88C205.591 361.24 205.895 360.328 205.895 359.144V351.776H208.631ZM224.02 354.008H221.572V365H218.812V354.008H217.252V351.776H218.812V350.84C218.812 349.32 219.212 348.216 220.012 347.528C220.828 346.824 222.1 346.472 223.828 346.472V348.752C222.996 348.752 222.412 348.912 222.076 349.232C221.74 349.536 221.572 350.072 221.572 350.84V351.776H224.02V354.008ZM232.181 365.216C230.933 365.216 229.805 364.936 228.797 364.376C227.789 363.8 226.997 363 226.421 361.976C225.845 360.936 225.557 359.736 225.557 358.376C225.557 357.032 225.853 355.84 226.445 354.8C227.037 353.76 227.845 352.96 228.869 352.4C229.893 351.84 231.037 351.56 232.301 351.56C233.565 351.56 234.709 351.84 235.733 352.4C236.757 352.96 237.565 353.76 238.157 354.8C238.749 355.84 239.045 357.032 239.045 358.376C239.045 359.72 238.741 360.912 238.133 361.952C237.525 362.992 236.693 363.8 235.637 364.376C234.597 364.936 233.445 365.216 232.181 365.216ZM232.181 362.84C232.885 362.84 233.541 362.672 234.149 362.336C234.773 362 235.277 361.496 235.661 360.824C236.045 360.152 236.237 359.336 236.237 358.376C236.237 357.416 236.053 356.608 235.685 355.952C235.317 355.28 234.829 354.776 234.221 354.44C233.613 354.104 232.957 353.936 232.253 353.936C231.549 353.936 230.893 354.104 230.285 354.44C229.693 354.776 229.221 355.28 228.869 355.952C228.517 356.608 228.341 357.416 228.341 358.376C228.341 359.8 228.701 360.904 229.421 361.688C230.157 362.456 231.077 362.84 232.181 362.84ZM244.485 353.696C244.885 353.024 245.413 352.504 246.069 352.136C246.741 351.752 247.533 351.56 248.445 351.56V354.392H247.749C246.677 354.392 245.861 354.664 245.301 355.208C244.757 355.752 244.485 356.696 244.485 358.04V365H241.749V351.776H244.485V353.696ZM273.203 351.56C274.243 351.56 275.171 351.776 275.987 352.208C276.819 352.64 277.467 353.28 277.931 354.128C278.411 354.976 278.651 356 278.651 357.2V365H275.939V357.608C275.939 356.424 275.643 355.52 275.051 354.896C274.459 354.256 273.651 353.936 272.627 353.936C271.603 353.936 270.787 354.256 270.179 354.896C269.587 355.52 269.291 356.424 269.291 357.608V365H266.579V357.608C266.579 356.424 266.283 355.52 265.691 354.896C265.099 354.256 264.291 353.936 263.267 353.936C262.243 353.936 261.427 354.256 260.819 354.896C260.227 355.52 259.931 356.424 259.931 357.608V365H257.195V351.776H259.931V353.288C260.379 352.744 260.947 352.32 261.635 352.016C262.323 351.712 263.059 351.56 263.843 351.56C264.899 351.56 265.843 351.784 266.675 352.232C267.507 352.68 268.147 353.328 268.595 354.176C268.995 353.376 269.619 352.744 270.467 352.28C271.315 351.8 272.227 351.56 273.203 351.56ZM294.252 358.064C294.252 358.56 294.22 359.008 294.156 359.408H284.052C284.132 360.464 284.524 361.312 285.228 361.952C285.932 362.592 286.796 362.912 287.82 362.912C289.292 362.912 290.332 362.296 290.94 361.064H293.892C293.492 362.28 292.764 363.28 291.708 364.064C290.668 364.832 289.372 365.216 287.82 365.216C286.556 365.216 285.42 364.936 284.412 364.376C283.42 363.8 282.636 363 282.06 361.976C281.5 360.936 281.22 359.736 281.22 358.376C281.22 357.016 281.492 355.824 282.036 354.8C282.596 353.76 283.372 352.96 284.364 352.4C285.372 351.84 286.524 351.56 287.82 351.56C289.068 351.56 290.18 351.832 291.156 352.376C292.132 352.92 292.892 353.688 293.436 354.68C293.98 355.656 294.252 356.784 294.252 358.064ZM291.396 357.2C291.38 356.192 291.02 355.384 290.316 354.776C289.612 354.168 288.74 353.864 287.7 353.864C286.756 353.864 285.948 354.168 285.276 354.776C284.604 355.368 284.204 356.176 284.076 357.2H291.396ZM301.745 365.216C300.705 365.216 299.769 365.032 298.937 364.664C298.121 364.28 297.473 363.768 296.993 363.128C296.513 362.472 296.257 361.744 296.225 360.944H299.057C299.105 361.504 299.369 361.976 299.849 362.36C300.345 362.728 300.961 362.912 301.697 362.912C302.465 362.912 303.057 362.768 303.473 362.48C303.905 362.176 304.121 361.792 304.121 361.328C304.121 360.832 303.881 360.464 303.401 360.224C302.937 359.984 302.193 359.72 301.169 359.432C300.177 359.16 299.369 358.896 298.745 358.64C298.121 358.384 297.577 357.992 297.113 357.464C296.665 356.936 296.441 356.24 296.441 355.376C296.441 354.672 296.649 354.032 297.065 353.456C297.481 352.864 298.073 352.4 298.841 352.064C299.625 351.728 300.521 351.56 301.529 351.56C303.033 351.56 304.241 351.944 305.153 352.712C306.081 353.464 306.577 354.496 306.641 355.808H303.905C303.857 355.216 303.617 354.744 303.185 354.392C302.753 354.04 302.169 353.864 301.433 353.864C300.713 353.864 300.161 354 299.777 354.272C299.393 354.544 299.201 354.904 299.201 355.352C299.201 355.704 299.329 356 299.585 356.24C299.841 356.48 300.153 356.672 300.521 356.816C300.889 356.944 301.433 357.112 302.153 357.32C303.113 357.576 303.897 357.84 304.505 358.112C305.129 358.368 305.665 358.752 306.113 359.264C306.561 359.776 306.793 360.456 306.809 361.304C306.809 362.056 306.601 362.728 306.185 363.32C305.769 363.912 305.177 364.376 304.409 364.712C303.657 365.048 302.769 365.216 301.745 365.216ZM314.565 365.216C313.525 365.216 312.589 365.032 311.757 364.664C310.941 364.28 310.293 363.768 309.813 363.128C309.333 362.472 309.077 361.744 309.045 360.944H311.877C311.925 361.504 312.189 361.976 312.669 362.36C313.165 362.728 313.781 362.912 314.517 362.912C315.285 362.912 315.877 362.768 316.293 362.48C316.725 362.176 316.941 361.792 316.941 361.328C316.941 360.832 316.701 360.464 316.221 360.224C315.757 359.984 315.013 359.72 313.989 359.432C312.997 359.16 312.189 358.896 311.565 358.64C310.941 358.384 310.397 357.992 309.933 357.464C309.485 356.936 309.261 356.24 309.261 355.376C309.261 354.672 309.469 354.032 309.885 353.456C310.301 352.864 310.893 352.4 311.661 352.064C312.445 351.728 313.341 351.56 314.349 351.56C315.853 351.56 317.061 351.944 317.973 352.712C318.901 353.464 319.397 354.496 319.461 355.808H316.725C316.677 355.216 316.437 354.744 316.005 354.392C315.573 354.04 314.989 353.864 314.253 353.864C313.533 353.864 312.981 354 312.597 354.272C312.213 354.544 312.021 354.904 312.021 355.352C312.021 355.704 312.149 356 312.405 356.24C312.661 356.48 312.973 356.672 313.341 356.816C313.709 356.944 314.253 357.112 314.973 357.32C315.933 357.576 316.717 357.84 317.325 358.112C317.949 358.368 318.485 358.752 318.933 359.264C319.381 359.776 319.613 360.456 319.629 361.304C319.629 362.056 319.421 362.728 319.005 363.32C318.589 363.912 317.997 364.376 317.229 364.712C316.477 365.048 315.589 365.216 314.565 365.216ZM321.673 358.328C321.673 357 321.945 355.824 322.489 354.8C323.049 353.776 323.801 352.984 324.745 352.424C325.705 351.848 326.761 351.56 327.913 351.56C328.953 351.56 329.857 351.768 330.625 352.184C331.409 352.584 332.033 353.088 332.497 353.696V351.776H335.257V365H332.497V363.032C332.033 363.656 331.401 364.176 330.601 364.592C329.801 365.008 328.889 365.216 327.865 365.216C326.729 365.216 325.689 364.928 324.745 364.352C323.801 363.76 323.049 362.944 322.489 361.904C321.945 360.848 321.673 359.656 321.673 358.328ZM332.497 358.376C332.497 357.464 332.305 356.672 331.921 356C331.553 355.328 331.065 354.816 330.457 354.464C329.849 354.112 329.193 353.936 328.489 353.936C327.785 353.936 327.129 354.112 326.521 354.464C325.913 354.8 325.417 355.304 325.033 355.976C324.665 356.632 324.481 357.416 324.481 358.328C324.481 359.24 324.665 360.04 325.033 360.728C325.417 361.416 325.913 361.944 326.521 362.312C327.145 362.664 327.801 362.84 328.489 362.84C329.193 362.84 329.849 362.664 330.457 362.312C331.065 361.96 331.553 361.448 331.921 360.776C332.305 360.088 332.497 359.288 332.497 358.376ZM344.179 351.56C345.203 351.56 346.107 351.768 346.891 352.184C347.691 352.584 348.315 353.088 348.763 353.696V351.776H351.523V365.216C351.523 366.432 351.267 367.512 350.755 368.456C350.243 369.416 349.499 370.168 348.523 370.712C347.563 371.256 346.411 371.528 345.067 371.528C343.275 371.528 341.787 371.104 340.603 370.256C339.419 369.424 338.747 368.288 338.587 366.848H341.299C341.507 367.536 341.947 368.088 342.619 368.504C343.307 368.936 344.123 369.152 345.067 369.152C346.171 369.152 347.059 368.816 347.731 368.144C348.419 367.472 348.763 366.496 348.763 365.216V363.008C348.299 363.632 347.667 364.16 346.867 364.592C346.083 365.008 345.187 365.216 344.179 365.216C343.027 365.216 341.971 364.928 341.011 364.352C340.067 363.76 339.315 362.944 338.755 361.904C338.211 360.848 337.939 359.656 337.939 358.328C337.939 357 338.211 355.824 338.755 354.8C339.315 353.776 340.067 352.984 341.011 352.424C341.971 351.848 343.027 351.56 344.179 351.56ZM348.763 358.376C348.763 357.464 348.571 356.672 348.187 356C347.819 355.328 347.331 354.816 346.723 354.464C346.115 354.112 345.459 353.936 344.755 353.936C344.051 353.936 343.395 354.112 342.787 354.464C342.179 354.8 341.683 355.304 341.299 355.976C340.931 356.632 340.747 357.416 340.747 358.328C340.747 359.24 340.931 360.04 341.299 360.728C341.683 361.416 342.179 361.944 342.787 362.312C343.411 362.664 344.067 362.84 344.755 362.84C345.459 362.84 346.115 362.664 346.723 362.312C347.331 361.96 347.819 361.448 348.187 360.776C348.571 360.088 348.763 359.288 348.763 358.376ZM356.508 350.024C356.012 350.024 355.596 349.856 355.26 349.52C354.924 349.184 354.756 348.768 354.756 348.272C354.756 347.776 354.924 347.36 355.26 347.024C355.596 346.688 356.012 346.52 356.508 346.52C356.988 346.52 357.396 346.688 357.732 347.024C358.068 347.36 358.236 347.776 358.236 348.272C358.236 348.768 358.068 349.184 357.732 349.52C357.396 349.856 356.988 350.024 356.508 350.024ZM357.852 351.776V365H355.116V351.776H357.852ZM368.117 351.56C369.157 351.56 370.085 351.776 370.901 352.208C371.733 352.64 372.381 353.28 372.845 354.128C373.309 354.976 373.541 356 373.541 357.2V365H370.829V357.608C370.829 356.424 370.533 355.52 369.941 354.896C369.349 354.256 368.541 353.936 367.517 353.936C366.493 353.936 365.677 354.256 365.069 354.896C364.477 355.52 364.181 356.424 364.181 357.608V365H361.445V351.776H364.181V353.288C364.629 352.744 365.197 352.32 365.885 352.016C366.589 351.712 367.333 351.56 368.117 351.56ZM382.358 351.56C383.382 351.56 384.286 351.768 385.07 352.184C385.87 352.584 386.494 353.088 386.942 353.696V351.776H389.702V365.216C389.702 366.432 389.446 367.512 388.934 368.456C388.422 369.416 387.678 370.168 386.702 370.712C385.742 371.256 384.59 371.528 383.246 371.528C381.454 371.528 379.966 371.104 378.782 370.256C377.598 369.424 376.926 368.288 376.766 366.848H379.478C379.686 367.536 380.126 368.088 380.798 368.504C381.486 368.936 382.302 369.152 383.246 369.152C384.35 369.152 385.238 368.816 385.91 368.144C386.598 367.472 386.942 366.496 386.942 365.216V363.008C386.478 363.632 385.846 364.16 385.046 364.592C384.262 365.008 383.366 365.216 382.358 365.216C381.206 365.216 380.15 364.928 379.19 364.352C378.246 363.76 377.494 362.944 376.934 361.904C376.39 360.848 376.118 359.656 376.118 358.328C376.118 357 376.39 355.824 376.934 354.8C377.494 353.776 378.246 352.984 379.19 352.424C380.15 351.848 381.206 351.56 382.358 351.56ZM386.942 358.376C386.942 357.464 386.75 356.672 386.366 356C385.998 355.328 385.51 354.816 384.902 354.464C384.294 354.112 383.638 353.936 382.934 353.936C382.23 353.936 381.574 354.112 380.966 354.464C380.358 354.8 379.862 355.304 379.478 355.976C379.11 356.632 378.926 357.416 378.926 358.328C378.926 359.24 379.11 360.04 379.478 360.728C379.862 361.416 380.358 361.944 380.966 362.312C381.59 362.664 382.246 362.84 382.934 362.84C383.638 362.84 384.294 362.664 384.902 362.312C385.51 361.96 385.998 361.448 386.366 360.776C386.75 360.088 386.942 359.288 386.942 358.376ZM411.506 351.776V365H408.77V363.44C408.338 363.984 407.77 364.416 407.066 364.736C406.378 365.04 405.642 365.192 404.858 365.192C403.818 365.192 402.882 364.976 402.05 364.544C401.234 364.112 400.586 363.472 400.106 362.624C399.642 361.776 399.41 360.752 399.41 359.552V351.776H402.122V359.144C402.122 360.328 402.418 361.24 403.01 361.88C403.602 362.504 404.41 362.816 405.434 362.816C406.458 362.816 407.266 362.504 407.858 361.88C408.466 361.24 408.77 360.328 408.77 359.144V351.776H411.506ZM419.916 365.216C418.876 365.216 417.94 365.032 417.108 364.664C416.292 364.28 415.644 363.768 415.164 363.128C414.684 362.472 414.428 361.744 414.396 360.944H417.228C417.276 361.504 417.54 361.976 418.02 362.36C418.516 362.728 419.132 362.912 419.868 362.912C420.636 362.912 421.228 362.768 421.644 362.48C422.076 362.176 422.292 361.792 422.292 361.328C422.292 360.832 422.052 360.464 421.572 360.224C421.108 359.984 420.364 359.72 419.34 359.432C418.348 359.16 417.54 358.896 416.916 358.64C416.292 358.384 415.748 357.992 415.284 357.464C414.836 356.936 414.612 356.24 414.612 355.376C414.612 354.672 414.82 354.032 415.236 353.456C415.652 352.864 416.244 352.4 417.012 352.064C417.796 351.728 418.692 351.56 419.7 351.56C421.204 351.56 422.412 351.944 423.324 352.712C424.252 353.464 424.748 354.496 424.812 355.808H422.076C422.028 355.216 421.788 354.744 421.356 354.392C420.924 354.04 420.34 353.864 419.604 353.864C418.884 353.864 418.332 354 417.948 354.272C417.564 354.544 417.372 354.904 417.372 355.352C417.372 355.704 417.5 356 417.756 356.24C418.012 356.48 418.324 356.672 418.692 356.816C419.06 356.944 419.604 357.112 420.324 357.32C421.284 357.576 422.068 357.84 422.676 358.112C423.3 358.368 423.836 358.752 424.284 359.264C424.732 359.776 424.964 360.456 424.98 361.304C424.98 362.056 424.772 362.728 424.356 363.32C423.94 363.912 423.348 364.376 422.58 364.712C421.828 365.048 420.94 365.216 419.916 365.216ZM429.041 365.168C428.545 365.168 428.129 365 427.793 364.664C427.457 364.328 427.289 363.912 427.289 363.416C427.289 362.92 427.457 362.504 427.793 362.168C428.129 361.832 428.545 361.664 429.041 361.664C429.521 361.664 429.929 361.832 430.265 362.168C430.601 362.504 430.769 362.92 430.769 363.416C430.769 363.912 430.601 364.328 430.265 364.664C429.929 365 429.521 365.168 429.041 365.168Z" fill="#091638"/>
<defs>
<filter id="filter0_d" x="0" y="0" width="518" height="573" filterUnits="userSpaceOnUse" color-interpolation-filters="sRGB">
<feFlood flood-opacity="0" result="BackgroundImageFix"/>
<feColorMatrix in="SourceAlpha" type="matrix" values="0 0 0 0 0 0 0 0 0 0 0 0 0 0 0 0 0 0 127 0" result="hardAlpha"/>
<feOffset/>
<feGaussianBlur stdDeviation="10"/>
<feComposite in2="hardAlpha" operator="out"/>
<feColorMatrix type="matrix" values="0 0 0 0 0 0 0 0 0 0 0 0 0 0 0 0 0 0 0.14 0"/>
<feBlend mode="normal" in2="BackgroundImageFix" result="effect1_dropShadow"/>
<feBlend mode="normal" in="SourceGraphic" in2="effect1_dropShadow" result="shape"/>
</filter>
</defs>
</svg>
