<svg width="498" height="383" viewBox="0 0 498 383" fill="none" xmlns="http://www.w3.org/2000/svg">
<path d="M496.378 379.761H1.68343C1.26417 379.755 0.858027 379.907 0.546616 380.187C0.235206 380.467 0.0416087 380.854 0.00472941 381.27C-0.0101451 381.491 0.020787 381.713 0.0956195 381.922C0.170452 382.131 0.287573 382.322 0.43971 382.484C0.591846 382.646 0.775747 382.775 0.97997 382.863C1.18419 382.951 1.40437 382.996 1.62684 382.995H496.378C496.808 382.995 497.221 382.825 497.525 382.522C497.829 382.218 498 381.807 498 381.378V381.378C498 380.949 497.829 380.538 497.525 380.235C497.221 379.931 496.808 379.761 496.378 379.761V379.761Z" fill="#091638"/>
<path d="M173.548 71.1767C188.272 71.1101 200.155 59.1565 200.088 44.4776C200.021 29.7987 188.03 17.953 173.306 18.0196C158.581 18.0863 146.699 30.0399 146.766 44.7188C146.833 59.3977 158.823 71.2433 173.548 71.1767Z" fill="#CADAFF"/>
<path d="M183.488 68.4731C178.751 70.4523 173.532 70.9869 168.491 70.0091C163.45 69.0314 158.812 66.5853 155.165 62.9801C151.518 59.375 149.026 54.7728 148.002 49.7553C146.979 44.7379 147.471 39.5307 149.417 34.7922C151.362 30.0536 154.673 25.9965 158.931 23.134C163.19 20.2714 168.204 18.7319 173.34 18.7102C178.476 18.6885 183.503 20.1855 187.785 23.0119C192.067 25.8383 195.413 29.8672 197.399 34.5891C200.052 40.9223 200.078 48.0461 197.47 54.3982C194.863 60.7502 189.834 65.812 183.488 68.4731V68.4731Z" fill="#92B5F9"/>
<path d="M191.52 55.8271C197.686 45.9011 194.613 32.8714 184.657 26.7242C174.7 20.5771 161.63 23.6404 155.464 33.5663C149.297 43.4922 152.37 56.522 162.327 62.6692C172.284 68.8163 185.354 65.753 191.52 55.8271Z" fill="white"/>
<path d="M181.211 63.0671C177.544 64.5996 173.504 65.0138 169.601 64.2574C165.699 63.5009 162.109 61.6078 159.285 58.8173C156.462 56.0269 154.532 52.4645 153.739 48.5805C152.947 44.6966 153.327 40.6656 154.833 36.9973C156.338 33.329 158.901 30.1881 162.197 27.9719C165.493 25.7556 169.375 24.5634 173.35 24.5462C177.326 24.5289 181.218 25.6873 184.533 27.8749C187.848 30.0625 190.438 33.181 191.976 36.8361C194.03 41.7385 194.05 47.2528 192.032 52.17C190.014 57.0872 186.122 61.0059 181.211 63.0671V63.0671Z" fill="white"/>
<path d="M156.983 50.2995L153.682 51.7098C153.42 51.8195 153.212 52.0284 153.105 52.2907C152.997 52.553 152.999 52.8471 153.109 53.1083C153.219 53.3695 153.428 53.5764 153.692 53.6835C153.955 53.7906 154.25 53.7891 154.512 53.6794L157.812 52.2692C158.057 52.1482 158.246 51.9391 158.341 51.6843C158.437 51.4295 158.432 51.1481 158.327 50.897C158.222 50.646 158.025 50.4441 157.776 50.3322C157.528 50.2204 157.245 50.207 156.987 50.2948L156.983 50.2995Z" fill="#92B5F9"/>
<path d="M179.749 59.5932C179.618 59.6476 179.499 59.7274 179.399 59.8279C179.299 59.9284 179.22 60.0477 179.166 60.1788C179.113 60.3099 179.086 60.4503 179.087 60.5918C179.088 60.7333 179.118 60.8732 179.173 61.0034L180.565 64.294C180.684 64.5415 180.894 64.7337 181.152 64.8312C181.409 64.9286 181.695 64.9237 181.949 64.8176C182.203 64.7114 182.406 64.5121 182.517 64.2607C182.628 64.0094 182.638 63.7251 182.545 63.4667L181.13 60.1761C181.023 59.9178 180.818 59.712 180.559 59.6029C180.301 59.4939 180.01 59.4904 179.749 59.5932V59.5932Z" fill="#92B5F9"/>
<path d="M192.391 35.5058L189.09 36.8926C188.846 37.0136 188.657 37.2226 188.561 37.4774C188.466 37.7322 188.471 38.0136 188.576 38.2647C188.681 38.5157 188.878 38.7176 189.126 38.8295C189.375 38.9413 189.657 38.9547 189.915 38.8669L193.216 37.4567C193.46 37.3357 193.649 37.1266 193.745 36.8718C193.84 36.617 193.835 36.3356 193.73 36.0845C193.625 35.8335 193.429 35.6316 193.18 35.5197C192.931 35.4079 192.649 35.3945 192.391 35.4823V35.5058Z" fill="#92B5F9"/>
<path d="M164.909 24.2848C164.778 24.3392 164.659 24.419 164.559 24.5195C164.459 24.62 164.38 24.7393 164.327 24.8704C164.273 25.0015 164.246 25.1419 164.247 25.2834C164.249 25.425 164.278 25.5649 164.334 25.6951L165.748 28.9857C165.868 29.2331 166.078 29.4254 166.336 29.5228C166.593 29.6202 166.879 29.6154 167.133 29.5092C167.387 29.4031 167.59 29.2038 167.701 28.9524C167.812 28.701 167.822 28.4168 167.729 28.1583L166.338 24.8677C166.284 24.7345 166.204 24.6133 166.103 24.5115C166.001 24.4096 165.881 24.3291 165.747 24.2748C165.614 24.2204 165.471 24.1933 165.327 24.195C165.183 24.1967 165.041 24.2272 164.909 24.2848V24.2848Z" fill="#92B5F9"/>
<path d="M172.659 11.0993L172.363 15.2963C172.339 15.6407 172.599 15.9396 172.945 15.9638L177.776 16.3023C178.121 16.3265 178.421 16.0669 178.445 15.7224L178.741 11.5255C178.765 11.181 178.505 10.8822 178.159 10.858L173.329 10.5195C172.983 10.4953 172.683 10.7549 172.659 11.0993Z" fill="#92B5F9"/>
<path d="M149.422 20.5957L146.277 24.2668C146.052 24.5294 146.083 24.924 146.347 25.1483L149.556 27.8807C149.819 28.105 150.215 28.0739 150.44 27.8113L153.585 24.1402C153.81 23.8777 153.779 23.483 153.516 23.2588L150.306 20.5263C150.043 20.3021 149.647 20.3332 149.422 20.5957Z" fill="#92B5F9"/>
<path d="M157.05 12.4687L162.769 10.0791C162.919 10.0165 163.088 10.0158 163.238 10.0772C163.389 10.1386 163.509 10.257 163.571 10.4065L164.745 13.1986C164.808 13.348 164.809 13.5163 164.747 13.6663C164.686 13.8163 164.567 13.9358 164.417 13.9984L158.698 16.3879C158.549 16.4501 158.382 16.4508 158.232 16.3899C158.083 16.329 157.964 16.2114 157.902 16.0631L156.726 13.2667C156.664 13.1183 156.663 12.9514 156.724 12.8026C156.785 12.6537 156.903 12.5352 157.052 12.473L157.05 12.4687Z" fill="#92B5F9"/>
<path d="M160.203 17.4074C158.624 17.5245 157.055 17.0774 155.776 16.1463C154.497 15.2152 153.593 13.8607 153.224 12.3254C152.856 10.7901 153.047 9.17422 153.765 7.76692C154.482 6.35962 155.679 5.25283 157.14 4.64466C158.601 4.03648 160.232 3.96663 161.74 4.44762C163.248 4.92861 164.536 5.92903 165.372 7.2698C166.207 8.61056 166.537 10.2041 166.302 11.7653C166.067 13.3264 165.283 14.7532 164.089 15.7903L164.725 17.304C166.315 16.0861 167.406 14.3327 167.794 12.3714C168.182 10.4101 167.84 8.37512 166.833 6.64676C165.825 4.9184 164.221 3.61491 162.319 2.97988C160.418 2.34486 158.35 2.42175 156.501 3.19619C154.652 3.97062 153.15 5.38961 152.274 7.18798C151.399 8.98635 151.21 11.041 151.743 12.9681C152.276 14.8952 153.495 16.5627 155.172 17.6591C156.849 18.7555 158.868 19.2058 160.854 18.9258L160.203 17.4074Z" fill="#92B5F9"/>
<path d="M162.924 19.5839C163.589 19.3065 164.263 19.0574 164.937 18.8318L163.245 14.8031L160.085 16.124L161.759 20.101C162.141 19.9083 162.528 19.7343 162.924 19.5839Z" fill="#92B5F9"/>
<path d="M175.241 43.7888C175.391 44.1446 175.431 44.5367 175.358 44.9156C175.284 45.2945 175.099 45.643 174.827 45.9172C174.555 46.1914 174.207 46.3789 173.827 46.456C173.448 46.5331 173.054 46.4963 172.696 46.3502C172.338 46.2042 172.031 45.9555 171.814 45.6355C171.598 45.3156 171.481 44.9389 171.48 44.553C171.478 44.167 171.591 43.7893 171.805 43.4675C172.019 43.1457 172.323 42.8943 172.68 42.7452C172.917 42.6456 173.171 42.5936 173.428 42.5921C173.685 42.5907 173.94 42.6399 174.178 42.7368C174.416 42.8338 174.632 42.9766 174.814 43.1572C174.997 43.3377 175.142 43.5523 175.241 43.7888Z" fill="#92B5F9"/>
<path d="M175.519 28.6049L174.104 44.6255C174.075 44.8084 173.977 44.9734 173.83 45.0873C173.684 45.2012 173.499 45.2556 173.314 45.2395C173.129 45.2234 172.957 45.1381 172.832 45.0006C172.708 44.8632 172.64 44.6838 172.642 44.4986C172.642 44.4375 172.539 45.1426 175.519 28.6049Z" fill="#92B5F9"/>
<path d="M187.572 52.4901L173.157 45.2742C173.07 45.231 172.993 45.1713 172.93 45.0984C172.867 45.0255 172.818 44.9409 172.788 44.8495C172.758 44.758 172.746 44.6615 172.753 44.5654C172.76 44.4693 172.785 44.3755 172.829 44.2894C172.872 44.2033 172.932 44.1265 173.005 44.0635C173.078 44.0005 173.163 43.9524 173.255 43.9221C173.347 43.8917 173.443 43.8797 173.54 43.8867C173.636 43.8937 173.73 43.9195 173.817 43.9627C173.873 43.9721 173.26 43.6007 187.572 52.4901Z" fill="#92B5F9"/>
<path d="M174.175 44.2353C174.237 44.3811 174.253 44.5419 174.223 44.6972C174.193 44.8525 174.117 44.9954 174.006 45.1078C173.894 45.2202 173.751 45.297 173.596 45.3285C173.44 45.36 173.279 45.3448 173.132 45.2848C172.985 45.2248 172.86 45.1227 172.771 44.9915C172.683 44.8602 172.635 44.7057 172.635 44.5475C172.634 44.3893 172.681 44.2345 172.769 44.1028C172.857 43.9711 172.982 43.8683 173.128 43.8076C173.324 43.7263 173.544 43.7258 173.74 43.8059C173.936 43.8861 174.093 44.0405 174.175 44.2353V44.2353Z" fill="#92B5F9"/>
<path d="M371.767 159.67C371.671 159.561 371.546 159.481 371.407 159.44C371.268 159.398 371.12 159.397 370.979 159.435C369.565 159.816 367.019 159.247 365.755 158.81L364.383 152.027C365.373 151.133 367.504 149.625 368.952 149.432C369.096 149.411 369.232 149.351 369.345 149.258C369.457 149.165 369.541 149.043 369.588 148.905L371.328 143.734C371.374 143.596 371.381 143.447 371.347 143.305C371.312 143.163 371.239 143.033 371.135 142.93C370.102 141.906 369.32 139.419 369.07 138.112L374.257 133.533C375.525 133.942 377.902 135.028 378.793 136.18C378.883 136.296 379.003 136.384 379.141 136.435C379.278 136.485 379.427 136.496 379.571 136.467L384.914 135.39C385.057 135.362 385.19 135.295 385.297 135.195C385.404 135.095 385.48 134.967 385.517 134.826C385.89 133.416 387.658 131.503 388.672 130.633L395.25 132.838C395.528 134.14 395.773 136.735 395.222 138.079C395.165 138.214 395.148 138.362 395.173 138.505C395.197 138.649 395.261 138.783 395.358 138.892L398.966 142.968C399.062 143.078 399.187 143.158 399.327 143.201C399.468 143.243 399.617 143.246 399.758 143.208C401.173 142.827 403.719 143.396 404.978 143.833L406.35 150.616C405.36 151.505 403.229 153.014 401.781 153.211C401.636 153.232 401.5 153.292 401.388 153.385C401.275 153.477 401.191 153.6 401.144 153.738L399.409 158.909C399.362 159.046 399.354 159.194 399.388 159.335C399.421 159.477 399.494 159.606 399.598 159.708C400.63 160.737 401.418 163.224 401.663 164.531L396.476 169.105C395.203 168.696 392.826 167.61 391.935 166.463C391.846 166.348 391.726 166.26 391.59 166.208C391.453 166.157 391.305 166.144 391.162 166.172L385.814 167.248C385.671 167.278 385.539 167.346 385.433 167.445C385.326 167.545 385.249 167.672 385.211 167.812C384.838 169.223 383.07 171.14 382.056 172.01L375.483 169.805C375.2 168.503 374.955 165.908 375.511 164.559C375.566 164.425 375.582 164.278 375.558 164.136C375.534 163.993 375.47 163.86 375.374 163.751L371.767 159.67ZM386.729 158.006C388.054 157.74 389.27 157.087 390.222 156.132C391.175 155.176 391.823 153.961 392.082 152.638C392.342 151.316 392.203 149.947 391.682 148.704C391.161 147.46 390.281 146.399 389.155 145.654C388.029 144.909 386.707 144.514 385.355 144.518C384.004 144.522 382.684 144.926 381.563 145.678C380.441 146.43 379.569 147.497 379.056 148.743C378.543 149.989 378.412 151.36 378.68 152.68C379.042 154.447 380.093 155.998 381.601 156.994C383.109 157.989 384.951 158.348 386.724 157.992L386.729 158.006ZM387.597 162.293C389.773 161.858 391.77 160.789 393.337 159.221C394.903 157.654 395.968 155.658 396.396 153.487C396.825 151.317 396.597 149.068 395.743 147.026C394.889 144.983 393.447 143.24 391.599 142.015C389.75 140.79 387.579 140.14 385.36 140.145C383.14 140.151 380.972 140.813 379.131 142.047C377.289 143.282 375.855 145.033 375.012 147.08C374.169 149.126 373.954 151.376 374.393 153.545C374.986 156.447 376.708 158.996 379.184 160.634C381.659 162.271 384.684 162.863 387.597 162.279V162.293Z" fill="#FF9B94"/>
<path d="M415.961 183.932C415.99 183.821 416.049 183.72 416.133 183.641C416.216 183.563 416.32 183.508 416.432 183.485L420.676 182.634C420.789 182.611 420.906 182.62 421.015 182.66C421.123 182.7 421.218 182.769 421.289 182.86C421.996 183.772 423.878 184.632 424.887 184.956L429.008 181.332C428.81 180.298 428.188 178.328 427.367 177.515C427.286 177.433 427.229 177.331 427.203 177.218C427.177 177.106 427.184 176.989 427.221 176.88L428.598 172.8C428.634 172.691 428.7 172.595 428.788 172.522C428.877 172.448 428.984 172.402 429.098 172.386C430.244 172.231 431.927 171.037 432.719 170.327L431.63 164.959C430.63 164.611 428.612 164.164 427.495 164.465C427.383 164.495 427.265 164.492 427.154 164.459C427.044 164.426 426.944 164.363 426.867 164.277L424.01 161.048C423.934 160.96 423.884 160.854 423.865 160.741C423.846 160.627 423.859 160.511 423.901 160.404C424.345 159.337 424.147 157.282 423.901 156.253L418.714 154.509C417.913 155.195 416.512 156.713 416.215 157.828C416.186 157.938 416.126 158.039 416.043 158.118C415.96 158.197 415.856 158.251 415.744 158.274L411.5 159.13C411.386 159.152 411.268 159.143 411.16 159.102C411.052 159.061 410.957 158.991 410.887 158.899C410.179 157.987 408.298 157.127 407.294 156.807L403.172 160.427C403.37 161.466 403.988 163.436 404.809 164.244C404.891 164.325 404.948 164.428 404.975 164.54C405.002 164.652 404.996 164.77 404.959 164.879L403.582 168.964C403.545 169.073 403.478 169.169 403.389 169.242C403.3 169.315 403.192 169.362 403.078 169.378C401.932 169.533 400.249 170.727 399.461 171.432L400.55 176.8C401.545 177.148 403.568 177.599 404.681 177.299C404.793 177.268 404.911 177.269 405.022 177.302C405.133 177.335 405.232 177.399 405.308 177.487L408.166 180.716C408.243 180.803 408.294 180.909 408.313 181.023C408.332 181.137 408.319 181.254 408.274 181.36C407.836 182.423 408.029 184.477 408.251 185.511L413.461 187.255C414.249 186.569 415.649 185.055 415.961 183.932ZM417.418 177.458C416.113 177.724 414.758 177.597 413.525 177.095C412.292 176.593 411.236 175.737 410.491 174.637C409.746 173.536 409.345 172.24 409.339 170.912C409.332 169.584 409.721 168.285 410.456 167.177C411.191 166.07 412.239 165.205 413.467 164.691C414.695 164.177 416.049 164.038 417.356 164.291C418.664 164.544 419.866 165.178 420.812 166.113C421.758 167.048 422.405 168.241 422.671 169.542C422.847 170.407 422.85 171.298 422.681 172.163C422.511 173.029 422.172 173.854 421.683 174.589C421.194 175.324 420.564 175.956 419.83 176.448C419.096 176.941 418.271 177.284 417.404 177.458H417.418Z" fill="#FF9B94"/>
<path d="M118.226 98.5917L113.511 96.8242L109.385 99.687C109.279 99.7595 109.155 99.8011 109.026 99.8073C108.898 99.8134 108.77 99.7839 108.658 99.722C108.545 99.66 108.452 99.5681 108.389 99.4565C108.326 99.3449 108.295 99.218 108.3 99.09L108.531 94.0836L104.537 91.0374C104.434 90.9605 104.354 90.856 104.307 90.7361C104.26 90.6161 104.248 90.4854 104.272 90.3589C104.296 90.2324 104.355 90.1152 104.443 90.0207C104.531 89.9262 104.644 89.8582 104.768 89.8245L109.62 88.4989L111.271 83.7651C111.313 83.6429 111.388 83.5349 111.488 83.4535C111.589 83.3721 111.71 83.3206 111.839 83.3048C111.967 83.2891 112.098 83.3099 112.215 83.3647C112.332 83.4195 112.432 83.5061 112.502 83.6147L115.265 87.7985L120.292 87.9019C120.42 87.9049 120.546 87.9435 120.654 88.0136C120.762 88.0837 120.848 88.1823 120.903 88.2985C120.957 88.4147 120.979 88.5438 120.964 88.6713C120.949 88.7989 120.899 88.9199 120.82 89.0207L117.679 92.9365L119.132 97.7361C119.173 97.86 119.178 97.9931 119.146 98.1197C119.114 98.2464 119.047 98.3614 118.952 98.4512C118.857 98.541 118.738 98.6019 118.61 98.6268C118.481 98.6517 118.348 98.6395 118.226 98.5917V98.5917Z" fill="#CADAFF"/>
<path d="M125.422 68.6329L122.866 61.7885L116.321 63.7393L113.506 57.1064L107.022 58.2017L104.099 53.5807L101.75 55.0568L105.659 61.2338L111.804 60.1996L114.737 67.0958L121.169 65.1778L123.489 71.383L125.422 68.6329Z" fill="#CADAFF"/>
<path d="M400.347 100.148L393.92 96.6408L390.256 102.381L383.773 99.2028L379.585 104.256L374.346 102.672L373.54 105.314L380.552 107.439L384.513 102.649L391.261 105.953L394.868 100.308L400.692 103.485L400.347 100.148Z" fill="#CADAFF"/>
<path d="M230.968 13.8864L228.219 20.6557L234.363 23.6219L231.949 30.41L237.475 33.9639L236.504 39.3417L239.23 39.8306L240.531 32.643L235.297 29.2724L237.806 22.2117L231.765 19.2971L234.255 13.1578L230.968 13.8864Z" fill="#CADAFF"/>
<path d="M392.991 188.43L391.638 185.774L388.597 185.878L387.295 182.799L384.084 183.903L382.457 180.481L379.378 181.139L377.27 178.102L378.425 177.308L380 179.574L383.249 178.883L384.815 182.173L388.073 181.05L389.511 184.449L392.487 184.35L393.736 186.809L395.674 186.334L396.009 187.692L392.991 188.43Z" fill="#FF9B94"/>
<path d="M336.745 65.5021L335.321 61.2854L341.876 58.2581L340.56 51.8367L345.092 48.767L343.536 46.4777L337.472 50.5815L338.721 56.6692L331.903 59.8188L334.039 66.165L336.745 65.5021Z" fill="#FF9B94"/>
<path d="M389.252 55.7807C396.481 66.7949 386.649 82.0728 373.781 79.8022C371.42 79.4273 369.004 79.9291 366.99 81.2125L359.875 85.5843C358.964 86.1703 357.858 86.3731 356.797 86.1485C355.737 85.9239 354.809 85.2901 354.216 84.3856L351.481 80.2159C350.888 79.2695 350.657 78.1417 350.83 77.0391C351.003 75.9365 351.569 74.9331 352.424 74.2129C358.861 68.7176 361.596 67.1616 362.463 62.5547C364.977 49.0491 382.009 44.7665 389.252 55.7807Z" fill="#BED1F9"/>
<path d="M372.281 61.8355C372.123 61.1972 372.011 60.5483 371.946 59.894C371.616 56.044 374.601 54.723 376.19 55.7055C377.199 56.3448 377.605 57.8162 377.025 59.2124C376.506 60.4675 375.379 61.3748 374.238 62.3714C374.838 64.4784 375.807 66.4629 377.1 68.2334C380.618 66.118 383.131 67.2932 383.296 69.1735C383.326 69.8067 383.162 70.434 382.825 70.9715C382.488 71.509 381.994 71.9314 381.41 72.1821C380.698 72.4924 378.854 72.9155 376.695 70.5133C370.758 74.6877 363.02 80.8553 362.982 80.8788L361.997 79.5155C361.997 79.5155 369.73 73.3667 375.672 69.1735C374.443 67.4719 373.488 65.5892 372.842 63.5936C366.071 69.4838 360.11 74.1424 359.894 74.3116L358.917 72.9437C359.285 72.6287 365.066 68.1394 372.281 61.8355ZM375.134 57.1346C374.611 56.9371 373.219 57.5107 373.781 60.5145C375.346 59.1513 375.822 58.5542 375.134 57.144V57.1346ZM378.166 69.5449C379.029 70.4381 380.34 71.2513 381.217 70.283C382.344 69.0466 380.731 68.1158 378.166 69.5543V69.5449Z" fill="white"/>
<path d="M367.174 81.0856L366.99 81.189L359.875 85.5608C358.964 86.1468 357.858 86.3496 356.797 86.125C355.737 85.9004 354.809 85.2666 354.216 84.3621L351.481 80.1924C350.888 79.246 350.657 78.1182 350.83 77.0156C351.003 75.913 351.569 74.9096 352.424 74.1894C355.286 71.7449 357.418 70.0808 358.974 68.5812L367.174 81.0856Z" fill="#92B5F9"/>
<path d="M47.7064 287.779C47.7064 287.779 47.4753 286.651 47.4282 286.27C47.381 285.889 47.3103 284.474 47.3103 284.474C47.3103 284.474 47.3103 279.773 47.6592 279.773C48.0082 279.773 48.4608 280.61 48.5599 280.897C48.6589 281.183 48.8145 281.522 48.9135 281.809C48.9697 281.959 49.0831 282.08 49.2288 282.147C49.3745 282.214 49.5408 282.221 49.6916 282.166C50.0641 282.063 49.9085 280.817 49.767 280.394C49.3285 279.082 47.4565 275.815 47.2726 275.458C47.0886 275.101 48.5646 266.865 48.8569 264.021C49.4747 259.385 50.347 254.647 50.413 254.149L58.6981 235.89L53.1669 230.249C53.1669 230.249 43.6888 250.379 43.3304 251.441C43.156 251.944 42.5571 262.803 42.5618 262.803C42.6042 268.171 42.6561 272.901 42.642 273.808C42.642 273.808 41.8592 276.511 41.2603 278.208C40.6615 279.905 40.7888 281.696 40.6992 282.199C40.4273 283.488 40.3779 284.814 40.553 286.119C40.8029 287.967 41.4206 286.091 41.4206 286.091C41.4206 286.091 41.581 282.584 41.8545 282.641C42.128 282.697 41.8545 284.596 42.1233 286.641C42.1893 287.168 42.2553 287.685 42.3213 288.16C42.4911 289.41 43.3116 289.654 43.3446 288.315C43.3681 287.709 43.346 287.103 43.2785 286.5C43.2415 285.931 43.2526 285.361 43.3116 284.794C43.2917 284.207 43.3091 283.62 43.3634 283.036C43.42 283.064 43.5662 282.862 43.6511 283.416C43.7595 284.084 43.6511 285.555 43.8916 286.524C44.0236 287.074 44.2264 288.24 44.2264 288.24C44.2264 288.24 44.7639 290.096 44.8771 290.092C45.4901 290.063 45.4901 288.625 45.2119 287.901C45.215 287.305 45.1533 286.711 45.028 286.129C45.028 286.129 45.0893 283.543 45.4571 283.539C45.8249 283.534 46.8246 289.748 47.4423 289.678C47.9421 289.664 47.7064 287.779 47.7064 287.779Z" fill="#FB9390"/>
<path d="M55.3312 246.496C53.5499 246.194 51.7916 245.77 50.0688 245.226C47.6356 244.324 46.037 243.534 46.037 243.534C46.037 243.534 48.706 232.139 52.0351 225.224C53.412 222.366 54.8078 220.993 56.7506 220.655C56.7506 220.655 60.8436 223.334 60.6786 229.793C60.6408 231.307 55.3312 246.496 55.3312 246.496Z" fill="#E8605D"/>
<path d="M65.9033 284.78L70.3594 325.649C70.3594 325.649 68.1809 334.294 68.445 336.748C68.709 339.202 73.2877 371.417 73.2877 371.417L73.0944 373.227V378.562H90.0984C87.1071 377.106 84.215 375.456 81.4408 373.622C81.0328 373.321 80.6933 372.938 80.4446 372.497C80.1959 372.056 80.0437 371.568 79.9978 371.064C78.6492 361.136 81.3182 328.018 81.3182 328.018L83.4166 284.911L65.9033 284.78Z" fill="#FB9390"/>
<path d="M52.2379 293.373C51.2948 293.627 49.8 328.766 49.0031 330.327C43.9623 340.198 42.7645 370.223 42.7645 370.223L41.298 374.501L39.7278 379.747C39.7278 379.747 44.7639 381.12 47.4045 379.625L47.1122 374.454L46.8434 369.753L59.5751 332.348L66.5446 294.167L52.2379 293.373Z" fill="#FB9390"/>
<path d="M77.5363 225.299C75.504 222.418 67.0161 214.083 66.0731 214.097C63.3334 214.149 54.3316 214.154 52.5727 215.07V217.031C52.6143 225.81 53.7516 234.55 55.9584 243.05C57.5051 248.973 58.9669 255.3 58.7877 257.571L58.8301 257.613C64.0171 262.784 72.2503 262.366 77.0129 256.715C77.0236 252.692 77.2614 248.673 77.725 244.676C78.885 235.679 82.6338 232.449 77.5363 225.299Z" fill="#FF9B94"/>
<path d="M63.3192 205.161C63.3192 205.161 63.555 211.018 63.0458 213.237C62.5365 215.456 61.848 215.63 66.2476 216.302C67.9781 216.57 69.6427 216.965 69.6427 216.965C69.6427 216.965 69.1711 213.702 69.124 212.33C69.0108 210.059 69.6333 203.059 69.6333 203.059L63.3192 205.161Z" fill="#FB9390"/>
<path d="M66.672 208.089C67.4523 208.549 68.3079 208.867 69.1995 209.03C69.3503 206.265 69.6333 203.092 69.6333 203.092L63.6116 205.1C64.3379 206.357 65.3965 207.391 66.672 208.089Z" fill="#EF7F7F"/>
<path d="M64.715 188.759C63.0202 189.473 61.637 190.766 60.8153 192.407C59.4007 195.167 58.9056 202.928 64.3802 205.96C67.0869 207.464 70.2086 207.746 71.6798 206.43C73.151 205.114 72.9954 202.086 72.8492 199.595C72.5474 194.659 71.4629 187.194 64.715 188.759Z" fill="#FB9390"/>
<path d="M60.6833 198.5C60.9945 199.797 60.5795 201.048 59.7402 201.292C58.9008 201.536 58.0001 200.69 57.6889 199.412C57.3777 198.133 57.7927 196.864 58.632 196.619C59.4714 196.375 60.372 197.207 60.6833 198.5Z" fill="#F7A491"/>
<path d="M47.1122 374.43C44.7875 375.493 42.3025 374.835 41.2981 374.496L39.6665 379.761C39.6665 379.761 44.7356 381.256 47.3763 379.761L47.1122 374.43Z" fill="#FA7167"/>
<path d="M72.9152 379.883H90.5934C91.2442 379.827 91.4045 379.277 91.1781 378.943C90.7066 378.247 88.6507 377.735 86.3307 376.63C82.2659 377.067 73.7309 374.186 73.0896 373.217C72.7218 375.154 72.5521 379.803 72.9152 379.883Z" fill="#FA7167"/>
<path d="M108.423 238.612C108.762 238.142 109.908 235.815 109.908 235.815C109.908 235.815 111.096 231.838 110.851 231.89C110.705 231.923 110.214 232.487 109.634 233.69C109.281 234.424 108.894 235.712 108.526 236.346C107.88 237.465 107.164 237.931 107.343 237.498C107.47 237.183 107.913 236.925 108.286 236.257C109.229 234.631 110.064 231.97 109.701 232.026C109.337 232.083 108.47 233.907 107.456 235.317C107.017 235.937 105.763 236.727 104.976 237.197C104.991 236.902 105.045 236.609 105.136 236.328C105.235 236.013 106.64 234.156 106.079 233.926C105.518 233.695 102.184 237.71 102.184 237.71L100.812 240.06L100.694 240.149C100.694 240.149 84.0201 246.665 83.459 246.491C82.1481 246.077 77.6684 233.131 77.6684 233.131L68.3412 234.805C68.2044 234.734 78.1446 254.078 80.0025 255.018C81.6293 255.855 98.9587 246.853 102.212 244.926C106.697 243.205 108.451 241.165 109.177 240.112C109.568 239.548 111.063 237.103 111.063 237.103C111.063 237.103 111.389 233.714 111.143 233.681C110.318 233.582 110.092 236.779 110.092 236.779C110.092 236.779 108.979 238.288 108.786 238.485C108.338 238.988 108.423 238.612 108.423 238.612Z" fill="#FB9390"/>
<path d="M62.3432 221.858C61.07 227.236 67.8602 239.252 67.8602 239.252C67.8602 239.252 77.5316 234.551 79.2339 232.548C79.2339 232.548 72.5615 221.572 72.1607 220.852C71.2695 219.306 68.1337 216.104 66.0306 216.692C64.6584 217.045 62.3432 221.858 62.3432 221.858Z" fill="#FF7D73"/>
<path d="M63.8804 208.592C64.6018 203.656 72.8162 193.601 69.6427 189.403C67.0775 186 62.6025 187.02 59.7402 187.993C46.8151 192.426 47.5555 208.625 43.4766 211.154C36.078 215.747 31.5276 218.61 30.9948 228.957C30.3629 241.231 40.8171 247.497 53.3885 244.493C60.1505 242.881 61.9423 240.676 64.6537 234.311C65.875 231.439 68.3412 222.493 67.6669 218.121C67.0728 214.201 63.3004 212.569 63.8804 208.592Z" fill="#0B0754"/>
<path d="M68.7939 199.548C68.7939 201.01 68.2611 202.195 67.6056 202.195C66.9502 202.195 66.4173 201.01 66.4173 199.548C66.4173 198.086 66.9502 196.901 67.6056 196.901C68.2611 196.901 68.7939 198.086 68.7939 199.548Z" fill="#FB9390"/>
<path d="M85.0009 311.363L85.6045 287.116C85.7149 280.281 84.358 273.501 81.6246 267.231L77.027 256.715C75.2221 257.354 73.3559 257.807 71.4581 258.065C67.2142 258.535 63.0268 258.065 58.8018 257.594C58.7913 257.738 58.7708 257.881 58.7405 258.022C57.9766 261.595 53.7044 269.554 51.9031 280.436C49.8613 292.785 49.0738 311.26 49.352 312.712C68.9023 313.573 73.5423 314.273 85.0009 311.363Z" fill="#CADAFF"/>
<path d="M328.342 189.977L343.055 204.644C343.055 204.644 371.074 215.564 374.205 222.277C377.336 228.99 371.376 228.675 364.812 227.739C358.248 226.804 339.612 215.254 339.612 215.254L322.552 195.59L328.342 189.977Z" fill="#091638"/>
<path d="M371.409 219.334L367.768 218.046L360.723 221.336C360.723 221.336 357.088 223.795 355.324 229.883C353.561 235.97 355.324 272.365 358.262 278.217C361.2 284.07 371.409 219.334 371.409 219.334Z" fill="#CADAFF"/>
<path d="M394.514 365.296C394.514 365.296 397.103 366.956 397.315 367.722C397.528 368.488 399.423 376.757 398.73 377.716C398.037 378.675 395.429 378.186 396.429 378.906C397.193 379.437 402.087 379.846 405.251 378.99C406.195 378.746 405.751 370.999 405.888 369.838C406.081 368.126 407.27 364.243 406.548 363.233C406.199 362.763 404.191 361.87 402.366 361.164C400.456 360.426 398.334 358.344 398.334 358.344L394.514 365.296Z" fill="#FB9390"/>
<path d="M402.186 361.103C402.186 361.103 400.659 375.775 398.886 376.856C398.414 377.143 395.896 377.359 395.665 378.558C395.665 378.586 395.604 379.785 396.368 379.813L405.907 379.785C405.907 379.785 406.006 372.573 405.945 369.743C405.945 369.743 407.265 362.532 406.836 361.992C406.407 361.451 402.186 361.103 402.186 361.103Z" fill="#0B0754"/>
<path d="M431.847 365.296C431.847 365.296 434.435 366.956 434.648 367.722C434.86 368.488 436.755 376.757 436.062 377.716C435.369 378.675 432.762 378.186 433.766 378.906C434.525 379.437 439.424 379.846 442.588 378.99C443.532 378.746 443.088 370.999 443.22 369.838C443.418 368.126 444.607 364.243 443.885 363.233C443.536 362.763 441.527 361.87 439.698 361.164C437.812 360.426 435.671 358.344 435.671 358.344L431.847 365.296Z" fill="#FB9390"/>
<path d="M384.994 269.944C384.994 269.944 393.713 287.205 395.505 291.845L408.793 325.461L438.123 359.839C438.123 359.839 435.978 365.362 432.729 366.843C432.729 366.843 397.363 338.393 394.481 333.913C390.049 327.083 369.871 285.236 369.871 285.236L366.099 277.183L384.994 269.944Z" fill="#FF9B94"/>
<path d="M363.911 269.76L364.053 284.484C364.053 284.484 357.743 332.574 358.965 335.432C361.945 342.398 394.741 366.039 394.741 366.039L399.202 358.391L375.624 332.179L384.546 306.662C387.045 300.739 392.355 289.269 392.218 282.857C392.105 277.352 381.151 264.58 381.151 264.58L363.911 269.76Z" fill="#FF9B94"/>
<path d="M377.294 291.516C385.979 289.551 393.01 286.491 393.732 284.075C394.057 282.984 389.209 271.998 385.649 257.331C384.485 252.541 384.706 248.042 382.82 231.27C382.424 227.711 380.934 220.255 375.421 218.333C374.459 217.951 373.434 217.751 372.399 217.745C372.352 217.745 365.363 217.797 362.171 219.569C361.379 220.636 358.441 226.475 357.658 242.387C357.319 249.34 355.923 271.65 356.211 275.293C356.253 275.834 356.31 276.351 356.371 276.854C357.639 286.467 367.797 293.669 377.294 291.516Z" fill="#091638"/>
<path d="M361.945 230.447C365.486 230.057 374.394 218.427 374.394 218.427V218.394L368.895 209.716C368.895 209.716 360.804 211.187 362.388 213.641C363.973 216.095 364.859 221.995 364.859 221.995L364.746 222.239C364.194 223.443 362.383 227.011 361.945 230.447Z" fill="#FB9390"/>
<path d="M362.393 213.641C360.808 211.187 368.905 209.716 368.905 209.716L369.376 210.44C369.399 210.997 369.322 211.554 369.15 212.085C368.197 214.557 366.345 216.581 363.963 217.754C363.636 216.317 363.107 214.932 362.393 213.641V213.641Z" fill="#EF7F7F"/>
<path d="M364.331 195.999C364.505 195.83 370.645 205.899 369.174 210.04C367.702 214.182 362.737 217.491 359.795 216.015C356.536 214.379 351.609 202.853 354.579 197.936C357.55 193.018 364.331 195.999 364.331 195.999Z" fill="#FB9390"/>
<path d="M355.442 191.481C359.054 190.706 365.51 191.768 369.145 194.302C373.611 197.437 373.757 202.998 371.748 206.632C369.739 210.266 370.947 212.945 370.947 212.945C370.947 212.945 364.666 212.555 363.402 208.292C362.869 206.505 363.534 205.292 362.327 204.286C361.384 203.506 360.615 201.25 359.695 199.435C359.695 199.435 355.645 197.287 354.103 199.054C353.565 199.67 350.807 192.473 355.442 191.481Z" fill="#0B0754"/>
<path d="M361.685 205.081C362.232 206.397 363.303 207.206 364.043 206.886C364.783 206.566 364.986 205.245 364.439 203.929C363.892 202.613 362.822 201.804 362.053 202.124C361.285 202.444 361.134 203.765 361.685 205.081Z" fill="#FB9390"/>
<path d="M439.561 361.117C439.561 361.117 437.991 375.775 436.204 376.856C435.732 377.143 433.214 377.359 432.983 378.558C432.983 378.586 432.903 379.822 433.686 379.803H443.216C443.216 379.803 443.324 372.592 443.263 369.762C443.263 369.762 444.583 362.551 444.149 362.011C443.716 361.47 439.561 361.117 439.561 361.117Z" fill="#0B0754"/>
<path d="M228.86 293.396C221.287 277.601 219.208 254.031 227.446 235.34C241.361 203.783 279.646 190.908 276.826 155.143C276.119 146.136 272.11 138.892 266.174 134.234C250.613 121.964 225.522 128.456 207.627 137.021C196.196 142.5 185.582 150.262 175.783 160.31L170.818 97.1485C192.301 81.9552 218.293 74.0107 244.233 71.9753C297.395 67.815 338.448 87.6903 342.626 140.702C346.436 189.051 313.663 210.468 291.699 234.635C279.495 248.052 276.736 258.389 277.679 270.362C278.151 276.553 280.509 284.192 284.239 289.062L228.86 293.396ZM267.056 379.766C215.379 383.813 209.395 314.607 261.595 310.517C312.989 306.488 318.506 375.732 267.032 379.766H267.056Z" fill="#FF9B94"/>
<path d="M320.463 193.169C320.369 192.732 320.722 193.075 320.067 189.662C319.845 188.72 319.413 187.839 318.803 187.086C318.459 186.695 318.064 186.352 317.629 186.066C317.537 185.992 317.425 185.948 317.307 185.94C317.189 185.931 317.072 185.958 316.97 186.017C316.868 186.076 316.786 186.164 316.736 186.27C316.685 186.376 316.667 186.495 316.686 186.611C316.804 186.935 317.412 188.054 317.53 188.379C317.648 188.703 317.704 189.502 317.431 189.765C317.157 190.029 312.885 185.135 312.616 184.707C312.332 184.071 312.088 183.418 311.885 182.752C311.885 182.752 311.513 181.595 311.056 181.891C310.758 182.084 310.428 183.034 311.287 184.914C312.036 186.559 313.074 187.866 312.956 187.965C312.649 188.219 310.791 186 310.791 186C310.486 185.406 310.121 184.843 309.702 184.322C309.424 183.504 308.919 182.479 308.396 182.879C308.297 182.954 308.646 184.707 308.646 184.707C308.646 184.707 309.297 185.864 309.589 186.432C310.061 187.438 311.188 188.656 311.569 189.314C311.885 189.859 311.569 189.732 311.569 189.784C311.125 189.334 310.712 188.853 310.334 188.346C309.884 187.892 309.474 187.402 309.108 186.879C308.742 186.307 308.335 185.762 307.891 185.248C306.948 184.101 306.42 184.881 307.151 186.089C307.429 186.559 307.741 187.029 308.052 187.551C309.273 189.512 310.777 191.044 310.631 191.227C310.485 191.411 307.854 188.515 307.854 188.515C307.854 188.515 306.029 187.302 307.113 189.084C307.866 190.335 308.767 191.492 309.796 192.53C310.226 192.906 311.371 194.659 313.055 195.726C314.738 196.793 317.459 198.401 317.459 198.401C317.775 198.777 318.572 200.004 319.675 201.734L323.754 196.845C322.297 195.355 320.534 193.47 320.463 193.169Z" fill="#FB9390"/>
<path d="M317.252 200.06L322.887 195.148L342.22 214.182C342.22 214.182 372.177 216.8 372.257 216.824L373.455 217.2C384.301 220.96 379.849 229.779 377.756 231.147C372.88 234.334 345.794 232.426 337.113 227.058C329.983 222.662 317.252 200.06 317.252 200.06Z" fill="#7C9AF2"/>
<path d="M115.585 227.363C115.721 227.916 115.929 228.448 116.203 228.947C117.971 232.379 122.079 237.268 122.079 237.268L125.257 229.652C125.257 229.652 124.738 227.26 123.842 223.842C120.772 224.688 117.854 225.182 115.585 227.363Z" fill="#FB9390"/>
<path d="M133.806 220.754C133.806 220.754 116.085 228.872 115.515 228.717C115.147 228.618 108.244 216.33 108.173 204.775C108.14 199.44 113.36 193.023 119.16 194.288C122.083 194.927 122.041 195.792 126.37 202.486C130.699 209.18 133.806 220.754 133.806 220.754Z" fill="#091638"/>
<path d="M148.933 366.317C148.933 366.317 148.513 373.72 148.509 373.735C148.358 374.675 147.75 376.997 147.75 377.853C147.75 381.063 162.075 375.126 158.864 373.702C158.576 373.575 157.053 372.602 156.978 371.506C156.827 369.823 156.454 366.42 156.454 366.42L148.933 366.317Z" fill="#FB9390"/>
<path d="M158.831 373.673C157.157 374.168 155.459 374.578 153.743 374.9C152.022 375.145 149.749 373.081 148.528 373.636C147.188 374.252 147.24 379.785 147.24 379.785C147.24 379.785 165.282 381.359 170.346 379.728C172.364 379.084 165.706 375.963 158.831 373.673Z" fill="#0B0754"/>
<path d="M119.622 366.317C119.622 366.317 119.202 373.72 119.197 373.735C119.047 374.675 118.434 376.997 118.434 377.853C118.434 381.063 132.764 375.126 129.553 373.702C129.265 373.575 127.289 371.873 127.195 370.782C127.044 369.099 127.124 366.42 127.124 366.42L119.622 366.317Z" fill="#FB9390"/>
<path d="M129.52 373.673C127.845 374.168 126.147 374.578 124.432 374.9C122.706 375.145 120.438 373.081 119.216 373.636C117.877 374.252 117.802 379.785 117.802 379.785C117.802 379.785 135.928 381.618 141.025 379.728C143.02 378.995 136.395 375.963 129.52 373.673Z" fill="#0B0754"/>
<path d="M124.003 231.462L136.621 212.659C136.673 212.494 136.791 212.156 136.965 211.639C137.602 209.758 138.922 205.889 140.073 202.025V201.983C140.436 200.634 141.2 198.279 141.959 195.999C142.784 193.465 143.807 190.325 143.845 189.789C143.817 189.695 143.756 189.53 143.675 189.319C143.122 187.468 142.686 185.584 142.369 183.678C142.228 182.836 142.086 180.787 143.029 180.787C144.51 180.787 143.803 182.832 144.486 184.11C144.918 182.712 145.26 181.288 145.51 179.846L145.76 175.846C145.807 175.545 145.505 173.34 146.542 173.34H146.594C147.537 173.416 147.504 175.761 147.891 179.729C148.014 179.259 148.136 178.718 148.231 178.215C148.285 177.51 148.391 176.809 148.547 176.119C148.358 175.014 148.466 173.27 149.574 173.434C150.126 173.519 150.084 175.954 150.084 175.954C150.084 176.288 150.041 178.859 150.084 179.367C150.197 178.502 150.64 174.821 151.498 174.821C152.22 174.821 152.276 175.813 152.262 176.598C152.262 177.068 151.791 181.05 151.791 181.515C152.13 180.909 152.531 177.393 152.866 177.393C154.28 177.393 153.762 182.39 153.248 183.692C153.182 183.922 153.129 184.156 153.088 184.392C152.88 185.686 152.474 186.94 151.885 188.111C151.003 189.714 149.787 192.262 149.603 192.656C149.466 193.451 149.042 196.314 148.513 199.919C148.287 201.461 148.042 203.153 147.778 204.902C147.731 205.283 147.467 206.486 146.467 211.013C145.104 217.2 144.958 217.468 144.901 217.595C144.307 218.713 130.698 238.373 130.118 239.219L129.779 239.689L124.003 231.462Z" fill="#FB9390"/>
<path d="M147.476 187.594C147.476 187.594 146.448 184.806 144.647 184.801C144.965 184.695 145.304 184.671 145.634 184.731C145.964 184.791 146.273 184.933 146.533 185.144C147.391 185.882 147.476 187.594 147.476 187.594Z" fill="#EF7F7F"/>
<path d="M120.952 182.206L119.329 193.141C119.329 193.141 125.516 198.429 129.128 197.31C132.155 196.37 130.071 192.139 130.071 192.139C130.071 192.139 128.459 186.306 128.954 183.245C129.449 180.185 120.952 182.206 120.952 182.206Z" fill="#FB9390"/>
<path d="M122.116 185.525C124.331 186.577 126.694 187.286 129.124 187.626C128.865 186.193 128.809 184.731 128.958 183.283C129.19 181.873 127.501 181.539 125.615 181.586C123.149 181.811 120.952 182.22 120.952 182.22L120.64 184.322C121.053 184.811 121.553 185.22 122.116 185.525V185.525Z" fill="#EF7F7F"/>
<path d="M113.138 169.599C112.884 169.599 115.585 181.821 119.768 183.913C123.951 186.005 130.189 184.919 131.359 181.628C132.651 177.99 127.931 165.532 122.05 163.948C116.17 162.364 113.138 169.599 113.138 169.599Z" fill="#FB9390"/>
<path d="M117.981 158.378C115.572 159.885 113.69 162.099 112.591 164.714C111.021 165.504 109.125 167.22 108.215 171.831C107.093 177.505 111.077 181.877 115.288 183.194C119.499 184.51 120.221 187.476 120.221 187.476L120.636 184.279C120.636 184.279 119.693 181.497 118.278 180.105C116.863 178.714 118.948 176.678 119.131 175.023C119.268 173.745 118.386 171.263 118.58 169.175C118.58 169.175 120.937 165.415 123.234 164.475C127.195 162.867 122.267 155.75 117.981 158.378Z" fill="#0B0754"/>
<path d="M119.759 177.148C120.306 178.558 120.079 179.969 119.259 180.274C118.438 180.58 117.325 179.705 116.778 178.295C116.231 176.885 116.458 175.475 117.278 175.169C118.099 174.864 119.212 175.738 119.759 177.148Z" fill="#FB9390"/>
<path d="M135.334 231.763L159.68 227.532C159.68 227.532 156.907 220.114 155.907 220.114C154.908 220.114 137.517 228.205 137.517 228.205L136.131 231.161L135.334 231.763Z" fill="#FB9390"/>
<path d="M122.866 249.523C122.866 249.523 120.438 262.013 121.428 271.481C122.418 280.948 122.494 314.597 122.494 314.597L118.721 368.427L127.681 368.634C127.681 368.634 138.305 314.832 138.106 316.21C137.908 317.587 141.667 278.33 141.667 278.33L129.001 248.338L122.866 249.523Z" fill="#0B0754"/>
<path d="M125.243 248.931C125.243 248.931 123.658 260.175 125.639 265.111C127.619 270.047 142.614 318.443 142.812 322.387C143.011 326.331 147.999 369.95 147.999 369.95L158.421 369.64L160.675 321.146L155.959 260.194L151.376 244.785L125.243 248.931Z" fill="#0B0754"/>
<path d="M119.329 193.141C119.329 193.141 121.895 194.932 124.295 194.725C126.695 194.518 130.076 192.163 130.076 192.163L129.604 190.466C129.604 190.466 123.408 189.526 123.253 189.61C123.097 189.695 119.329 193.141 119.329 193.141Z" fill="#FB9390"/>
<path d="M146.707 219.757C146.707 219.757 155.917 229.004 160.071 227.424C164.225 225.845 165.947 220.448 155.804 212.555C146.736 205.49 146.707 219.757 146.707 219.757Z" fill="#FB9390"/>
<path d="M152.951 231.171C151.583 223.254 141.667 198.617 140.879 194.076C140.492 191.871 135.145 191.824 130.034 192.111C124.653 192.417 119.311 193.141 119.311 193.141C119.311 193.141 114.548 193.973 112.45 196.06C110.351 198.147 109.8 203.924 112.813 214.892C115.17 223.551 118.136 228.303 119.594 234.612C119.891 236.727 120.145 238.814 120.48 241.249C121.013 250.679 120.48 263.137 120.48 263.137C120.48 263.137 146.415 268.858 156.105 260.175C156.138 260.175 154.351 239.284 152.951 231.171Z" fill="#7C9AF2"/>
<path d="M159.562 214.149C159.562 214.149 149.386 223.081 148.792 223.081C148.41 223.081 134.277 212.019 131.014 202.928C129.208 197.907 132.995 192.285 137.314 192.304C140.309 192.304 141.643 193.136 147.58 198.462C153.517 203.788 159.562 214.149 159.562 214.149Z" fill="#091638"/>
<path d="M314.969 37.0101L292.91 51.8837C292.378 52.2431 291.78 52.4944 291.151 52.6233C290.521 52.7521 289.872 52.7559 289.241 52.6346C288.61 52.5132 288.009 52.269 287.473 51.9159C286.936 51.5628 286.475 51.1078 286.115 50.5768L271.196 28.5861C270.469 27.5144 270.199 26.1988 270.444 24.9285C270.69 23.6583 271.432 22.5373 272.507 21.8121L294.566 6.93378C295.641 6.20889 296.962 5.93936 298.237 6.1844C299.512 6.42944 300.637 7.16901 301.365 8.24063L316.29 30.2314C317.016 31.3049 317.285 32.6221 317.037 33.8932C316.79 35.1643 316.046 36.2854 314.969 37.0101V37.0101Z" fill="#FF9B94"/>
<path d="M303.883 21.4125C305.266 23.4508 306.012 25.8523 306.027 28.3132C306.041 30.7741 305.323 33.184 303.963 35.238C302.603 37.2921 300.663 38.8981 298.388 39.853C296.113 40.808 293.605 41.0689 291.181 40.6028C288.757 40.1368 286.526 38.9647 284.771 37.2347C283.015 35.5047 281.813 33.2946 281.317 30.8838C280.822 28.473 281.054 25.9698 281.985 23.6906C282.917 21.4115 284.505 19.4589 286.549 18.0796C289.292 16.231 292.658 15.5436 295.908 16.1686C299.159 16.7936 302.027 18.6798 303.883 21.4125V21.4125Z" fill="white"/>
<path d="M289.435 23.2741L294.551 28.8399C294.641 28.9368 294.71 29.0503 294.755 29.1739C294.8 29.2974 294.82 29.4287 294.815 29.5601C294.809 29.6915 294.777 29.8204 294.722 29.9397C294.666 30.0589 294.587 30.166 294.49 30.2549C294.393 30.3438 294.279 30.4127 294.155 30.4578C294.031 30.5028 293.899 30.5231 293.768 30.5174C293.636 30.5117 293.506 30.4802 293.387 30.4247C293.267 30.3692 293.16 30.2907 293.071 30.1938C293.014 30.1267 292.963 30.0543 292.92 29.9775L289.435 23.2741Z" fill="#FF9B94"/>
<path d="M293.33 28.8822L301.054 24.5715L294.301 30.2972C294.125 30.4315 293.903 30.4931 293.682 30.4694C293.461 30.4456 293.258 30.3384 293.114 30.1696C292.97 30.0009 292.897 29.7835 292.909 29.5624C292.921 29.3412 293.018 29.1331 293.179 28.981C293.226 28.9432 293.277 28.9101 293.33 28.8822V28.8822Z" fill="#FF9B94"/>
<path d="M92.9134 119.167H57.4815C46.8768 119.167 38.2801 127.738 38.2801 138.309V138.314C38.2801 148.886 46.8768 157.456 57.4815 157.456H92.9134C103.518 157.456 112.115 148.886 112.115 138.314V138.309C112.115 127.738 103.518 119.167 92.9134 119.167Z" fill="#CADAFF"/>
<path d="M103.349 143.001L121.536 151.129L109.361 134.14L103.349 143.001Z" fill="#BED1F9"/>
<path d="M62.8665 137.073C62.8665 138.634 61.4519 139.894 59.6788 139.894C57.9058 139.894 56.4959 138.629 56.4959 137.073C56.4959 135.517 57.9106 134.253 59.6788 134.253C61.4471 134.253 62.8665 135.517 62.8665 137.073Z" fill="white"/>
<path d="M77.6825 137.073C77.6825 138.634 76.2679 139.894 74.4996 139.894C72.7313 139.894 71.3167 138.629 71.3167 137.073C71.3167 135.517 72.7313 134.253 74.4996 134.253C76.2679 134.253 77.6825 135.517 77.6825 137.073Z" fill="white"/>
<path d="M92.5033 137.073C92.5033 138.634 91.0886 139.894 89.3203 139.894C87.552 139.894 86.1327 138.629 86.1327 137.073C86.1327 135.517 87.5473 134.253 89.3203 134.253C91.0934 134.253 92.5033 135.517 92.5033 137.073Z" fill="white"/>
<path d="M264.118 7.53552L261.119 1.16582L263.609 0L265.311 3.61028L269.46 1.10941L270.885 3.45515L264.118 7.53552Z" fill="#CADAFF"/>
<path d="M94.4884 99.1558L87.8396 101.52L86.9154 98.9348L90.6831 97.5951L88.5847 93.2374L91.065 92.048L94.4884 99.1558Z" fill="#FF9B94"/>
<path d="M369.942 34.9934C370.439 36.5604 370.932 38.1273 371.423 39.6943C371.81 40.9212 372.097 42.9144 373.309 43.6101C373.467 43.7009 373.655 43.7256 373.832 43.679C374.009 43.6323 374.16 43.518 374.252 43.361C374.846 42.0542 373.993 40.3806 373.583 39.102C373.08 37.535 372.577 35.9681 372.074 34.4011C371.645 33.0613 369.527 33.6302 369.952 34.984L369.942 34.9934Z" fill="#92B5F9"/>
<path d="M386.602 33.2964C384.051 41.9695 384.027 41.711 384.216 42.5947C384.261 42.7503 384.346 42.8915 384.462 43.0047C384.579 43.1179 384.722 43.1992 384.879 43.2408C385.036 43.2824 385.201 43.2829 385.359 43.2422C385.516 43.2015 385.66 43.121 385.777 43.0084C386.376 42.3926 386.248 42.5712 388.686 33.8699C389.068 32.5301 386.993 31.9895 386.602 33.2964Z" fill="#92B5F9"/>
<path d="M396.325 52.6029L400.833 50.4499C402.168 49.8106 403.889 49.3029 404.803 48.0995C405.204 47.5683 404.653 46.8679 404.087 46.8491C402.601 46.8067 401.022 47.9397 399.72 48.5696L395.226 50.7414C393.967 51.3525 395.071 53.214 396.325 52.6217V52.6029Z" fill="#92B5F9"/>
<path d="M391.407 78.6646C392.912 80.6883 394.524 82.631 396.236 84.4843C397.179 85.4574 398.542 84.0142 397.698 83.0223C396.08 81.0856 394.397 79.2005 392.855 77.2167C392.039 76.1778 390.605 77.6351 391.407 78.6646V78.6646Z" fill="#92B5F9"/>
<path d="M397.099 68.5436C398.513 69.15 399.895 69.7142 401.309 70.2689C402.602 70.7719 404.139 71.6791 405.53 71.4723C406.275 71.3689 406.36 70.3817 405.94 69.9257C405.421 69.3522 405.138 69.3945 402.069 68.2146C400.682 67.6834 399.305 67.124 397.914 66.6069C396.797 66.1885 395.99 68.0594 397.099 68.5436Z" fill="#92B5F9"/>
</svg>
