<svg width="704" height="434" viewBox="0 0 704 434" fill="none" xmlns="http://www.w3.org/2000/svg">
<circle cx="366" cy="214" r="214" fill="#FFE6E6"/>
<g clip-path="url(#clip0)">
<path d="M556.271 165.886L496.746 339.547C494.116 347.218 498.207 355.567 505.882 358.195L625.021 398.985C632.696 401.613 641.049 397.524 643.679 389.854L703.204 216.192C705.834 208.521 701.743 200.173 694.068 197.545L574.93 156.755C567.254 154.127 558.901 158.215 556.271 165.886Z" fill="#161C48"/>
<path d="M571.549 164.66L511.368 340.237L632.308 381.645L692.489 206.068L571.549 164.66Z" fill="#F6F5F5"/>
<path d="M692.48 206.063C669.039 274.557 642.957 357.871 628.999 373.52C593.973 365.218 553.923 352.684 511.927 338.536L587.302 170.641L692.48 206.063Z" fill="#E4E4E4"/>
<path d="M625.476 366.124C569.752 356.508 534.293 344.845 506.383 332.92C523.628 294.71 547.594 229.633 571.537 164.667L635.152 186.599L691.464 210.106C669.001 278.373 647.575 341.185 625.476 366.124Z" fill="white"/>
<path d="M593.757 190.396L590.208 200.005L653.314 223.285L656.862 213.676L593.757 190.396Z" fill="#4284B8"/>
<path d="M604.077 220.572L602.453 224.97L659.374 245.98L660.997 241.582L604.077 220.572Z" fill="#4284B8"/>
<path d="M600.53 230.169L598.906 234.561L637.598 248.824L639.221 244.431L600.53 230.169Z" fill="#D3DFFF"/>
<path d="M572.574 209.242L567.6 222.72L581.075 227.695L586.049 214.217L572.574 209.242Z" fill="white" stroke="#708CD5" stroke-width="6" stroke-miterlimit="10"/>
<path d="M573.595 213.548C573.462 215.301 571.933 222.283 575.947 221.562C576.872 221.397 577.92 220.494 578.727 220.018L583.079 217.534L591.787 212.565C592.53 212.143 590.686 209.808 589.756 210.342L582.015 214.756L578.161 216.962C577.263 217.496 574.953 219.324 573.937 219.206L575.322 220.243C575.589 220.67 575.637 218.298 575.643 218.234L575.883 214.996C575.953 214.104 573.702 212.234 573.606 213.553L573.595 213.548Z" fill="#EE6F57"/>
<path d="M595.031 245.064L593.408 249.46L640.282 266.752L641.906 262.357L595.031 245.064Z" fill="#4284B8"/>
<path d="M591.496 254.65L589.873 259.046L646.796 280.045L648.42 275.649L591.496 254.65Z" fill="#D3DFFF"/>
<path d="M563.534 233.724L558.56 247.202L572.035 252.177L577.009 238.699L563.534 233.724Z" fill="white" stroke="#708CD5" stroke-width="6" stroke-miterlimit="10"/>
<path d="M564.427 238.413C564.299 240.165 562.765 247.148 566.779 246.427C567.704 246.262 568.757 245.359 569.565 244.883L573.916 242.399L582.619 237.43C583.362 237.008 581.55 234.673 580.588 235.207L572.852 239.621L568.982 241.827C568.089 242.361 565.774 244.189 564.759 244.071L566.149 245.108C566.411 245.535 566.459 243.163 566.464 243.099C566.544 242.03 566.63 240.962 566.71 239.861C566.774 238.969 564.524 237.099 564.427 238.418V238.413Z" fill="#EE6F57"/>
<path d="M586.001 269.549L584.378 273.944L641.294 294.942L642.918 290.546L586.001 269.549Z" fill="#4284B8"/>
<path d="M582.449 279.127L580.826 283.523L606.281 292.914L607.905 288.518L582.449 279.127Z" fill="#D3DFFF"/>
<path d="M554.489 258.222L549.516 271.689L562.991 276.66L567.965 263.193L554.489 258.222Z" fill="white" stroke="#708CD5" stroke-width="6" stroke-miterlimit="10"/>
<path d="M555.495 263.139C555.361 264.886 553.832 271.875 557.847 271.153C558.772 270.988 559.819 270.085 560.627 269.604L564.983 267.12L573.686 262.156C574.429 261.734 572.585 259.399 571.655 259.934L563.893 264.342L560.028 266.548C559.13 267.082 556.821 268.904 555.805 268.787L557.195 269.823C557.457 270.251 557.505 267.884 557.51 267.82L557.751 264.582C557.82 263.684 555.57 261.814 555.473 263.139H555.495Z" fill="#EE6F57"/>
<path d="M576.949 294.029L575.326 298.425L632.242 319.422L633.865 315.026L576.949 294.029Z" fill="#4284B8"/>
<path d="M573.412 303.614L571.789 308.01L616.754 324.597L618.378 320.202L573.412 303.614Z" fill="#D3DFFF"/>
<path d="M545.449 282.704L540.475 296.172L553.951 301.143L558.925 287.675L545.449 282.704Z" fill="white" stroke="#708CD5" stroke-width="6" stroke-miterlimit="10"/>
<path d="M546.508 287.459C546.38 289.207 544.851 296.195 548.866 295.474C549.791 295.308 550.838 294.405 551.646 293.924L555.997 291.44L564.705 286.476C565.448 286.054 563.604 283.72 562.669 284.254L554.933 288.667L551.063 290.873C550.17 291.408 547.855 293.23 546.845 293.112L548.23 294.149C548.497 294.576 548.545 292.209 548.55 292.145L548.791 288.902C548.861 288.01 546.61 286.14 546.508 287.465V287.459Z" fill="#EE6F57"/>
<path d="M567.972 318.325L566.349 322.721L588.912 331.044L590.536 326.649L567.972 318.325Z" fill="#708CD5"/>
<path d="M621.387 348.901L564.465 327.904L562.861 332.301C584.886 340.422 612.801 351.139 618.869 352.229C619.494 351.876 620.04 351.399 620.473 350.826C620.906 350.254 621.217 349.598 621.387 348.901V348.901Z" fill="#D3DFFF"/>
<path d="M536.665 307.065L531.691 320.533L545.167 325.504L550.141 312.037L536.665 307.065Z" fill="white" stroke="#708CD5" stroke-width="6" stroke-miterlimit="10"/>
<path d="M537.608 311.577C537.474 313.324 535.945 320.312 539.96 319.591C540.885 319.425 541.938 318.522 542.745 318.041L547.097 315.557L555.8 310.594C556.543 310.172 554.73 307.837 553.768 308.371L546.033 312.784C544.739 313.516 543.445 314.253 542.162 314.991C541.264 315.525 538.955 317.347 537.939 317.229L539.329 318.266C539.591 318.693 539.639 316.326 539.644 316.262C539.719 315.194 539.805 314.125 539.89 313.019C539.955 312.127 537.704 310.257 537.608 311.582V311.577Z" fill="#EE6F57"/>
<path d="M661.33 187.689L656.685 201.244L602.217 182.592L606.862 169.038C607.575 166.962 609.082 165.254 611.053 164.288C611.286 164.169 611.527 164.068 611.775 163.984C613.574 163.3 615.557 163.267 617.377 163.893C618.764 164.37 620.24 164.527 621.697 164.352C622.313 164.278 622.922 164.148 623.514 163.962C625.513 163.328 627.255 162.067 628.48 160.367C629.709 158.669 631.451 157.411 633.448 156.778C635.446 156.144 637.595 156.168 639.578 156.846L642.978 158.005C644.963 158.684 646.676 159.983 647.866 161.71C649.056 163.437 649.658 165.5 649.585 167.595C649.509 169.688 650.111 171.749 651.301 173.472C651.656 173.982 652.057 174.458 652.499 174.893C653.54 175.925 654.804 176.706 656.193 177.175C658.266 177.891 659.971 179.399 660.936 181.368C661.9 183.337 662.046 185.608 661.341 187.684L661.33 187.689Z" fill="#EE6F57"/>
<path d="M663.383 196.104L659.935 206.175L596.614 184.499L600.068 174.423L604.489 175.935L602.206 182.592L656.685 201.238L658.962 194.587L663.383 196.104Z" fill="#E4E4E4"/>
<path d="M643.325 167.207C644.194 164.673 642.736 161.88 640.069 160.967C637.401 160.055 634.535 161.368 633.666 163.901C632.797 166.435 634.255 169.228 636.923 170.141C639.59 171.053 642.457 169.74 643.325 167.207Z" fill="white"/>
<path d="M44.4721 433.147L603.582 433.083C620.813 397.82 629.901 358.721 620.187 320.503C608.538 274.667 569.4 243.87 543.429 232.089C522.131 222.403 502.383 221.142 484.918 222.745C471.414 223.99 459.257 226.944 448.821 229.055C441.449 230.551 434.537 231.689 428.769 231.315C419.183 230.684 411.661 223.835 404.915 216.686C380.97 191.403 353.556 147.694 255.649 142.463C226.583 140.919 192.904 143.483 166.019 154.671C154.578 159.426 111.489 180.702 98.8355 216.686C94.842 228.045 93.8851 240.868 97.9106 255.101C112.163 305.468 90.4637 311.736 63.3167 335.736C27.0816 367.772 15.4167 410.99 44.4721 433.147Z" fill="#EDF4FF" fill-opacity="0.56"/>
<path d="M188.273 242.287V312.586H68.506L72.7986 242.287H188.273Z" fill="#4284B8"/>
<path d="M550.256 228.342H412.966V433.995H550.256V228.342Z" fill="#DBEFFF"/>
<path d="M352.505 215.071H188.262V433.482H352.505V215.071Z" fill="#DBEFFF"/>
<path d="M416.505 141.833H181.713V248.361H416.505V141.833Z" fill="#4284B8"/>
<path d="M306.66 234.588L430.094 117.95L553.527 234.588H306.66Z" fill="#DBEFFF"/>
<path d="M563.535 246.059C562.39 246.064 561.287 245.632 560.45 244.851L430.083 131.5C388.552 169.307 340.349 205.677 338.9 206.638C337.919 207.285 336.724 207.525 335.569 207.307C334.413 207.09 333.388 206.433 332.708 205.474C332.028 204.516 331.748 203.33 331.926 202.169C332.104 201.008 332.726 199.961 333.661 199.249C336.644 196.781 391.043 147.364 427.047 114.601C427.887 113.838 428.983 113.418 430.118 113.423C431.253 113.428 432.345 113.857 433.178 114.627L566.614 238.199C567.284 238.818 567.752 239.624 567.956 240.513C568.161 241.401 568.092 242.331 567.76 243.18C567.427 244.029 566.846 244.758 566.092 245.271C565.338 245.785 564.447 246.059 563.535 246.059V246.059Z" fill="#161C48"/>
<path d="M434.627 215.071H270.384V433.482H434.627V215.071Z" fill="#DBEFFF"/>
<path d="M270.384 215.067L352.505 137.468L434.627 215.067L292.996 215.607L270.384 215.067Z" fill="#DBEFFF"/>
<path d="M376.256 240.807V283.073H328.022V241.619C328.015 238.218 328.721 234.854 330.095 231.742C331.468 228.631 333.479 225.842 335.997 223.555C336.786 222.831 337.625 222.165 338.51 221.562C339.353 220.934 340.247 220.379 341.183 219.9C344.688 218.061 348.589 217.106 352.548 217.117C356.503 217.101 360.396 218.1 363.854 220.018C364.802 220.488 365.698 221.055 366.527 221.712C367.322 222.277 368.079 222.892 368.794 223.555C371.153 225.767 373.033 228.439 374.316 231.407C375.6 234.374 376.26 237.574 376.256 240.807Z" fill="#F6F5FB"/>
<path d="M377.069 234.486H327.412L328.182 232.445C329.622 228.632 331.943 225.213 334.955 222.465C335.792 221.687 336.685 220.973 337.628 220.328C338.525 219.659 339.478 219.07 340.477 218.565C344.2 216.625 348.338 215.615 352.537 215.621C356.751 215.597 360.899 216.661 364.581 218.709C365.603 219.216 366.57 219.827 367.468 220.531C368.293 221.12 369.079 221.762 369.82 222.454C372.764 225.222 375.007 228.651 376.363 232.456L377.069 234.486ZM331.887 231.468H372.685C371.478 228.918 369.807 226.615 367.757 224.677C367.095 224.068 366.397 223.501 365.666 222.978C364.893 222.369 364.058 221.842 363.175 221.407C359.926 219.584 356.258 218.636 352.532 218.656C348.824 218.645 345.169 219.53 341.878 221.236C341.006 221.674 340.174 222.187 339.392 222.77C338.548 223.341 337.747 223.975 336.997 224.666C334.889 226.589 333.156 228.886 331.887 231.441V231.468Z" fill="#161C48"/>
<path d="M399.291 232.958H305.003V283.057H399.291V232.958Z" fill="#F6F5FB"/>
<path d="M353.654 232.958H350.634V283.062H353.654V232.958Z" fill="#161C48"/>
<path d="M397.222 248.345H306.115V249.857H397.222V248.345Z" fill="#161C48"/>
<path d="M397.222 264.806H306.115V266.318H397.222V264.806Z" fill="#161C48"/>
<path d="M332.683 232.958H329.663V283.062H332.683V232.958Z" fill="#161C48"/>
<path d="M374.626 232.958H371.606V283.062H374.626V232.958Z" fill="#161C48"/>
<path d="M399.291 232.958H396.271V283.062H399.291V232.958Z" fill="#161C48"/>
<path d="M308.023 232.958H305.003V283.062H308.023V232.958Z" fill="#161C48"/>
<path d="M399.297 280.044H305.008V283.062H399.297V280.044Z" fill="#161C48"/>
<path d="M399.297 232.958H305.008V235.977H399.297V232.958Z" fill="#161C48"/>
<path d="M366.533 221.712L352.297 236.789L338.483 221.562C339.325 220.933 340.219 220.377 341.156 219.901L352.313 232.189L363.828 220.013C364.787 220.482 365.693 221.052 366.533 221.712V221.712Z" fill="#161C48"/>
<path d="M399.291 333.477H305.003V383.575H399.291V333.477Z" fill="#F6F5FB"/>
<path d="M353.654 333.471H350.634V383.575H353.654V333.471Z" fill="#161C48"/>
<path d="M397.222 348.858H306.115V350.37H397.222V348.858Z" fill="#161C48"/>
<path d="M397.222 365.324H306.115V366.836H397.222V365.324Z" fill="#161C48"/>
<path d="M332.683 333.471H329.663V383.575H332.683V333.471Z" fill="#F9DDBF"/>
<path d="M374.626 333.471H371.606V383.575H374.626V333.471Z" fill="#161C48"/>
<path d="M399.291 333.471H396.271V383.575H399.291V333.471Z" fill="#F9DDBF"/>
<path d="M308.023 333.471H305.003V383.575H308.023V333.471Z" fill="#F9DDBF"/>
<path d="M399.297 380.557H305.008V383.575H399.297V380.557Z" fill="#161C48"/>
<path d="M399.297 333.471H305.008V336.49H399.297V333.471Z" fill="#161C48"/>
<path d="M252.497 333.477H210.709V383.575H252.497V333.477Z" fill="#F6F5FB"/>
<path d="M252.502 333.471H249.904V383.575H252.502V333.471Z" fill="#161C48"/>
<path d="M251.577 348.858H211.201V350.37H251.577V348.858Z" fill="#161C48"/>
<path d="M251.577 365.324H211.201V366.836H251.577V365.324Z" fill="#161C48"/>
<path d="M232.691 333.471H230.093V383.575H232.691V333.471Z" fill="#161C48"/>
<path d="M213.307 333.471H210.709V383.575H213.307V333.471Z" fill="#161C48"/>
<path d="M252.502 380.557H210.714V383.575H252.502V380.557Z" fill="#161C48"/>
<path d="M252.502 333.471H210.714V336.49H252.502V333.471Z" fill="#161C48"/>
<path d="M252.497 261.724H210.709V311.822H252.497V261.724Z" fill="#F6F5FB"/>
<path d="M252.502 261.724H249.904V311.828H252.502V261.724Z" fill="#161C48"/>
<path d="M251.577 277.111H211.201V278.623H251.577V277.111Z" fill="#161C48"/>
<path d="M251.577 293.572H211.201V295.084H251.577V293.572Z" fill="#161C48"/>
<path d="M232.691 261.724H230.093V311.828H232.691V261.724Z" fill="#161C48"/>
<path d="M213.307 261.724H210.709V311.828H213.307V261.724Z" fill="#161C48"/>
<path d="M252.502 308.809H210.714V311.828H252.502V308.809Z" fill="#161C48"/>
<path d="M252.502 261.724H210.714V264.742H252.502V261.724Z" fill="#161C48"/>
<path d="M512.627 223.293H470.839V273.392H512.627V223.293Z" fill="#F6F5FB"/>
<path d="M512.632 223.293H510.034V273.397H512.632V223.293Z" fill="#161C48"/>
<path d="M511.707 238.68H471.331V240.192H511.707V238.68Z" fill="#161C48"/>
<path d="M511.707 255.146H471.331V256.658H511.707V255.146Z" fill="#161C48"/>
<path d="M492.821 223.293H490.223V273.397H492.821V223.293Z" fill="#161C48"/>
<path d="M473.437 223.293H470.839V273.397H473.437V223.293Z" fill="#161C48"/>
<path d="M512.632 270.379H470.844V273.397H512.632V270.379Z" fill="#161C48"/>
<path d="M512.632 223.293H470.844V226.312H512.632V223.293Z" fill="#161C48"/>
<path d="M258.799 226.912C257.849 226.912 256.922 226.614 256.15 226.06C255.379 225.505 254.801 224.722 254.499 223.821C254.197 222.92 254.186 221.947 254.468 221.04C254.749 220.133 255.309 219.337 256.068 218.765C259.061 216.291 313.454 166.883 349.453 134.118C350.295 133.357 351.391 132.938 352.526 132.943C353.662 132.948 354.754 133.376 355.59 134.144L447.286 219.091C447.722 219.495 448.075 219.982 448.323 220.523C448.572 221.064 448.711 221.649 448.733 222.244C448.756 222.838 448.661 223.432 448.453 223.99C448.246 224.548 447.931 225.06 447.526 225.496C447.121 225.933 446.634 226.285 446.093 226.533C445.551 226.782 444.966 226.921 444.371 226.943C443.776 226.965 443.182 226.87 442.624 226.663C442.065 226.456 441.553 226.142 441.117 225.737V225.737L351.5 153.057C312.604 186.426 262.76 225.181 261.322 226.153C260.575 226.651 259.697 226.915 258.799 226.912V226.912Z" fill="#161C48"/>
<path d="M188.262 312.597H75.2042V432.659H188.262V312.597Z" fill="#DBEFFF"/>
<path d="M555.976 281.924H434.638V330.142H555.976V281.924Z" fill="#4284B8"/>
<path d="M484.759 346.507C487.617 346.507 490.446 347.07 493.085 348.163C495.725 349.255 498.124 350.857 500.144 352.876C502.164 354.895 503.767 357.293 504.86 359.931C505.954 362.569 506.517 365.397 506.517 368.252V420.643H462.745V368.509C462.745 362.674 465.065 357.077 469.193 352.951C473.322 348.825 478.921 346.507 484.759 346.507Z" fill="#161C48"/>
<path d="M502.358 368.813V369.78H466.899V368.995C466.898 366.762 467.338 364.55 468.192 362.487C469.047 360.423 470.3 358.548 471.879 356.968C473.459 355.389 475.334 354.135 477.398 353.28C479.462 352.425 481.675 351.984 483.909 351.984H485.513C489.974 351.981 494.254 353.749 497.412 356.898C500.57 360.048 502.347 364.322 502.352 368.781L502.358 368.813Z" fill="#F6F5FB"/>
<path d="M502.358 375.273H466.899V389.516H502.358V375.273Z" fill="#F6F5FB"/>
<path d="M502.358 394.218H466.899V417.496H502.358V394.218Z" fill="#F6F5FB"/>
<path d="M517.411 419.831H451.851V424.554H517.411V419.831Z" fill="#4284B8"/>
<path d="M522.96 424.554H446.307V429.277H522.96V424.554Z" fill="#161C48"/>
<path d="M527.51 429.277H441.747V434H527.51V429.277Z" fill="#F6F5FB"/>
<path d="M163.265 334.652H106.135V403.146H163.265V334.652Z" fill="#F6F5FB"/>
<path d="M163.27 334.646H159.721V403.146H163.27V334.646Z" fill="#F9DDBF"/>
<path d="M162.02 355.686H106.814V357.754H162.02V355.686Z" fill="#161C48"/>
<path d="M162.02 378.19H106.814V380.257H162.02V378.19Z" fill="#161C48"/>
<path d="M136.189 334.646H132.639V403.146H136.189V334.646Z" fill="#F9DDBF"/>
<path d="M109.684 334.646H106.135V403.146H109.684V334.646Z" fill="#161C48"/>
<path d="M163.27 399.016H106.14V403.146H163.27V399.016Z" fill="#161C48"/>
<path d="M163.27 334.646H106.14V338.776H163.27V334.646Z" fill="#161C48"/>
<path d="M149.726 312.586H55.6227L72.798 242.287H118.471L149.726 312.586Z" fill="#F6F5FB"/>
<path d="M245.654 248.377H181.713V141.833H205.769C212.606 160.805 233.647 216.604 245.654 248.377Z" fill="#F6F5FB"/>
<path d="M555.981 281.924V330.142H475.693L507.554 281.924H555.981Z" fill="#F6F5FB"/>
<path d="M255.64 135.769H256.709C258.252 135.769 259.731 136.381 260.822 137.471C261.912 138.561 262.525 140.04 262.525 141.581V141.581V164.753H249.695V141.694C249.695 140.122 250.32 138.615 251.432 137.504C252.544 136.393 254.052 135.769 255.624 135.769H255.64Z" fill="#F2D3B6"/>
<path d="M246.707 133.033H265.412L256.132 124.191L246.707 133.033Z" fill="#BC3F3F"/>
<path d="M252.181 135.769H251.347L251.219 132.782H252.363L252.181 135.769Z" fill="#BC3F3F"/>
<path d="M260.756 135.769H259.922L259.794 132.782H260.938L260.756 135.769Z" fill="#BC3F3F"/>
<path d="M582.913 432.355H567.266C566.427 431.644 567.843 430.03 569.329 429.918C570.133 429.908 570.935 430.003 571.714 430.201C571.933 427.343 573.162 414.499 577.792 415.012C583.004 415.589 577.792 420.67 576.322 423.678C575.279 425.944 574.355 428.262 573.553 430.623C573.975 430.714 574.413 430.805 574.862 430.885C575.552 428.748 578.123 421.642 581.39 422.054C585.228 422.54 583.683 425.398 580.962 427.097C578.968 428.342 576.514 430.116 575.354 430.976C576.365 431.152 577.391 431.233 578.417 431.217C581.095 431.142 582.405 431.927 582.913 432.355Z" fill="#82B378"/>
<path d="M188.278 391.028V432.702L89.7233 432.745C89.7233 432.745 92.8773 421.568 105.29 415.461C106.529 414.835 107.812 414.299 109.128 413.858C110.857 413.265 112.623 412.788 114.415 412.431C114.443 412.442 114.473 412.442 114.501 412.431C115.337 412.271 116.16 412.051 116.965 411.774C134.505 405.897 135.301 378.649 185.642 390.403C186.558 390.606 187.437 390.815 188.278 391.028Z" fill="#82B378"/>
<path d="M112.667 418.148C112.667 418.148 97.8916 398.535 91.2843 403.824C84.6769 409.114 112.667 418.148 112.667 418.148Z" fill="#82B378"/>
<path d="M117.072 416.139C117.072 415.258 117.297 397.189 111.122 398.508C104.948 399.828 117.072 416.139 117.072 416.139Z" fill="#82B378"/>
<path d="M148.992 229.913C147.297 227.391 145.784 227.776 144.908 228.374C138.493 223.956 130.784 228.15 130.784 228.15C130.009 231.264 129.021 234.322 127.828 237.302C127.828 237.302 129.966 238.905 135.312 238.108C137.036 237.747 138.613 236.878 139.84 235.613C138.232 237.724 136.345 239.607 134.232 241.213C140.77 238.947 144.149 230.527 144.491 229.624C145.18 230.383 146.527 232.012 146.837 233.514C147.265 235.544 147.137 239.637 148.334 239.615C148.361 239.615 151.526 233.695 148.992 229.913Z" fill="#2C3A64"/>
<path d="M122.974 263.508C117.265 262.439 113.352 267.178 113.352 267.178C112.694 258.79 116.768 257.284 116.768 257.284C118.377 256.439 120.563 259.18 122.974 263.508Z" fill="#2B478B"/>
<path d="M176.795 308.83L176.394 308.697C175.715 308.451 174.336 306.672 174.336 306.672L171.738 309.471L173.524 311.357C174.539 313.74 174.561 313.783 177.64 314.248C180.313 314.649 179.874 316.348 181.729 316.818C183.584 317.288 183.333 314.681 183.333 314.681C182.617 310.519 181.831 309.974 180.045 309.605C180.639 309.391 181.034 309.071 180.911 308.691C180.788 308.312 179.885 308.718 178.062 308.494C177.622 308.522 177.191 308.636 176.795 308.83V308.83Z" fill="#ED985F"/>
<path d="M174.753 310.353C175.4 308.98 175.886 307.537 176.202 306.052C176.202 306.052 158.668 294.528 157.133 293.23C155.599 291.931 139.658 268.525 139.658 268.525L120.948 270.021C120.948 270.021 145.859 298.754 149.815 301.938C156.358 307.19 172.7 312.886 172.7 312.886C173.544 312.184 174.241 311.323 174.753 310.353V310.353Z" fill="#912F2F"/>
<path d="M161.816 432.408H142.646C141.722 431.28 142.064 427.124 142.203 425.767C142.2 425.621 142.216 425.475 142.251 425.334C142.251 425.334 148.805 420.098 149.703 424.11C149.703 424.233 149.767 424.356 149.799 424.479C150.938 428.219 156.022 429.939 158.962 430.41C160.849 430.719 161.554 431.713 161.816 432.408Z" fill="#233862"/>
<path d="M136.413 432.408H117.217C116.292 431.28 116.634 427.124 116.773 425.767C116.805 425.494 116.821 425.334 116.821 425.334C116.821 425.334 123.375 420.098 124.305 424.11C124.305 424.239 124.364 424.356 124.401 424.479C125.535 428.219 130.624 429.939 133.559 430.41C135.446 430.719 136.151 431.713 136.413 432.408Z" fill="#233862"/>
<path d="M153.819 325.74C153.819 325.74 153.819 337.435 153.857 352.657C153.905 372.959 152.493 397.813 152.306 402.526C151.975 410.716 150.665 423.811 150.665 423.811C150.665 423.811 147.554 426.926 141.326 425.612C141.326 425.612 135.777 406.912 134.195 387.144C134.195 386.818 134.141 386.492 134.12 386.166C132.645 366.024 130.378 323.619 130.378 323.619L153.819 325.74Z" fill="#2B478B"/>
<path d="M153.819 325.74C153.819 325.74 153.819 336.987 153.857 352.657L135.847 400.688C135.847 400.367 134.141 386.482 134.12 386.156C132.645 366.014 130.378 323.608 130.378 323.608L153.819 325.74Z" fill="#233862"/>
<path d="M144.4 321.755C144.4 321.755 141.978 353.977 138.562 380.909C134.211 404.417 126.502 426.05 126.502 426.05C126.502 426.05 117.142 426.932 116.126 425.281C116.126 425.281 114.255 396.056 118.5 380.733C120.413 373.82 117.275 355.061 116.597 345.097C116.124 336.866 116.77 328.61 118.516 320.552L144.4 321.755Z" fill="#2B478B"/>
<path d="M143.801 261.28C136.793 263.487 124.663 257.54 124.663 257.54C124.663 257.54 131.126 252.689 130.784 242.581L136.232 246.962L139.915 249.927C139.861 251.536 139.722 253.141 139.498 254.735C139.391 255.542 139.257 256.44 139.091 257.407C140.884 258.401 142.48 259.714 143.801 261.28V261.28Z" fill="#ED985F"/>
<path d="M142.032 249.761C142.032 249.761 130.453 251.679 129.368 244.456C128.282 237.232 126.053 232.611 133.398 231.099C140.743 229.587 142.598 232.109 143.555 234.433C144.512 236.757 145.015 249.072 142.032 249.761Z" fill="#ED985F"/>
<path d="M154.241 326.344C154.037 326.523 153.775 326.621 153.504 326.622C150.874 326.59 142.556 328.064 136.06 327.396C130.586 326.862 125.738 325.259 120.558 322.919C119.868 322.609 118.275 321.76 118.312 320.99C118.35 320.221 118.419 318.917 118.526 317.373C119.205 308.971 119.334 300.532 118.911 292.113C118.799 290.131 118.74 288.165 118.729 286.236C118.676 271.811 121.541 259.095 127.283 254.799C127.774 254.447 130.795 255.921 133.569 257.289C135.907 258.44 138.567 258.762 141.112 258.203L143.534 260.34C146.485 263.075 149.713 266.794 151.119 272.441C152.312 277.249 153.012 285.915 153.402 294.88C153.578 298.952 153.718 303.06 153.755 306.95V307.094C153.787 307.479 153.787 307.901 153.787 308.285C153.899 318.287 154.407 326.2 154.241 326.344Z" fill="#BC3F3F"/>
<path d="M129.357 243.761C129.357 243.761 130.544 243.564 130.351 241.929C130.159 240.294 130.164 238.151 131.495 238.552C132.826 238.953 132.89 240.016 133.436 239.391C133.981 238.766 133.97 236.153 137.953 235.966C141.935 235.779 143.523 237.163 145.362 236.356C147.201 235.549 147.303 232.761 147.303 232.761C147.005 233.318 146.547 233.774 145.988 234.07C145.988 234.07 149.061 229.87 145.501 226.99C141.941 224.111 138.322 225.997 136.264 226.125C131.725 226.397 128.78 226.659 127.315 229.646C125.85 232.632 126.443 240.898 129.357 243.761Z" fill="#233862"/>
<path d="M118.5 317.379C119.178 308.978 119.307 300.541 118.885 292.124C118.77 290.136 118.71 288.177 118.703 286.247C121.103 280.434 123.065 276.218 123.065 276.218H129.116C129.116 276.218 133.559 306.464 118.5 317.379Z" fill="#912F2F"/>
<path d="M105.707 321.375C105.703 321.234 105.712 321.093 105.734 320.953C105.787 320.232 107.14 318.431 107.14 318.431L103.745 316.668L102.387 318.901C100.356 320.504 100.319 320.542 100.687 323.635C101.008 326.306 99.2548 326.344 99.2976 328.257C99.3404 330.169 101.805 329.234 101.805 329.234C105.627 327.439 105.948 326.563 105.83 324.714C106.188 325.249 106.595 325.532 106.942 325.307C107.289 325.083 106.637 324.324 106.375 322.513C106.228 322.094 106.001 321.708 105.707 321.375V321.375Z" fill="#ED985F"/>
<path d="M103.697 319.815C105.195 320.072 106.718 320.156 108.236 320.066C108.236 320.066 114.693 300.116 115.527 298.289C116.361 296.462 134.724 274.899 134.724 274.899L127.074 255.766C127.074 255.766 107.199 288.923 105.194 293.582C101.864 301.281 100.704 318.543 100.704 318.543C101.608 319.159 102.626 319.591 103.697 319.815V319.815Z" fill="#BC3F3F"/>
<path d="M205.529 277.762C204.711 277.447 203.706 280.909 203.075 281.032C202.444 281.155 202.701 280.092 202.139 279.921C201.578 279.75 201.316 282.731 201.755 283.874C202.027 284.683 202.155 285.533 202.134 286.385C202.134 286.385 198.392 300.811 197.585 302.456C196.778 304.102 183.584 315.813 183.584 315.813L186.482 325.206C186.482 325.206 202.027 310.85 203.353 307.473C204.679 304.097 205.277 286.77 205.277 286.77C205.989 285.175 206.466 283.485 206.694 281.753C206.945 279.253 206.352 278.088 205.529 277.762Z" fill="#ED985F"/>
<path d="M165.179 314.809C165.179 314.809 156.011 302.953 151.579 299.315C151.579 299.315 145.49 284.307 144.999 283.319C144.971 283.277 144.941 283.238 144.908 283.201C144.731 282.292 144.716 281.359 144.865 280.444C145.132 279.087 144.272 275.839 143.678 276.133C143.085 276.427 143.571 277.565 142.85 277.543C142.128 277.522 140.348 273.889 139.503 274.391C138.658 274.893 138.22 276.304 138.969 279.045C139.522 280.843 140.328 282.554 141.363 284.126H141.326C141.326 284.126 143.561 298.711 145.918 303.034C148.275 307.356 155.594 321.872 160.758 322.412C165.922 322.951 165.179 314.809 165.179 314.809Z" fill="#ED985F"/>
<path d="M192.806 426.189C193.158 426.813 193.635 427.358 194.207 427.79C194.779 428.222 195.434 428.532 196.131 428.7C197.5 428.972 198.723 429.731 199.574 430.837C199.718 431.037 199.806 431.272 199.826 431.518C199.846 431.763 199.799 432.01 199.688 432.23C199.578 432.451 199.409 432.637 199.2 432.768C198.992 432.899 198.751 432.97 198.504 432.974H186.851C186.407 432.974 185.981 432.798 185.667 432.485C185.354 432.171 185.177 431.746 185.177 431.302C185.177 431.249 185.177 431.19 185.177 431.136C185.263 430.276 185.354 429.272 185.397 428.503C185.482 426.825 187.161 425.479 187.161 425.479L192.806 426.189Z" fill="#D3671E"/>
<path d="M193.084 426.697C193.084 426.697 190.299 428.342 185.6 427.348C185.6 427.348 177.581 406.848 177.105 397.205V396.099C177.266 387.016 168.889 363.401 171.145 358.561C173.401 353.72 191.662 360.735 191.662 360.735L192.025 377.196L193.084 426.697Z" fill="#35488B"/>
<path d="M191.993 377.217L177.084 397.226V396.12C177.244 387.037 168.867 363.422 171.123 358.582C173.379 353.741 191.651 360.756 191.651 360.756L191.993 377.217Z" fill="#2C3A64"/>
<path d="M162.795 426.189C163.147 426.813 163.624 427.358 164.196 427.79C164.768 428.222 165.423 428.532 166.12 428.7C167.488 428.972 168.712 429.731 169.562 430.837C169.707 431.037 169.795 431.272 169.815 431.518C169.835 431.763 169.787 432.01 169.677 432.23C169.567 432.451 169.398 432.637 169.189 432.768C168.981 432.899 168.74 432.97 168.493 432.974H156.866C156.422 432.974 155.997 432.798 155.683 432.485C155.369 432.171 155.193 431.746 155.193 431.302C155.193 431.249 155.193 431.19 155.193 431.136C155.279 430.276 155.369 429.272 155.412 428.503C155.498 426.825 157.176 425.479 157.176 425.479L162.795 426.189Z" fill="#D3671E"/>
<path d="M180.97 361.109C180.97 361.109 164.826 421.322 164.329 427.215C164.329 427.215 161.18 428.818 156.07 425.975C156.07 425.975 153.103 398.989 156.07 391.616C159.036 384.243 155.482 361.948 163.019 356.92C170.557 351.893 180.97 361.109 180.97 361.109Z" fill="#35488B"/>
<path d="M182.873 313.409L172.952 318.474L170.968 311.598C171.9 309.614 172.518 307.499 172.802 305.326C173.07 303.452 173.138 301.556 173.005 299.668L181.082 303.803C180.933 304.409 180.826 305.025 180.762 305.646C180.57 307.085 180.617 308.545 180.901 309.969C181.143 311.308 181.84 312.523 182.873 313.409V313.409Z" fill="#ED985F"/>
<path d="M191.127 322.139C191.181 321.311 196.147 317.961 196.147 317.961C197.216 311.699 193.201 307.19 193.201 307.19L187.225 311.464C186.639 311.458 186.065 311.63 185.578 311.956C184.589 311.689 181.638 311.924 181.638 311.924C181.681 313.345 181.302 314.681 178.8 315.007C175.475 315.439 172.497 313.169 170.995 311.625C169.453 311.565 167.914 311.785 166.451 312.276C165.659 311.895 164.8 311.67 163.923 311.614L159.026 307.217C159.026 307.217 153.295 308.82 152.392 317.475C152.392 317.475 158.807 322.369 159.293 326.237L159.47 327.701L160.09 332.873L161.191 341.982L157.919 360.121C157.889 360.277 157.875 360.437 157.876 360.596C157.877 361.196 158.079 361.778 158.45 362.249C158.821 362.72 159.341 363.052 159.924 363.193C159.924 363.193 160.207 363.241 160.726 363.31C164.19 363.796 178.255 365.447 189.278 362.482C190.474 362.152 191.519 361.416 192.232 360.4C192.945 359.384 193.282 358.152 193.185 356.915L190.855 327.653C190.855 327.653 191.058 322.962 191.127 322.139Z" fill="#BC3F3F"/>
<path d="M165.168 349.633C164.954 355.959 164.334 361.323 160.71 363.326C160.175 363.257 159.908 363.209 159.908 363.209C159.325 363.069 158.805 362.736 158.434 362.265C158.063 361.794 157.861 361.212 157.86 360.612C157.859 360.453 157.873 360.293 157.903 360.137L161.191 342.003L160.09 332.873L160.175 332.632C160.175 332.632 165.467 341.533 165.168 349.633Z" fill="#A02E2E"/>
<path d="M180.911 309.969C176.319 309.846 172.813 305.326 172.813 305.326L180.772 305.646C180.581 307.085 180.628 308.545 180.911 309.969Z" fill="#D68C5B"/>
<path d="M183.135 307.409C183.135 307.409 173.978 309.829 170.84 302.547C167.429 294.688 171.171 288.966 174.283 288.581C180.484 287.812 184.087 290.184 185.177 292.674C186.268 295.163 188.192 306.121 183.135 307.409Z" fill="#ED985F"/>
<path d="M179.532 303.311C179.532 303.311 179.917 304.257 182.333 303.728C182.333 303.728 184.359 303.279 184.13 302.216C182.515 302.007 180.879 302.397 179.532 303.311V303.311Z" fill="white"/>
<path d="M172.454 305.09C172.454 305.09 171.385 301.938 171.508 300.282C171.508 300.282 169.119 297.237 170.509 296.483C171.898 295.73 172.647 297.552 172.973 297.178C173.299 296.804 173.791 290.836 175.48 291.028C177.169 291.221 183.429 293.165 186.172 290.788C188.914 288.41 182.259 279.189 170.979 282.774C159.699 286.359 162.009 298.834 172.454 305.09Z" fill="#2C3A64"/>
<path d="M165.419 287.646C165.419 287.646 164.885 286.124 165.457 285.039C165.457 285.039 165.457 286.535 166.072 287.176C166.686 287.817 165.419 287.646 165.419 287.646Z" fill="#2C3A64"/>
<path d="M165.633 286.583C165.241 286.543 164.845 286.606 164.485 286.766C164.125 286.927 163.813 287.178 163.58 287.497C163.877 287.31 164.223 287.214 164.573 287.222C164.924 287.23 165.265 287.34 165.553 287.539L165.633 286.583Z" fill="#2C3A64"/>
<path d="M605.007 360.591H546.728V394.88H605.007V360.591Z" fill="#BC3F3F"/>
<path d="M615.485 350.979H524.911V357.145H615.485V350.979Z" fill="#161C48"/>
<path d="M540.559 357.145H532.636V432.141H540.559V357.145Z" fill="#161C48"/>
<path d="M540.564 361.638L532.641 366.388V357.145H540.564V361.638Z" fill="#F6F5FB"/>
<path d="M551.106 355.772H549.395V362.749H551.106V355.772Z" fill="#BC8D6D"/>
<path d="M601.907 355.772H600.196V362.749H601.907V355.772Z" fill="#BC8D6D"/>
<path d="M561.717 372.601C562.289 372.593 562.858 372.68 563.401 372.858C563.836 373.005 564.244 373.221 564.609 373.499C564.91 373.73 565.161 374.019 565.347 374.348C565.497 374.619 565.592 374.917 565.625 375.225C565.631 375.276 565.624 375.328 565.606 375.377C565.587 375.425 565.557 375.468 565.518 375.502C565.443 375.573 565.343 375.611 565.24 375.609H564.262C564.134 375.62 564.006 375.588 563.898 375.518C563.809 375.451 563.734 375.365 563.679 375.267C563.514 375.012 563.291 374.799 563.027 374.648C562.627 374.45 562.183 374.36 561.738 374.386C561.501 374.386 561.265 374.411 561.033 374.461C560.826 374.507 560.628 374.584 560.445 374.69C560.288 374.779 560.154 374.904 560.055 375.054C559.957 375.197 559.907 375.367 559.91 375.54C559.9 375.728 559.948 375.915 560.049 376.074C560.162 376.235 560.32 376.36 560.504 376.432C560.777 376.552 561.062 376.645 561.354 376.71L562.663 377.009C563.167 377.111 563.66 377.256 564.139 377.442C564.509 377.582 564.852 377.785 565.154 378.04C565.405 378.263 565.604 378.539 565.737 378.847C565.87 379.187 565.935 379.55 565.929 379.916C565.93 380.329 565.833 380.738 565.646 381.107C565.45 381.478 565.172 381.8 564.834 382.047C564.441 382.329 564.001 382.539 563.535 382.667C562.973 382.826 562.392 382.903 561.808 382.897C561.294 382.899 560.781 382.832 560.284 382.699C559.827 382.593 559.39 382.413 558.991 382.165C558.63 381.941 558.322 381.642 558.087 381.289C557.857 380.952 557.724 380.558 557.702 380.151C557.693 380.099 557.697 380.046 557.716 379.997C557.735 379.947 557.767 379.905 557.809 379.873C557.884 379.802 557.984 379.763 558.087 379.766H559.103C559.225 379.746 559.351 379.769 559.458 379.831C559.566 379.894 559.648 379.992 559.691 380.108C559.756 380.24 559.837 380.364 559.932 380.477C560.038 380.61 560.168 380.723 560.316 380.808C560.508 380.914 560.713 380.993 560.926 381.043C561.223 381.108 561.526 381.138 561.829 381.134C562.107 381.133 562.384 381.112 562.658 381.07C562.901 381.035 563.137 380.963 563.358 380.856C563.542 380.764 563.705 380.637 563.839 380.482C563.962 380.331 564.028 380.142 564.026 379.948C564.032 379.85 564.017 379.752 563.983 379.66C563.949 379.568 563.897 379.484 563.829 379.413C563.653 379.256 563.445 379.139 563.219 379.071C562.89 378.96 562.554 378.869 562.214 378.799C561.813 378.713 561.354 378.607 560.83 378.473C560.404 378.373 559.987 378.237 559.584 378.067C559.255 377.929 558.954 377.732 558.697 377.485C558.458 377.263 558.275 376.989 558.162 376.683C558.039 376.328 557.981 375.953 557.991 375.577C557.986 375.165 558.083 374.757 558.274 374.391C558.468 374.031 558.736 373.716 559.06 373.467C559.42 373.197 559.823 372.991 560.252 372.858C560.725 372.7 561.219 372.613 561.717 372.601Z" fill="white"/>
<path d="M567.197 376.464C567.217 375.95 567.32 375.444 567.501 374.963C567.667 374.502 567.932 374.082 568.276 373.734C568.642 373.37 569.081 373.09 569.565 372.911C570.147 372.691 570.766 372.586 571.388 372.601C572.005 372.591 572.619 372.692 573.2 372.9C573.681 373.082 574.119 373.365 574.483 373.728C574.82 374.082 575.087 374.498 575.269 374.952C575.451 375.437 575.557 375.947 575.584 376.464V379.018C575.554 379.532 575.45 380.04 575.274 380.524C575.105 380.982 574.841 381.399 574.499 381.748C574.131 382.109 573.69 382.388 573.205 382.565C572.026 382.971 570.744 382.971 569.565 382.565C569.081 382.391 568.641 382.111 568.276 381.748C567.931 381.402 567.666 380.984 567.501 380.524C567.32 380.042 567.217 379.533 567.197 379.018V377.062C567.197 376.843 567.186 376.646 567.197 376.464ZM573.654 376.539C573.663 375.983 573.451 375.447 573.066 375.046C572.68 374.646 572.152 374.414 571.596 374.402H571.388C570.804 374.366 570.23 374.558 569.784 374.936C569.572 375.145 569.404 375.395 569.29 375.67C569.177 375.946 569.119 376.241 569.121 376.539C569.1 376.895 569.089 377.296 569.089 377.741C569.089 378.184 569.089 378.585 569.121 378.948C569.116 379.247 569.172 379.543 569.286 379.818C569.4 380.094 569.57 380.344 569.784 380.551C570.241 380.912 570.806 381.108 571.388 381.108C571.97 381.108 572.535 380.912 572.991 380.551C573.204 380.342 573.372 380.092 573.486 379.817C573.6 379.542 573.657 379.246 573.654 378.948C573.654 378.585 573.686 378.184 573.686 377.741C573.686 377.297 573.686 376.897 573.654 376.539Z" fill="white"/>
<path d="M584.1 380.957C584.2 380.963 584.295 381.005 584.366 381.076C584.437 381.147 584.48 381.242 584.485 381.342V382.357C584.481 382.458 584.439 382.554 584.368 382.625C584.296 382.696 584.201 382.738 584.1 382.742H577.851C577.799 382.745 577.748 382.736 577.7 382.715C577.653 382.695 577.611 382.664 577.578 382.624C577.541 382.591 577.512 382.549 577.492 382.503C577.473 382.457 577.464 382.407 577.466 382.357V373.13C577.466 373.028 577.506 372.93 577.578 372.858C577.651 372.786 577.749 372.746 577.851 372.746H579.005C579.107 372.746 579.205 372.786 579.277 372.858C579.35 372.93 579.39 373.028 579.39 373.13V380.957H584.1Z" fill="white"/>
<path d="M589.761 372.746C590.384 372.734 591.004 372.828 591.595 373.023C592.079 373.192 592.522 373.462 592.894 373.814C593.246 374.165 593.518 374.588 593.69 375.054C593.882 375.568 593.995 376.108 594.027 376.656C594.064 377.368 594.064 378.082 594.027 378.794C593.993 379.341 593.88 379.881 593.69 380.396C593.516 380.86 593.246 381.282 592.899 381.636C592.537 381.991 592.101 382.261 591.621 382.427C591.047 382.622 590.443 382.716 589.836 382.704H586.238C586.136 382.704 586.038 382.664 585.966 382.592C585.894 382.52 585.853 382.422 585.853 382.32V373.13C585.852 373.08 585.861 373.029 585.88 372.982C585.899 372.935 585.928 372.893 585.965 372.858C586.001 372.822 586.044 372.794 586.091 372.775C586.137 372.755 586.188 372.746 586.238 372.746H589.761ZM592.102 376.678C592.081 376.39 592.022 376.106 591.926 375.834C591.825 375.577 591.674 375.343 591.482 375.145C591.268 374.947 591.018 374.792 590.745 374.69C590.4 374.574 590.039 374.518 589.675 374.525H587.783V380.936H589.766C590.112 380.944 590.456 380.89 590.782 380.776C591.049 380.677 591.292 380.522 591.493 380.322C591.686 380.127 591.836 379.894 591.931 379.638C592.028 379.362 592.087 379.074 592.108 378.783C592.143 378.071 592.143 377.371 592.108 376.683L592.102 376.678Z" fill="white"/>
<path d="M255.977 432.248C255.977 432.248 263.033 417.229 278.905 417.026C294.776 416.823 303.538 398.326 318.34 399.197C333.143 400.068 334.912 414.584 345.492 417.026C356.071 419.468 385.173 414.21 386.937 433.145L255.977 432.248Z" fill="#82B378"/>
<path d="M290.147 417.026C290.147 416.823 278.68 395.607 274.494 399.165C270.309 402.724 290.147 417.026 290.147 417.026Z" fill="#82B378"/>
<path d="M285.956 417.705C285.956 417.705 275.703 411.411 270.854 412.966C266.005 414.52 285.956 417.705 285.956 417.705Z" fill="#82B378"/>
<path d="M310.979 404.812C311.092 404.155 310.76 387.518 305.249 389.612C299.737 391.707 310.979 404.812 310.979 404.812Z" fill="#82B378"/>
<path d="M314.288 401.714C314.507 401.383 317.816 392.46 315.389 392.46C312.962 392.46 314.507 401.383 314.507 401.383L314.288 401.714Z" fill="#82B378"/>
<path d="M325.386 250.461C325.333 252.07 325.194 253.675 324.969 255.27C320.89 254.57 316.261 247.982 316.261 247.982C318.028 247.432 319.893 247.266 321.73 247.496L325.386 250.461Z" fill="#D68C5B"/>
<path d="M419.199 333.359L422.016 332.958C422.212 332.91 422.41 332.872 422.61 332.846L427.741 332.114L427.399 329.705C427.324 329.169 427.465 328.626 427.789 328.194C428.114 327.761 428.596 327.475 429.131 327.397L430.473 327.21L435.862 326.44L436.835 326.301C437.099 326.264 437.369 326.279 437.628 326.345C437.887 326.412 438.13 326.529 438.344 326.69C438.557 326.851 438.737 327.052 438.872 327.282C439.008 327.513 439.097 327.768 439.133 328.032V328.032L439.481 330.442L448.339 329.181C449.966 328.946 451.62 329.366 452.938 330.348C454.256 331.331 455.13 332.796 455.368 334.422L456.972 345.717C457.198 347.339 456.773 348.985 455.79 350.295C454.806 351.605 453.344 352.474 451.723 352.71L425.967 356.381C425.522 356.443 425.072 356.457 424.625 356.424L422.524 356.723C420.91 356.943 419.274 356.516 417.972 355.537C416.671 354.557 415.809 353.104 415.575 351.492L413.971 340.326C413.743 338.71 414.166 337.069 415.145 335.764C416.125 334.458 417.583 333.593 419.199 333.359V333.359ZM437.909 328.209C437.885 328.048 437.81 327.899 437.696 327.783C437.581 327.667 437.434 327.59 437.273 327.562C437.197 327.552 437.119 327.552 437.043 327.562L435.899 327.722L431.66 328.332L429.345 328.657C429.146 328.687 428.966 328.793 428.845 328.954C428.723 329.116 428.671 329.318 428.698 329.518L429.041 331.927L438.251 330.618L437.909 328.209Z" fill="#233862"/>
<path d="M430.783 323.373C430.783 323.24 430.815 323.096 430.826 322.951C430.896 322.235 429.858 320.232 429.858 320.232L433.499 319.062L434.456 321.471C436.188 323.4 436.247 323.801 436.493 326.499C436.738 329.197 436.225 328.791 435.466 329.101C434.662 329.426 433.828 329.671 432.975 329.833C432.202 329.984 431.403 329.917 430.666 329.64C429.703 329.266 429.597 328.764 429.714 328.086C429.725 328.005 429.72 327.924 429.699 327.846C429.678 327.767 429.642 327.694 429.592 327.63C429.542 327.567 429.48 327.514 429.409 327.474C429.338 327.435 429.26 327.41 429.18 327.402H429.051C429.014 327.403 428.976 327.396 428.941 327.383C428.907 327.369 428.875 327.348 428.848 327.322C428.581 327.076 429.335 326.12 429.917 324.372C430.133 323.983 430.428 323.643 430.783 323.373V323.373Z" fill="#FFB27D"/>
<path d="M433.028 322.187C431.509 322.186 429.994 322.007 428.517 321.653C428.517 321.653 425.464 300.907 424.951 298.973C424.438 297.039 409.935 272.714 409.935 272.714L423.133 262.306C423.133 262.306 434.728 291.119 435.963 296.051C437.968 304.198 436.236 321.413 436.236 321.413C435.229 321.882 434.139 322.145 433.028 322.187Z" fill="#233862"/>
<path d="M437.77 432.942H446.163C447.232 432.365 448.162 431.056 448.456 429.095C448.868 426.392 451.899 424.923 452.556 422.684C453.214 420.445 449.851 417.341 449.851 417.341L449.317 416.62L448.729 415.867L443.159 417.176C443.159 417.176 443.02 418.506 442.939 420.194C442.87 421.481 442.87 422.77 442.939 424.057C443.105 427.001 442.116 430.175 439.497 430.752C437.503 431.222 437.594 432.37 437.77 432.942Z" fill="#233862"/>
<path d="M389.086 432.942H408.278C409.202 431.815 408.866 427.658 408.721 426.301C408.724 426.155 408.708 426.01 408.673 425.868C408.673 425.868 402.119 420.633 401.221 424.645C401.221 424.768 401.157 424.891 401.125 425.014C399.986 428.753 394.902 430.474 391.962 430.944C390.027 431.254 389.322 432.248 389.086 432.942Z" fill="#233862"/>
<path d="M392.716 325.847C392.716 325.847 393.71 338.258 394.854 353.18C396.458 373.445 398.356 398.337 398.543 403.049C398.874 411.24 400.184 424.335 400.184 424.335C400.184 424.335 403.295 427.45 409.523 426.135C409.523 426.135 415.072 407.436 416.654 387.668C416.654 387.342 416.708 387.016 416.729 386.69C418.205 366.548 420.471 324.143 420.471 324.143L392.716 325.847Z" fill="#F99746"/>
<path d="M392.716 325.847C392.716 325.847 393.71 338.258 394.854 353.18L416.654 387.657C416.654 387.331 416.708 387.005 416.729 386.679C418.205 366.537 420.471 324.132 420.471 324.132L392.716 325.847Z" fill="#ED7D2B"/>
<path d="M397.26 327.332C397.26 327.332 415.2 372.281 426.998 393.401C438.797 414.52 442.501 420.419 442.501 420.419C442.501 420.419 449.258 417.715 449.873 415.872C449.873 415.872 445.361 375.096 437.46 365.159C432.996 359.538 427.752 342.682 427.512 336.789C427.271 330.896 425.908 319.227 425.908 319.227L397.26 327.332Z" fill="#F99746"/>
<path d="M401.75 261.814C408.759 264.021 420.888 258.074 420.888 258.074C420.888 258.074 414.425 253.223 414.762 243.115L409.341 247.485L405.663 250.45C405.711 252.06 405.851 253.665 406.08 255.259C406.187 256.066 406.316 256.963 406.481 257.93C404.678 258.922 403.074 260.239 401.75 261.814V261.814Z" fill="#FFB27D"/>
<path d="M405.658 250.461C405.706 252.071 405.845 253.676 406.075 255.27C410.154 254.57 414.778 247.982 414.778 247.982C413.019 247.437 411.164 247.272 409.336 247.496L405.658 250.461Z" fill="#ED975D"/>
<path d="M403.52 250.295C403.52 250.295 415.099 252.213 416.184 244.99C417.269 237.767 419.498 233.145 412.148 231.633C404.797 230.121 402.948 232.643 401.991 234.967C401.034 237.291 400.51 249.606 403.52 250.295Z" fill="#FFB27D"/>
<path d="M320.324 230.436C320.238 229.929 319.084 224.698 310.958 225.59C310.958 225.59 315.026 225.489 315.946 227.113C315.946 227.113 312.925 225.35 310.819 226.365C308.713 227.38 307.986 231.441 308.146 232.696C308.307 233.952 310.14 237.889 311.589 238.039C312.165 238.073 312.741 237.99 313.283 237.793C312.977 238.478 312.707 239.179 312.476 239.893C310.215 247.004 314.481 252.961 317.106 251.855C318.795 251.139 319.725 254.057 319.725 254.057L334.747 237.799C334.747 237.799 326.626 225.81 320.324 230.436Z" fill="#2C3A64"/>
<path d="M339.905 426.034L336.249 427.396C336.249 427.396 320.388 405.4 318.431 386.049C318.05 382.744 318.23 379.399 318.966 376.154C318.966 376.154 318.806 375.273 318.538 373.707C318.41 372.975 318.26 372.104 318.079 371.089C317.571 368.135 316.854 364.096 316.047 359.49C314.176 348.901 311.771 335.362 309.883 325.409L310.862 325.094L321.553 321.658L323.702 314.627L331.63 312.538C331.63 312.538 333.399 316.006 334.982 332.355C335.281 334.492 335.516 336.864 335.741 339.434C336.474 348.987 336.221 358.59 334.987 368.092C334.631 370.942 334.167 373.875 333.597 376.892C333.158 379.766 333.056 382.681 333.293 385.579C334.094 401.452 339.905 426.034 339.905 426.034Z" fill="#2B478B"/>
<path d="M335.746 339.492L318.527 373.686L318.068 371.068C317.533 368.113 316.843 364.074 316.036 359.469C314.165 348.88 311.76 335.341 309.867 325.388L310.851 325.072L321.542 321.637L323.702 314.627L331.63 312.538C331.63 312.538 333.399 316.006 334.982 332.355C335.286 334.556 335.575 336.923 335.746 339.492Z" fill="#233862"/>
<path d="M328.171 316.978V317.058C328.118 317.283 327.952 317.977 327.712 318.966C326.562 323.678 323.766 335.106 323.601 335.095C322.072 345.818 319.757 359.704 316.886 370.384C315.357 376.026 313.679 380.776 311.899 383.682C311.065 385.21 310.395 386.822 309.899 388.491C305.756 401.014 300.662 429.352 300.662 429.352L298.331 430.287C298.331 430.287 289.377 404.823 297.139 384.147C297.932 382.02 298.909 379.966 300.058 378.008C300.203 377.789 300.271 377.528 300.25 377.266C300.149 376.411 299.903 374.252 299.62 371.223C298.823 362.856 298.069 334.593 297.658 327.947C297.502 325.695 297.567 323.433 297.85 321.194C298.202 318.112 299.119 315.122 300.555 312.373C301.253 310.988 302.17 309.725 303.271 308.633C303.271 308.633 321.12 315.359 327.797 313.586L328.171 316.978Z" fill="#2B478B"/>
<path d="M328.155 318.661C328.007 318.772 327.852 318.874 327.69 318.966C321.537 322.561 299.946 321.3 297.823 321.161C298.176 318.081 299.095 315.093 300.534 312.346C309.76 313.163 325.071 314.825 328.155 317.058C328.856 317.566 328.925 318.105 328.155 318.661Z" fill="#223E77"/>
<path d="M362.593 311.374L361.524 314.579C361.524 314.579 361.304 314.537 360.93 314.44C359.743 314.147 356.862 313.457 353.633 312.512C348.769 311.128 343.054 309.199 340.974 307.34C337.804 304.519 333.154 296.804 330.545 289.458C330.472 289.284 330.411 289.106 330.363 288.924C329.016 285.029 328.257 281.273 328.652 278.457C328.839 276.939 329.267 275.46 329.919 274.076C330.581 272.686 331.511 271.44 332.656 270.411C332.794 270.26 332.953 270.128 333.127 270.021C334.731 268.707 335.8 267.809 335.8 267.809C336.5 267.659 337.403 268.584 338.024 269.503C338.556 270.516 339.015 271.566 339.397 272.644C339.418 272.671 339.43 272.702 339.435 272.735C339.526 273.002 339.617 273.269 339.723 273.627C339.756 273.694 339.781 273.764 339.798 273.836C339.98 274.519 340.162 275.225 340.333 275.973C342.364 283.859 343.936 295.538 346.309 299.342C347.325 300.987 352.682 304.813 357.001 307.714C360.053 309.819 362.593 311.374 362.593 311.374Z" fill="#FFD0B0"/>
<path d="M333.966 275.534C331.722 276.955 329.227 277.935 326.616 278.42C315.341 280.69 311.316 271.111 309.889 264.571C311.076 263.952 312.38 263.588 313.716 263.503C314.529 263.433 315.379 263.39 316.084 263.374C317.373 262.45 319.361 258.566 319.944 252.454L320.452 252.609L329.208 255.28C329.208 255.28 328.7 258.074 328.455 260.719C328.246 262.787 328.166 264.785 328.545 265.292C329.224 265.458 329.615 265.57 329.615 265.57C331.383 268.744 332.84 272.081 333.966 275.534V275.534Z" fill="#FFD0B0"/>
<path d="M337.89 282.571C337.842 282.811 337.778 283.041 337.708 283.287C335.73 289.89 334.153 316.305 334.153 316.305C335.58 320.809 299.326 320.43 298.625 316.246C296.733 311.972 301.368 303.995 304.051 299.94C304.384 299.432 304.672 298.895 304.912 298.337C305.525 296.938 305.812 295.418 305.751 293.892C305.516 287.849 304.468 282.298 304.024 278.9L305.628 277.34C306.333 276.688 306.977 275.973 307.553 275.203C308.049 274.581 308.307 273.803 308.28 273.007C308.23 272.427 308.132 271.851 307.986 271.287C307.916 271.02 307.841 270.753 307.761 270.48C307.165 268.634 306.343 266.868 305.313 265.223C308.189 263.545 313.716 263.492 313.716 263.492C313.716 263.492 313.754 263.796 313.823 264.293C314.096 266.27 314.839 271.351 315.625 272.222C316.587 273.291 331.887 276.443 332.4 274.712C332.913 272.981 329.764 265.811 329.647 265.538C334.789 266.74 336.762 268.076 336.762 268.076C334.11 270.395 339.29 276.208 337.89 282.571Z" fill="#2B478B"/>
<path d="M329.224 255.259C329.224 255.259 328.69 258.048 328.476 260.692C323.483 260.057 321.297 255.227 320.457 252.598L329.224 255.259Z" fill="#ED985F"/>
<path d="M330.652 257.93C330.652 257.93 318.805 256.947 319.527 249.574C320.249 242.201 319.222 237.115 326.819 237.435C334.415 237.756 335.607 240.716 335.965 243.232C336.323 245.749 333.747 257.994 330.652 257.93Z" fill="#FFD0B0"/>
<path d="M323.333 309.06C316.33 310.001 309.354 303.605 304.896 298.327C305.505 296.926 305.79 295.407 305.73 293.882C305.495 287.839 304.447 282.288 304.003 278.89C304.564 278.356 305.104 277.821 305.607 277.33C306.309 276.676 306.951 275.961 307.526 275.193C314.662 284.051 332.827 307.799 323.333 309.06Z" fill="#233862"/>
<path d="M291.312 323.176L288.073 326.13C288.073 326.13 287.346 323.01 286.656 321.167C286.458 320.632 286.357 320.285 286.357 320.285C285.822 318.805 285.229 317.005 284.571 315.049C283.502 311.667 282.374 307.826 281.647 304.465C281.186 302.453 280.943 300.396 280.92 298.332C280.919 298.173 280.931 298.014 280.957 297.856C281.289 293.887 285.266 287.037 290.109 280.658C290.767 279.771 291.446 278.922 292.109 278.078C294.365 275.204 296.825 272.498 299.47 269.978C300.676 268.797 301.983 267.724 303.378 266.772C303.762 266.499 304.162 266.247 304.575 266.019L305.222 265.65C308.266 266.893 310.712 269.262 312.048 272.265L311.738 272.713C309.488 275.892 306.393 279.659 303.239 283.372C301.523 285.397 299.791 287.406 298.219 289.313C297.251 290.435 296.353 291.525 295.546 292.519C294.29 294.013 293.149 295.601 292.135 297.269C291.702 298.043 291.424 299.689 291.253 301.757C290.958 306.044 290.886 310.343 291.04 314.638C291.077 316.417 291.146 318.084 291.2 319.446C291.237 321.674 291.312 323.176 291.312 323.176Z" fill="#FFD0B0"/>
<path d="M311.829 432.168H293.429C293.429 432.168 292.991 429.363 293.964 427.242C294.894 425.206 296.332 424.266 296 421.797C296.708 422.599 297.599 423.218 298.598 423.6C299.597 423.982 300.674 424.117 301.736 423.993C302.063 424.501 303.843 427.348 304.944 428.128C306.093 428.994 311.46 428.689 311.829 432.168Z" fill="#233862"/>
<path d="M351.329 432.167H332.929C332.929 432.167 332.245 429.229 333.463 427.241C334.533 425.473 334.121 424.468 333.335 423.005C334.311 423.426 335.368 423.625 336.43 423.587C337.404 423.479 338.341 423.151 339.167 422.625C339.959 423.528 343.353 427.364 344.412 428.128C345.62 428.994 350.966 428.689 351.329 432.167Z" fill="#233862"/>
<path d="M327.818 253.688C327.818 253.688 327.984 254.666 330.358 254.666C330.358 254.666 332.394 254.666 332.394 253.597C330.909 253.071 329.282 253.103 327.818 253.688V253.688Z" fill="white"/>
<path d="M291.195 322.7C291.195 322.7 292.633 328.663 292.301 329.336C291.97 330.009 289.725 334.748 288.618 333.53C287.511 332.312 288.121 329.122 288.137 328.187C288.153 327.252 288.137 325.762 288.137 325.762L291.195 322.7Z" fill="#FFD0B0"/>
<path d="M358.984 309.947C358.984 309.947 364.383 311.053 364.865 311.63C365.346 312.207 368.74 316.203 367.174 316.711C365.608 317.219 362.945 315.349 362.096 314.943C361.246 314.536 360.214 314.157 360.214 314.157L358.984 309.947Z" fill="#FFD0B0"/>
<path d="M368.73 309.365L369.13 309.231C369.815 308.985 371.194 307.206 371.194 307.206L373.792 310.006L372.006 311.892C370.985 314.275 370.969 314.317 367.89 314.782C365.217 315.183 365.656 316.882 363.795 317.352C361.935 317.822 362.192 315.215 362.192 315.215C362.908 311.053 363.694 310.508 365.485 310.139C364.891 309.926 364.496 309.605 364.619 309.226C364.742 308.846 365.645 309.252 367.463 309.028C367.903 309.056 368.333 309.171 368.73 309.365V309.365Z" fill="#FFB27D"/>
<path d="M391.941 326.916C392.145 327.094 392.407 327.192 392.679 327.193C395.314 327.161 402.991 328.62 409.486 327.952C414.96 327.418 419.808 325.815 424.988 323.475C425.683 323.165 427.271 322.315 427.234 321.546C427.196 320.777 427.127 319.473 427.025 317.929C426.344 309.526 426.215 301.088 426.64 292.669C426.753 290.686 426.811 288.72 426.817 286.792C426.87 272.366 424.005 259.65 418.263 255.355C417.772 255.002 414.757 256.477 411.982 257.845C409.642 258.995 406.981 259.317 404.434 258.758L402.012 260.895C399.061 263.631 395.833 267.349 394.432 272.997C393.235 277.805 392.534 286.471 392.149 295.436C391.973 299.507 391.834 303.616 391.797 307.505V307.65C391.759 308.034 391.759 308.456 391.759 308.841C391.626 318.821 391.759 326.75 391.941 326.916Z" fill="#2B478B"/>
<path d="M370.772 310.887C370.125 309.514 369.638 308.071 369.323 306.586C369.323 306.586 386.857 295.062 388.397 293.764C389.936 292.466 405.872 269.059 405.872 269.059L424.55 270.555C424.55 270.555 399.639 299.288 395.683 302.473C389.14 307.724 372.792 313.42 372.792 313.42C371.959 312.717 371.272 311.856 370.772 310.887Z" fill="#2B478B"/>
<path d="M416.184 244.295C416.184 244.295 414.992 244.098 415.184 242.463C415.377 240.828 415.377 238.686 414.046 239.086C412.714 239.487 412.645 240.55 412.1 239.925C411.554 239.3 411.565 236.687 407.583 236.5C403.6 236.313 402.018 237.697 400.173 236.89C398.329 236.084 398.238 233.295 398.238 233.295C398.533 233.855 398.992 234.312 399.553 234.604C399.553 234.604 396.479 230.404 400.034 227.525C403.589 224.645 407.219 226.531 409.277 226.659C413.81 226.932 416.761 227.193 418.221 230.18C419.68 233.167 419.081 241.432 416.184 244.295Z" fill="#2B478B"/>
<path d="M391.839 305.01C391.839 305.01 407.101 299.962 412.49 293.759C417.953 287.46 427.832 275.941 427.832 275.941L427.736 275.556C426.964 272.414 425.89 269.355 424.529 266.42C424.529 266.42 423.198 274.333 419.097 279.777L414.997 285.242C414.997 285.242 408.24 296.868 391.839 305.01Z" fill="#233862"/>
<path d="M9.3711 432.355H627.324C627.542 432.355 627.752 432.441 627.906 432.595C628.06 432.75 628.147 432.959 628.147 433.177C628.146 433.395 628.058 433.602 627.904 433.756C627.75 433.909 627.541 433.995 627.324 433.995H9.3711C9.26324 433.995 9.15632 433.975 9.05648 433.934C8.95663 433.893 8.86582 433.833 8.78931 433.757C8.71279 433.681 8.65208 433.591 8.61064 433.491C8.56921 433.392 8.54787 433.285 8.54787 433.177C8.54716 433.069 8.56797 432.962 8.60909 432.862C8.65021 432.761 8.71082 432.67 8.7874 432.594C8.86399 432.517 8.95502 432.457 9.05522 432.416C9.15542 432.375 9.26279 432.354 9.3711 432.355V432.355Z" fill="#2E3552"/>
<path d="M60.0081 433.476C59.3773 433.444 58.7518 433.385 58.105 433.332C56.8701 433.214 55.6084 433.07 54.3094 432.889C51.8546 432.551 49.3825 432.355 46.9052 432.301C46.2637 432.301 45.6276 432.269 44.97 432.301H43.9382C31.5357 432.627 -1.04785 435.421 0.0266841 416.604C1.39524 392.471 25.5429 402.713 27.1039 392.845C28.9589 381.214 51.615 368.332 61.1522 386.936C70.3899 404.957 75.5488 390.836 86.8394 396.82C103.155 405.454 99.258 436.164 60.0081 433.476Z" fill="#82B378"/>
<path d="M33.5447 415.968C33.5447 415.968 8.68159 418.907 9.22686 421.311C9.77212 423.715 33.2828 417.288 33.2828 417.288L33.5447 415.968Z" fill="#24555E"/>
<path d="M44.3859 422.631C44.3859 422.631 17.6304 403.931 16.5879 404.727C15.5455 405.523 43.0228 423.961 43.0228 423.961L44.3859 422.631Z" fill="#24555E"/>
<path d="M46.9038 432.301C46.2623 432.301 45.6261 432.269 44.9686 432.301C44.5623 430.794 43.6909 427.637 42.6432 423.753C42.4026 422.844 42.146 421.899 41.8841 420.916C38.8103 409.423 34.8598 394.063 35.6883 394.154C36.2603 394.218 38.4842 401.564 40.8203 409.872C40.986 410.406 41.1464 411.005 41.3014 411.576C42.3706 415.316 43.4076 419.201 44.3271 422.615L44.3538 422.695C45.5245 427.049 46.4814 430.645 46.9038 432.301Z" fill="#24555E"/>
<path d="M45.6207 405.08C45.2358 405.683 44.8402 406.277 44.466 406.848C42.6645 409.589 41.1624 411.764 41.1624 411.764L40.2001 410.893C40.2001 410.893 41.8894 408.008 43.9422 404.754C44.3271 404.123 44.7173 403.493 45.1236 402.863C47.6254 398.914 50.2181 395.137 50.5816 395.799C50.9451 396.462 48.2295 401.035 45.6207 405.08Z" fill="#24555E"/>
<path d="M61.5939 423.988C61.5939 423.988 82.0147 412.928 83.2335 414.675C84.4524 416.423 62.6363 424.645 62.6363 424.645L61.5939 423.988Z" fill="#24555E"/>
<path d="M63.1762 423.165L62.7379 424.634C61.4656 428.876 60.3109 432.542 60.0062 433.493C59.3754 433.461 58.7499 433.402 58.1031 433.348C58.5682 431.746 60.915 423.801 63.064 417.32C63.2671 416.7 63.4756 416.091 63.6627 415.504C65.0205 411.534 66.1966 408.494 66.651 408.489C67.3887 408.43 65.2343 416.22 63.1762 423.165Z" fill="#24555E"/>
<path d="M75.6586 417.176C75.6586 417.176 76.0221 407.372 76.9951 407.11C77.968 406.848 77.2677 416.486 77.2677 416.486L75.6586 417.176Z" fill="#24555E"/>
<path d="M63.7108 418.111C63.7108 418.111 55.0881 407.286 55.5692 406.357C56.0503 405.427 64.2828 416.294 64.2828 416.294L63.7108 418.111Z" fill="#24555E"/>
<path d="M635.424 432.408C634.89 432.376 634.302 432.328 633.724 432.28C632.612 432.173 631.477 432.039 630.319 431.879C628.118 431.576 625.901 431.397 623.68 431.345C623.102 431.345 622.536 431.318 621.948 431.345H621.018C609.904 431.639 580.689 434.144 581.651 417.272C582.881 395.639 604.526 404.802 605.926 395.97C607.589 385.547 627.898 373.996 636.451 390.67C644.731 406.827 649.361 394.175 659.48 399.534C674.106 407.292 670.642 434.839 635.424 432.408Z" fill="#82B378"/>
<path d="M611.705 416.706C611.705 416.706 589.408 419.345 589.9 421.514C590.392 423.683 611.492 417.86 611.492 417.86L611.705 416.706Z" fill="#24555E"/>
<path d="M621.424 422.69C621.424 422.69 597.438 405.908 596.502 406.661C595.567 407.415 620.2 423.918 620.2 423.918L621.424 422.69Z" fill="#24555E"/>
<path d="M623.68 431.35C623.102 431.35 622.536 431.323 621.948 431.35C621.579 430.004 620.798 427.167 619.863 423.678L619.179 421.14C616.426 410.834 612.881 397.06 613.624 397.146C614.159 397.199 616.131 403.787 618.227 411.235C618.371 411.737 618.516 412.25 618.655 412.763C619.601 416.134 620.547 419.601 621.37 422.657V422.732C622.445 426.643 623.3 429.886 623.68 431.35Z" fill="#24555E"/>
<path d="M622.531 406.944C622.183 407.479 621.83 408.013 621.494 408.547C619.89 411.005 618.532 412.955 618.532 412.955L617.666 412.175C617.666 412.175 619.184 409.589 621.007 406.667C621.349 406.132 621.702 405.539 622.076 404.973C624.316 401.436 626.642 398.027 626.968 398.642C627.294 399.256 624.872 403.317 622.531 406.944Z" fill="#24555E"/>
<path d="M636.852 423.897C636.852 423.897 655.14 414.002 656.252 415.552C657.364 417.101 637.782 424.49 637.782 424.49L636.852 423.897Z" fill="#24555E"/>
<path d="M638.268 423.165L637.878 424.485C636.734 428.289 635.703 431.575 635.425 432.429C634.89 432.397 634.302 432.349 633.725 432.301C634.136 430.875 636.237 423.753 638.167 417.919C638.349 417.384 638.536 416.818 638.701 416.316C639.915 412.757 640.973 410.033 641.374 410.022C642.048 409.953 640.118 416.925 638.268 423.165Z" fill="#24555E"/>
<path d="M649.473 417.79C649.473 417.79 649.799 409.001 650.671 408.766C651.542 408.531 650.917 417.176 650.917 417.176L649.473 417.79Z" fill="#24555E"/>
<path d="M638.733 418.629C638.733 418.629 630.998 408.926 631.431 408.082C631.864 407.238 639.268 416.989 639.268 416.989L638.733 418.629Z" fill="#24555E"/>
</g>
<defs>
<clipPath id="clip0">
<rect width="704" height="347" fill="white" transform="translate(0 87)"/>
</clipPath>
</defs>
</svg>
