<svg width="287" height="155" viewBox="0 0 287 155" fill="none" xmlns="http://www.w3.org/2000/svg">
<path d="M0.5 0.5C7.16667 61.3333 70.3 174.7 269.5 141.5" stroke="#666666" stroke-linejoin="round" stroke-dasharray="5 5"/>
<circle cx="101" cy="116" r="12.5" stroke="#666666" stroke-dasharray="5 5"/>
<path d="M273.613 140.79L270.747 144.895C270.596 145.112 270.538 145.379 270.584 145.64C270.63 145.9 270.777 146.131 270.993 146.283C271.101 146.359 271.223 146.413 271.352 146.441C271.481 146.47 271.614 146.473 271.744 146.45C271.874 146.427 271.998 146.378 272.109 146.307C272.221 146.236 272.316 146.143 272.392 146.034L275.824 141.118C275.901 141.01 275.954 140.888 275.983 140.759C276.012 140.631 276.015 140.497 275.992 140.367C275.968 140.237 275.92 140.113 275.849 140.002C275.777 139.891 275.685 139.795 275.576 139.72L270.651 136.238C270.543 136.163 270.421 136.11 270.292 136.082C270.164 136.055 270.031 136.053 269.901 136.077C269.772 136.099 269.647 136.146 269.536 136.217C269.425 136.287 269.329 136.379 269.253 136.486C269.102 136.703 269.044 136.971 269.09 137.231C269.136 137.491 269.283 137.723 269.5 137.875L273.613 140.79Z" fill="black"/>
</svg>
