<svg width="363" height="258" viewBox="0 0 363 258" fill="none" xmlns="http://www.w3.org/2000/svg">
<path d="M22.3977 1C10.8977 149 122.351 255.867 323.874 242.778" stroke="#666666" stroke-linejoin="round" stroke-dasharray="5 5"/>
<circle cx="103.634" cy="170.236" r="15.9681" transform="rotate(5.7461 103.634 170.236)" stroke="#666666" stroke-dasharray="5 5"/>
<path d="M328.038 242.483L324.775 246.281C324.603 246.481 324.518 246.742 324.538 247.005C324.558 247.269 324.681 247.514 324.881 247.686C324.981 247.773 325.097 247.839 325.222 247.88C325.348 247.922 325.48 247.938 325.612 247.928C325.743 247.918 325.872 247.882 325.989 247.822C326.107 247.762 326.212 247.68 326.297 247.579L330.205 243.031C330.292 242.932 330.357 242.816 330.399 242.69C330.44 242.565 330.456 242.433 330.446 242.301C330.437 242.169 330.401 242.041 330.341 241.923C330.281 241.806 330.198 241.701 330.098 241.615L325.546 237.658C325.446 237.572 325.33 237.508 325.205 237.467C325.08 237.427 324.948 237.411 324.816 237.422C324.685 237.431 324.557 237.466 324.439 237.525C324.321 237.584 324.216 237.665 324.13 237.765C323.959 237.966 323.874 238.226 323.894 238.49C323.913 238.753 324.037 238.998 324.237 239.171L328.038 242.483Z" fill="black"/>
</svg>
