<svg width="446" height="280" viewBox="0 0 446 280" fill="none" xmlns="http://www.w3.org/2000/svg">
<g clip-path="url(#clip0)">
<path d="M287.581 125.929H407.257C406.685 123.819 403.534 116.588 387.52 119.364C390.111 117.057 391.828 113.497 391.112 110.102C390.924 109.069 390.44 108.113 389.718 107.351C389.022 106.713 388.195 106.235 387.295 105.951C380.987 103.681 369.937 112.378 369.937 112.378C383.466 91.1214 346.583 82.1906 346.333 109.099C346.333 109.099 340.925 99.4333 335.007 102.106C332.603 103.481 334.088 107.623 335.167 109.439C317.887 101.043 302.157 106.195 309.484 115.773C292.488 116.132 287.581 125.929 287.581 125.929Z" fill="#E9F0FF"/>
<path d="M59.293 75.0195H131.693C131.346 73.741 129.439 69.3678 119.752 71.0465C121.315 69.6492 122.356 67.4954 121.94 65.4416C121.825 64.8176 121.532 64.2401 121.096 63.7786C120.676 63.3916 120.175 63.1023 119.63 62.9315C115.813 61.5561 109.127 66.8202 109.127 66.8202C117.314 53.9507 94.9975 48.5522 94.8474 64.8352C94.8474 64.8352 91.5746 58.9866 87.9922 60.6058C86.5387 61.4373 87.4358 63.9412 88.0891 65.0415C77.6329 59.9619 68.1175 63.0784 72.5501 68.8739C62.2595 69.0896 59.293 75.0195 59.293 75.0195Z" fill="#E9F0FF"/>
<path d="M109.201 97.5791H88.4702V135.984H109.201V97.5791Z" fill="#78A3F9"/>
<path d="M88.4702 107.308V111.015L109.201 108.639V107.308H88.4702Z" fill="#9BB8CC"/>
<path d="M111.633 102.675H86.0352V107.307H111.633V102.675Z" fill="#133B53"/>
<path d="M361.571 255.796H430.539C430.046 254.277 429.222 252.886 428.127 251.724C427.032 250.562 425.693 249.657 424.206 249.075C421.127 247.871 417.713 248.056 414.55 248.959C415.131 248.794 415.913 247.749 416.319 247.306C417.294 246.246 418.076 245.133 418.298 243.673C418.414 242.865 418.364 242.041 418.149 241.254C417.933 240.466 417.559 239.731 417.047 239.094C415.35 236.937 412.393 236.162 409.745 236.44C409.611 236.44 409.479 236.468 409.348 236.49C408.83 236.57 408.323 236.707 407.835 236.899C405.713 237.728 403.84 239.178 402.237 240.772C401.924 241.085 401.633 241.379 401.358 241.71C401.358 241.71 405.844 237.984 406.897 235.146C410.786 227.096 402.559 215.412 392.315 218.719C388.201 220.454 384.841 224.002 382.624 228.184C390.821 215.915 377.235 208.463 372.412 219.5C375.394 210.398 370.943 200.882 361.95 206.221C361.815 206.268 361.703 206.331 361.571 206.381V255.796Z" fill="#479DA3"/>
<path d="M361.571 255.796H402.208C401.918 254.901 401.433 254.082 400.789 253.397C400.144 252.712 399.355 252.179 398.479 251.835C396.666 251.129 394.653 251.235 392.79 251.77C393.728 249.922 392.443 247.431 390.624 246.709C388.804 245.987 386.773 246.59 385.022 247.487C386.532 246.781 387.663 245.299 388.282 243.623C390.574 238.881 385.725 231.995 379.692 233.933C377.267 234.955 375.288 237.059 373.981 239.51C378.808 232.283 370.805 227.891 367.964 234.393C370.73 227.281 365.394 223.108 361.578 224.702L361.571 255.796Z" fill="#7BBFBA"/>
<path d="M403.706 216.925C402.615 217.906 401.037 217.775 401.037 217.775C401.037 217.775 401.227 216.05 402.318 215.068C403.409 214.086 404.988 214.218 404.988 214.218C404.988 214.218 404.797 215.956 403.706 216.925Z" fill="#479DA3"/>
<path d="M372.362 228.325C371.55 229.788 369.799 230.232 369.799 230.232C369.799 230.232 369.365 228.3 370.177 226.837C370.99 225.374 372.741 224.93 372.741 224.93C372.741 224.93 373.175 226.859 372.362 228.325Z" fill="#7BBFBA"/>
<path d="M400.396 213.039C400.858 215.105 399.771 217.178 399.771 217.178C399.771 217.178 397.933 215.896 397.467 213.827C397.001 211.757 398.092 209.688 398.092 209.688C398.092 209.688 399.93 210.97 400.396 213.039Z" fill="#479DA3"/>
<path d="M32.6818 255.611L33.7415 240.241L25.2358 230.395L25.7579 229.973L30.7719 234.264L31.5065 229.973L32.3005 230.179L32.1629 235.53L34.2042 237.515L34.9794 221.811L30.8156 216.656L31.2783 216.259L35.5921 219.707L35.8703 211.495H36.9956L37.7396 221.592L38.8306 231.626L44.4447 225.534L44.973 225.884L42.9255 229.107L46.4954 229.057V229.654L42.5942 230.248L38.7649 236.249L39.6371 255.611H32.6818Z" fill="#994F61"/>
<path d="M68.9832 200.014C69.0519 198.101 68.9081 196.125 68.1048 194.387C67.3014 192.649 65.729 191.174 63.8316 190.902C62.7344 190.745 61.509 191.052 60.8338 191.927C62.972 189.27 64.9257 186.357 65.7666 183.049C66.6074 179.742 66.1917 175.963 63.991 173.359C61.8716 170.858 58.3331 169.764 55.0852 170.233C51.8374 170.702 48.8959 172.609 46.7608 175.103C46.989 169.967 48.1738 164.788 47.2329 159.739C46.2919 154.691 42.2782 149.63 37.1423 149.855C33.6631 150.011 30.7341 152.503 28.5147 155.188C23.8921 160.814 21.096 167.717 20.4998 174.975C19.165 173.14 17.8052 171.28 16.0234 169.88C14.2417 168.479 11.941 167.566 9.69966 167.932C6.01418 168.532 3.66972 172.287 2.77257 175.91C1.8161 179.805 1.95348 183.888 3.16957 187.71C5.17642 193.984 9.88409 198.963 14.4511 203.715C12.3536 202.777 9.70904 204.027 8.69311 206.1C7.31457 208.913 8.62746 212.124 10.5437 214.349C12.1535 216.225 14.2948 217.572 16.4986 218.682C28.8711 224.893 43.9287 223.996 56.4137 218.591C61.0495 216.581 64.2849 213.277 66.7481 208.826L66.7762 208.773C68.2548 206.122 68.88 203.058 68.9832 200.014Z" fill="#479DA3"/>
<path d="M29.2494 226.081C28.6711 225.412 26.9644 225.143 26.9956 226.368C26.4924 222.589 21.5565 224.021 23.8697 227.619C20.0748 223.677 16.7113 228.722 21.6221 230.97C17.449 231.054 19.781 237.009 23.4383 234.408C21.9566 235.299 22.9006 237.253 24.498 236.996C28.7399 236.315 33.0787 229.544 29.2494 226.081Z" fill="#479DA3"/>
<path d="M21.8412 214.933C21.4555 213.939 21.3077 212.869 21.4098 211.807C21.5598 210.754 22.16 209.719 23.1259 209.272C23.3995 209.13 23.7054 209.062 24.0134 209.074C24.3214 209.086 24.621 209.178 24.8827 209.341C23.3197 208.266 21.8161 207.031 20.8409 205.406C19.8656 203.78 19.4842 201.704 20.2376 199.966C20.9628 198.291 22.6695 197.153 24.4763 196.884C26.3048 196.667 28.1508 197.11 29.681 198.135C28.7432 195.44 27.2803 192.877 26.9739 190.038C26.6676 187.2 27.993 183.871 30.7595 183.161C32.635 182.686 34.5919 183.546 36.2017 184.618C39.5599 186.871 42.1493 190.096 43.6227 193.861C44.0416 192.674 44.4667 191.467 45.1857 190.423C45.9046 189.379 46.9862 188.547 48.2366 188.379C50.2935 188.11 52.1378 189.729 53.1943 191.505C54.3253 193.423 54.9051 195.617 54.8699 197.844C54.8042 201.501 53.0943 204.902 51.4313 208.16C52.3972 207.328 54.0071 207.575 54.8699 208.506C56.0515 209.776 55.867 211.701 55.2043 213.195C54.6031 214.442 53.7617 215.557 52.7286 216.478C47.1394 221.757 38.9901 223.686 31.4878 222.805C28.6995 222.492 26.4488 221.242 24.4294 219.263C24.423 219.255 24.4156 219.247 24.4076 219.241C23.2282 218.025 22.3494 216.55 21.8412 214.933V214.933Z" fill="#7BBFBA"/>
<path d="M7.81788 202.057C8.52747 203.345 8.10547 204.94 8.10547 204.94C8.10547 204.94 6.54251 204.449 5.82354 203.161C5.10457 201.873 5.53282 200.279 5.53282 200.279C5.53282 200.279 7.10829 200.773 7.81788 202.057Z" fill="#479DA3"/>
<path d="M3.56357 204.78C5.58293 204.661 7.3147 206.131 7.3147 206.131C7.3147 206.131 5.76736 207.791 3.75113 207.909C1.7349 208.028 0 206.559 0 206.559C0 206.559 1.54421 204.899 3.56357 204.78Z" fill="#479DA3"/>
<path d="M47.8458 230.842C47.3723 230.604 46.9932 230.213 46.7705 229.732C47.0139 229.625 47.2765 229.569 47.5423 229.566C47.8082 229.564 48.0717 229.616 48.3169 229.719C48.5622 229.821 48.784 229.972 48.969 230.163C49.154 230.354 49.2983 230.581 49.3932 230.829C48.8938 231.009 48.3481 231.013 47.8458 230.842V230.842Z" fill="#479DA3"/>
<path d="M48.7272 228.294C48.1506 228.74 47.44 228.978 46.7109 228.969C46.7228 228.604 46.8088 228.245 46.9637 227.914C47.1185 227.583 47.339 227.287 47.6117 227.044C47.8845 226.8 48.2038 226.615 48.5503 226.499C48.8968 226.383 49.2632 226.339 49.6274 226.368C49.5537 227.094 49.2364 227.772 48.7272 228.294V228.294Z" fill="#479DA3"/>
<path d="M47.6239 186.037C46.5986 187.091 44.9512 187.147 44.9512 187.147C44.9512 187.147 44.9668 185.5 45.9921 184.446C47.0174 183.393 48.6679 183.333 48.6679 183.333C48.6679 183.333 48.6648 184.984 47.6239 186.037Z" fill="#7BBFBA"/>
<path d="M22.8098 194.387C23.436 194.675 23.9454 195.167 24.254 195.784C23.9419 195.933 23.6029 196.017 23.2573 196.031C22.9117 196.045 22.5669 195.989 22.2439 195.865C21.9208 195.742 21.6261 195.554 21.3779 195.313C21.1297 195.073 20.933 194.784 20.7998 194.465C21.4414 194.211 22.1504 194.183 22.8098 194.387V194.387Z" fill="#7BBFBA"/>
<path d="M43.7882 182.752C44.4853 184.65 43.5819 186.731 43.5819 186.731C43.5819 186.731 41.5438 185.734 40.8467 183.837C40.1496 181.939 41.0499 179.857 41.0499 179.857C41.0499 179.857 43.088 180.855 43.7882 182.752Z" fill="#7BBFBA"/>
<path d="M26.7828 234.783C26.4205 234.826 26.0542 234.826 25.6919 234.783C25.1763 234.731 24.6989 234.488 24.354 234.101C24.2061 233.926 24.1039 233.716 24.0565 233.492C24.009 233.267 24.0178 233.034 24.082 232.814C24.304 232.188 25.1042 232.345 25.4699 231.876C25.5587 231.738 25.6189 231.585 25.6468 231.423C25.6747 231.262 25.6699 231.097 25.6325 230.938C25.56 230.622 25.5462 230.296 25.5919 229.975C25.6201 229.816 25.7069 229.672 25.8353 229.574C25.9637 229.475 26.1243 229.427 26.2858 229.441C26.5265 229.494 26.6734 229.725 26.8297 229.891C26.8737 229.946 26.9286 229.991 26.991 230.024C27.0534 230.057 27.122 230.077 27.1923 230.081C27.7894 230.081 27.9332 229.178 28.5553 229.288C29.1773 229.397 29.5806 230.091 29.7619 230.663C29.9292 231.158 29.9683 231.687 29.8753 232.201C29.7824 232.715 29.5605 233.197 29.2305 233.601C28.6178 234.37 27.7206 234.658 26.7828 234.783Z" fill="#7BBFBA"/>
<path d="M290.2 85.3258L143.403 82.8125L58.374 164.622H123.722H307.265H372.612L290.2 85.3258Z" fill="#091638"/>
<path d="M365.342 164.622H269.957V249.947H365.342V164.622Z" fill="#CADAFF"/>
<path d="M365.344 164.622H354.916V249.947H365.344V164.622Z" fill="#F43D4F"/>
<path d="M280.385 164.622H269.957V249.947H280.385V164.622Z" fill="#F43D4F"/>
<path d="M354.917 176.975H280.385V178.022H354.917V176.975Z" fill="#E1ECEF"/>
<path d="M354.917 188.995H280.385V190.042H354.917V188.995Z" fill="#E1ECEF"/>
<path d="M354.917 201.014H280.385V202.061H354.917V201.014Z" fill="#E1ECEF"/>
<path d="M354.917 213.033H280.385V214.08H354.917V213.033Z" fill="#E1ECEF"/>
<path d="M354.917 225.052H280.385V226.099H354.917V225.052Z" fill="#E1ECEF"/>
<path d="M354.917 237.071H280.385V238.119H354.917V237.071Z" fill="#E1ECEF"/>
<path d="M280.385 176.975H269.957V178.022H280.385V176.975Z" fill="#B72E41"/>
<path d="M280.385 188.995H269.957V190.042H280.385V188.995Z" fill="#B72E41"/>
<path d="M280.385 201.014H269.957V202.061H280.385V201.014Z" fill="#B72E41"/>
<path d="M280.385 213.033H269.957V214.08H280.385V213.033Z" fill="#B72E41"/>
<path d="M280.385 225.052H269.957V226.099H280.385V225.052Z" fill="#B72E41"/>
<path d="M280.385 237.071H269.957V238.119H280.385V237.071Z" fill="#B72E41"/>
<path d="M365.344 176.975H354.916V178.022H365.344V176.975Z" fill="#B72E41"/>
<path d="M365.344 188.995H354.916V190.042H365.344V188.995Z" fill="#B72E41"/>
<path d="M365.344 201.014H354.916V202.061H365.344V201.014Z" fill="#B72E41"/>
<path d="M365.344 213.033H354.916V214.08H365.344V213.033Z" fill="#B72E41"/>
<path d="M365.344 225.052H354.916V226.099H365.344V225.052Z" fill="#B72E41"/>
<path d="M365.344 237.071H354.916V238.119H365.344V237.071Z" fill="#B72E41"/>
<path d="M161.027 164.622H65.6416V249.947H161.027V164.622Z" fill="#CADAFF"/>
<path d="M160.214 176.975H65.6416V178.022H160.214V176.975Z" fill="#E1ECEF"/>
<path d="M160.214 188.995H65.6416V190.042H160.214V188.995Z" fill="#E1ECEF"/>
<path d="M160.214 201.014H65.6416V202.061H160.214V201.014Z" fill="#E1ECEF"/>
<path d="M160.214 213.033H65.6416V214.08H160.214V213.033Z" fill="#E1ECEF"/>
<path d="M160.214 225.052H65.6416V226.099H160.214V225.052Z" fill="#E1ECEF"/>
<path d="M160.214 237.071H65.6416V238.119H160.214V237.071Z" fill="#E1ECEF"/>
<path d="M144.737 182.161H81.9341V249.944H144.737V182.161Z" fill="#F43D4F"/>
<path d="M144.737 185.143L81.9341 195.334V182.161H144.737V185.143Z" fill="#B72E41"/>
<path d="M161.027 249.947H156.854L159.461 164.622H161.027V249.947Z" fill="#9BB8CC"/>
<path d="M161.027 166.031L65.6416 171.245V164.622H161.027V166.031Z" fill="#9BB8CC"/>
<path d="M280.385 164.622V170.673L354.917 166.6V164.622H280.385Z" fill="#9BB8CC"/>
<path d="M354.916 164.622V166.6L365.341 166.031V164.622H354.916Z" fill="#B72E41"/>
<path d="M269.957 164.622V171.245L280.385 170.673V164.622H269.957Z" fill="#B72E41"/>
<path d="M269.957 249.947H161.027V117.295L215.493 74.7915L269.957 117.295V249.947Z" fill="#CADAFF"/>
<path d="M215.493 74.7915L161.027 117.295V126.907L212.955 86.7639L269.957 131.243V117.295L215.493 74.7915Z" fill="#213768"/>
<path d="M278.609 118.423L215.493 71.062L152.421 118.898L158.567 125.047L215.493 80.6274L272.176 124.859L278.609 118.423Z" fill="#78A3F9"/>
<path d="M368.327 249.947H59.374V255.796H368.327V249.947Z" fill="#7BBFBA"/>
<path d="M134.384 196.84H92.4561V249.947H134.384V196.84Z" fill="white"/>
<path d="M111.843 199.272H95.4883V246.993H111.843V199.272Z" fill="#133B53"/>
<path d="M131.183 199.272H114.828V246.993H131.183V199.272Z" fill="#133B53"/>
<path d="M134.384 196.1H92.4561H92.0497H91.5246L91.0088 249.947H92.4561V196.84H134.384V196.1Z" fill="#B72E41"/>
<path d="M347.42 196.84H287.496V232.936H347.42V196.84Z" fill="white"/>
<path d="M300.365 199.272H290.284V230.11H300.365V199.272Z" fill="#133B53"/>
<path d="M332.016 199.272H303.288V230.11H332.016V199.272Z" fill="#133B53"/>
<path d="M345.016 199.272H334.935V230.11H345.016V199.272Z" fill="#133B53"/>
<path d="M347.417 196.378H287.496H286.608L285.874 232.936H287.496V196.841H347.417V196.378Z" fill="#9BB8CC"/>
<path d="M287.496 232.629H347.417V233.486L285.874 236.09V232.629H287.496Z" fill="#9BB8CC"/>
<path d="M194.659 199.272H178.304V246.993H194.659V199.272Z" fill="#133B53"/>
<path d="M213.999 199.272H197.644V246.993H213.999V199.272Z" fill="#133B53"/>
<path d="M233.339 199.272H216.984V246.993H233.339V199.272Z" fill="#133B53"/>
<path d="M252.683 199.272H236.328V246.993H252.683V199.272Z" fill="#133B53"/>
<path d="M254.596 196.378H174.343L173.099 249.947H175.619V196.841H254.596V196.378Z" fill="#9BB8CC"/>
<path d="M213.999 118.142H197.644V165.863H213.999V118.142Z" fill="#133B53"/>
<path d="M233.339 118.142H216.984V165.863H233.339V118.142Z" fill="#133B53"/>
<path d="M235.983 115.247H193.836L192.592 168.816H195.112V115.71H235.983V115.247Z" fill="#9BB8CC"/>
<path d="M258.334 168.473H172.652V172.874H258.334V168.473Z" fill="#133B53"/>
<path d="M258.334 172.874H172.652V168.473L169.363 172.874V177.016L258.334 173.849V172.874Z" fill="#9BB8CC"/>
<path d="M177.791 156.476H176.4V168.473H177.791V156.476Z" fill="#7BBFBA"/>
<path d="M224.205 156.476H222.814V168.473H224.205V156.476Z" fill="#7BBFBA"/>
<path d="M208.735 156.476H207.344V168.473H208.735V156.476Z" fill="#7BBFBA"/>
<path d="M239.675 156.476H238.284V168.473H239.675V156.476Z" fill="#7BBFBA"/>
<path d="M193.261 156.476H191.87V168.473H193.261V156.476Z" fill="#7BBFBA"/>
<path d="M255.149 156.476H253.758V168.473H255.149V156.476Z" fill="#7BBFBA"/>
<path d="M177.791 156.476H176.4V157.604H177.791V156.476Z" fill="#4A938C"/>
<path d="M224.205 156.476H222.814V157.604H224.205V156.476Z" fill="#4A938C"/>
<path d="M208.735 156.476H207.344V157.604H208.735V156.476Z" fill="#4A938C"/>
<path d="M239.675 156.476H238.284V157.604H239.675V156.476Z" fill="#4A938C"/>
<path d="M193.261 156.476H191.87V157.604H193.261V156.476Z" fill="#4A938C"/>
<path d="M255.149 156.476H253.758V157.604H255.149V156.476Z" fill="#4A938C"/>
<path d="M256.406 156.475H174.49V153.437L256.406 154.143V156.475Z" fill="#7BBFBA"/>
<path d="M63.3848 243.655H15.7642V245.496H63.3848V243.655Z" fill="#B6CCD8"/>
<path d="M63.3848 251.135H15.7642V252.976H63.3848V251.135Z" fill="#B6CCD8"/>
<path d="M20.8124 255.612H17.5802C17.4878 255.614 17.3982 255.58 17.3309 255.517C17.2636 255.454 17.224 255.366 17.2207 255.274V241.464C17.2218 241.388 17.2482 241.316 17.2957 241.257L18.9118 239.31C18.9471 239.269 18.9907 239.236 19.0398 239.213C19.0889 239.191 19.1423 239.179 19.1963 239.179C19.2503 239.179 19.3037 239.191 19.3528 239.213C19.4019 239.236 19.4455 239.269 19.4808 239.31L21.0969 241.257C21.146 241.315 21.1726 241.388 21.1719 241.464V255.274C21.1686 255.366 21.129 255.454 21.0617 255.517C20.9943 255.58 20.9047 255.614 20.8124 255.612V255.612Z" fill="white"/>
<path d="M27.5612 255.612H24.3322C24.2398 255.614 24.1502 255.58 24.0829 255.517C24.0155 255.454 23.9759 255.366 23.9727 255.274V241.464C23.9719 241.388 23.9986 241.315 24.0477 241.257L25.6638 239.31C25.699 239.269 25.7427 239.236 25.7918 239.213C25.8409 239.191 25.8942 239.179 25.9483 239.179C26.0023 239.179 26.0557 239.191 26.1048 239.213C26.1539 239.236 26.1975 239.269 26.2327 239.31L27.8457 241.257C27.896 241.314 27.9237 241.388 27.9239 241.464V255.274C27.9198 255.367 27.8795 255.454 27.8117 255.517C27.7438 255.58 27.6539 255.614 27.5612 255.612Z" fill="white"/>
<path d="M34.3134 255.612H31.0812C30.9888 255.614 30.8992 255.58 30.8319 255.517C30.7646 255.454 30.7249 255.366 30.7217 255.274V241.464C30.7228 241.388 30.7492 241.316 30.7967 241.257L32.4128 239.31C32.448 239.269 32.4917 239.236 32.5408 239.213C32.5899 239.191 32.6433 239.179 32.6973 239.179C32.7513 239.179 32.8047 239.191 32.8538 239.213C32.9029 239.236 32.9465 239.269 32.9817 239.31L34.5978 241.257C34.647 241.315 34.6736 241.388 34.6729 241.464V255.274C34.6696 255.366 34.63 255.454 34.5627 255.517C34.4953 255.58 34.4057 255.614 34.3134 255.612V255.612Z" fill="white"/>
<path d="M41.0622 255.612H37.8331C37.7408 255.614 37.6512 255.58 37.5839 255.517C37.5165 255.454 37.4769 255.366 37.4736 255.274V241.464C37.4729 241.388 37.4995 241.315 37.5487 241.257L39.1648 239.31C39.2 239.269 39.2436 239.236 39.2927 239.213C39.3418 239.191 39.3952 239.179 39.4492 239.179C39.5032 239.179 39.5566 239.191 39.6057 239.213C39.6548 239.236 39.6985 239.269 39.7337 239.31L41.3467 241.257C41.3969 241.314 41.4247 241.388 41.4248 241.464V255.274C41.4208 255.367 41.3805 255.454 41.3126 255.517C41.2448 255.58 41.1549 255.614 41.0622 255.612Z" fill="white"/>
<path d="M47.8144 255.612H44.5821C44.4898 255.614 44.4002 255.58 44.3329 255.517C44.2655 255.454 44.2259 255.366 44.2227 255.274V241.464C44.2237 241.388 44.2502 241.316 44.2977 241.257L45.9138 239.31C45.949 239.269 45.9927 239.236 46.0418 239.213C46.0908 239.191 46.1442 239.179 46.1982 239.179C46.2523 239.179 46.3057 239.191 46.3548 239.213C46.4039 239.236 46.4475 239.269 46.4827 239.31L48.0988 241.257C48.148 241.315 48.1746 241.388 48.1739 241.464V255.274C48.1706 255.366 48.131 255.454 48.0636 255.517C47.9963 255.58 47.9067 255.614 47.8144 255.612V255.612Z" fill="white"/>
<path d="M54.5632 255.612H51.3341C51.2418 255.614 51.1522 255.58 51.0848 255.517C51.0175 255.454 50.9779 255.366 50.9746 255.274V241.464C50.9739 241.388 51.0005 241.315 51.0496 241.257L52.6658 239.31C52.701 239.269 52.7446 239.236 52.7937 239.213C52.8428 239.191 52.8962 239.179 52.9502 239.179C53.0042 239.179 53.0576 239.191 53.1067 239.213C53.1558 239.236 53.1995 239.269 53.2347 239.31L54.8477 241.257C54.8979 241.314 54.9257 241.388 54.9258 241.464V255.274C54.9217 255.367 54.8814 255.454 54.8136 255.517C54.7458 255.58 54.6558 255.614 54.5632 255.612V255.612Z" fill="white"/>
<path d="M61.3153 255.612H58.0831C57.9908 255.614 57.9012 255.58 57.8338 255.517C57.7665 255.454 57.7269 255.366 57.7236 255.274V241.464C57.7247 241.388 57.7511 241.316 57.7987 241.257L59.4148 239.31C59.45 239.269 59.4936 239.236 59.5427 239.213C59.5918 239.191 59.6452 239.179 59.6992 239.179C59.7532 239.179 59.8066 239.191 59.8557 239.213C59.9048 239.236 59.9485 239.269 59.9837 239.31L61.5998 241.257C61.6489 241.315 61.6756 241.388 61.6748 241.464V255.274C61.6715 255.366 61.6319 255.454 61.5646 255.517C61.4973 255.58 61.4077 255.614 61.3153 255.612V255.612Z" fill="white"/>
<path d="M425.647 243.655H358.142V245.496H425.647V243.655Z" fill="#B6CCD8"/>
<path d="M425.647 251.135H358.142V252.976H425.647V251.135Z" fill="#B6CCD8"/>
<path d="M363.191 255.612H359.959C359.866 255.614 359.777 255.58 359.709 255.517C359.642 255.454 359.602 255.366 359.599 255.274V241.464C359.6 241.388 359.627 241.316 359.674 241.257L361.29 239.31C361.325 239.269 361.369 239.236 361.418 239.213C361.467 239.191 361.521 239.179 361.575 239.179C361.629 239.179 361.682 239.191 361.731 239.213C361.78 239.236 361.824 239.269 361.859 239.31L363.475 241.257C363.524 241.315 363.551 241.388 363.55 241.464V255.274C363.547 255.366 363.507 255.454 363.44 255.517C363.373 255.58 363.283 255.614 363.191 255.612V255.612Z" fill="white"/>
<path d="M369.94 255.612H366.711C366.618 255.614 366.529 255.58 366.461 255.517C366.394 255.454 366.354 255.366 366.351 255.274V241.464C366.35 241.388 366.377 241.315 366.426 241.257L368.042 239.31C368.077 239.269 368.121 239.236 368.17 239.213C368.219 239.191 368.273 239.179 368.327 239.179C368.381 239.179 368.434 239.191 368.483 239.213C368.532 239.236 368.576 239.269 368.611 239.31L370.224 241.257C370.274 241.314 370.302 241.388 370.302 241.464V255.274C370.298 255.367 370.258 255.454 370.19 255.517C370.122 255.58 370.032 255.614 369.94 255.612V255.612Z" fill="white"/>
<path d="M376.691 255.612H373.45C373.357 255.614 373.268 255.58 373.201 255.517C373.133 255.454 373.094 255.366 373.09 255.274V241.464C373.091 241.388 373.118 241.316 373.165 241.257L374.781 239.31C374.817 239.269 374.86 239.236 374.909 239.213C374.959 239.191 375.012 239.179 375.066 239.179C375.12 239.179 375.173 239.191 375.222 239.213C375.272 239.236 375.315 239.269 375.35 239.31L376.966 241.257C377.016 241.315 377.042 241.388 377.042 241.464V255.274C377.038 255.365 377 255.45 376.935 255.513C376.869 255.576 376.782 255.612 376.691 255.612V255.612Z" fill="white"/>
<path d="M383.453 255.612H380.224C380.131 255.614 380.042 255.58 379.974 255.517C379.907 255.454 379.868 255.366 379.864 255.274V241.464C379.864 241.388 379.89 241.315 379.939 241.257L381.555 239.31C381.591 239.269 381.634 239.236 381.683 239.213C381.732 239.191 381.786 239.179 381.84 239.179C381.894 239.179 381.947 239.191 381.996 239.213C382.045 239.236 382.089 239.269 382.124 239.31L383.737 241.257C383.788 241.314 383.815 241.388 383.815 241.464V255.274C383.811 255.367 383.771 255.454 383.703 255.517C383.635 255.58 383.546 255.614 383.453 255.612V255.612Z" fill="white"/>
<path d="M390.193 255.612H386.961C386.868 255.614 386.779 255.58 386.711 255.517C386.644 255.454 386.604 255.366 386.601 255.274V241.464C386.602 241.388 386.629 241.316 386.676 241.257L388.292 239.31C388.327 239.269 388.371 239.236 388.42 239.213C388.469 239.191 388.523 239.179 388.577 239.179C388.631 239.179 388.684 239.191 388.733 239.213C388.782 239.236 388.826 239.269 388.861 239.31L390.477 241.257C390.526 241.315 390.553 241.388 390.552 241.464V255.274C390.549 255.366 390.509 255.454 390.442 255.517C390.375 255.58 390.285 255.614 390.193 255.612Z" fill="white"/>
<path d="M396.942 255.612H393.712C393.62 255.614 393.531 255.58 393.463 255.517C393.396 255.454 393.356 255.366 393.353 255.274V241.464C393.352 241.388 393.379 241.315 393.428 241.257L395.044 239.31C395.079 239.269 395.123 239.236 395.172 239.213C395.221 239.191 395.275 239.179 395.329 239.179C395.383 239.179 395.436 239.191 395.485 239.213C395.534 239.236 395.578 239.269 395.613 239.31L397.226 241.257C397.276 241.314 397.304 241.388 397.304 241.464V255.274C397.3 255.367 397.26 255.454 397.192 255.517C397.124 255.58 397.034 255.614 396.942 255.612V255.612Z" fill="white"/>
<path d="M403.694 255.612H400.462C400.369 255.614 400.28 255.58 400.212 255.517C400.145 255.454 400.105 255.366 400.102 255.274V241.464C400.103 241.388 400.13 241.316 400.177 241.257L401.793 239.31C401.828 239.269 401.872 239.236 401.921 239.213C401.97 239.191 402.024 239.179 402.078 239.179C402.132 239.179 402.185 239.191 402.234 239.213C402.283 239.236 402.327 239.269 402.362 239.31L403.978 241.257C404.027 241.315 404.054 241.388 404.053 241.464V255.274C404.05 255.366 404.01 255.454 403.943 255.517C403.876 255.58 403.786 255.614 403.694 255.612Z" fill="white"/>
<path d="M410.442 255.612H407.21C407.118 255.614 407.028 255.58 406.96 255.517C406.892 255.454 406.852 255.367 406.848 255.274V241.464C406.848 241.388 406.876 241.314 406.926 241.257L408.542 239.31C408.577 239.269 408.621 239.236 408.67 239.213C408.719 239.191 408.772 239.179 408.826 239.179C408.88 239.179 408.934 239.191 408.983 239.213C409.032 239.236 409.076 239.269 409.111 239.31L410.724 241.257C410.774 241.314 410.802 241.388 410.802 241.464V255.274C410.798 255.366 410.758 255.453 410.691 255.516C410.624 255.579 410.535 255.613 410.442 255.612V255.612Z" fill="white"/>
<path d="M417.195 255.612H413.963C413.87 255.614 413.781 255.58 413.713 255.517C413.646 255.454 413.606 255.366 413.603 255.274V241.464C413.602 241.388 413.629 241.315 413.678 241.257L415.294 239.31C415.329 239.269 415.373 239.236 415.422 239.213C415.471 239.191 415.525 239.179 415.579 239.179C415.633 239.179 415.686 239.191 415.735 239.213C415.784 239.236 415.828 239.269 415.863 239.31L417.479 241.257C417.528 241.315 417.555 241.388 417.554 241.464V255.274C417.551 255.366 417.511 255.454 417.444 255.517C417.377 255.58 417.287 255.614 417.195 255.612V255.612Z" fill="white"/>
<path d="M423.943 255.612H420.714C420.621 255.614 420.532 255.58 420.464 255.517C420.396 255.454 420.356 255.367 420.352 255.274V241.464C420.352 241.388 420.379 241.314 420.43 241.257L422.043 239.31C422.078 239.269 422.122 239.236 422.171 239.213C422.22 239.191 422.273 239.179 422.327 239.179C422.381 239.179 422.435 239.191 422.484 239.213C422.533 239.236 422.576 239.269 422.612 239.31L424.228 241.257C424.278 241.314 424.306 241.388 424.306 241.464V255.274C424.302 255.367 424.261 255.454 424.194 255.517C424.126 255.58 424.036 255.614 423.943 255.612V255.612Z" fill="white"/>
<path d="M432.218 255.096H11.3628V256.493H432.218V255.096Z" fill="#133B53"/>
<path d="M388.789 83.1282C390.632 84.8956 391.91 87.1697 392.46 89.6632C393.011 92.1566 392.809 94.7572 391.882 97.1363C390.954 99.5153 389.342 101.566 387.249 103.029C385.156 104.491 382.676 105.3 380.123 105.354C377.57 105.407 375.059 104.702 372.907 103.328C370.754 101.954 369.058 99.9728 368.032 97.6346C367.006 95.2964 366.696 92.7064 367.142 90.1922C367.588 87.6779 368.769 85.3524 370.537 83.5096C372.907 81.0396 376.161 79.6119 379.584 79.5404C383.007 79.4689 386.317 80.7594 388.789 83.1282V83.1282Z" fill="#FFF3D9"/>
<path d="M388.508 93.922L383.015 95.6069L381.29 101.09C381.259 101.19 381.201 101.28 381.122 101.348C381.043 101.417 380.946 101.462 380.842 101.478C380.739 101.494 380.633 101.48 380.537 101.439C380.441 101.397 380.358 101.329 380.299 101.243L376.995 96.5541L371.249 96.6103C371.144 96.6117 371.042 96.5836 370.952 96.5293C370.862 96.475 370.79 96.3966 370.743 96.3032C370.696 96.2097 370.675 96.1049 370.685 96.0006C370.694 95.8963 370.733 95.7967 370.796 95.7132L374.234 91.1181L372.406 85.6695C372.372 85.5703 372.367 85.4636 372.39 85.3615C372.414 85.2594 372.466 85.1661 372.541 85.0921C372.615 85.0182 372.708 84.9666 372.811 84.9432C372.913 84.9198 373.019 84.9256 373.119 84.96L378.555 86.8355L383.172 83.4126C383.256 83.3512 383.355 83.3144 383.459 83.3064C383.563 83.2983 383.667 83.3193 383.76 83.3669C383.853 83.4146 383.931 83.487 383.984 83.5763C384.038 83.6655 384.066 83.7679 384.066 83.8721L383.975 89.6176L388.664 92.953C388.743 93.0146 388.804 93.0964 388.841 93.1898C388.878 93.2832 388.889 93.3847 388.873 93.4838C388.857 93.5829 388.814 93.6759 388.75 93.753C388.686 93.8301 388.602 93.8885 388.508 93.922Z" fill="#FED333"/>
<path d="M321.278 118.442C321.278 118.442 312.779 119.752 306.499 126.013C300.219 132.274 296.471 142.33 296.471 142.33L309.328 146.081C309.328 146.081 304.189 134.09 321.278 118.442Z" fill="#FAE0B2"/>
<path d="M323.632 124.609L322.713 117.366L316.223 114.019C316.058 113.933 315.919 113.802 315.823 113.642C315.728 113.481 315.679 113.297 315.682 113.11C315.685 112.923 315.74 112.741 315.842 112.584C315.943 112.427 316.086 112.301 316.255 112.221L322.86 109.095L324.038 101.89C324.068 101.705 324.149 101.532 324.272 101.391C324.395 101.249 324.555 101.145 324.734 101.091C324.913 101.036 325.104 101.032 325.285 101.081C325.466 101.129 325.63 101.228 325.758 101.365L330.759 106.679L337.977 105.572C338.162 105.544 338.352 105.568 338.524 105.641C338.696 105.715 338.844 105.836 338.952 105.989C339.059 106.143 339.121 106.323 339.131 106.51C339.141 106.697 339.099 106.884 339.008 107.048L335.495 113.447L338.777 119.967C338.861 120.134 338.897 120.322 338.881 120.508C338.864 120.695 338.796 120.873 338.683 121.022C338.571 121.172 338.418 121.287 338.244 121.355C338.069 121.422 337.879 121.44 337.696 121.405L330.522 120.042L325.336 125.178C325.204 125.31 325.038 125.403 324.856 125.446C324.675 125.489 324.485 125.48 324.308 125.421C324.131 125.362 323.974 125.255 323.854 125.111C323.735 124.968 323.658 124.794 323.632 124.609V124.609Z" fill="#F73E39"/>
<path d="M263.705 37.383C263.392 38.6647 262.829 40.6934 262.829 40.6934C262.876 41.2498 263.039 43.5724 263.236 46.4139L259.056 44.7415C259.056 44.7415 259.106 40.1089 258.919 39.8244C258.731 39.5399 258.497 39.8838 257.215 38.052C256.964 37.5975 256.815 37.0942 256.777 36.5765C256.777 36.5765 256.699 35.4137 256.962 35.3043C257.085 35.2629 257.219 35.2669 257.339 35.3157C257.46 35.3644 257.559 35.4546 257.618 35.57C257.712 35.77 257.687 36.2389 257.781 36.4421C257.875 36.6453 258.481 36.8829 258.737 36.8704C258.994 36.8579 258.703 33.4318 258.703 33.4318C258.703 33.4318 258.562 32.4597 258.49 32.1408C258.419 31.822 258.178 31.0749 258.178 31.0749C258.178 31.0749 257.887 29.9214 258.247 29.8245C258.459 29.7745 258.997 30.7123 259.366 31.7001C259.763 32.7723 259.991 33.9101 260.103 33.8882C260.369 33.8507 260.229 31.972 260.229 31.972C260.097 31.5594 260.01 31.134 259.969 30.7029C259.716 30.2059 259.55 29.2806 259.994 29.2056C260.075 29.2056 260.657 30.3653 260.657 30.3653C260.657 30.3653 260.885 31.1905 261.019 31.5782C261.254 32.2596 261.291 33.3349 261.413 33.8101C261.516 34.2039 261.607 34.0414 261.651 34.057C261.647 33.6294 261.617 33.2024 261.56 32.7785C261.565 32.3598 261.534 31.9415 261.466 31.5281C261.375 31.0965 261.316 30.6587 261.288 30.2184C261.216 29.2462 261.829 29.3462 262.038 30.2184C262.12 30.556 262.204 30.928 262.289 31.3031C262.62 32.7598 262.601 34.1664 262.767 34.1758C262.932 34.1852 262.836 31.6344 262.836 31.6344C262.836 31.6344 263.148 30.2184 263.461 31.5313C263.679 32.4529 263.784 33.3976 263.773 34.3446C263.748 34.7666 264.017 36.0983 263.705 37.383Z" fill="#F8A492"/>
<path d="M263.433 42.985C263.433 42.985 258.725 41.8596 258.678 42.2379C257.69 50.5216 257.246 53.5194 257.078 53.6038C256.506 53.8976 248.95 46.9799 247.59 46.511C246.933 46.3325 246.249 46.2763 245.571 46.3454L243.649 46.3985H243.592V47.9083C245.402 49.5338 249.532 74.1662 249.888 74.1662C250.244 74.1662 258.459 76.2075 258.328 75.5198C258.306 75.4072 252.783 70.8871 251.216 64.3633C250.688 62.1751 250.429 59.8182 250.144 57.755C251.964 58.6647 259.063 62.1595 260.188 61.6969C263.68 60.2558 263.433 42.985 263.433 42.985Z" fill="#3C8F7C"/>
<path d="M277.521 86.7353C277.521 86.7353 285.133 92.6965 285.389 93.753C285.755 95.2785 292.723 93.2748 291.044 92.9653C290.656 92.8934 289.418 92.5808 289.318 92.5245C288.771 92.2338 282 84.0845 282 84.0845L277.521 86.7353Z" fill="#F7A491"/>
<path d="M294.311 92.9656L289.453 92.5718C289.453 92.5718 288.062 93.719 285.389 93.7721C285.127 94.6286 285.051 95.5315 285.167 96.4198C285.202 96.6636 285.242 97.4076 285.48 97.392C286.38 97.3294 288.772 96.7355 291.497 96.1885C291.497 96.1885 295.161 95.4132 297.274 94.1472C299.387 92.8812 294.311 92.9656 294.311 92.9656Z" fill="#B75742"/>
<path d="M243.411 71.7808C247.323 72.3088 251.297 72.1373 255.149 71.2744C262.282 69.6052 270.172 68.061 272.482 69.3989C274.358 70.4804 285.958 88.0326 285.958 88.0326L281.472 91.3086L268.681 76.9855C268.681 76.9855 252.364 83.0061 248.7 82.3371C240.357 80.8242 240.238 74.1597 243.411 71.7808Z" fill="#13375B"/>
<path d="M249.513 68.2363L255.089 74.8665L244.742 78.0174L243.417 71.7812L249.513 68.2363Z" fill="#13375B"/>
<path d="M260.844 98.5107C260.844 98.5107 260.507 107.717 260.297 109.276C260.088 110.836 264.205 115.503 263.676 113.878C263.558 113.503 263.245 112.265 263.245 112.149C263.245 111.524 264.771 101.03 264.771 101.03L260.844 98.5107Z" fill="#F7A491"/>
<path d="M266.309 117.232L263.27 112.29C263.27 112.29 261.598 111.612 260.282 109.289C259.404 109.463 258.574 109.824 257.85 110.349C257.65 110.496 256.287 111.493 256.381 111.721C256.731 112.568 258.569 114.378 260.613 116.357C262.212 117.642 263.881 118.836 265.615 119.933C267.722 121.193 266.309 117.232 266.309 117.232Z" fill="#B75742"/>
<path d="M269.881 80.3617C267.931 77.764 252.201 75.2945 252.201 75.2945L247.825 66.8545L238.134 72.8344C238.134 72.8344 239.103 80.5524 239.832 82.6155C240.801 85.3632 247.334 85.5039 251.301 85.4632C254.964 85.4257 261.654 86.1728 261.654 86.1728L259.391 106.135C259.391 106.135 263.839 107.148 265.089 106.985C265.211 106.976 272.304 83.5939 269.881 80.3617Z" fill="#355389"/>
<path d="M243.645 46.4141L238.172 46.7267L238.009 46.7735C237.562 46.8548 237.969 62.8002 238.366 68.7583C238.763 74.7163 239.569 77.2171 239.569 77.2171C239.569 77.2171 246.993 75.898 249.26 75.0289C250.197 74.6632 252.492 71.803 252.492 71.803C252.492 71.803 250.157 68.677 248.978 63.5567C248.072 59.6212 246.95 52.6409 246.309 51.1842C244.849 47.8176 243.645 46.4141 243.645 46.4141Z" fill="#9BC1F9"/>
<path d="M238.328 41.8876L238.172 46.7203C238.172 46.7203 241.717 52.8253 243.533 51.9719C245.061 51.2592 243.705 46.6172 243.705 46.6172C243.705 46.6172 243.442 45.5512 243.08 44.329C242.813 43.5345 242.66 42.7062 242.626 41.8689C242.661 40.2184 238.328 41.8876 238.328 41.8876Z" fill="#F7A491"/>
<path d="M242.623 41.8689C242.661 40.2184 238.328 41.8876 238.328 41.8876V42.3596C238.46 42.5668 238.624 42.7524 238.813 42.9098C240.012 43.8369 241.52 44.2718 243.029 44.1258C242.79 43.3959 242.653 42.6364 242.623 41.8689V41.8689Z" fill="#F47458"/>
<path d="M242.561 30.8687C242.561 30.8687 244.368 33.5913 244.502 35.8702C244.597 37.1654 244.478 38.4674 244.152 39.7244L238.356 32.8005L242.561 30.8687Z" fill="#184655"/>
<path d="M245.099 35.4109C245.183 36.2142 244.87 36.902 244.405 36.9488C243.939 36.9957 243.495 36.3862 243.411 35.5828C243.326 34.7794 243.642 34.0949 244.108 34.0448C244.573 33.9948 245.017 34.6106 245.099 35.4109Z" fill="#F48C7F"/>
<path d="M236.484 33.9198C236.349 33.8886 236.365 40.5562 238.297 42.1254C240.229 43.6946 243.592 43.8322 244.574 42.2505C245.658 40.5031 244.627 33.4791 241.76 31.988C238.894 30.4969 236.484 33.9198 236.484 33.9198Z" fill="#F7A491"/>
<path d="M235.993 29.7839C234.517 31.078 233.805 32.0221 232.807 34.3228C231.579 37.1361 234.014 40.0776 236.055 41.2405C238.097 42.4033 238.265 43.8131 238.265 43.8131L238.35 42.9472C238.39 42.6812 238.382 42.41 238.325 42.147C238.252 41.9032 238.155 41.6676 238.034 41.4436C237.859 41.0717 237.303 39.7994 237.096 39.4649C236.521 38.5772 236.409 38.3865 236.693 37.5425C236.912 36.8954 236.659 35.4668 237.006 34.3978L239.753 33.807C239.753 33.807 241.473 33.3912 242.342 32.3909C244.814 29.5151 239.885 26.3047 235.993 29.7839Z" fill="#184655"/>
<path d="M237.334 38.2738C237.672 39.0053 237.603 39.7586 237.178 39.9524C236.753 40.1462 236.134 39.718 235.796 38.9865C235.459 38.255 235.527 37.5017 235.952 37.3047C236.378 37.1078 236.996 37.5423 237.334 38.2738Z" fill="#F7A491"/>
<path d="M218.61 19.884C218.922 21.1688 219.485 23.1944 219.485 23.1944C219.441 23.7539 219.275 26.0734 219.078 28.918L223.258 27.2456C223.258 27.2456 223.208 22.6098 223.395 22.3285C223.583 22.0472 223.817 22.3879 225.099 20.553C225.35 20.0987 225.499 19.5952 225.537 19.0775C225.537 19.0775 225.615 17.9147 225.352 17.8053C225.229 17.7648 225.095 17.7696 224.975 17.8188C224.854 17.8681 224.755 17.9586 224.696 18.0741C224.602 18.2741 224.627 18.743 224.533 18.9431C224.439 19.1432 223.833 19.387 223.58 19.3745C223.327 19.362 223.611 15.9359 223.611 15.9359C223.611 15.9359 223.752 14.9638 223.824 14.6449C223.886 14.373 224.136 13.5759 224.136 13.5759C224.136 13.5759 224.427 12.4224 224.067 12.3255C223.855 12.2723 223.317 13.2101 222.948 14.201C222.551 15.2732 222.323 16.408 222.214 16.3892C221.945 16.3548 222.086 14.473 222.086 14.473C222.218 14.067 222.305 13.6477 222.345 13.2226C222.598 12.7225 222.764 11.8003 222.323 11.7222C222.239 11.7222 221.657 12.8819 221.657 12.8819C221.657 12.8819 221.429 13.7103 221.295 14.0948C221.06 14.7762 221.023 15.8515 220.901 16.3267C220.798 16.7205 220.707 16.558 220.663 16.5768C220.667 16.1481 220.697 15.72 220.754 15.2951C220.751 14.8765 220.782 14.4583 220.848 14.0447C220.94 13.6131 221 13.1754 221.029 12.735C221.098 11.7628 220.488 11.8628 220.276 12.7537C220.194 13.0913 220.11 13.4602 220.026 13.8353C219.713 15.2951 219.713 16.6987 219.547 16.7112C219.382 16.7237 219.479 14.1667 219.479 14.1667C219.479 14.1667 219.166 12.7537 218.853 14.0666C218.635 14.9882 218.53 15.933 218.541 16.88C218.566 17.2707 218.297 18.6024 218.61 19.884Z" fill="#F8A492"/>
<path d="M238.172 46.7204C238.172 46.7204 232.748 46.4672 231.348 45.8358C230.501 45.4513 223.533 39.8339 223.533 39.8339L223.611 24.795L218.716 24.4199C218.716 24.4199 216.174 41.0437 217.056 42.863C217.966 44.7385 228.169 52.4784 230.21 55.8356C231.385 57.7706 233.836 84.0723 234.208 84.3098C236.846 85.6821 245.002 87.0544 244.808 86.2229C239.488 63.1847 238.172 46.7204 238.172 46.7204Z" fill="#3C8F7C"/>
<path d="M135.088 216.847C135.209 216.9 133.437 219.185 131.712 220.801C130.317 222.548 129.011 224.618 128.561 226.875C127.876 230.313 128.445 247.253 127.851 248.459C122.74 253.461 119.039 265.999 117.998 269.825C117.795 270.571 117.386 271.244 116.816 271.766V271.766L117.045 276.09L119.583 278.431C119.583 278.431 119.02 274.905 120.149 272.292C120.149 272.292 133.018 252.801 133.781 251.31C135.253 247.068 140.567 225.334 140.567 225.334L141.802 220.332L135.088 216.847Z" fill="#F7A491"/>
<path d="M114.034 273.16C114.034 273.16 115.641 275.636 115.778 276.599C115.916 277.562 116.772 279.756 117.72 279.894C117.935 279.925 121.618 280.206 121.59 279.734C121.571 279.384 120.236 278.881 119.617 278.453C118.548 277.715 116.888 271.694 116.888 271.694C116.888 271.694 114.103 272.385 114.034 273.16Z" fill="#F47458"/>
<path d="M146.088 224.358C146.088 224.358 154.378 242.082 154.431 245.199C154.475 247.871 152.98 262.857 153.396 275.339C153.412 275.789 153.984 276.389 154.815 276.768C155.281 276.983 157.538 277.99 157.538 277.99L157.851 278.8L150.073 278.246L149.964 276.124C149.964 276.124 146.869 257.453 147.185 252.173C147.235 251.341 147.638 246.377 147.638 246.377L138.289 228.325L144.168 220.598L146.088 224.358Z" fill="#F7A491"/>
<path d="M146.866 184.574C145.616 181.227 142.328 179.201 138.911 179.826C138.389 178.985 137.706 178.256 136.901 177.681C136.097 177.105 135.186 176.694 134.222 176.472C130.471 175.669 125.394 177.15 125.532 181.123C124.075 183.793 124.019 187.607 126.248 189.638C125.472 193.227 128.833 196.697 133.203 196.569C134.725 199.069 137.623 200.692 140.505 200.348C141.142 200.242 141.783 200.171 142.428 200.135C142.209 200.095 147.06 203.815 151.18 198.097C155.353 192.261 152.406 185.196 146.866 184.574Z" fill="#355389"/>
<path d="M146.369 164.503C146.574 164.019 146.83 163.558 147.132 163.127L147.444 162.655C147.477 162.59 147.506 162.523 147.532 162.455C147.673 162.036 147.566 160.689 147.566 160.689L144.728 161.377L144.103 163.012C143.478 162.721 142.396 160.526 142.002 161.052C141.536 161.677 143.287 164.371 143.428 165.115C143.568 165.859 141.921 177.188 141.446 179.438C140.971 181.689 137.754 187.972 137.754 187.972L140.689 191.698C140.689 191.698 145.394 182.111 145.691 179.195C145.725 178.882 145.763 178.426 145.8 177.857L146.369 164.503Z" fill="#F7A491"/>
<path d="M126.813 200.013L123.328 197.059C123.328 197.059 120.514 201.764 118.245 205.602C116.004 204.79 110.211 201.013 109.924 200.838C109.636 200.663 108.986 196.396 108.511 196.625C108.036 196.853 108.889 198.875 108.292 199.028C107.695 199.182 103.237 196.199 103.143 196.596C102.975 197.34 105.807 198.528 105.666 198.86C105.525 199.191 102.815 197.34 102.384 197.803C101.952 198.266 105.103 199.31 105.119 199.613C105.135 199.916 102.031 199.038 102.115 199.688C102.159 200.041 104.891 200.398 104.719 200.776C104.547 201.154 102.418 201.213 102.506 201.617C102.593 202.02 104.284 201.304 105.319 201.767C106.354 202.229 107.317 201.995 108.758 203.208C110.199 204.421 117.263 211.335 119.467 210.748C121.39 210.229 126.813 200.013 126.813 200.013Z" fill="#F7A491"/>
<path d="M138.942 195.618C139.167 194.255 141.274 190.845 141.608 190.01C141.608 190.01 139.164 186.903 137.179 187.138C137.179 187.138 134.509 191.558 132.993 191.708C131.477 191.858 126.144 192.086 125.21 192.646C124.275 193.205 120.305 199.304 120.305 199.304C120.305 199.304 123.872 202.945 125.307 202.936C125.619 202.302 125.975 201.691 126.373 201.107C126.588 201.805 129.911 212.567 129.905 215.005L129.93 215.027C130.664 215.624 131.512 216.065 132.421 216.324C133.331 216.584 134.284 216.655 135.223 216.534C136.161 216.413 137.065 216.103 137.879 215.622C138.694 215.141 139.402 214.499 139.961 213.736V213.736C139.795 211.591 139.755 209.438 139.839 207.287C140.089 202.452 141.071 199.876 138.942 195.618Z" fill="#F47458"/>
<path d="M156.231 237.253L139.961 213.746C138.987 214.168 137.973 214.492 136.935 214.715C134.603 215.165 132.268 215.093 129.905 215.027C129.91 215.104 129.91 215.182 129.905 215.259C129.633 217.197 127.06 220.198 126.532 226.077C125.932 232.751 126.294 244.349 126.497 245.108C137.304 243.777 153.162 240.472 156.231 237.253Z" fill="#466EB6"/>
<path d="M146.744 162.733C146.744 162.733 145.722 163.421 144.869 163.199C144.414 163.102 143.983 162.917 143.6 162.655C143.889 163.163 144.297 163.592 144.791 163.906C145.997 164.568 146.744 162.733 146.744 162.733Z" fill="#F47458"/>
<path d="M126.569 157.885L136.028 155.938C136.268 155.889 136.515 155.901 136.749 155.973C136.982 156.045 137.193 156.175 137.363 156.35L144.278 163.384C144.478 163.586 144.732 163.726 145.01 163.787C145.287 163.849 145.577 163.829 145.843 163.73C146.11 163.631 146.342 163.457 146.512 163.229C146.683 163.002 146.784 162.73 146.804 162.446L147.932 152.443C147.958 152.196 148.043 151.959 148.18 151.751C148.316 151.543 148.5 151.371 148.717 151.249L157.25 146.56C157.502 146.417 157.71 146.209 157.853 145.958C157.995 145.706 158.066 145.421 158.059 145.132C158.052 144.843 157.966 144.561 157.811 144.317C157.656 144.073 157.437 143.876 157.179 143.747L148.426 139.52C148.203 139.409 148.01 139.247 147.863 139.046C147.715 138.846 147.618 138.613 147.579 138.367L145.935 128.439C145.899 128.157 145.784 127.891 145.601 127.674C145.419 127.456 145.177 127.296 144.906 127.212C144.635 127.128 144.345 127.125 144.072 127.201C143.798 127.278 143.553 127.432 143.365 127.645L136.816 135.06C136.656 135.243 136.453 135.384 136.225 135.468C135.996 135.552 135.75 135.577 135.51 135.541L125.96 134.09C124.734 133.903 123.84 135.263 124.444 136.391L129.164 145.184C129.282 145.407 129.346 145.654 129.353 145.905C129.359 146.157 129.307 146.407 129.201 146.635L124.938 155.666C124.391 156.825 125.353 158.126 126.569 157.885Z" fill="#F73E39"/>
<path d="M130.252 187.788C130.252 187.788 130.824 190.87 130.708 192.086C130.593 193.302 131.146 197.219 133.615 197.231C136.085 197.244 134.084 192.252 133.853 191.061C133.622 189.87 133.565 186.181 133.565 186.181L130.252 187.788Z" fill="#F7A491"/>
<path d="M133.616 188.032C133.578 187.022 133.565 186.181 133.565 186.181L130.252 187.788C130.252 187.788 130.368 188.413 130.486 189.223C131.937 189.526 132.987 188.966 133.616 188.032Z" fill="#F47458"/>
<path d="M129.039 179.282C128.199 179.831 127.581 180.659 127.295 181.62C126.829 183.218 127.36 187.344 130.658 188.338C133.956 189.332 135.385 186.069 134.722 183.515C134.059 180.961 132.549 177.726 129.039 179.282Z" fill="#F7A491"/>
<path d="M135.119 182.524C135.053 183.212 134.691 183.734 134.306 183.696C133.922 183.659 133.665 183.071 133.731 182.383C133.797 181.695 134.156 181.173 134.541 181.211C134.925 181.248 135.185 181.839 135.119 182.524Z" fill="#F7A491"/>
<path d="M128.245 185.168C128.633 185.769 128.633 186.475 128.245 186.731C127.857 186.988 127.226 186.731 126.838 186.141C126.451 185.55 126.454 184.834 126.838 184.578C127.223 184.321 127.857 184.568 128.245 185.168Z" fill="#F7A491"/>
<path d="M147.223 158.97C146.597 158.848 143.878 160.974 143.9 161.289C143.922 161.605 146.566 160.261 146.641 160.477C146.716 160.692 143.684 161.436 143.843 161.727C143.95 161.933 146.657 161.364 146.729 161.496C146.841 161.702 144.472 161.793 144.625 162.021C144.778 162.249 147.057 162.177 147.057 162.177C147.261 161.862 147.43 161.526 147.56 161.174C147.575 161.018 147.575 160.861 147.56 160.705C147.56 160.555 147.616 160.427 147.598 160.255C147.523 159.586 147.576 159.039 147.223 158.97Z" fill="#F7A491"/>
<path d="M143.615 160.598L142.609 161.849L141.943 161.352C141.925 161.307 141.918 161.259 141.922 161.212C141.926 161.164 141.94 161.118 141.965 161.077C142.043 160.899 143.593 160.136 143.615 160.598Z" fill="#F7A491"/>
<path d="M150.048 279.725H159.87C160.233 279.694 160.32 279.412 160.183 279.219C159.923 278.847 158.779 278.575 157.491 277.968C155.231 278.203 150.302 276.658 149.955 276.143C149.764 277.19 149.845 279.681 150.048 279.725Z" fill="#F47458"/>
<path d="M142.68 161.755C142.68 161.755 144.012 162.571 144.556 163.521C144.72 163.776 144.832 164.062 144.886 164.36C144.94 164.659 144.934 164.966 144.869 165.262L142.583 162.449L142.68 161.755Z" fill="#F7A491"/>
<path d="M394.235 181.908C395.172 179.682 396.11 177.457 398.495 176.331C400.437 175.418 402.462 175.762 404.184 177.06C409.07 180.729 404.81 184.777 410.374 191.751C412.099 193.915 414.191 195.662 415.225 198.197C416.676 201.748 414.95 203.452 412.184 205.152C398.952 213.28 392.015 196.587 392.265 192.767C392.45 189.913 393.641 183.336 394.235 181.908Z" fill="#13375B"/>
<path d="M386.266 255.968C386.714 257.958 387.321 259.909 388.083 261.801C388.151 261.948 388.758 262.467 388.833 262.617C388.639 266.249 386.407 268.481 384.294 270.088C384.7 268.246 385.673 266.115 385.526 265.711C384.678 263.233 383.645 260.822 382.434 258.5C384.235 258.225 384.838 257.109 386.266 255.968Z" fill="#F7A491"/>
<path d="M394.435 212.808L405.688 221.363C405.688 221.363 400.111 226.727 398.017 228.725C395.923 230.722 383.012 240.003 382.834 240.46C382.7 240.8 385.773 251.476 387.754 257.174C386.563 258.393 383.941 259.584 382.387 259.987C378.483 252.535 373.685 239.819 373.685 238.09C373.697 235.271 394.435 212.808 394.435 212.808Z" fill="#355389"/>
<path d="M426.035 229.876C425.666 230.235 423.221 234.999 422.284 237.55C420.921 236.69 420.095 235.674 418.576 235.093C419.777 233.355 422.118 229.175 422.309 228.178C422.768 225.818 423.303 225.471 423.303 225.471C423.303 225.471 431.218 228.147 431.743 228.91C432.268 229.672 427.529 228.435 426.035 229.876Z" fill="#F7A491"/>
<path d="M422.215 228.703C421.589 228.703 422.268 225.931 422.408 225.29C422.568 224.571 422.984 224.352 423.087 224.33C423.368 224.262 432.152 227.237 433.649 228.306C433.769 228.408 433.874 228.526 433.962 228.657C434.778 230.176 427.526 230.467 426.485 229.801C425.559 229.21 424.984 228.694 422.215 228.703Z" fill="#3C8F7C"/>
<path d="M392.031 215.331L401.862 211.357C401.824 211.376 401.921 211.758 401.931 211.789C402.868 215.377 407.773 213.993 409.802 220.229C411.237 224.633 413.337 241.113 413.337 241.113C413.337 241.113 414.828 238.281 419.452 233.067C419.811 232.664 424.369 235.796 424.369 235.796C420.98 244.78 412.656 252.082 411.53 251.563C403.919 248.072 394.772 220.51 394.785 220.513C393.919 218.832 392.031 215.331 392.031 215.331Z" fill="#466EB6"/>
<path d="M391.665 186.331C391.665 186.331 387.054 179.029 386.254 176.6C385.454 174.172 386.254 162.606 386.323 161.783C386.392 160.961 389.186 158.714 388.745 158.07C388.305 157.426 384.46 156.894 383.816 157.023C383.172 157.151 381.912 157.023 381.399 157.554C381.334 157.62 382.625 160.68 382.597 161.14C382.415 164.362 380.584 174.625 381.184 177.394C381.871 180.586 388.72 190.783 388.72 190.783L391.665 186.331Z" fill="#F7A491"/>
<path d="M408.414 190.582C408.414 190.582 420.749 190.895 423.459 191.111C426.169 191.326 435.994 190.517 436.375 190.485C436.756 190.454 439.273 186.178 439.692 186.634C440.111 187.091 438.288 188.747 438.851 189.179C439.414 189.61 445.459 188.644 445.378 189.091C445.228 189.929 441.702 189.823 441.705 190.226C441.708 190.629 445.397 190.001 445.647 190.67C445.897 191.339 442.099 190.942 441.949 191.242C441.799 191.542 445.472 192.089 445.093 192.711C444.89 193.049 441.839 192.145 441.855 192.608C441.87 193.07 444.096 194.118 443.821 194.483C443.546 194.849 442.077 193.355 440.786 193.336C439.495 193.317 438.57 192.645 436.506 193.211C434.443 193.777 427.419 196.609 423.021 196.4C418.623 196.19 408.904 195.774 408.904 195.774L408.414 190.582Z" fill="#F7A491"/>
<path d="M390.305 203.452C390.139 201.417 389.855 195.928 389.946 195.253C389.32 193.14 387.085 190.007 386.613 189.12C386.613 189.12 389.661 185.681 391.927 185.681C391.927 185.681 394.331 188.716 396.113 189.648C396.402 189.768 396.702 189.857 397.01 189.914C398.733 189.914 404.75 189.72 405.872 190.054L405.247 199.354C404.934 199.885 404.531 210.576 403.865 211.458C403.2 212.339 393.493 216.372 391.893 215.331C391.827 215.296 390.643 207.578 390.305 203.452Z" fill="#50BFA5"/>
<path d="M402.731 190.298C403.841 189.77 411.949 189.785 411.949 189.785C411.949 189.785 413.072 195.377 412.165 196.722C412.165 196.722 404.975 197.791 405.188 198.382L402.731 190.298Z" fill="#50BFA5"/>
<path d="M400.927 186.519C400.927 186.519 400.302 189.745 400.43 191.017C400.558 192.289 399.952 196.39 397.26 196.403C394.569 196.415 396.748 191.189 397.001 189.942C397.254 188.694 397.313 184.837 397.313 184.837L400.927 186.519Z" fill="#F7A491"/>
<path d="M397.26 186.772C397.301 185.718 397.316 184.837 397.316 184.837L400.927 186.519C400.927 186.519 400.799 187.178 400.671 188.019C399.083 188.335 397.945 187.75 397.26 186.772Z" fill="#F47458"/>
<path d="M402.247 177.616C403.151 178.178 403.825 179.045 404.147 180.06C404.657 181.736 404.078 186.053 400.483 187.094C396.889 188.135 395.332 184.718 396.07 182.045C396.807 179.373 398.423 175.987 402.247 177.616Z" fill="#F7A491"/>
<path d="M395.622 181.008C395.691 181.727 396.088 182.258 396.507 182.233C396.926 182.208 397.207 181.577 397.132 180.861C397.057 180.145 396.666 179.595 396.247 179.635C395.828 179.676 395.55 180.292 395.622 181.008Z" fill="#F7A491"/>
<path d="M388.117 261.879C388.327 261.301 390.68 263.039 391.243 263.389C391.868 263.783 391.924 264.249 391.915 264.355C391.884 264.633 386.288 272.017 384.632 273.067C384.446 273.155 384.237 273.183 384.035 273.145C383.075 272.814 384.413 266.893 385.616 265.683C386.385 264.905 387.186 264.48 388.117 261.879Z" fill="#3C8F7C"/>
<path d="M408.598 151.583L398.695 155.103C398.447 155.192 398.223 155.34 398.045 155.535C397.866 155.729 397.738 155.964 397.67 156.219L394.959 166.4C394.882 166.694 394.723 166.961 394.502 167.169C394.28 167.378 394.005 167.52 393.706 167.579C393.408 167.639 393.099 167.614 392.814 167.506C392.53 167.399 392.281 167.214 392.096 166.972L385.685 158.607C385.523 158.4 385.313 158.234 385.074 158.125C384.834 158.017 384.572 157.967 384.309 157.982L373.809 158.529C373.506 158.543 373.204 158.473 372.938 158.325C372.672 158.178 372.453 157.959 372.305 157.694C372.156 157.429 372.085 157.127 372.098 156.824C372.112 156.52 372.209 156.226 372.381 155.975L378.32 147.285C378.468 147.066 378.561 146.815 378.592 146.553C378.622 146.291 378.589 146.025 378.495 145.778L374.722 135.932C374.612 135.648 374.584 135.34 374.641 135.041C374.697 134.743 374.836 134.466 375.042 134.242C375.247 134.019 375.511 133.857 375.804 133.775C376.096 133.694 376.406 133.696 376.698 133.781L386.782 136.776C387.035 136.851 387.302 136.863 387.561 136.811C387.82 136.76 388.062 136.645 388.267 136.479L396.432 129.848C396.668 129.658 396.953 129.537 397.255 129.5C397.556 129.462 397.862 129.51 398.138 129.638C398.414 129.765 398.648 129.967 398.815 130.221C398.982 130.475 399.075 130.77 399.083 131.074L399.373 141.611C399.381 141.876 399.452 142.135 399.582 142.366C399.711 142.597 399.895 142.793 400.117 142.937L408.939 148.682C409.192 148.849 409.393 149.083 409.521 149.357C409.649 149.632 409.697 149.937 409.662 150.238C409.627 150.539 409.509 150.824 409.321 151.061C409.133 151.299 408.883 151.48 408.598 151.583V151.583Z" fill="#F73E39"/>
<path d="M388.68 158.169C389.049 158.713 387.048 160.433 386.492 161.38L385.241 159.67C385.854 159.548 388.258 157.551 388.68 158.169Z" fill="#F7A491"/>
<path d="M401.824 177.397C401.824 177.397 402.478 182.215 404.034 183.084C405.591 183.953 404.941 186.091 404.941 186.091C404.941 186.091 406.354 181.13 405.122 179.526C403.89 177.923 401.824 177.397 401.824 177.397Z" fill="#13375B"/>
<path d="M403.112 183.774C402.69 184.399 402.693 185.143 403.112 185.428C403.531 185.712 404.222 185.428 404.647 184.803C405.072 184.177 405.066 183.437 404.647 183.149C404.228 182.861 403.534 183.149 403.112 183.774Z" fill="#F7A491"/>
<path d="M385.641 158.576L385.673 158.607L386.129 159.201C385.869 159.103 385.59 159.066 385.313 159.093C385.036 159.119 384.769 159.209 384.532 159.354C384.532 159.354 384.751 158.916 385.641 158.576Z" fill="#F47257"/>
<path d="M341.825 130.199L343.816 126.841L342.191 123.3C342.149 123.209 342.133 123.108 342.145 123.009C342.158 122.91 342.197 122.816 342.26 122.738C342.323 122.66 342.406 122.601 342.5 122.568C342.594 122.534 342.696 122.528 342.794 122.549L346.604 123.403L349.465 120.749C349.538 120.681 349.629 120.635 349.728 120.616C349.826 120.597 349.928 120.606 350.021 120.641C350.115 120.677 350.197 120.738 350.258 120.818C350.318 120.898 350.355 120.993 350.365 121.093L350.727 124.978L354.138 126.879C354.225 126.928 354.297 127 354.346 127.088C354.394 127.176 354.417 127.276 354.412 127.376C354.407 127.476 354.374 127.573 354.316 127.655C354.259 127.737 354.18 127.802 354.088 127.842L350.506 129.389L349.749 133.218C349.732 133.319 349.686 133.412 349.617 133.488C349.548 133.563 349.459 133.617 349.36 133.643C349.262 133.669 349.157 133.667 349.06 133.636C348.963 133.605 348.877 133.547 348.811 133.468L346.232 130.539L342.359 131.005C342.259 131.019 342.157 131.004 342.066 130.962C341.974 130.92 341.895 130.853 341.84 130.769C341.784 130.685 341.753 130.587 341.75 130.486C341.748 130.385 341.773 130.285 341.825 130.199V130.199Z" fill="#466EB6"/>
<path d="M165.575 68.8052L168.076 64.5665L166.006 60.0995C165.956 59.9851 165.938 59.8589 165.954 59.7349C165.971 59.6109 166.021 59.4939 166.1 59.3969C166.179 59.2998 166.283 59.2265 166.401 59.185C166.519 59.1435 166.647 59.1354 166.769 59.1617L171.574 60.2402L175.187 56.8923C175.28 56.8065 175.394 56.7484 175.518 56.7243C175.641 56.7003 175.769 56.7113 175.887 56.7562C176.005 56.8011 176.108 56.878 176.184 56.9783C176.26 57.0786 176.307 57.1982 176.319 57.3237L176.781 62.2283L181.083 64.6259C181.193 64.6878 181.283 64.7792 181.344 64.8898C181.405 65.0003 181.433 65.1256 181.427 65.2516C181.42 65.3776 181.379 65.4993 181.307 65.6031C181.235 65.7068 181.136 65.7884 181.02 65.8387L176.516 67.7862L175.578 72.6189C175.552 72.7422 175.493 72.856 175.407 72.9476C175.32 73.0391 175.21 73.1048 175.088 73.1373C174.967 73.1697 174.838 73.1676 174.718 73.1313C174.597 73.095 174.489 73.0258 174.406 72.9315L171.139 69.2366L166.25 69.8212C166.124 69.8394 165.995 69.8214 165.878 69.7693C165.762 69.7171 165.662 69.633 165.591 69.5266C165.521 69.4202 165.482 69.296 165.479 69.1683C165.476 69.0406 165.509 68.9147 165.575 68.8052V68.8052Z" fill="#F79C8D"/>
<path d="M302.175 15.145L295.551 19.5651L299.256 25.9983L292.922 30.6403L295.704 37.2236L291.531 41.4717L293.682 43.5848L299.262 37.9019L296.627 31.6625L303.213 26.8329L299.571 20.506L305.573 16.5017L302.175 15.145Z" fill="#F48C7F"/>
<path d="M355.207 85.3352L350.521 78.8989L344.244 82.8595L339.349 76.7201L332.885 79.7679L328.471 75.7729L326.448 78.008L332.353 83.3502L338.477 80.4619L343.572 86.8513L349.743 82.9532L353.991 88.7894L355.207 85.3352Z" fill="#F48C7F"/>
<path d="M252.379 26.186L253.97 18.3837L246.812 16.4268L248.037 8.66824L241.429 5.95492L241.398 0L238.384 0.0156297L238.425 7.98053L244.689 10.5532L243.411 18.6212L250.454 20.5468L249.013 27.6177L252.379 26.186Z" fill="#F48C7F"/>
<path d="M139.364 11.4131L142.396 17.0742L148.932 16.7084L151.883 23.2948L158.726 20.7565L162.393 28.0587L168.982 26.4989L173.655 32.9477L171.214 34.717L167.719 29.8968L160.764 31.541L157.244 24.5233L150.286 27.1022L147.032 19.8344L140.645 20.1907L137.835 14.9454L133.69 16.0551L132.909 13.1449L139.364 11.4131Z" fill="#F7CC7F"/>
<path d="M122.043 46.1171L117.217 46.6078L115.569 38.9305L108.426 38.7774L106.254 33.2319L103.447 34.3323L106.351 41.747L113.122 41.8908L114.835 49.8807L122.096 49.143L122.043 46.1171Z" fill="#50BFA5"/>
<path d="M292.829 66.4325L288.002 66.9233L286.355 59.246L279.212 59.0897L277.04 53.5474L274.232 54.6446L277.136 62.0624L283.907 62.2062L285.62 70.1961L292.882 69.4584L292.829 66.4325Z" fill="#50BFA5"/>
<path d="M56.1544 123.115L54.3507 127.617L46.7828 125.51L43.3318 131.768L37.4112 131.118L37.083 134.115L45.001 134.984L48.2708 129.055L56.1419 131.246L58.8583 124.472L56.1544 123.115Z" fill="#50BFA5"/>
<path d="M67.0108 86.3324C68.9302 88.1723 70.261 90.54 70.8346 93.1362C71.4083 95.7324 71.199 98.4404 70.2335 100.918C69.2679 103.395 67.5893 105.53 65.41 107.054C63.2307 108.577 60.6487 109.419 57.9904 109.475C55.3322 109.53 52.7172 108.796 50.4762 107.366C48.2352 105.935 46.4688 103.871 45.4006 101.437C44.3324 99.0018 44.0103 96.3049 44.475 93.687C44.9397 91.0691 46.1703 88.6478 48.0113 86.7294C50.4787 84.1583 53.8661 82.6721 57.4288 82.5977C60.9916 82.5232 64.4381 83.8666 67.0108 86.3324V86.3324Z" fill="#FFF3D9"/>
<path d="M66.7169 97.5667L60.9995 99.3235L59.2052 105.028C59.1732 105.132 59.1126 105.225 59.0304 105.296C58.9482 105.368 58.8476 105.414 58.7402 105.431C58.6327 105.448 58.5227 105.435 58.4225 105.392C58.3224 105.35 58.2362 105.28 58.1737 105.191L54.7352 100.296L48.7521 100.352C48.6425 100.354 48.5346 100.325 48.441 100.268C48.3473 100.211 48.2715 100.129 48.2225 100.031C48.1735 99.9326 48.1532 99.8227 48.1639 99.7136C48.1747 99.6046 48.216 99.5007 48.2832 99.4142L51.8749 94.6315L49.9712 88.961C49.9371 88.858 49.9324 88.7475 49.9576 88.6419C49.9828 88.5364 50.0368 88.4399 50.1138 88.3633C50.1907 88.2867 50.2874 88.2331 50.393 88.2083C50.4987 88.1836 50.6092 88.1888 50.7121 88.2233L56.37 90.1645L61.1683 86.6072C61.2559 86.5407 61.3604 86.5003 61.4699 86.4906C61.5794 86.4808 61.6894 86.5022 61.7873 86.5521C61.8852 86.602 61.967 86.6786 62.0234 86.7729C62.0798 86.8672 62.1085 86.9756 62.1061 87.0854L62.0092 93.0654L66.8826 96.5445C66.9689 96.6079 67.0361 96.6939 67.0767 96.793C67.1173 96.8922 67.1297 97.0006 67.1125 97.1063C67.0954 97.2121 67.0494 97.311 66.9796 97.3923C66.9097 97.4735 66.8188 97.5339 66.7169 97.5667V97.5667Z" fill="#FED333"/>
<path d="M313.513 71.0403L315.864 74.9415C315.921 75.0368 316.004 75.1141 316.103 75.1646C316.202 75.2152 316.313 75.237 316.424 75.2276C316.535 75.2181 316.64 75.1778 316.729 75.1112C316.818 75.0446 316.887 74.9544 316.927 74.8509L318.593 70.6152L323.032 69.5868C323.14 69.5619 323.239 69.5072 323.318 69.4289C323.396 69.3506 323.452 69.2518 323.477 69.1438C323.502 69.0357 323.497 68.9227 323.461 68.8176C323.426 68.7125 323.362 68.6194 323.276 68.549L319.762 65.6512L320.153 61.1155C320.163 61.0047 320.142 60.8933 320.092 60.794C320.041 60.6947 319.964 60.6115 319.869 60.5538C319.774 60.4961 319.665 60.4663 319.554 60.4678C319.442 60.4693 319.334 60.502 319.24 60.5622L315.402 63.0098L311.206 61.2217C311.104 61.1794 310.992 61.1664 310.882 61.1842C310.773 61.202 310.671 61.2499 310.587 61.3226C310.503 61.3953 310.441 61.4899 310.408 61.5958C310.375 61.7016 310.372 61.8146 310.4 61.922L311.541 66.3295L308.556 69.7681C308.482 69.8517 308.434 69.9543 308.416 70.0642C308.398 70.174 308.411 70.2867 308.454 70.3893C308.497 70.492 308.568 70.5805 308.659 70.6447C308.75 70.709 308.857 70.7464 308.968 70.7527L313.513 71.0403Z" fill="#F47458"/>
<path d="M32.5318 85.1258C32.5318 86.6294 31.2126 87.8485 29.584 87.8485C27.9554 87.8485 26.6362 86.6294 26.6362 85.1258C26.6362 83.6222 27.9554 82.4062 29.584 82.4062C31.2126 82.4062 32.5318 83.6254 32.5318 85.1258Z" fill="#50BFA5"/>
<path d="M192.214 45.0888L195.79 45.7952C195.79 45.7952 201.01 43.357 201.417 42.1785C201.823 41 201.633 38.293 202.395 38.1148C203.002 37.958 203.646 38.0484 204.185 38.3661C204.725 38.6838 205.117 39.2028 205.274 39.8091C205.699 41.1126 204.221 45.2201 204.58 45.5952C204.802 45.8296 206.843 46.2923 208.331 46.608C208.817 46.7122 209.264 46.9482 209.624 47.2901C209.985 47.632 210.243 48.0666 210.373 48.5461V48.5461C210.461 48.8693 210.438 49.213 210.306 49.5211C210.174 49.8293 209.942 50.0839 209.647 50.2435L208.71 50.7467L209.15 51.7283C209.309 52.0798 209.324 52.4791 209.193 52.8416C209.061 53.204 208.794 53.501 208.447 53.6695L207.719 54.0321L208.031 54.6229C208.13 54.8032 208.189 55.0019 208.207 55.2065C208.224 55.4111 208.199 55.6171 208.132 55.8113C208.066 56.0056 207.96 56.184 207.821 56.3351C207.682 56.4862 207.513 56.6068 207.325 56.6892L206.681 56.9642L206.731 57.1393C206.831 57.4904 206.798 57.866 206.638 58.1943C206.478 58.5225 206.203 58.7802 205.865 58.918L205.221 59.1743L195.706 57.2987C194.813 57.1232 193.966 56.7633 193.221 56.2421L189.985 55.0168C189.816 54.9509 189.676 54.8268 189.591 54.6669C189.506 54.5069 189.48 54.3217 189.519 54.1446L191.326 45.689C191.365 45.4919 191.48 45.3181 191.646 45.2056C191.813 45.0932 192.017 45.0512 192.214 45.0888V45.0888Z" fill="#96D9C9"/>
</g>
<defs>
<clipPath id="clip0">
<rect width="445.659" height="280" fill="white"/>
</clipPath>
</defs>
</svg>
