<svg width="42" height="32" viewBox="0 0 42 32" fill="none" xmlns="http://www.w3.org/2000/svg">
<path d="M37.618 27.416C41.392 23.32 41.012 18.06 41 18V2C41 1.46957 40.7893 0.96086 40.4142 0.585787C40.0392 0.210714 39.5305 0 39 0H27C24.794 0 23 1.794 23 4V18C23 18.5304 23.2107 19.0391 23.5858 19.4142C23.9609 19.7893 24.4696 20 25 20H31.156C31.1138 20.9888 30.8183 21.9501 30.298 22.792C29.282 24.394 27.368 25.488 24.606 26.04L23 26.36V32H25C30.566 32 34.812 30.458 37.618 27.416ZM15.604 27.416C19.38 23.32 18.998 18.06 18.986 18V2C18.986 1.46957 18.7753 0.96086 18.4002 0.585787C18.0252 0.210714 17.5165 0 16.986 0H4.98602C2.78002 0 0.986023 1.794 0.986023 4V18C0.986023 18.5304 1.19674 19.0391 1.57181 19.4142C1.94688 19.7893 2.45559 20 2.98602 20H9.14202C9.09977 20.9888 8.80434 21.9501 8.28402 22.792C7.26802 24.394 5.35402 25.488 2.59202 26.04L0.986023 26.36V32H2.98602C8.55202 32 12.798 30.458 15.604 27.416Z" fill="#091638"/>
</svg>
