<svg width="712" height="498" viewBox="0 0 712 498" fill="none" xmlns="http://www.w3.org/2000/svg">
<circle cx="392.058" cy="249" r="249" fill="#FFE6E6"/>
<path d="M697.1 257.423L577.441 216.431C569.732 213.79 561.342 217.898 558.701 225.607L498.915 400.128C496.275 407.837 500.383 416.227 508.092 418.868L627.751 459.859C635.46 462.5 643.85 458.392 646.49 450.683L706.276 276.162C708.917 268.453 704.809 260.063 697.1 257.423Z" fill="#161C48"/>
<path d="M574.047 224.378L513.604 400.819L635.071 442.43L695.514 265.989L574.047 224.378Z" fill="#F6F5F5"/>
<path d="M695.503 265.978C671.971 334.794 645.764 418.536 631.745 434.262C596.567 425.918 556.341 413.322 514.162 399.105L589.866 230.381L695.503 265.978Z" fill="#E4E4E4"/>
<path d="M628.206 426.836C572.239 417.172 536.625 405.451 508.593 393.467C525.914 355.067 549.984 289.666 574.032 224.378L637.924 246.418L694.483 270.042C671.922 338.649 650.402 401.773 628.206 426.836Z" fill="white"/>
<path d="M659.727 273.626L596.347 250.231L592.783 259.887L656.163 283.281L659.727 273.626Z" fill="#4284B8"/>
<path d="M663.884 301.663L606.714 280.561L605.084 284.978L662.253 306.08L663.884 301.663Z" fill="#4284B8"/>
<path d="M642.017 304.539L603.157 290.195L601.526 294.612L640.386 308.956L642.017 304.539Z" fill="#D3DFFF"/>
<path d="M588.614 274.175L575.08 269.179L570.084 282.713L583.618 287.709L588.614 274.175Z" fill="white" stroke="#708CD5" stroke-width="6" stroke-miterlimit="10"/>
<path d="M576.1 273.5C575.965 275.261 574.43 282.279 578.462 281.554C579.391 281.387 580.443 280.48 581.254 280.002L585.625 277.505L594.371 272.512C595.117 272.088 593.265 269.742 592.331 270.279L584.556 274.714L580.674 276.931C579.772 277.468 577.453 279.304 576.433 279.186L577.823 280.228C578.092 280.657 578.14 278.273 578.145 278.209L578.387 274.955C578.457 274.058 576.196 272.179 576.1 273.505V273.5Z" fill="#EE6F57"/>
<path d="M644.715 322.545L597.635 305.167L596.005 309.584L643.085 326.962L644.715 322.545Z" fill="#4284B8"/>
<path d="M651.25 335.905L594.081 314.803L592.451 319.22L649.62 340.322L651.25 335.905Z" fill="#D3DFFF"/>
<path d="M579.533 298.781L565.999 293.785L561.003 307.319L574.537 312.315L579.533 298.781Z" fill="white" stroke="#708CD5" stroke-width="6" stroke-miterlimit="10"/>
<path d="M566.892 298.488C566.763 300.249 565.222 307.266 569.254 306.542C570.183 306.375 571.241 305.468 572.052 304.99L576.422 302.493L585.163 297.5C585.909 297.076 584.089 294.73 583.123 295.266L575.354 299.701L571.466 301.919C570.57 302.456 568.245 304.292 567.225 304.174L568.621 305.215C568.884 305.645 568.932 303.261 568.938 303.197C569.018 302.123 569.104 301.049 569.185 299.943C569.249 299.046 566.989 297.167 566.892 298.493V298.488Z" fill="#EE6F57"/>
<path d="M645.727 350.875L588.558 329.773L586.927 334.19L644.096 355.292L645.727 350.875Z" fill="#4284B8"/>
<path d="M610.563 348.846L584.995 339.409L583.365 343.826L608.932 353.264L610.563 348.846Z" fill="#D3DFFF"/>
<path d="M570.446 323.385L556.912 318.389L551.916 331.923L565.45 336.919L570.446 323.385Z" fill="white" stroke="#708CD5" stroke-width="6" stroke-miterlimit="10"/>
<path d="M557.92 323.336C557.786 325.092 556.25 332.115 560.282 331.39C561.211 331.223 562.264 330.316 563.074 329.833L567.45 327.336L576.191 322.348C576.937 321.924 575.085 319.578 574.151 320.115L566.355 324.544L562.473 326.762C561.571 327.272 559.252 329.129 558.231 329.011L559.627 330.053C559.89 330.482 559.939 328.104 559.944 328.039L560.186 324.786C560.256 323.884 557.995 322.004 557.899 323.336H557.92Z" fill="#EE6F57"/>
<path d="M636.64 375.479L579.471 354.377L577.841 358.794L635.01 379.897L636.64 375.479Z" fill="#4284B8"/>
<path d="M621.077 380.684L575.916 364.014L574.285 368.431L619.447 385.101L621.077 380.684Z" fill="#D3DFFF"/>
<path d="M561.365 347.991L547.831 342.995L542.835 356.53L556.37 361.525L561.365 347.991Z" fill="white" stroke="#708CD5" stroke-width="6" stroke-miterlimit="10"/>
<path d="M548.895 347.776C548.766 349.532 547.23 356.555 551.262 355.83C552.191 355.663 553.244 354.756 554.054 354.273L558.425 351.776L567.171 346.788C567.917 346.364 566.065 344.018 565.125 344.555L557.356 348.99L553.469 351.207C552.572 351.744 550.248 353.575 549.233 353.457L550.623 354.498C550.892 354.928 550.94 352.549 550.946 352.485L551.187 349.226C551.257 348.329 548.997 346.45 548.895 347.782V347.776Z" fill="#EE6F57"/>
<path d="M593.115 387.16L570.454 378.796L568.824 383.213L591.485 391.578L593.115 387.16Z" fill="#708CD5"/>
<path d="M624.1 409.521L566.93 388.42L565.319 392.839C587.44 401 615.477 411.771 621.571 412.866C622.2 412.512 622.748 412.032 623.183 411.457C623.619 410.881 623.931 410.222 624.1 409.521V409.521Z" fill="#D3DFFF"/>
<path d="M552.545 372.479L539.011 367.483L534.015 381.017L547.549 386.013L552.545 372.479Z" fill="white" stroke="#708CD5" stroke-width="6" stroke-miterlimit="10"/>
<path d="M539.955 372.013C539.82 373.768 538.285 380.791 542.317 380.066C543.246 379.9 544.304 378.992 545.114 378.509L549.485 376.013L558.226 371.025C558.972 370.6 557.152 368.254 556.186 368.791L548.416 373.226C547.117 373.96 545.821 374.699 544.529 375.443C543.627 375.98 541.308 377.811 540.288 377.693L541.684 378.735C541.947 379.164 541.995 376.786 542 376.721C542.079 375.647 542.161 374.561 542.247 373.462C542.312 372.566 540.051 370.686 539.955 372.018V372.013Z" fill="#EE6F57"/>
<path d="M664.217 247.513L659.552 261.135L604.835 242.391L609.501 228.77C610.217 226.685 611.731 224.968 613.71 223.997C613.945 223.88 614.187 223.778 614.435 223.691C616.242 223.002 618.233 222.97 620.062 223.599C621.455 224.078 622.938 224.236 624.4 224.061C625.019 223.987 625.63 223.856 626.225 223.669C628.233 223.032 629.982 221.765 631.213 220.056C632.448 218.35 634.197 217.086 636.203 216.449C638.21 215.812 640.368 215.836 642.36 216.518L645.774 217.683C647.768 218.365 649.489 219.67 650.684 221.406C651.879 223.141 652.484 225.215 652.411 227.32C652.337 229.423 652.941 231.493 654.134 233.226C654.492 233.737 654.894 234.215 655.337 234.654C656.386 235.687 657.654 236.471 659.047 236.947C661.13 237.666 662.844 239.181 663.813 241.16C664.782 243.139 664.927 245.422 664.217 247.508V247.513Z" fill="#EE6F57"/>
<path d="M666.28 255.97L662.817 266.091L599.22 244.308L602.688 234.182L607.128 235.701L604.836 242.391L659.552 261.129L661.84 254.445L666.28 255.97Z" fill="#E4E4E4"/>
<path d="M646.132 226.935C647.004 224.388 645.54 221.579 642.861 220.661C640.182 219.744 637.303 221.064 636.43 223.612C635.557 226.159 637.022 228.968 639.701 229.885C642.38 230.803 645.259 229.482 646.132 226.935Z" fill="white"/>
<path d="M44.6655 494.176C44.6978 494.176 606.194 494.111 606.194 494.111C623.499 458.675 632.626 419.384 622.871 380.979C611.171 334.917 571.864 303.97 545.781 292.131C524.39 282.397 504.557 281.13 487.016 282.74C473.454 283.991 461.244 286.96 450.764 289.081C443.36 290.585 436.417 291.728 430.624 291.352C420.997 290.719 413.443 283.836 406.667 276.652C382.619 251.245 355.086 207.32 256.756 202.064C227.564 200.512 193.739 203.089 166.738 214.332C155.248 219.111 111.973 240.491 99.264 276.652C95.2533 288.066 94.2923 300.952 98.3352 315.256C112.649 365.87 90.856 372.168 63.5917 396.286C27.1998 428.479 15.4844 471.91 44.6655 494.176Z" fill="#EDF4FF" fill-opacity="0.68"/>
<path d="M189.094 302.38V373.027H68.8047L73.1161 302.38H189.094Z" fill="#F6F5FB"/>
<path d="M552.659 288.367H414.769V495.035H552.659V288.367Z" fill="#DBEFFF"/>
<path d="M354.044 275.03H189.083V494.52H354.044V275.03Z" fill="#DBEFFF"/>
<path d="M418.323 201.43H182.506V308.485H418.323V201.43Z" fill="#4284B8"/>
<path d="M307.999 294.644L431.972 177.43L555.945 294.644H307.999Z" fill="#DBEFFF"/>
<path d="M565.996 306.166C564.847 306.168 563.74 305.734 562.898 304.952L431.972 191.046C390.249 229.017 341.835 265.586 340.38 266.552C339.394 267.202 338.194 267.443 337.034 267.225C335.874 267.006 334.844 266.346 334.161 265.382C333.478 264.419 333.197 263.228 333.375 262.061C333.554 260.894 334.179 259.842 335.119 259.127C338.115 256.646 392.751 206.987 428.912 174.064C429.756 173.298 430.856 172.875 431.996 172.88C433.136 172.885 434.233 173.317 435.07 174.091L569.088 298.268C569.762 298.889 570.231 299.699 570.437 300.592C570.642 301.485 570.573 302.42 570.239 303.273C569.905 304.126 569.321 304.858 568.564 305.375C567.807 305.891 566.912 306.166 565.996 306.166V306.166Z" fill="#161C48"/>
<path d="M436.524 275.03H271.563V494.52H436.524V275.03Z" fill="#DBEFFF"/>
<path d="M271.563 275.03L354.044 197.044L436.524 275.03L294.275 275.572L271.563 275.03Z" fill="#DBEFFF"/>
<path d="M377.899 300.893V343.368H329.454V301.709C329.445 298.294 330.151 294.915 331.526 291.789C332.901 288.663 334.915 285.858 337.438 283.556C338.23 282.83 339.073 282.16 339.961 281.554C340.807 280.922 341.705 280.364 342.646 279.884C346.166 278.035 350.084 277.075 354.06 277.087C358.033 277.07 361.943 278.073 365.416 280.002C366.368 280.473 367.268 281.044 368.101 281.704C368.9 282.27 369.661 282.888 370.377 283.556C372.752 285.777 374.645 288.461 375.939 291.444C377.233 294.426 377.9 297.642 377.899 300.893V300.893Z" fill="#F6F5FB"/>
<path d="M378.715 294.515H328.842L329.615 292.464C331.063 288.633 333.394 285.196 336.418 282.434C337.26 281.655 338.157 280.937 339.102 280.287C340.004 279.616 340.961 279.023 341.964 278.515C345.704 276.566 349.86 275.551 354.077 275.556C358.309 275.531 362.476 276.6 366.173 278.66C367.2 279.169 368.172 279.782 369.073 280.491C369.903 281.081 370.692 281.726 371.435 282.423C374.395 285.202 376.648 288.648 378.007 292.474L378.715 294.515ZM333.336 291.481H374.313C373.103 288.917 371.424 286.603 369.362 284.657C368.701 284.043 367.999 283.472 367.263 282.95C366.489 282.334 365.65 281.805 364.761 281.371C361.498 279.538 357.814 278.585 354.071 278.606C350.343 278.601 346.67 279.5 343.365 281.226C342.49 281.667 341.655 282.183 340.869 282.767C340.021 283.343 339.217 283.98 338.463 284.673C336.349 286.607 334.61 288.915 333.336 291.481V291.481Z" fill="#161C48"/>
<path d="M401.035 293.006H306.334V343.352H401.035V293.006Z" fill="#F6F5FB"/>
<path d="M355.199 293.006H352.166V343.357H355.199V293.006Z" fill="#161C48"/>
<path d="M398.956 308.469H307.451V309.988H398.956V308.469Z" fill="#161C48"/>
<path d="M398.956 325.011H307.451V326.531H398.956V325.011Z" fill="#161C48"/>
<path d="M334.136 293.006H331.102V343.357H334.136V293.006Z" fill="#161C48"/>
<path d="M376.261 293.006H373.228V343.357H376.261V293.006Z" fill="#161C48"/>
<path d="M401.035 293.006H398.001V343.357H401.035V293.006Z" fill="#161C48"/>
<path d="M309.368 293.006H306.334V343.357H309.368V293.006Z" fill="#161C48"/>
<path d="M401.04 340.324H306.34V343.358H401.04V340.324Z" fill="#161C48"/>
<path d="M401.04 293.006H306.34V296.039H401.04V293.006Z" fill="#161C48"/>
<path d="M368.133 281.704L353.835 296.856L339.961 281.554C340.807 280.922 341.705 280.363 342.645 279.884L353.851 292.233L365.416 279.997C366.38 280.467 367.29 281.04 368.133 281.704V281.704Z" fill="#161C48"/>
<path d="M401.035 394.021H306.334V444.367H401.035V394.021Z" fill="#F6F5FB"/>
<path d="M355.199 394.015H352.166V444.367H355.199V394.015Z" fill="#161C48"/>
<path d="M398.956 409.478H307.451V410.997H398.956V409.478Z" fill="#161C48"/>
<path d="M398.956 426.026H307.451V427.545H398.956V426.026Z" fill="#161C48"/>
<path d="M334.136 394.015H331.102V444.367H334.136V394.015Z" fill="#F9DDBF"/>
<path d="M376.261 394.015H373.228V444.367H376.261V394.015Z" fill="#161C48"/>
<path d="M401.035 394.015H398.001V444.367H401.035V394.015Z" fill="#F9DDBF"/>
<path d="M309.368 394.015H306.334V444.367H309.368V394.015Z" fill="#F9DDBF"/>
<path d="M401.04 441.333H306.34V444.367H401.04V441.333Z" fill="#161C48"/>
<path d="M401.04 394.015H306.34V397.049H401.04V394.015Z" fill="#161C48"/>
<path d="M253.599 394.021H211.628V444.367H253.599V394.021Z" fill="#F6F5FB"/>
<path d="M253.604 394.015H250.995V444.367H253.604V394.015Z" fill="#161C48"/>
<path d="M252.675 409.478H212.123V410.997H252.675V409.478Z" fill="#161C48"/>
<path d="M252.675 426.026H212.123V427.545H252.675V426.026Z" fill="#161C48"/>
<path d="M233.707 394.015H231.097V444.367H233.707V394.015Z" fill="#161C48"/>
<path d="M214.238 394.015H211.628V444.367H214.238V394.015Z" fill="#161C48"/>
<path d="M253.605 441.333H211.634V444.367H253.605V441.333Z" fill="#161C48"/>
<path d="M253.605 394.015H211.634V397.049H253.605V394.015Z" fill="#161C48"/>
<path d="M253.599 321.913H211.628V372.26H253.599V321.913Z" fill="#F6F5FB"/>
<path d="M253.604 321.913H250.995V372.265H253.604V321.913Z" fill="#161C48"/>
<path d="M252.675 337.376H212.123V338.896H252.675V337.376Z" fill="#161C48"/>
<path d="M252.675 353.918H212.123V355.438H252.675V353.918Z" fill="#161C48"/>
<path d="M233.707 321.913H231.097V372.265H233.707V321.913Z" fill="#161C48"/>
<path d="M214.238 321.913H211.628V372.265H214.238V321.913Z" fill="#161C48"/>
<path d="M253.605 369.231H211.634V372.265H253.605V369.231Z" fill="#161C48"/>
<path d="M253.605 321.913H211.634V324.947H253.605V321.913Z" fill="#161C48"/>
<path d="M514.865 283.293H472.895V333.639H514.865V283.293Z" fill="#F6F5FB"/>
<path d="M514.871 283.293H512.261V333.645H514.871V283.293Z" fill="#161C48"/>
<path d="M513.942 298.756H473.389V300.276H513.942V298.756Z" fill="#161C48"/>
<path d="M513.942 315.304H473.389V316.823H513.942V315.304Z" fill="#161C48"/>
<path d="M494.973 283.293H492.363V333.645H494.973V283.293Z" fill="#161C48"/>
<path d="M475.504 283.293H472.895V333.645H475.504V283.293Z" fill="#161C48"/>
<path d="M514.871 330.611H472.9V333.645H514.871V330.611Z" fill="#161C48"/>
<path d="M514.871 283.293H472.9V286.327H514.871V283.293Z" fill="#161C48"/>
<path d="M259.929 286.933C258.975 286.934 258.044 286.634 257.269 286.077C256.494 285.519 255.914 284.732 255.61 283.827C255.307 282.922 255.296 281.944 255.579 281.032C255.861 280.12 256.424 279.32 257.186 278.746C260.192 276.26 314.823 226.606 350.979 193.677C351.824 192.912 352.925 192.49 354.066 192.495C355.206 192.5 356.304 192.931 357.143 193.704L449.239 279.052C450.125 279.873 450.648 281.013 450.693 282.22C450.738 283.428 450.302 284.603 449.48 285.489C448.659 286.375 447.519 286.898 446.312 286.943C445.104 286.989 443.929 286.552 443.043 285.731L353.035 212.711C313.969 246.246 263.908 285.199 262.464 286.171C261.713 286.671 260.831 286.936 259.929 286.933V286.933Z" fill="#161C48"/>
<path d="M189.084 373.038H75.5322V493.693H189.084V373.038Z" fill="#DBEFFF"/>
<path d="M558.404 342.214H436.536V390.67H558.404V342.214Z" fill="#4284B8"/>
<path d="M486.876 407.116C492.672 407.116 498.23 409.418 502.328 413.516C506.426 417.614 508.728 423.172 508.728 428.968V481.618H464.766V429.226C464.766 423.362 467.096 417.738 471.242 413.592C475.388 409.445 481.012 407.116 486.876 407.116V407.116Z" fill="#161C48"/>
<path d="M504.552 429.532V430.504H468.938V429.714C468.938 427.47 469.379 425.247 470.238 423.173C471.096 421.099 472.355 419.214 473.942 417.627C475.529 416.039 477.413 414.78 479.487 413.921C481.561 413.061 483.784 412.619 486.028 412.619H487.639C489.861 412.617 492.061 413.053 494.114 413.902C496.167 414.751 498.032 415.997 499.603 417.568C501.174 419.139 502.419 421.004 503.269 423.057C504.118 425.11 504.554 427.31 504.552 429.532V429.532Z" fill="#F6F5FB"/>
<path d="M504.552 436.023H468.938V450.337H504.552V436.023Z" fill="#F6F5FB"/>
<path d="M504.552 455.062H468.938V478.455H504.552V455.062Z" fill="#F6F5FB"/>
<path d="M519.671 480.802H453.824V485.548H519.671V480.802Z" fill="#4284B8"/>
<path d="M525.244 485.548H448.256V490.294H525.244V485.548Z" fill="#161C48"/>
<path d="M529.812 490.294H443.676V495.04H529.812V490.294Z" fill="#F6F5FB"/>
<path d="M163.978 395.202H106.598V464.034H163.978V395.202Z" fill="#F6F5FB"/>
<path d="M163.983 395.196H160.418V464.034H163.983V395.196Z" fill="#F9DDBF"/>
<path d="M162.727 416.34H107.28V418.418H162.727V416.34Z" fill="#161C48"/>
<path d="M162.727 438.955H107.28V441.032H162.727V438.955Z" fill="#161C48"/>
<path d="M136.782 395.196H133.217V464.034H136.782V395.196Z" fill="#F9DDBF"/>
<path d="M110.163 395.196H106.598V464.034H110.163V395.196Z" fill="#161C48"/>
<path d="M163.983 459.883H106.603V464.034H163.983V459.883Z" fill="#161C48"/>
<path d="M163.983 395.196H106.603V399.347H163.983V395.196Z" fill="#161C48"/>
<path d="M150.383 373.027H55.8652L73.1162 302.38H118.99L150.383 373.027Z" fill="#4284B8"/>
<path d="M246.721 308.48H182.506V201.43H206.667C213.534 220.496 234.667 276.571 246.721 308.48Z" fill="#F6F5FB"/>
<path d="M558.408 342.214V390.67H477.77L509.769 342.214H558.408Z" fill="#F6F5FB"/>
<path d="M256.756 195.336H257.83C259.379 195.336 260.865 195.952 261.961 197.047C263.056 198.143 263.672 199.629 263.672 201.178V224.464H250.786V201.291C250.786 200.508 250.94 199.732 251.24 199.008C251.541 198.285 251.981 197.628 252.535 197.075C253.09 196.522 253.748 196.083 254.473 195.785C255.197 195.487 255.973 195.334 256.756 195.336Z" fill="#F2D3B6"/>
<path d="M247.784 192.588H266.571L257.25 183.702L247.784 192.588Z" fill="#BC3F3F"/>
<path d="M253.282 195.336H252.444L252.315 192.335H253.464L253.282 195.336Z" fill="#BC3F3F"/>
<path d="M261.894 195.336H261.057L260.928 192.335H262.077L261.894 195.336Z" fill="#BC3F3F"/>
<path d="M585.458 493.387H569.743C568.9 492.672 570.323 491.051 571.815 490.938C572.623 490.927 573.428 491.022 574.21 491.223C574.43 488.35 575.665 475.443 580.315 475.958C585.55 476.538 580.315 481.644 578.838 484.667C577.792 486.944 576.864 489.274 576.057 491.647C576.481 491.738 576.921 491.829 577.372 491.91C578.065 489.762 580.648 482.621 583.928 483.035C587.783 483.523 586.231 486.396 583.499 488.103C581.496 489.354 579.037 491.137 577.866 492.001C578.882 492.177 579.912 492.258 580.943 492.243C583.633 492.168 584.948 492.957 585.458 493.387Z" fill="#82B378"/>
<path d="M189.099 451.862V493.741L90.1143 493.784C90.1143 493.784 93.282 482.552 105.749 476.415C106.994 475.786 108.282 475.247 109.604 474.804C111.34 474.206 113.114 473.727 114.914 473.37C114.928 473.376 114.942 473.379 114.957 473.379C114.972 473.379 114.987 473.376 115 473.37C115.839 473.207 116.666 472.987 117.475 472.71C135.091 466.804 135.891 439.422 186.452 451.234C187.372 451.431 188.254 451.64 189.099 451.862Z" fill="#82B378"/>
<path d="M113.159 479.11C113.159 479.11 98.3191 459.4 91.6828 464.716C85.0466 470.031 113.159 479.11 113.159 479.11Z" fill="#82B378"/>
<path d="M117.583 477.113C117.583 476.227 117.808 458.068 111.607 459.395C105.405 460.721 117.583 477.113 117.583 477.113Z" fill="#82B378"/>
<path d="M133.067 280.786C132.976 280.249 131.757 274.719 123.172 275.664C123.172 275.664 127.468 275.556 128.439 277.275C128.439 277.275 125.25 275.411 123.027 276.48C120.804 277.548 120.031 281.849 120.208 283.175C120.386 284.501 122.313 288.662 123.843 288.813C124.452 288.849 125.062 288.762 125.637 288.555C125.31 289.277 125.025 290.018 124.783 290.772C122.394 298.289 126.898 304.587 129.674 303.417C131.457 302.66 132.439 305.742 132.439 305.742L148.305 288.56C148.305 288.56 139.725 275.895 133.067 280.786Z" fill="#2C3A64"/>
<path d="M153.75 487.513L149.889 488.952C149.889 488.952 133.132 465.704 131.065 445.253C130.654 441.761 130.836 438.225 131.602 434.794C131.602 434.794 131.435 433.859 131.151 432.206C131.017 431.432 130.856 430.504 130.668 429.441C130.131 426.316 129.374 422.047 128.52 417.183C126.544 405.988 123.989 391.68 122.007 381.161L123.044 380.829L134.319 377.199L136.638 369.79L145.014 367.583C145.014 367.583 146.882 371.245 148.558 388.523C148.869 390.788 149.148 393.29 149.358 396.007C150.129 406.103 149.863 416.252 148.563 426.294C148.176 429.301 147.693 432.404 147.092 435.594C146.646 437.929 146.555 441.118 146.77 444.775C147.613 461.532 153.75 487.513 153.75 487.513Z" fill="#2B478B"/>
<path d="M149.357 396.045L131.167 432.206C131.032 431.432 130.871 430.504 130.683 429.441C130.146 426.316 129.389 422.047 128.536 417.183C126.56 405.988 124.004 391.68 122.023 381.161L123.059 380.829L134.334 377.199L136.638 369.79L145.013 367.583C145.013 367.583 146.882 371.245 148.557 388.523C148.869 390.826 149.175 393.328 149.357 396.045Z" fill="#233862"/>
<path d="M141.357 372.249C141.355 372.277 141.355 372.306 141.357 372.335C141.298 372.571 141.121 373.306 140.868 374.353C139.655 379.331 136.702 391.411 136.525 391.4C134.914 402.729 132.466 417.408 129.432 428.694C127.821 434.659 126.066 439.679 124.165 442.751C123.285 444.357 122.578 446.053 122.055 447.808C117.679 461.043 112.294 490.997 112.294 490.997L109.835 491.985C109.835 491.985 100.375 465.07 108.573 443.218C109.413 440.971 110.446 438.801 111.66 436.732C111.811 436.499 111.882 436.224 111.864 435.948V435.948C111.757 435.04 111.494 432.759 111.193 429.559C110.356 420.716 109.556 390.847 109.121 383.819C108.96 381.44 109.028 379.05 109.325 376.684C109.698 373.427 110.668 370.267 112.187 367.363C112.921 365.899 113.89 364.564 115.054 363.411C115.054 363.411 133.905 370.52 140.96 368.646L141.357 372.249Z" fill="#2B478B"/>
<path d="M141.336 374.031C141.179 374.147 141.016 374.255 140.848 374.353C134.346 378.149 111.543 376.818 109.299 376.673C109.671 373.416 110.642 370.257 112.161 367.352C121.911 368.216 138.083 369.972 141.336 372.335C142.077 372.871 142.152 373.441 141.336 374.031Z" fill="#223E77"/>
<path d="M177.717 366.326L176.557 369.714C176.557 369.714 176.326 369.671 175.929 369.569C174.678 369.258 171.634 368.528 168.224 367.529C163.086 366.069 157.046 364.028 154.85 362.063C151.5 359.084 146.587 350.928 143.833 343.164C143.757 342.978 143.692 342.788 143.639 342.595C142.216 338.477 141.416 334.509 141.835 331.529C142.033 329.925 142.484 328.363 143.172 326.901C143.87 325.431 144.854 324.115 146.066 323.03C146.211 322.87 146.377 322.731 146.56 322.617C148.235 321.226 149.411 320.281 149.411 320.281C150.152 320.12 151.135 321.097 151.763 322.069C152.324 323.139 152.808 324.248 153.212 325.387C153.236 325.414 153.249 325.448 153.25 325.484C153.347 325.768 153.443 326.08 153.556 326.429C153.593 326.498 153.62 326.572 153.637 326.649C153.83 327.368 154.023 328.115 154.211 328.893C156.359 337.231 158.018 349.575 160.525 353.591C161.599 355.331 167.258 359.373 171.8 362.445C175.049 364.662 177.717 366.326 177.717 366.326Z" fill="#FFB27D"/>
<path d="M147.478 328.448C145.108 329.95 142.473 330.985 139.714 331.497C127.806 333.897 123.553 323.771 122.044 316.861C123.299 316.209 124.676 315.827 126.087 315.739C126.946 315.664 127.843 315.621 128.589 315.605C129.948 314.627 132.047 310.515 132.665 304.061L133.201 304.227L142.452 307.041C142.452 307.041 141.916 309.994 141.652 312.791C141.432 314.976 141.346 317.087 141.749 317.623C142.469 317.801 142.903 317.919 142.903 317.919C144.761 321.274 146.293 324.8 147.478 328.448V328.448Z" fill="#FFB27D"/>
<path d="M151.623 335.862C151.57 336.115 151.505 336.361 151.43 336.619C149.341 343.599 147.672 371.518 147.672 371.518C149.18 376.275 110.888 375.878 110.147 371.454C108.144 366.939 113.041 358.504 115.876 354.219C116.229 353.681 116.534 353.114 116.789 352.523C117.433 351.043 117.736 349.437 117.674 347.825C117.422 341.435 116.316 335.572 115.849 331.98C116.44 331.395 117.014 330.847 117.546 330.332C118.288 329.645 118.968 328.892 119.575 328.082C120.1 327.426 120.373 326.603 120.343 325.763C120.291 325.148 120.187 324.54 120.031 323.943C119.962 323.658 119.881 323.374 119.795 323.089C119.166 321.137 118.299 319.271 117.213 317.532C120.246 315.76 126.088 315.707 126.088 315.707C126.088 315.707 126.125 316.029 126.201 316.549C126.485 318.643 127.274 324.013 128.101 324.931C129.121 326.074 145.282 329.392 145.819 327.562C146.356 325.731 143.038 318.155 142.915 317.865C148.348 319.137 150.431 320.549 150.431 320.549C147.629 323.019 153.1 329.162 151.623 335.862Z" fill="#2B478B"/>
<path d="M142.468 307.019C142.468 307.019 141.931 309.967 141.674 312.764C136.401 312.088 134.092 306.987 133.217 304.206L142.468 307.019Z" fill="#ED985F"/>
<path d="M143.967 309.844C143.967 309.844 131.457 308.802 132.219 301.011C132.981 293.221 131.897 287.846 139.918 288.185C147.94 288.523 149.202 291.648 149.583 294.311C149.964 296.974 147.247 309.913 143.967 309.844Z" fill="#FFB27D"/>
<path d="M149.642 289.946C147.94 287.411 146.42 287.798 145.54 288.399C139.097 283.959 131.354 288.174 131.354 288.174C130.578 291.305 129.586 294.378 128.385 297.371C128.385 297.371 130.533 298.982 135.902 298.182C137.55 297.93 139.123 296.931 140.45 295.675C138.836 297.797 136.941 299.69 134.817 301.301C141.384 299.025 144.777 290.563 145.121 289.656C145.813 290.418 147.166 292.056 147.478 293.564C147.907 295.605 147.778 299.717 148.981 299.696C148.987 299.696 152.187 293.747 149.642 289.946Z" fill="#2C3A64"/>
<path d="M136.246 363.884C128.848 364.877 121.481 358.117 116.767 352.539C117.412 351.059 117.715 349.453 117.653 347.841C117.401 341.451 116.295 335.588 115.828 331.996C116.418 331.411 116.993 330.863 117.524 330.348C118.267 329.661 118.946 328.908 119.554 328.098C127.087 337.451 146.276 362.547 136.246 363.884Z" fill="#233862"/>
<path d="M162.061 366.429L163.371 370.869C163.371 370.869 160.069 370.117 158.002 369.919C157.385 369.854 157.025 369.795 157.025 369.795C155.371 369.618 153.385 369.35 151.221 369.07H151.189C147.479 368.533 143.312 367.819 139.779 366.955C137.654 366.46 135.588 365.74 133.616 364.807C133.464 364.733 133.319 364.647 133.181 364.55C129.562 362.402 124.891 355.454 121.068 347.905C120.531 346.869 120.037 345.827 119.543 344.813C117.855 341.341 116.419 337.753 115.248 334.074C114.686 332.381 114.271 330.642 114.008 328.877C113.925 328.387 113.871 327.892 113.847 327.395C113.825 327.127 113.809 326.864 113.798 326.606C116.385 324.29 119.767 323.065 123.237 323.186L123.522 323.685C125.503 327.293 127.672 331.997 129.718 336.689C130.851 339.256 131.957 341.827 133.041 344.206C133.664 345.645 134.282 346.998 134.856 348.244C135.696 350.128 136.678 351.946 137.793 353.682C138.33 354.456 139.763 355.476 141.653 356.598C145.589 358.862 149.641 360.918 153.793 362.756C155.5 363.546 157.116 364.254 158.459 364.839C160.622 365.817 162.061 366.429 162.061 366.429Z" fill="#FFB27D"/>
<path d="M123.51 323.707C117.776 322.633 113.846 327.395 113.846 327.395C113.186 318.966 117.277 317.452 117.277 317.452C118.893 316.603 121.1 319.358 123.51 323.707Z" fill="#2B478B"/>
<path d="M124.095 493.993H104.659C104.659 493.993 104.192 491.03 105.196 488.785C106.173 486.638 107.693 485.644 107.344 483.035C108.092 483.882 109.034 484.535 110.09 484.939C111.145 485.343 112.283 485.485 113.406 485.354C113.749 485.891 115.628 488.898 116.777 489.725C118.034 490.638 123.704 490.315 124.095 493.993Z" fill="#233862"/>
<path d="M165.819 493.993H146.383C146.383 493.993 145.658 490.89 146.92 488.785C148.047 486.917 147.612 485.854 146.78 484.307C147.81 484.755 148.928 484.966 150.05 484.925C151.079 484.81 152.069 484.463 152.944 483.91C153.776 484.86 157.363 488.92 158.48 489.725C159.774 490.638 165.433 490.316 165.819 493.993Z" fill="#233862"/>
<path d="M140.982 305.36C140.982 305.36 141.159 306.391 143.666 306.391C143.666 306.391 145.814 306.391 145.814 305.274C144.247 304.714 142.529 304.745 140.982 305.36Z" fill="white"/>
<path d="M206.425 338.042C205.604 337.725 204.595 341.205 203.961 341.328C203.327 341.451 203.585 340.383 203.021 340.211C202.458 340.039 202.195 343.035 202.635 344.184C202.912 344.996 203.042 345.851 203.016 346.708C203.016 346.708 199.258 361.204 198.447 362.858C197.636 364.512 184.385 376.281 184.385 376.281L187.295 385.72C187.295 385.72 202.909 371.293 204.24 367.9C205.572 364.506 206.173 347.094 206.173 347.094C206.89 345.492 207.369 343.794 207.596 342.053C207.848 339.529 207.252 338.359 206.425 338.042Z" fill="#ED985F"/>
<path d="M165.9 375.261C165.9 375.261 156.692 363.347 152.241 359.669C152.241 359.669 146.126 344.587 145.632 343.594C145.608 343.55 145.577 343.51 145.54 343.476C145.365 342.562 145.35 341.624 145.498 340.705C145.766 339.341 144.902 336.077 144.306 336.372C143.71 336.667 144.198 337.811 143.473 337.79C142.749 337.768 140.961 334.117 140.112 334.622C139.264 335.127 138.824 336.544 139.575 339.298C140.134 341.105 140.944 342.823 141.981 344.404H141.943C141.943 344.404 144.187 359.062 146.555 363.406C148.923 367.749 156.273 382.337 161.46 382.879C166.646 383.422 165.9 375.261 165.9 375.261Z" fill="#ED985F"/>
<path d="M193.647 487.191C194.002 487.817 194.482 488.364 195.056 488.798C195.63 489.232 196.287 489.543 196.987 489.714C198.362 489.985 199.591 490.749 200.444 491.862C200.59 492.062 200.678 492.299 200.698 492.546C200.718 492.792 200.67 493.04 200.56 493.262C200.449 493.483 200.279 493.67 200.07 493.802C199.86 493.934 199.618 494.006 199.371 494.009H187.687C187.453 494.009 187.221 493.96 187.007 493.864C186.792 493.769 186.6 493.63 186.443 493.456C186.286 493.282 186.167 493.077 186.094 492.854C186.02 492.631 185.994 492.396 186.018 492.162C186.103 491.298 186.195 490.289 186.238 489.515C186.324 487.83 188.009 486.477 188.009 486.477L193.647 487.191Z" fill="#D3671E"/>
<path d="M193.926 487.701C193.926 487.701 191.129 489.354 186.41 488.356C186.41 488.356 178.356 467.755 177.878 458.063C177.878 457.671 177.878 457.301 177.878 456.952C178.039 447.824 169.626 424.093 171.892 419.228C174.157 414.364 192.509 421.414 192.509 421.414L192.874 437.956L193.926 487.701Z" fill="#35488B"/>
<path d="M192.831 437.977L177.857 458.085C177.857 457.693 177.857 457.322 177.857 456.973C178.018 447.846 169.604 424.114 171.87 419.25C174.136 414.386 192.487 421.435 192.487 421.435L192.831 437.977Z" fill="#2C3A64"/>
<path d="M163.51 487.191C163.865 487.817 164.344 488.364 164.919 488.798C165.493 489.232 166.15 489.543 166.849 489.714C168.225 489.985 169.454 490.749 170.307 491.862C170.453 492.062 170.54 492.299 170.561 492.546C170.581 492.792 170.533 493.04 170.422 493.262C170.312 493.483 170.142 493.67 169.932 493.802C169.723 493.934 169.481 494.006 169.233 494.009H157.55C157.316 494.009 157.084 493.96 156.87 493.864C156.655 493.769 156.463 493.63 156.306 493.456C156.149 493.282 156.03 493.077 155.956 492.854C155.883 492.631 155.857 492.396 155.88 492.162C155.966 491.298 156.058 490.289 156.1 489.515C156.186 487.83 157.872 486.477 157.872 486.477L163.51 487.191Z" fill="#D3671E"/>
<path d="M181.739 421.806C181.739 421.806 165.524 482.315 165.024 488.238C165.024 488.238 161.862 489.848 156.729 486.992C156.729 486.992 153.749 459.873 156.729 452.463C159.709 445.054 156.139 422.649 163.709 417.596C171.279 412.544 181.739 421.806 181.739 421.806Z" fill="#35488B"/>
<path d="M183.671 373.854L173.717 378.944L171.725 372.034C172.663 370.041 173.284 367.915 173.567 365.731C173.837 363.848 173.905 361.942 173.771 360.045L181.883 364.2C181.738 364.811 181.63 365.429 181.561 366.053C181.371 367.499 181.418 368.966 181.701 370.396C181.944 371.74 182.639 372.96 183.671 373.854Z" fill="#ED985F"/>
<path d="M191.946 382.627C191.999 381.795 196.987 378.429 196.987 378.429C198.061 372.136 194.029 367.604 194.029 367.604L188.026 371.9C187.438 371.894 186.861 372.066 186.372 372.394C185.379 372.125 182.415 372.362 182.415 372.362C182.458 373.79 182.077 375.132 179.564 375.46C176.225 375.894 173.234 373.613 171.726 372.061C170.177 372 168.631 372.222 167.162 372.716C166.367 372.331 165.504 372.105 164.622 372.05L159.704 367.631C159.704 367.631 153.948 369.253 153.041 377.94C153.041 377.94 159.484 382.858 159.973 386.745L160.15 388.217L160.773 393.414L161.879 402.568L158.593 420.796C158.565 420.954 158.551 421.114 158.55 421.274C158.55 421.877 158.753 422.462 159.126 422.935C159.499 423.408 160.02 423.743 160.606 423.884C160.606 423.884 160.891 423.932 161.411 424.002C164.891 424.49 179.017 426.149 190.088 423.169C191.29 422.838 192.339 422.098 193.055 421.077C193.771 420.056 194.11 418.818 194.013 417.575L191.672 388.168C191.672 388.168 191.892 383.454 191.946 382.627Z" fill="#BC3F3F"/>
<path d="M165.889 410.257C165.674 416.614 165.051 422.004 161.411 424.018C160.874 423.948 160.606 423.9 160.606 423.9C160.02 423.759 159.498 423.424 159.125 422.951C158.752 422.478 158.549 421.893 158.549 421.29C158.551 421.13 158.565 420.97 158.592 420.812L161.878 402.59L160.772 393.414L160.858 393.172C160.858 393.172 166.168 402.117 165.889 410.257Z" fill="#A02E2E"/>
<path d="M181.701 370.396C177.089 370.273 173.566 365.73 173.566 365.73L181.561 366.053C181.37 367.498 181.418 368.966 181.701 370.396V370.396Z" fill="#D68C5B"/>
<path d="M183.935 367.825C183.935 367.825 174.738 370.257 171.586 362.939C168.16 355.041 171.919 349.29 175.044 348.904C181.272 348.131 184.891 350.515 185.986 353.017C187.081 355.519 189.014 366.531 183.935 367.825Z" fill="#ED985F"/>
<path d="M180.316 363.707C180.316 363.707 180.702 364.657 183.129 364.125C183.129 364.125 185.164 363.674 184.933 362.606C183.311 362.396 181.669 362.788 180.316 363.707V363.707Z" fill="white"/>
<path d="M173.207 365.494C173.207 365.494 172.133 362.327 172.257 360.662C172.257 360.662 169.857 357.602 171.253 356.845C172.649 356.088 173.401 357.919 173.728 357.543C174.056 357.167 174.55 351.17 176.246 351.363C177.943 351.556 184.23 353.511 186.984 351.121C189.739 348.732 183.054 339.465 171.725 343.068C160.397 346.67 162.716 359.207 173.207 365.494Z" fill="#2C3A64"/>
<path d="M166.141 347.964C166.141 347.964 165.605 346.434 166.179 345.344C166.179 345.344 166.206 346.847 166.796 347.492C167.387 348.136 166.141 347.964 166.141 347.964Z" fill="#2C3A64"/>
<path d="M166.357 346.896C165.963 346.855 165.565 346.919 165.203 347.08C164.842 347.241 164.528 347.494 164.295 347.814C164.593 347.625 164.94 347.529 165.292 347.537C165.644 347.544 165.987 347.656 166.276 347.857L166.357 346.896Z" fill="#2C3A64"/>
<path d="M162.061 366.428C162.061 366.428 167.768 367.599 168.273 368.211C168.777 368.823 172.369 373.043 170.716 373.58C169.062 374.117 166.248 372.141 165.346 371.712C164.444 371.282 163.36 370.879 163.36 370.879L162.061 366.428Z" fill="#FFB27D"/>
<path d="M607.649 421.269H549.115V455.728H607.649V421.269Z" fill="#BC3F3F"/>
<path d="M618.172 411.61H527.203V417.806H618.172V411.61Z" fill="#161C48"/>
<path d="M542.919 417.806H534.962V493.172H542.919V417.806Z" fill="#161C48"/>
<path d="M542.924 422.321L534.967 427.094V417.806H542.924V422.321Z" fill="#F6F5FB"/>
<path d="M553.512 416.426H551.794V423.438H553.512V416.426Z" fill="#BC8D6D"/>
<path d="M604.534 416.426H602.816V423.438H604.534V416.426Z" fill="#BC8D6D"/>
<path d="M564.169 433.338C564.744 433.328 565.316 433.415 565.861 433.596C566.298 433.742 566.708 433.96 567.074 434.24C567.378 434.47 567.63 434.761 567.815 435.094C567.968 435.365 568.063 435.665 568.094 435.975C568.101 436.027 568.095 436.079 568.076 436.128C568.058 436.177 568.027 436.22 567.987 436.254C567.911 436.325 567.811 436.363 567.708 436.361H566.704C566.575 436.37 566.448 436.338 566.339 436.27C566.25 436.2 566.176 436.114 566.118 436.018C565.954 435.76 565.729 435.546 565.463 435.395C565.063 435.194 564.616 435.104 564.169 435.132C563.931 435.131 563.694 435.156 563.461 435.207C563.253 435.252 563.054 435.33 562.87 435.438C562.714 435.529 562.58 435.654 562.478 435.803C562.382 435.947 562.331 436.118 562.333 436.291C562.326 436.48 562.375 436.667 562.473 436.828C562.588 436.989 562.746 437.114 562.929 437.188C563.205 437.307 563.49 437.4 563.783 437.467L565.098 437.768C565.604 437.871 566.099 438.016 566.58 438.203C566.952 438.344 567.297 438.547 567.6 438.804C567.854 439.027 568.054 439.304 568.186 439.615C568.323 439.956 568.389 440.321 568.379 440.689C568.384 441.105 568.286 441.516 568.094 441.886C567.897 442.259 567.618 442.582 567.278 442.831C566.882 443.112 566.441 443.323 565.973 443.454C565.409 443.613 564.825 443.69 564.239 443.685C563.723 443.686 563.208 443.619 562.709 443.486C562.25 443.378 561.811 443.197 561.41 442.949C561.049 442.723 560.739 442.423 560.502 442.069C560.273 441.729 560.139 441.334 560.116 440.925C560.107 440.873 560.113 440.82 560.132 440.771C560.15 440.722 560.182 440.679 560.223 440.646C560.26 440.61 560.304 440.582 560.352 440.564C560.4 440.546 560.451 440.537 560.502 440.538H561.522C561.654 440.529 561.784 440.559 561.898 440.624C561.992 440.689 562.067 440.778 562.113 440.882C562.182 441.013 562.263 441.137 562.355 441.253C562.462 441.386 562.593 441.499 562.741 441.585C562.934 441.69 563.14 441.77 563.353 441.822C563.651 441.888 563.956 441.918 564.261 441.913C564.539 441.913 564.818 441.892 565.093 441.849C565.337 441.813 565.574 441.741 565.796 441.634C565.982 441.543 566.146 441.415 566.28 441.258C566.405 441.107 566.471 440.917 566.467 440.721C566.474 440.623 566.46 440.524 566.426 440.431C566.391 440.339 566.338 440.254 566.269 440.184C566.094 440.024 565.884 439.907 565.657 439.84C565.327 439.727 564.989 439.636 564.647 439.567C564.245 439.481 563.783 439.373 563.257 439.239C562.829 439.139 562.41 439.002 562.006 438.831C561.676 438.69 561.374 438.492 561.114 438.246C560.876 438.022 560.693 437.746 560.578 437.44C560.456 437.083 560.398 436.707 560.406 436.329C560.403 435.915 560.501 435.506 560.69 435.137C560.885 434.775 561.154 434.459 561.48 434.208C561.841 433.937 562.246 433.73 562.677 433.596C563.158 433.435 563.662 433.348 564.169 433.338Z" fill="white"/>
<path d="M569.673 437.22C569.696 436.705 569.799 436.196 569.979 435.712C570.148 435.249 570.413 434.829 570.757 434.477C571.125 434.112 571.566 433.831 572.051 433.65C572.636 433.429 573.257 433.323 573.882 433.338C574.502 433.326 575.119 433.428 575.702 433.639C576.186 433.821 576.626 434.105 576.991 434.471C577.334 434.824 577.602 435.242 577.78 435.701C577.964 436.188 578.071 436.7 578.097 437.22C578.097 437.403 578.097 437.602 578.097 437.822C578.097 438.042 578.097 438.273 578.097 438.503C578.097 438.734 578.097 438.965 578.097 439.185C578.097 439.406 578.097 439.604 578.097 439.787C578.069 440.304 577.964 440.814 577.785 441.301C577.616 441.761 577.351 442.18 577.007 442.53C576.638 442.895 576.195 443.175 575.708 443.352C574.523 443.76 573.236 443.76 572.051 443.352C571.565 443.175 571.124 442.895 570.757 442.53C570.413 442.18 570.148 441.761 569.979 441.301C569.799 440.815 569.696 440.304 569.673 439.787C569.673 439.604 569.673 439.406 569.673 439.185C569.673 438.965 569.673 438.74 569.673 438.503C569.673 438.267 569.673 438.042 569.673 437.822C569.673 437.602 569.662 437.403 569.673 437.22ZM576.159 437.295C576.165 437.001 576.109 436.708 575.995 436.436C575.881 436.164 575.711 435.919 575.497 435.716C575.282 435.514 575.028 435.359 574.75 435.261C574.472 435.163 574.176 435.124 573.882 435.148C573.296 435.112 572.719 435.305 572.271 435.685C572.059 435.895 571.89 436.146 571.776 436.423C571.662 436.7 571.604 436.996 571.606 437.295C571.584 437.653 571.573 438.056 571.573 438.503C571.573 438.949 571.573 439.352 571.606 439.717C571.602 440.016 571.66 440.313 571.774 440.59C571.888 440.867 572.058 441.118 572.271 441.328C572.73 441.689 573.298 441.886 573.882 441.886C574.466 441.886 575.034 441.689 575.493 441.328C575.707 441.118 575.876 440.867 575.99 440.59C576.105 440.313 576.162 440.016 576.159 439.717C576.159 439.352 576.191 438.949 576.191 438.503C576.191 438.058 576.18 437.655 576.159 437.295Z" fill="white"/>
<path d="M586.65 441.736C586.752 441.74 586.848 441.782 586.919 441.853C586.991 441.925 587.033 442.021 587.037 442.122V443.142C587.033 443.244 586.991 443.34 586.919 443.411C586.848 443.483 586.752 443.525 586.65 443.529H580.374C580.322 443.53 580.271 443.52 580.224 443.5C580.177 443.479 580.135 443.449 580.1 443.411C580.064 443.376 580.036 443.334 580.016 443.288C579.997 443.242 579.987 443.192 579.987 443.142V433.87C579.987 433.767 580.028 433.669 580.101 433.597C580.173 433.524 580.271 433.483 580.374 433.483H581.534C581.636 433.483 581.734 433.524 581.807 433.597C581.879 433.669 581.92 433.767 581.92 433.87V441.736H586.65Z" fill="white"/>
<path d="M592.336 433.484C592.961 433.47 593.584 433.564 594.178 433.763C594.665 433.929 595.111 434.201 595.482 434.557C595.838 434.908 596.111 435.334 596.282 435.803C596.476 436.32 596.59 436.863 596.621 437.414C596.659 438.129 596.659 438.846 596.621 439.561C596.589 440.112 596.475 440.655 596.282 441.172C596.109 441.639 595.838 442.064 595.488 442.418C595.124 442.774 594.686 443.046 594.205 443.212C593.627 443.408 593.021 443.502 592.411 443.492H588.798C588.696 443.49 588.598 443.449 588.526 443.377C588.454 443.305 588.413 443.207 588.411 443.105V433.87C588.41 433.819 588.42 433.769 588.439 433.721C588.458 433.674 588.487 433.632 588.524 433.596C588.56 433.56 588.602 433.532 588.65 433.512C588.697 433.493 588.747 433.483 588.798 433.484H592.336ZM594.688 437.435C594.669 437.145 594.61 436.86 594.511 436.587C594.41 436.328 594.259 436.093 594.065 435.894C593.852 435.693 593.599 435.538 593.324 435.438C592.979 435.32 592.615 435.263 592.25 435.271H590.328V441.714H592.32C592.667 441.722 593.012 441.667 593.34 441.553C593.608 441.453 593.851 441.298 594.054 441.097C594.25 440.903 594.4 440.668 594.494 440.41C594.594 440.133 594.653 439.844 594.672 439.551C594.714 438.848 594.72 438.144 594.688 437.441V437.435Z" fill="white"/>
<path d="M257.094 493.279C257.094 493.279 264.181 478.187 280.122 477.983C296.063 477.779 304.863 459.191 319.73 460.066C334.597 460.941 336.375 475.529 347 477.983C357.626 480.436 386.855 475.153 388.627 494.181L257.094 493.279Z" fill="#82B378"/>
<path d="M291.413 477.983C291.413 477.779 279.897 456.458 275.693 460.034C271.488 463.609 291.413 477.983 291.413 477.983Z" fill="#82B378"/>
<path d="M287.204 478.664C287.204 478.664 276.906 472.34 272.036 473.902C267.166 475.464 287.204 478.664 287.204 478.664Z" fill="#82B378"/>
<path d="M312.337 465.709C312.45 465.048 312.117 448.329 306.581 450.434C301.046 452.538 312.337 465.709 312.337 465.709Z" fill="#82B378"/>
<path d="M315.661 462.611C315.881 462.278 319.204 453.312 316.767 453.312C314.329 453.312 315.881 462.278 315.881 462.278L315.661 462.611Z" fill="#82B378"/>
<path d="M363.875 369.79L363.472 369.655C362.791 369.409 361.405 367.621 361.405 367.621L358.796 370.434L360.589 372.329C361.609 374.724 361.631 374.767 364.723 375.234C367.408 375.637 366.968 377.344 368.831 377.817C370.694 378.289 370.442 375.669 370.442 375.669C369.722 371.486 368.933 370.939 367.139 370.568C367.735 370.353 368.133 370.031 368.009 369.65C367.886 369.269 366.978 369.677 365.148 369.451C364.705 369.479 364.273 369.594 363.875 369.79Z" fill="#ED985F"/>
<path d="M361.824 371.304C362.474 369.924 362.962 368.474 363.279 366.982C363.279 366.982 345.668 355.401 344.127 354.096C342.586 352.791 326.576 329.269 326.576 329.269L307.811 330.772C307.811 330.772 332.831 359.647 336.804 362.847C343.376 368.125 359.789 373.849 359.789 373.849C360.627 373.142 361.319 372.277 361.824 371.304V371.304Z" fill="#912F2F"/>
<path d="M348.831 493.977H329.577C328.648 492.844 328.992 488.667 329.131 487.303C329.131 487.03 329.18 486.868 329.18 486.868C329.18 486.868 335.762 481.607 336.664 485.639C336.691 485.762 336.729 485.886 336.761 486.009C337.905 489.768 343.011 491.497 345.964 491.969C347.859 492.281 348.568 493.279 348.831 493.977Z" fill="#233862"/>
<path d="M323.317 493.977H304.037C303.108 492.844 303.451 488.667 303.591 487.303C303.623 487.03 303.639 486.868 303.639 486.868C303.639 486.868 310.222 481.607 311.129 485.639C311.158 485.764 311.19 485.888 311.226 486.009C312.364 489.768 317.475 491.497 320.423 491.969C322.345 492.281 323.054 493.279 323.317 493.977Z" fill="#233862"/>
<path d="M340.798 386.783C340.798 386.783 340.798 398.536 340.836 413.833C340.884 434.235 339.467 459.212 339.279 463.948C338.946 472.179 337.631 485.338 337.631 485.338C337.631 485.338 334.506 488.469 328.251 487.148C328.251 487.148 322.678 468.356 321.088 448.49C321.062 448.163 321.035 447.835 321.013 447.508C319.531 427.266 317.255 384.651 317.255 384.651L340.798 386.783Z" fill="#2B478B"/>
<path d="M340.798 386.783C340.798 386.783 340.798 398.085 340.836 413.833L322.748 462.101C322.748 461.779 321.035 447.824 321.013 447.497C319.531 427.255 317.255 384.641 317.255 384.641L340.798 386.783Z" fill="#233862"/>
<path d="M331.338 382.777C331.338 382.777 328.906 415.158 325.475 442.224C321.105 465.848 313.362 487.588 313.362 487.588C313.362 487.588 303.961 488.474 302.941 486.815C302.941 486.815 301.062 457.446 305.325 442.047C307.247 435.099 304.095 416.248 303.413 406.235C302.942 397.964 303.59 389.667 305.341 381.569L331.338 382.777Z" fill="#2B478B"/>
<path d="M330.737 322.005C323.698 324.222 311.516 318.246 311.516 318.246C311.516 318.246 318.007 313.371 317.663 303.213L323.134 307.615L326.834 310.595C326.782 312.212 326.642 313.825 326.415 315.427C326.308 316.238 326.173 317.14 326.007 318.112C327.808 319.109 329.412 320.429 330.737 322.005Z" fill="#ED985F"/>
<path d="M326.807 310.595C326.755 312.212 326.615 313.825 326.388 315.427C322.291 314.724 317.642 308.104 317.642 308.104C319.416 307.55 321.289 307.384 323.134 307.615L326.807 310.595Z" fill="#D68C5B"/>
<path d="M328.959 310.429C328.959 310.429 317.33 312.356 316.24 305.097C315.15 297.838 312.911 293.194 320.288 291.674C327.665 290.155 329.528 292.689 330.49 295.025C331.451 297.36 331.955 309.736 328.959 310.429Z" fill="#ED985F"/>
<path d="M341.207 387.39C341.002 387.57 340.738 387.669 340.466 387.669C337.824 387.637 329.47 389.119 322.946 388.447C317.448 387.91 312.578 386.3 307.376 383.948C306.683 383.637 305.083 382.783 305.121 382.01C305.158 381.237 305.228 379.927 305.336 378.375C306.017 369.931 306.147 361.451 305.722 352.99C305.609 350.998 305.55 349.022 305.54 347.084C305.486 332.587 308.364 319.809 314.13 315.492C314.624 315.138 317.658 316.619 320.444 317.994C322.793 319.149 325.464 319.472 328.02 318.912L330.452 321.06C333.416 323.809 336.659 327.546 338.071 333.221C339.268 338.053 339.972 346.762 340.364 355.771C340.541 359.862 340.68 363.991 340.718 367.9V368.045C340.75 368.431 340.75 368.856 340.75 369.242C340.879 379.293 341.389 387.245 341.207 387.39Z" fill="#BC3F3F"/>
<path d="M316.229 304.399C316.229 304.399 317.421 304.201 317.228 302.558C317.035 300.915 317.04 298.762 318.377 299.164C319.714 299.567 319.778 300.636 320.326 300.007C320.874 299.379 320.89 296.754 324.863 296.566C328.836 296.378 330.457 297.768 332.304 296.958C334.151 296.147 334.253 293.344 334.253 293.344C333.954 293.905 333.494 294.363 332.933 294.66C332.933 294.66 336.02 290.44 332.444 287.546C328.868 284.652 325.233 286.547 323.166 286.676C318.608 286.95 315.649 287.213 314.178 290.214C312.707 293.215 313.308 301.516 316.229 304.399Z" fill="#233862"/>
<path d="M421.029 393.902L423.858 393.5C424.055 393.451 424.254 393.413 424.454 393.387L429.609 392.651L429.265 390.23C429.19 389.692 429.33 389.146 429.656 388.711C429.982 388.277 430.467 387.989 431.005 387.91L432.352 387.723L437.764 386.949L438.741 386.81C439.008 386.772 439.279 386.787 439.539 386.854C439.799 386.921 440.044 387.038 440.259 387.2C440.474 387.361 440.655 387.564 440.792 387.795C440.928 388.027 441.018 388.283 441.055 388.549L441.404 390.971L450.301 389.704C451.936 389.467 453.597 389.889 454.921 390.877C456.245 391.864 457.122 393.337 457.361 394.971L458.972 406.321C459.199 407.951 458.772 409.605 457.785 410.922C456.797 412.239 455.328 413.111 453.7 413.349L427.831 417.038C427.385 417.1 426.933 417.115 426.484 417.081L424.374 417.381C422.753 417.601 421.11 417.172 419.803 416.188C418.497 415.204 417.631 413.744 417.394 412.125L415.783 400.904C415.556 399.281 415.98 397.633 416.963 396.322C417.945 395.01 419.407 394.14 421.029 393.902V393.902ZM439.821 388.727C439.797 388.565 439.722 388.414 439.607 388.298C439.492 388.181 439.343 388.104 439.182 388.077C439.105 388.066 439.027 388.066 438.951 388.077L437.802 388.238L433.544 388.85L431.219 389.178C431.019 389.207 430.838 389.314 430.716 389.476C430.595 389.638 430.542 389.841 430.57 390.042L430.913 392.463L440.164 391.148L439.821 388.727Z" fill="#233862"/>
<path d="M305.325 378.38C306.007 369.938 306.136 361.46 305.712 353C305.601 351.003 305.54 349.034 305.529 347.094C307.94 341.253 309.91 337.017 309.91 337.017H315.977C315.977 337.017 320.45 367.411 305.325 378.38Z" fill="#912F2F"/>
<path d="M292.476 382.396C292.476 382.262 292.476 382.117 292.503 381.972C292.557 381.247 293.915 379.438 293.915 379.438L290.506 377.666L289.158 379.9C287.118 381.51 287.08 381.548 287.451 384.657C287.773 387.341 286.012 387.379 286.055 389.301C286.098 391.223 288.573 390.283 288.573 390.283C292.412 388.479 292.734 387.599 292.616 385.741C292.976 386.278 293.384 386.563 293.733 386.337C294.082 386.112 293.427 385.349 293.164 383.529C293.012 383.11 292.778 382.725 292.476 382.396V382.396Z" fill="#ED985F"/>
<path d="M290.458 380.829C291.963 381.086 293.492 381.171 295.016 381.081C295.016 381.081 301.502 361.033 302.34 359.196C303.177 357.36 321.62 335.69 321.62 335.69L313.937 316.464C313.937 316.464 293.985 349.784 291.961 354.466C288.616 362.203 287.451 379.551 287.451 379.551C288.36 380.169 289.382 380.603 290.458 380.829V380.829Z" fill="#BC3F3F"/>
<path d="M432.664 383.868C432.664 383.733 432.697 383.588 432.707 383.443C432.777 382.724 431.736 380.711 431.736 380.711L435.392 379.535L436.353 381.956C438.093 383.894 438.152 384.297 438.399 387.008C438.646 389.72 438.13 389.312 437.368 389.623C436.56 389.949 435.722 390.195 434.866 390.359C434.09 390.511 433.287 390.444 432.546 390.166C431.58 389.79 431.472 389.285 431.591 388.603C431.604 388.513 431.596 388.422 431.569 388.335C431.542 388.248 431.496 388.169 431.434 388.102C431.373 388.036 431.297 387.984 431.212 387.951C431.128 387.918 431.037 387.904 430.946 387.91C430.871 387.91 430.798 387.881 430.742 387.83C430.474 387.583 431.231 386.622 431.816 384.866C432.029 384.48 432.317 384.14 432.664 383.868V383.868Z" fill="#FFB27D"/>
<path d="M434.919 382.676C433.392 382.673 431.872 382.493 430.387 382.139C430.387 382.139 427.321 361.29 426.806 359.347C426.291 357.403 411.724 332.958 411.724 332.958L424.98 322.499C424.98 322.499 436.626 351.454 437.839 356.41C439.853 364.598 438.113 381.897 438.113 381.897C437.11 382.365 436.025 382.63 434.919 382.676V382.676Z" fill="#233862"/>
<path d="M439.682 493.977H448.111C449.185 493.397 450.119 492.082 450.415 490.112C450.828 487.395 453.872 485.918 454.533 483.669C455.193 481.419 451.816 478.299 451.816 478.299L451.252 477.575L450.662 476.818L445.067 478.133C445.067 478.133 444.927 479.47 444.847 481.167C444.78 482.46 444.78 483.755 444.847 485.048C445.013 488.007 444.02 491.196 441.389 491.776C439.413 492.248 439.504 493.403 439.682 493.977Z" fill="#233862"/>
<path d="M390.785 493.977H410.06C410.989 492.844 410.651 488.667 410.506 487.303C410.506 487.03 410.458 486.868 410.458 486.868C410.458 486.868 403.875 481.607 402.973 485.639C402.946 485.762 402.909 485.886 402.876 486.009C401.733 489.768 396.627 491.497 393.674 491.969C391.73 492.281 391.021 493.279 390.785 493.977Z" fill="#233862"/>
<path d="M394.431 386.364C394.431 386.364 395.429 398.837 396.578 413.833C398.189 434.198 400.095 459.212 400.283 463.948C400.616 472.179 401.931 485.338 401.931 485.338C401.931 485.338 405.056 488.469 411.311 487.148C411.311 487.148 416.884 468.356 418.473 448.49C418.5 448.163 418.527 447.835 418.549 447.508C420.031 427.266 422.307 384.651 422.307 384.651L394.431 386.364Z" fill="#F99746"/>
<path d="M394.431 386.364C394.431 386.364 395.429 398.837 396.578 413.833L418.473 448.479C418.5 448.152 418.527 447.824 418.549 447.497C420.031 427.255 422.307 384.641 422.307 384.641L394.431 386.364Z" fill="#ED7D2B"/>
<path d="M398.994 387.846C398.994 387.846 417.013 433.016 428.863 454.241C440.712 475.465 444.433 481.392 444.433 481.392C444.433 481.392 451.219 478.675 451.837 476.823C451.837 476.823 447.305 435.846 439.37 425.859C434.887 420.211 429.62 403.272 429.378 397.349C429.136 391.427 427.767 379.701 427.767 379.701L398.994 387.846Z" fill="#F99746"/>
<path d="M403.483 322.005C410.522 324.222 422.705 318.246 422.705 318.246C422.705 318.246 416.214 313.371 416.552 303.213L411.108 307.605L407.414 310.584C407.462 312.202 407.602 313.815 407.832 315.417C407.94 316.227 408.069 317.129 408.235 318.101C406.425 319.1 404.815 320.423 403.483 322.005V322.005Z" fill="#FFB27D"/>
<path d="M407.429 310.595C407.478 312.212 407.617 313.826 407.848 315.427C411.945 314.724 416.589 308.104 416.589 308.104C414.823 307.553 412.959 307.387 411.123 307.615L407.429 310.595Z" fill="#ED975D"/>
<path d="M405.282 310.429C405.282 310.429 416.911 312.356 418.001 305.097C419.091 297.838 421.33 293.194 413.947 291.674C406.565 290.155 404.707 292.689 403.746 295.025C402.785 297.36 402.259 309.736 405.282 310.429Z" fill="#FFB27D"/>
<path d="M393.652 387.406C393.858 387.584 394.121 387.683 394.393 387.685C397.04 387.653 404.75 389.119 411.273 388.447C416.771 387.91 421.641 386.3 426.844 383.948C427.542 383.637 429.136 382.783 429.099 382.01C429.061 381.237 428.992 379.927 428.89 378.375C428.208 369.931 428.078 361.451 428.503 352.99C428.616 350.998 428.675 349.022 428.68 347.084C428.734 332.587 425.856 319.809 420.09 315.492C419.596 315.138 416.567 316.619 413.781 317.994C411.43 319.149 408.758 319.472 406.2 318.912L403.767 321.06C400.804 323.809 397.561 327.546 396.154 333.221C394.951 338.053 394.248 346.762 393.861 355.771C393.684 359.862 393.545 363.991 393.507 367.9V368.045C393.475 368.431 393.475 368.856 393.475 369.242C393.335 379.293 393.469 387.261 393.652 387.406Z" fill="#2B478B"/>
<path d="M370.34 369.79L370.743 369.655C371.43 369.409 372.815 367.621 372.815 367.621L375.425 370.434L373.632 372.329C372.606 374.724 372.59 374.767 369.497 375.234C366.813 375.637 367.253 377.344 365.385 377.817C363.516 378.289 363.774 375.669 363.774 375.669C364.493 371.486 365.283 370.939 367.081 370.568C366.485 370.353 366.088 370.031 366.211 369.65C366.335 369.269 367.242 369.677 369.068 369.451C369.51 369.478 369.943 369.593 370.34 369.79V369.79Z" fill="#FFB27D"/>
<path d="M372.39 371.304C371.743 369.923 371.254 368.473 370.935 366.982C370.935 366.982 388.546 355.401 390.092 354.096C391.638 352.791 407.644 329.269 407.644 329.269L426.403 330.772C426.403 330.772 401.383 359.647 397.41 362.847C390.838 368.125 374.42 373.849 374.42 373.849C373.583 373.141 372.894 372.277 372.39 371.304V371.304Z" fill="#2B478B"/>
<path d="M417.99 304.399C417.99 304.399 416.793 304.201 416.986 302.558C417.179 300.915 417.179 298.762 415.842 299.164C414.505 299.567 414.436 300.636 413.888 300.007C413.34 299.379 413.351 296.754 409.351 296.566C405.351 296.378 403.762 297.768 401.909 296.958C400.057 296.147 399.966 293.344 399.966 293.344C400.265 293.905 400.725 294.363 401.287 294.66C401.287 294.66 398.199 290.44 401.77 287.546C405.34 284.652 408.986 286.547 411.053 286.676C415.606 286.95 418.57 287.213 420.036 290.214C421.501 293.215 420.911 301.516 417.99 304.399Z" fill="#2B478B"/>
<path d="M393.55 365.435C393.55 365.435 408.879 360.362 414.291 354.128C419.778 347.798 429.701 336.222 429.701 336.222L429.604 335.835C428.83 332.678 427.752 329.603 426.382 326.654V326.654C426.382 326.654 425.046 334.606 420.927 340.077L416.809 345.57C416.809 345.57 410.023 357.231 393.55 365.435Z" fill="#233862"/>
<path d="M630.049 493.387H9.40057C8.94392 493.387 8.57373 493.756 8.57373 494.211C8.57373 494.666 8.94392 495.035 9.40057 495.035H630.049C630.505 495.035 630.875 494.666 630.875 494.211C630.875 493.756 630.505 493.387 630.049 493.387Z" fill="#2E3552"/>
<path d="M60.2675 494.514C59.634 494.482 59.0058 494.423 58.3561 494.369C57.1159 494.251 55.8487 494.106 54.544 493.924C52.0786 493.585 49.5958 493.388 47.1078 493.333C46.4635 493.333 45.8246 493.301 45.1642 493.333C44.8206 493.333 44.4716 493.333 44.128 493.333C31.6716 493.66 -1.05313 496.468 0.0260642 477.558C1.40056 453.306 25.6528 463.599 27.2206 453.682C29.0837 441.993 51.838 429.049 61.4165 447.744C70.6943 465.854 75.8755 451.663 87.2151 457.677C103.602 466.364 99.6875 497.215 60.2675 494.514Z" fill="#82B378"/>
<path d="M33.6903 476.919C33.6903 476.919 8.71855 479.872 9.2662 482.289C9.81385 484.705 33.4541 478.246 33.4541 478.246L33.6903 476.919Z" fill="#24555E"/>
<path d="M44.5788 483.615C44.5788 483.615 17.7064 464.823 16.6594 465.623C15.6124 466.423 43.2097 484.952 43.2097 484.952L44.5788 483.615Z" fill="#24555E"/>
<path d="M47.1076 493.333C46.4633 493.333 45.8244 493.301 45.164 493.333C44.7559 491.819 43.8807 488.646 42.8284 484.742C42.5868 483.83 42.3291 482.879 42.066 481.891C38.9788 470.342 35.011 454.906 35.8432 454.997C36.4177 455.062 38.6512 462.444 40.9975 470.793C41.164 471.33 41.3251 471.932 41.4808 472.506C42.5546 476.265 43.5962 480.168 44.5197 483.599L44.5465 483.679C45.7224 488.055 46.6834 491.668 47.1076 493.333Z" fill="#24555E"/>
<path d="M45.8198 465.977C45.4332 466.584 45.0359 467.18 44.66 467.754C42.8507 470.509 41.3419 472.694 41.3419 472.694L40.3755 471.819C40.3755 471.819 42.0721 468.919 44.1339 465.65C44.5204 465.016 44.9124 464.383 45.3205 463.749C47.8332 459.781 50.4372 455.985 50.8023 456.651C51.1674 457.317 48.4399 461.913 45.8198 465.977Z" fill="#24555E"/>
<path d="M61.8623 484.979C61.8623 484.979 82.3723 473.865 83.5965 475.62C84.8206 477.376 62.9093 485.639 62.9093 485.639L61.8623 484.979Z" fill="#24555E"/>
<path d="M63.4517 484.152L63.0115 485.628C61.7336 489.891 60.5739 493.575 60.2678 494.53C59.6343 494.498 59.0061 494.439 58.3564 494.385C58.8236 492.775 61.1806 484.791 63.339 478.278C63.543 477.655 63.7524 477.043 63.9403 476.453C65.3041 472.463 66.4853 469.408 66.9417 469.403C67.6826 469.344 65.5188 477.172 63.4517 484.152Z" fill="#24555E"/>
<path d="M76.0039 478.133C76.0039 478.133 76.369 468.281 77.3462 468.017C78.3234 467.754 77.62 477.44 77.62 477.44L76.0039 478.133Z" fill="#24555E"/>
<path d="M63.9887 479.073C63.9887 479.073 55.3283 468.195 55.8115 467.261C56.2947 466.326 64.5632 477.247 64.5632 477.247L63.9887 479.073Z" fill="#24555E"/>
<path d="M638.199 493.44C637.662 493.408 637.072 493.36 636.492 493.311C635.379 493.204 634.239 493.07 633.072 492.909C630.861 492.604 628.634 492.425 626.403 492.372C625.823 492.372 625.254 492.345 624.664 492.372C624.352 492.372 624.041 492.372 623.729 492.372C612.567 492.667 583.225 495.185 584.191 478.23C585.426 456.49 607.166 465.698 608.572 456.823C610.242 446.348 630.639 434.74 639.23 451.497C647.547 467.733 652.197 455.019 662.36 460.404C677.05 468.2 673.544 495.862 638.199 493.44Z" fill="#82B378"/>
<path d="M614.376 477.66C614.376 477.66 591.981 480.313 592.475 482.493C592.969 484.672 614.161 478.82 614.161 478.82L614.376 477.66Z" fill="#24555E"/>
<path d="M624.137 483.674C624.137 483.674 600.046 466.809 599.107 467.566C598.167 468.324 622.908 484.909 622.908 484.909L624.137 483.674Z" fill="#24555E"/>
<path d="M626.403 492.377C625.823 492.377 625.254 492.35 624.663 492.377C624.293 491.024 623.509 488.173 622.569 484.667L621.882 482.117C619.117 471.76 615.557 457.918 616.304 458.004C616.841 458.058 618.822 464.678 620.927 472.162C621.072 472.667 621.216 473.183 621.356 473.698C622.306 477.086 623.257 480.57 624.084 483.642V483.717C625.163 487.647 626.022 490.906 626.403 492.377Z" fill="#24555E"/>
<path d="M625.248 467.851C624.899 468.388 624.545 468.925 624.207 469.462C622.596 471.932 621.232 473.892 621.232 473.892L620.362 473.108C620.362 473.108 621.887 470.509 623.718 467.572C624.062 467.008 624.416 466.439 624.792 465.87C627.041 462.316 629.377 458.89 629.705 459.508C630.032 460.125 627.6 464.206 625.248 467.851Z" fill="#24555E"/>
<path d="M639.633 484.887C639.633 484.887 658.017 474.922 659.117 476.501C660.218 478.079 640.567 485.483 640.567 485.483L639.633 484.887Z" fill="#24555E"/>
<path d="M641.055 484.152L640.664 485.478C639.515 489.301 638.478 492.603 638.199 493.462C637.662 493.43 637.072 493.381 636.492 493.333C636.905 491.899 639.015 484.742 640.953 478.879C641.136 478.342 641.324 477.773 641.49 477.269C642.709 473.693 643.772 470.955 644.175 470.944C644.851 470.874 642.913 477.881 641.055 484.152Z" fill="#24555E"/>
<path d="M652.309 478.75C652.309 478.75 652.637 469.918 653.512 469.682C654.387 469.446 653.759 478.133 653.759 478.133L652.309 478.75Z" fill="#24555E"/>
<path d="M641.523 479.593C641.523 479.593 633.754 469.843 634.188 468.995C634.623 468.146 642.06 477.945 642.06 477.945L641.523 479.593Z" fill="#24555E"/>
</svg>
